<svg width="58" height="53" viewBox="0 0 58 53" fill="none" xmlns="http://www.w3.org/2000/svg">
<path d="M42.3 17.7L42.9894 17.4045C42.8712 17.1288 42.6 16.95 42.3 16.95V17.7ZM56.3 43.5999V44.3499C56.7142 44.3499 57.05 44.0142 57.05 43.5999H56.3ZM48.6 32.4L47.9106 32.6954C48.0288 32.9712 48.3 33.15 48.6 33.15V32.4ZM52.1 40.7999H51.35C51.35 41.2142 51.6858 41.5499 52.1 41.5499V40.7999ZM52.1 37.2999V36.5499C51.6858 36.5499 51.35 36.8857 51.35 37.2999H52.1ZM31.8 21.2V20.45C31.3858 20.45 31.05 20.7857 31.05 21.2H31.8ZM31.8 30.3H31.05C31.05 30.7142 31.3858 31.05 31.8 31.05V30.3ZM47.7 30.3L48.3894 30.0045L47.7 30.3ZM36.05 24.7C36.05 24.2857 35.7142 23.95 35.3 23.95C34.8858 23.95 34.55 24.2857 34.55 24.7H36.05ZM35.3 27.5H34.55C34.55 27.9142 34.8858 28.25 35.3 28.25V27.5ZM38.8 28.25C39.2142 28.25 39.55 27.9142 39.55 27.5C39.55 27.0857 39.2142 26.75 38.8 26.75V28.25ZM28.3 21.2H29.05C29.05 20.7857 28.7142 20.45 28.3 20.45V21.2ZM5.9 21.2V20.45C5.48578 20.45 5.15 20.7857 5.15 21.2H5.9ZM5.9 35.8999H5.15C5.15 36.3142 5.48578 36.6499 5.9 36.6499V35.8999ZM28.3 35.8999V36.6499C28.7142 36.6499 29.05 36.3142 29.05 35.8999H28.3ZM9.4 24H8.65C8.65 24.4142 8.98578 24.75 9.4 24.75V24ZM13.6 24V24.75C14.0142 24.75 14.35 24.4142 14.35 24H13.6ZM19.9 24H19.15C19.15 24.4142 19.4858 24.75 19.9 24.75V24ZM24.1 24V24.75C24.5142 24.75 24.85 24.4142 24.85 24H24.1ZM9.4 28.15C8.98578 28.15 8.65 28.4857 8.65 28.9C8.65 29.3142 8.98578 29.65 9.4 29.65V28.15ZM13.6 29.65C14.0142 29.65 14.35 29.3142 14.35 28.9C14.35 28.4857 14.0142 28.15 13.6 28.15V29.65ZM19.9 28.15C19.4858 28.15 19.15 28.4857 19.15 28.9C19.15 29.3142 19.4858 29.65 19.9 29.65V28.15ZM24.1 29.65C24.5142 29.65 24.85 29.3142 24.85 28.9C24.85 28.4857 24.5142 28.15 24.1 28.15V29.65ZM17.5 30.3C17.5 29.8857 17.1642 29.55 16.75 29.55C16.3358 29.55 16 29.8857 16 30.3H17.5ZM40.2 35.1499C39.7858 35.1499 39.45 35.4857 39.45 35.8999C39.45 36.3142 39.7858 36.6499 40.2 36.6499V35.1499ZM43 36.6499C43.4142 36.6499 43.75 36.3142 43.75 35.8999C43.75 35.4857 43.4142 35.1499 43 35.1499V36.6499ZM8 5.04997C7.58578 5.04997 7.25 5.38576 7.25 5.79997C7.25 6.21419 7.58578 6.54997 8 6.54997V5.04997ZM35.3 6.54997C35.7142 6.54997 36.05 6.21419 36.05 5.79997C36.05 5.38576 35.7142 5.04997 35.3 5.04997V6.54997ZM9.4 8.54997C8.98578 8.54997 8.65 8.88576 8.65 9.29997C8.65 9.71418 8.98578 10.05 9.4 10.05V8.54997ZM33.9 10.05C34.3142 10.05 34.65 9.71418 34.65 9.29997C34.65 8.88576 34.3142 8.54997 33.9 8.54997V10.05ZM1.7 50.5499C1.28578 50.5499 0.949997 50.8857 0.949997 51.2999C0.949997 51.7141 1.28578 52.0499 1.7 52.0499V50.5499ZM56.3 52.0499C56.7142 52.0499 57.05 51.7141 57.05 51.2999C57.05 50.8857 56.7142 50.5499 56.3 50.5499V52.0499ZM5.2 52.0499C5.61421 52.0499 5.95 51.7141 5.95 51.2999C5.95 50.8857 5.61421 50.5499 5.2 50.5499V52.0499ZM38.1 52.0499C38.5142 52.0499 38.85 51.7141 38.85 51.2999C38.85 50.8857 38.5142 50.5499 38.1 50.5499V52.0499ZM0.949997 19.7V41.5999H2.45V19.7H0.949997ZM3.7 44.3499H6.6V42.8499H3.7V44.3499ZM51.4 31.65H48.6V33.15H51.4V31.65ZM57.05 43.5999V40.7999H55.55V43.5999H57.05ZM56.3 40.0499H52.1V41.5499H56.3V40.0499ZM52.85 40.7999V37.2999H51.35V40.7999H52.85ZM57.05 40.7999V37.2999H55.55V40.7999H57.05ZM52.1 38.0499H56.3V36.5499H52.1V38.0499ZM44.4894 20.9045L42.9894 17.4045L41.6106 17.9954L43.1106 21.4954L44.4894 20.9045ZM43.8 20.45H31.8V21.95H43.8V20.45ZM31.05 21.2V30.3H32.55V21.2H31.05ZM49.2894 32.1045L48.3894 30.0045L47.0106 30.5954L47.9106 32.6954L49.2894 32.1045ZM48.3894 30.0045L44.4894 20.9045L43.1106 21.4954L47.0106 30.5954L48.3894 30.0045ZM31.8 31.05H47.7V29.55H31.8V31.05ZM34.55 24.7V27.5H36.05V24.7H34.55ZM35.3 28.25H38.8V26.75H35.3V28.25ZM5.9 36.6499H28.3V35.1499H5.9V36.6499ZM5.15 21.2V32.4H6.65V21.2H5.15ZM5.15 32.4V35.8999H6.65V32.4H5.15ZM29.05 35.8999V32.4H27.55V35.8999H29.05ZM29.05 32.4V21.2H27.55V32.4H29.05ZM9.4 20.45H5.9V21.95H9.4V20.45ZM8.65 21.2V24H10.15V21.2H8.65ZM9.4 24.75H13.6V23.25H9.4V24.75ZM13.6 20.45H9.4V21.95H13.6V20.45ZM14.35 24V21.2H12.85V24H14.35ZM19.9 20.45H13.6V21.95H19.9V20.45ZM19.15 21.2V24H20.65V21.2H19.15ZM19.9 24.75H24.1V23.25H19.9V24.75ZM28.3 20.45H24.1V21.95H28.3V20.45ZM24.1 20.45H19.9V21.95H24.1V20.45ZM24.85 24V21.2H23.35V24H24.85ZM9.4 29.65H11.5V28.15H9.4V29.65ZM11.5 29.65H13.6V28.15H11.5V29.65ZM5.9 33.15H11.5V31.65H5.9V33.15ZM10.75 28.9V32.4H12.25V28.9H10.75ZM22 33.15H28.3V31.65H22V33.15ZM22.75 32.4V28.9H21.25V32.4H22.75ZM22 28.15H19.9V29.65H22V28.15ZM22 29.65H24.1V28.15H22V29.65ZM11.5 33.15H16.75V31.65H11.5V33.15ZM16.75 33.15H22V31.65H16.75V33.15ZM17.5 32.4V30.3H16V32.4H17.5ZM40.2 36.6499H43V35.1499H40.2V36.6499ZM8.7 16.95H3.7V18.45H8.7V16.95ZM9.45 17.7V13.5H7.95V17.7H9.45ZM8.7 12.75H5.8V14.25H8.7V12.75ZM4.55 11.5V3.59998H3.05V11.5H4.55ZM5.8 2.34998H37.5V0.849976H5.8V2.34998ZM38.75 3.59998V11.5H40.25V3.59998H38.75ZM37.5 12.75H34.6V14.25H37.5V12.75ZM42.3 16.95H34.6V18.45H42.3V16.95ZM33.85 13.5V17.7H35.35V13.5H33.85ZM12.2 16.95H8.7V18.45H12.2V16.95ZM12.95 17.7V13.5H11.45V17.7H12.95ZM12.2 14.25H31.1V12.75H12.2V14.25ZM34.6 16.95H31.1V18.45H34.6V16.95ZM31.1 16.95H12.2V18.45H31.1V16.95ZM30.35 13.5V17.7H31.85V13.5H30.35ZM8.7 14.25H12.2V12.75H8.7V14.25ZM31.1 14.25H34.6V12.75H31.1V14.25ZM8 6.54997H35.3V5.04997H8V6.54997ZM9.4 10.05H33.9V8.54997H9.4V10.05ZM17.45 44.3499H39.85V42.8499H17.45V44.3499ZM50.35 44.3499H56.3V42.8499H50.35V44.3499ZM1.7 52.0499H5.2V50.5499H1.7V52.0499ZM45.1 52.0499H56.3V50.5499H45.1V52.0499ZM12.2 52.0499H38.1V50.5499H12.2V52.0499ZM37.5 2.34998C38.1903 2.34998 38.75 2.90962 38.75 3.59998H40.25C40.25 2.08119 39.0188 0.849976 37.5 0.849976V2.34998ZM38.75 11.5C38.75 12.1903 38.1904 12.75 37.5 12.75V14.25C39.0188 14.25 40.25 13.0187 40.25 11.5H38.75ZM51.4 33.15C53.692 33.15 55.55 35.008 55.55 37.2999H57.05C57.05 34.1795 54.5204 31.65 51.4 31.65V33.15ZM4.55 3.59998C4.55 2.90962 5.10964 2.34998 5.8 2.34998V0.849976C4.28121 0.849976 3.05 2.08119 3.05 3.59998H4.55ZM0.949997 41.5999C0.949997 43.1187 2.18121 44.3499 3.7 44.3499V42.8499C3.00964 42.8499 2.45 42.2903 2.45 41.5999H0.949997ZM5.8 12.75C5.10964 12.75 4.55 12.1903 4.55 11.5H3.05C3.05 13.0188 4.28121 14.25 5.8 14.25V12.75ZM2.45 19.7C2.45 19.0096 3.00964 18.45 3.7 18.45V16.95C2.18121 16.95 0.949997 18.1812 0.949997 19.7H2.45Z" fill="#2D2A26"/>
</svg>
