<svg width="77" height="52" viewBox="0 0 77 52" fill="none" xmlns="http://www.w3.org/2000/svg">
<path d="M39.7762 0C39.7762 0 28.1536 2.59324 25.0835 4.48323C25.0835 4.48323 20.6538 6.15345 18.0222 10.6806C18.0222 10.6806 15.7854 13.3178 13.8556 20.8778C13.8556 20.8778 8.461 20.5701 4.38213 24.0864C4.38213 24.0864 -1.80197 28.174 0.522548 36.3933C0.522548 36.3933 3.89968 45.4037 13.9872 42.4148C13.9872 42.4148 13.6802 47.9529 19.031 50.5462C19.031 50.5462 23.5046 53.535 30.6536 50.9418C30.6536 50.9418 38.1096 48.0409 41.7937 45.1399C41.7937 45.1399 47.8901 40.393 49.0305 39.2502C49.0305 39.2502 53.5918 34.3275 57.8461 32.833C57.8461 32.833 62.5828 31.6903 65.6091 31.8661C65.6091 31.8661 64.4249 28.0861 66.3109 26.0643L66.7933 25.405C66.7933 25.405 70.7845 26.3719 74.2493 23.471C74.2493 23.471 80.0387 18.0208 74.8195 13.7574C74.8195 13.7574 78.3282 5.31834 70.9599 3.20858C70.9599 3.20858 68.5477 2.54929 64.7758 4.48323V0.703251L56.5742 3.03277C56.5742 3.03277 53.1532 3.82393 53.0655 7.99948V8.52692C53.0655 8.52692 52.9778 9.18622 51.8374 8.9225C51.8374 8.9225 47.7147 8.21925 44.206 11.7355C44.206 11.7355 44.1183 12.0871 43.4604 11.6916C43.4604 11.6916 40.5657 10.5048 37.5394 13.2739C37.5394 13.2739 37.364 13.4497 37.4079 12.9222L37.8464 7.77972C37.8464 7.77972 38.2412 4.30741 38.6798 3.07672C39.2499 1.88999 39.6447 0.175813 39.7762 0Z" fill="black"/>
<path fill-rule="evenodd" clip-rule="evenodd" d="M36.9853 3.03736C36.9853 3.03736 26.6638 5.42061 23.3836 8.2452C23.3836 8.2452 20.1909 10.7167 18.2228 15.2184C18.2228 15.2184 17.042 17.8223 15.4675 23.6481C15.4675 23.6481 11.7062 22.7212 9.08211 24.1335C9.08211 24.1335 4.70857 25.7224 2.95915 30.1358C2.95915 30.1358 1.07852 35.123 4.14 38.6537C4.14 38.6537 6.54545 41.699 10.088 41.699C13.6306 41.699 15.1176 40.8604 16.9545 40.066C16.9545 40.066 16.3422 42.2286 16.3422 43.3319C16.3422 44.3912 16.6046 46.3331 17.8729 47.613C19.1413 48.8929 21.6342 50.7906 25.2642 50.7906C28.8943 50.7906 34.886 48.0543 35.1922 47.7012C35.1922 47.7012 41.3151 44.7884 46.8695 39.404C49.4499 36.9325 52.0303 34.5492 53.4736 33.6665C53.4736 33.6665 57.1036 30.7978 63.6202 30.5771C63.6202 30.5771 62.8767 26.7375 66.5505 23.7363C66.5505 23.7363 67.0316 24.1777 69.0871 24.1777C69.0871 24.1777 70.7491 24.0453 72.4985 22.986C72.4985 22.986 75.9099 20.9559 75.0789 17.1603C75.0789 17.1603 74.8602 15.6598 72.1923 15.4391C72.1923 15.4391 71.9737 15.4832 72.1486 15.1743C72.3673 14.8653 74.5103 12.7028 73.7668 8.55414C73.7668 8.55414 73.242 5.55301 70.0056 5.55301C70.0056 5.55301 68.0375 5.68542 66.7254 6.34743C65.4133 7.05358 65.0635 7.00944 63.0954 9.39269C63.0954 9.39269 62.9204 9.5251 62.9204 9.03962C62.9204 8.55414 63.0516 4.05245 63.0516 4.05245C63.0516 4.05245 63.0516 3.83178 62.833 3.87591C62.6143 3.92005 57.4098 5.46474 57.4098 5.46474C57.4098 5.46474 55.8353 5.95022 55.5729 7.40665C55.3105 8.86308 55.1355 10.1871 55.0918 10.7609L52.8175 11.5553C52.8175 11.5553 49.931 10.9815 48.1816 12.0408C46.4322 13.1 45.3388 14.0709 44.7702 14.7771C44.7702 14.7771 44.639 14.9095 44.3329 14.6888C44.0267 14.4681 43.327 13.6296 41.5338 13.9827C41.5338 13.9827 39.8281 14.2475 38.3848 15.9687C38.3848 15.9687 38.2536 16.1452 38.0787 16.0128C38.0787 16.0128 37.3789 15.5715 36.4605 16.3218C35.5858 17.0721 35.8045 16.8514 35.5858 17.0721C35.5858 17.0721 35.4108 17.2927 35.4546 16.8073C35.4983 16.3218 36.2855 7.09771 36.2855 7.09771C36.2855 7.09771 36.4168 5.81782 36.6792 4.93513C36.9416 4.05245 37.1165 3.30217 37.1165 3.30217C37.1165 3.30217 37.3789 2.94909 36.9853 3.03736Z" fill="white"/>
<path d="M62.1042 28.6804C62.1042 28.6804 59.0958 27.9894 55.2911 28.8532C55.2911 28.8532 51.1325 29.7601 47.6817 32.0924C45.6466 33.4745 40.6916 37.1456 37.9044 38.5277C35.1173 39.9097 33.967 40.6008 30.2508 41.2918C30.2508 41.2918 25.9594 41.9828 24.6764 39.8665C24.6764 39.8665 22.951 37.3183 24.8976 35.5908C24.8976 35.5908 25.4728 35.202 25.0303 35.3316C25.0303 35.3316 21.4911 36.2818 19.6772 38.9164C19.6772 38.9164 17.067 42.1124 19.633 45.3948C22.2432 48.6773 27.7733 47.5975 27.7733 47.5975C27.7733 47.5975 32.8167 46.9065 37.2408 43.9264C41.6649 40.9463 43.7885 39.2619 44.6291 38.4845C45.4696 37.7071 50.1592 33.2585 50.9555 32.7834C51.7076 32.3083 54.1409 30.3648 56.9723 29.7601C59.8037 29.1123 60.777 29.0691 62.1042 29.0691C62.1042 29.0691 63.3872 29.0259 62.1042 28.6804Z" fill="black"/>
<path fill-rule="evenodd" clip-rule="evenodd" d="M72.2772 16.8438C72.5321 16.3983 72.7446 16.9776 72.7446 16.9776C73.0846 18.5374 72.1922 19.8746 72.1497 19.8746C70.7897 22.1029 67.3899 21.7464 67.3899 21.7464C63.6926 21.078 62.9276 17.6017 62.9276 17.6017C61.9502 13.2784 64.1176 10.1588 64.1176 10.1588C66.9649 6.63779 69.1323 7.30624 69.1323 7.30624C71.2147 7.30624 71.5547 9.71298 71.5547 9.71298C71.6822 12.6544 69.8548 14.2589 69.8548 14.2589C68.1549 15.908 66.2425 14.6156 66.2425 14.6156C66.2425 15.0167 66.7524 16.2201 66.7524 16.2201C67.5599 18.1363 69.3873 18.4039 69.3873 18.4039C71.3311 18.9447 71.9789 17.505 72.2293 16.9486C72.2472 16.9088 72.263 16.8736 72.2772 16.8438ZM68.3674 11.9415C68.4099 9.93613 66.8799 10.649 66.8799 10.649C65.4775 11.6297 65.9875 13.3231 65.9875 13.2787C68.2399 14.17 68.3674 11.9415 68.3674 11.9415Z" fill="black"/>
<path d="M61.0719 6.04639C61.0719 6.04639 58.4994 6.89884 57.6981 7.16803C56.939 7.39236 56.939 8.46914 56.939 8.46914L56.8968 11.7892L55.0834 12.4622C55.0834 12.4622 54.9147 14.0325 54.9147 14.4363C54.9147 14.8401 55.2099 14.7503 55.2099 14.7503L56.8968 14.2568C56.8968 14.2568 56.6016 21.7045 56.6438 22.5121C56.6438 23.4543 57.0233 24.2619 57.0233 24.2619C58.2042 26.55 60.861 24.6657 60.861 24.6657C62.5057 23.4992 62.5057 20.224 62.5057 20.224C62.5057 19.8202 62.2949 19.9996 62.2949 19.9996C62.084 20.1342 61.6201 20.2688 61.6201 20.2688C60.7767 20.4932 60.9032 19.4612 60.9032 19.4612C60.9032 19.4612 61.0297 13.7184 61.0297 13.3146C61.0297 12.9108 61.2827 12.866 61.2827 12.866L62.6322 12.4173L62.6744 9.99457L61.114 10.4432L61.0719 6.04639Z" fill="black"/>
<path fill-rule="evenodd" clip-rule="evenodd" d="M52.8702 26.6238C49.8894 29.3047 47.0364 28.1878 47.0364 28.1878C45.1202 27.2942 45.3757 25.1942 45.3757 25.1942C45.4183 22.6026 48.3139 21.6197 48.3139 21.6197C45.2905 19.9664 45.5034 17.7772 45.5034 17.7772C45.6737 15.7217 47.4196 14.6495 47.4196 14.6495C49.5062 12.9068 51.763 13.3536 51.763 13.3536C54.318 13.8004 53.9773 15.8111 53.9773 15.8111C53.7644 17.4197 51.9334 17.3304 51.9334 17.3304C50.8262 17.1963 50.4004 15.6771 50.4004 15.6771C50.3578 15.409 50.0172 15.3196 50.0172 15.3196C48.7823 15.3196 48.9526 16.5259 48.9526 16.5259C49.2933 17.8665 50.4856 17.9112 50.4856 17.9112C50.9114 18.0005 52.4018 18.358 52.4018 18.358C53.2534 18.5367 54.1477 19.3409 54.1477 19.3409C55.34 20.4134 54.7864 23.1387 54.7864 23.1387C54.4457 25.4622 52.8702 26.6238 52.8702 26.6238ZM51.4224 22.7366C50.6559 22.1111 48.9952 21.9771 48.9952 21.9771C48.399 22.7813 48.8249 24.1219 48.8249 24.0772C49.421 25.1942 50.9966 24.4793 50.9966 24.4793C52.3592 23.4962 51.4224 22.7366 51.4224 22.7366Z" fill="black"/>
<path fill-rule="evenodd" clip-rule="evenodd" d="M19.6035 36.0877C19.6035 36.0877 21.4272 34.2054 22.0499 31.5352C22.7172 28.9088 23.4733 26.151 23.4733 26.151L27.1652 25.1004L26.498 34.9496L30.4123 34.0304C30.4123 34.0304 32.7253 33.4176 32.8587 31.2289C32.9922 29.0401 33.6594 18.8846 33.6594 18.8846C33.6594 18.8846 34.0597 13.4127 34.1487 12.4935C34.2376 11.5743 34.7269 8.11606 35.1272 6.84677C35.1272 6.84677 35.5276 5.79599 34.6379 6.10239C34.5027 6.14389 34.255 6.21713 33.9381 6.30991L32.9731 6.59189L32.966 6.59409C31.5976 6.99301 29.878 7.49399 29.4782 7.63461C29.4146 7.66342 29.3203 7.70297 29.2004 7.75327C28.2296 8.15976 25.576 9.27109 23.8736 11.1803C22.0861 13.1439 21.2309 14.9166 21.0541 15.2831L21.0269 15.339C21.0184 15.3724 20.9953 15.4234 20.9526 15.5177C20.7719 15.9166 20.2402 17.0904 18.9808 20.9857C17.424 25.8009 16.8902 27.2018 16.8902 27.2018C16.8902 27.2018 15.6003 25.4945 13.4207 25.5819C13.4207 25.5819 11.5525 25.6258 10.396 26.0636C9.19507 26.5013 6.65968 27.6832 5.32526 30.441C5.32526 30.441 3.67948 34.118 6.08143 36.8758C8.39151 39.5211 11.9311 39.3172 12.4682 39.2862L12.4787 39.2855L12.5311 39.2833C12.5501 39.2796 12.5977 39.2755 12.6706 39.2694H12.6716C13.4535 39.2022 17.1232 38.8888 19.6035 36.0877ZM24.6743 21.7738C24.6743 21.7738 26.3201 16.2581 26.587 15.514C26.8094 14.7699 27.3876 13.369 27.3876 13.369C28.0993 11.837 28.5441 11.7494 28.5441 11.7494C29.1224 11.3556 28.9889 11.9247 28.9 12.0558C28.8555 12.231 28.5886 13.5443 28.4107 14.4198C28.2328 15.2953 27.61 21.3797 27.61 21.8612C27.61 22.2989 27.3876 22.2989 27.3876 22.2989L24.4964 23.087C24.2295 23.1307 24.363 22.8243 24.363 22.8243L24.6743 21.7738ZM12.4866 32.0606C12.4866 34.118 14.3103 33.1112 14.9331 32.5858C15.5558 32.0606 16.3565 29.2152 16.3565 29.2152C15.7782 28.7774 14.7552 29.1715 14.7552 29.1715C12.6646 29.828 12.4866 32.0606 12.4866 32.0606Z" fill="black"/>
<path fill-rule="evenodd" clip-rule="evenodd" d="M43.4608 28.7864C43.4608 28.7864 39.918 33.3692 35.578 30.4937C32.6995 28.6067 33.5409 24.6531 33.5409 24.698C33.9933 20.9846 35.3242 19.751 36.1147 19.0181C36.1754 18.9619 36.2329 18.9087 36.2866 18.8574C37.0394 18.0935 38.1466 18.2732 38.1466 18.2732C38.1466 18.2732 38.4566 18.408 38.7666 18.0037L38.8254 17.917C39.1732 17.3987 39.9966 16.1721 41.9994 16.3413C41.9994 16.3413 43.7708 16.2515 44.7894 18.7676C44.7894 18.7676 46.7379 23.7544 43.4608 28.7864ZM39.9623 20.6096C39.9623 20.6096 38.5894 20.2503 38.1466 21.1936C37.7037 22.0923 36.9509 24.698 38.988 26.4502C38.988 26.4502 40.538 27.3938 41.9551 25.7315C41.9551 25.7315 43.8594 23.575 42.9737 20.9241C42.9737 20.9241 42.6194 19.6211 41.6008 19.6211C41.6008 19.6211 41.158 19.5762 40.8923 19.711C40.8037 19.7561 40.6709 19.9807 40.6709 20.1155C40.6709 20.2503 40.6266 20.8792 39.9623 20.6096Z" fill="black"/>
</svg>
