<svg width="98" height="29" viewBox="0 0 98 29" fill="none" xmlns="http://www.w3.org/2000/svg">
<path fill-rule="evenodd" clip-rule="evenodd" d="M28.7433 0L17.6554 29H19.5105L30.5984 0H28.7433ZM60.0026 0L48.9361 29H50.7911L61.8577 0H60.0026ZM96.1449 0L85.0783 29H86.9334L98 0H96.1449ZM39.6606 2.58203C35.1828 2.58203 32.1549 5.27845 32.1549 9.26121C32.1549 10.7584 32.6701 12.0558 33.6262 13.0809C34.5508 14.0403 35.6826 14.52 37.7415 15.1508L40.0231 15.855C42.7464 16.6762 44.0105 18.0197 44.0105 19.9522C44.0105 21.2368 43.4902 22.2867 42.4326 23.089C41.5029 23.7949 40.621 24.0706 38.9143 24.0706C36.5279 24.0706 34.6881 23.4364 32.752 22.0434L31.4087 24.4334C33.7959 25.9092 36.1048 26.5887 38.9143 26.5887C41.0295 26.5887 42.575 26.138 44.0957 25.1589C46.1598 23.8376 47.3155 21.7489 47.3155 19.5681C47.3155 18.1059 46.7338 16.5404 45.7803 15.4496C44.8258 14.3587 43.7461 13.7373 41.7076 13.1023L39.0849 12.27C36.4144 11.4122 35.396 10.4314 35.396 8.70639C35.396 6.48711 37.0106 5.10006 39.8099 5.10006C42.0786 5.10006 43.5013 5.84949 45.3965 7.08461L46.7398 4.86533C44.5606 3.38695 42.3106 2.58203 39.6606 2.58203ZM65.6959 3.05151V26.1192H68.7876V15.0868H78.5322V26.1192H81.688V3.05151H78.5322V12.5048H68.7876V3.05151H65.6959ZM0 3.09399V26.1617H6.35422C9.85117 26.1617 10.7587 25.9662 12.0475 25.4788C14.4049 24.5638 15.8429 22.19 15.8429 19.7813C15.8429 18.04 15.2357 16.1818 13.6466 14.9799C12.9379 14.4243 12.1728 14.0871 11.024 13.8276C13.4326 12.8913 14.8407 11.2686 14.8407 8.9196C14.8407 6.45791 13.1963 4.44605 10.7467 3.60614C9.52195 3.18618 8.35516 3.09401 3.71018 3.09399H0ZM3.02786 5.65479H6.35423C7.5475 5.65479 8.24088 5.72392 8.87033 5.88952C10.4039 6.28045 11.4291 7.51215 11.4291 9.30379C11.4291 9.93373 11.296 10.3323 11.0666 10.8616C10.4141 12.3604 8.99234 12.8248 7.10057 12.8248H3.02786V5.65479ZM3.02786 15.3855H7.1645C8.31512 15.3855 9.23026 15.5067 9.87254 15.6416C11.4598 15.9651 12.6019 17.5408 12.6019 19.5466C12.6019 22.2653 11.3028 23.5798 8.01742 23.5798H3.02786V15.3855Z" fill="#231F20"/>
</svg>
