<svg width="56" height="56" viewBox="0 0 56 56" fill="none" xmlns="http://www.w3.org/2000/svg">
<path d="M38.1872 35.1189C38.0125 34.6341 37.4777 34.3827 36.9929 34.5574C36.5079 34.7321 36.2565 35.2667 36.4313 35.7514C36.4356 35.7633 36.4401 35.7751 36.4449 35.7869C37.2961 38.0073 37.3577 39.7053 36.6129 40.4517C35.7095 41.353 33.4593 41.0712 30.5923 39.6997C26.7539 37.7074 23.2649 35.1046 20.2617 31.9934C12.9512 24.6845 9.93485 17.5128 11.8005 15.6478C12.3958 15.1778 13.1696 14.9973 13.9116 15.1552C14.4256 15.1929 14.873 14.8069 14.9108 14.2931C14.9473 13.7964 14.5872 13.3586 14.0927 13.2985C12.795 13.069 11.4637 13.4472 10.4808 14.3248C7.06125 17.7423 12.2886 26.6568 18.942 33.3089C22.0943 36.5699 25.7572 39.2954 29.7868 41.3782C30.5165 41.7274 31.2685 42.0282 32.0379 42.2785L25.4069 44.7919C16.5523 41.4267 10.1781 33.5795 8.70104 24.2255C8.62113 23.7164 8.14352 23.3684 7.63429 23.4483C7.12507 23.5282 6.77695 24.0057 6.85686 24.5147C7.00339 25.4477 7.19938 26.3807 7.43924 27.2931C9.58837 35.4332 15.2489 42.1954 22.8852 45.7454L11.9713 49.8738C11.9212 49.7903 11.8582 49.7154 11.7846 49.6517C9.01089 47.4256 7.27054 44.1607 6.96886 40.6178L6.53581 35.3754C6.50175 34.8675 6.06217 34.4834 5.55399 34.5174C5.54431 34.5181 5.53463 34.5188 5.52506 34.5199C5.01129 34.5607 4.62782 35.0103 4.66865 35.5239C4.66877 35.526 4.669 35.5282 4.66924 35.5303L5.10975 40.7708C5.4378 44.5578 7.20498 48.0751 10.0478 50.5996L2.26228 53.546L3.66222 47.8026C3.78436 47.3017 3.47731 46.7967 2.97625 46.6746C2.47519 46.5525 1.97005 46.8595 1.8479 47.3604L0.0270577 54.8241C-0.0956698 55.3246 0.210682 55.8298 0.711392 55.9523C0.895016 55.9973 1.08786 55.9854 1.2646 55.9185L35.7963 42.8569C35.8512 42.8301 35.9031 42.7976 35.9512 42.7599C36.6985 42.6451 37.3914 42.2997 37.9326 41.7719C38.8573 40.8473 39.6534 38.9412 38.1872 35.1189Z" fill="#FFED00"/>
<path d="M46.9947 32.7127C41.9495 30.8246 36.4964 30.2952 31.182 31.1779L27.8474 31.7377C27.3412 31.835 27.0097 32.324 27.107 32.83C27.2011 33.3189 27.6625 33.6479 28.1554 33.5775L31.4891 33.0224C36.4801 32.1929 41.6016 32.6904 46.3396 34.4648C46.4447 34.502 46.5556 34.5207 46.6671 34.5198C47.1825 34.5207 47.6011 34.1037 47.6019 33.5884C47.6026 33.1983 47.3605 32.849 46.9947 32.7127Z" fill="#FFED00"/>
<path d="M50.3125 18.2581C50.0909 17.7928 49.5339 17.5952 49.0684 17.8168L29.4694 27.1465C29.004 27.368 28.8063 27.9246 29.0278 28.3899C29.0278 28.3901 29.0279 28.3902 29.0279 28.3902C29.2495 28.8554 29.8063 29.0531 30.2718 28.8316C30.2719 28.8316 30.2719 28.8315 30.272 28.8315L49.8711 19.5018C50.3366 19.2802 50.5342 18.7234 50.3125 18.2581Z" fill="#FFED00"/>
<path d="M22.6666 6.332C22.564 5.82703 22.0713 5.50084 21.5662 5.60347C21.061 5.70609 20.7347 6.19859 20.8374 6.70356C20.8396 6.71475 20.8422 6.72583 20.8449 6.73691C22.0262 12.0127 21.5393 17.5252 19.4515 22.5125L18.0945 25.7676C17.8983 26.2419 18.1222 26.7855 18.5956 26.9842C18.709 27.0319 18.8309 27.0563 18.954 27.0561C19.3307 27.0561 19.6704 26.8298 19.8154 26.4823L21.1734 23.2309C23.4104 17.8886 23.9322 11.9836 22.6666 6.332Z" fill="#FFED00"/>
<path d="M51.3336 33.5869C49.7872 33.5869 48.5337 34.84 48.5337 36.3858C48.5337 37.9316 49.7872 39.1847 51.3336 39.1847C52.8799 39.1847 54.1334 37.9316 54.1334 36.3858C54.1334 34.84 52.8799 33.5869 51.3336 33.5869ZM51.3336 37.3188C50.8181 37.3188 50.4003 36.9011 50.4003 36.3858C50.4003 35.8706 50.8181 35.4529 51.3336 35.4529C51.849 35.4529 52.2668 35.8706 52.2668 36.3858C52.2668 36.9011 51.849 37.3188 51.3336 37.3188Z" fill="#FFED00"/>
<path d="M28.9346 7.46375C27.3883 7.46375 26.1348 8.71684 26.1348 10.2627C26.1348 11.8085 27.3883 13.0616 28.9346 13.0616C30.481 13.0616 31.7345 11.8085 31.7345 10.2627C31.7345 8.71684 30.481 7.46375 28.9346 7.46375ZM28.9346 11.1956C28.4192 11.1956 28.0013 10.7779 28.0013 10.2627C28.0013 9.74742 28.4192 9.32969 28.9346 9.32969C29.45 9.32969 29.8679 9.74742 29.8679 10.2627C29.8679 10.7779 29.45 11.1956 28.9346 11.1956Z" fill="#FFED00"/>
<path d="M20.535 3.73188C21.5659 3.73188 22.4016 2.89647 22.4016 1.86594C22.4016 0.83541 21.5659 0 20.535 0C19.5042 0 18.6685 0.83541 18.6685 1.86594C18.6685 2.89647 19.5042 3.73188 20.535 3.73188Z" fill="#FFED00"/>
<path d="M46.6672 4.66492C46.1518 4.66492 45.7339 5.08265 45.7339 5.59789V6.53086C45.7339 7.04609 46.1518 7.46383 46.6672 7.46383C47.1826 7.46383 47.6005 7.04609 47.6005 6.53086V5.59789C47.6005 5.08265 47.1826 4.66492 46.6672 4.66492Z" fill="#FFED00"/>
<path d="M46.6672 0C46.1518 0 45.7339 0.417738 45.7339 0.93297V1.86594C45.7339 2.38117 46.1518 2.79891 46.6672 2.79891C47.1826 2.79891 47.6005 2.38117 47.6005 1.86594V0.93297C47.6005 0.417738 47.1826 0 46.6672 0Z" fill="#FFED00"/>
<path d="M49.467 2.79895H48.5338C48.0183 2.79895 47.6005 3.21669 47.6005 3.73192C47.6005 4.24715 48.0183 4.66489 48.5338 4.66489H49.467C49.9824 4.66489 50.4003 4.24715 50.4003 3.73192C50.4003 3.21669 49.9824 2.79895 49.467 2.79895Z" fill="#FFED00"/>
<path d="M44.8005 2.79895H43.8672C43.3518 2.79895 42.934 3.21669 42.934 3.73192C42.934 4.24715 43.3518 4.66489 43.8672 4.66489H44.8005C45.3159 4.66489 45.7338 4.24715 45.7338 3.73192C45.7338 3.21669 45.3159 2.79895 44.8005 2.79895Z" fill="#FFED00"/>
<path d="M40.1341 10.2432H35.4481C34.9327 10.2432 34.5148 10.6609 34.5148 11.1761V15.8606C34.5148 16.3758 34.9327 16.7936 35.4481 16.7936H40.1341C40.6495 16.7936 41.0674 16.3758 41.0674 15.8606V11.1761C41.0674 10.6609 40.6495 10.2432 40.1341 10.2432ZM39.2008 14.9276H36.3813V12.1091H39.2008V14.9276Z" fill="#FFED00"/>
<path d="M33.3352 18.0339C32.9926 17.6683 32.4223 17.6384 32.0434 17.9663L22.7105 26.363C22.3276 26.7077 22.2967 27.2975 22.6415 27.6804C22.9863 28.0631 23.5763 28.094 23.9593 27.7494L33.2922 19.3527C33.6684 19.0004 33.6876 18.41 33.3352 18.0339Z" fill="#FFED00"/>
<path d="M50.4003 21.4584C49.8849 21.4584 49.467 21.8761 49.467 22.3913V23.3243C49.467 23.8395 49.8849 24.2573 50.4003 24.2573C50.9157 24.2573 51.3336 23.8395 51.3336 23.3243V22.3913C51.3336 21.8761 50.9157 21.4584 50.4003 21.4584Z" fill="#FFED00"/>
<path d="M54.3602 21.2978L53.7004 20.6382C53.3297 20.2801 52.7389 20.2904 52.3807 20.661C52.0315 21.0226 52.0315 21.5958 52.3807 21.9574L53.0406 22.617C53.4113 22.975 54.0021 22.9648 54.3602 22.5941C54.7096 22.2325 54.7096 21.6593 54.3602 21.2978Z" fill="#FFED00"/>
<path d="M55.0668 17.7263H54.1335C53.6181 17.7263 53.2002 18.1441 53.2002 18.6593C53.2002 19.1745 53.6181 19.5923 54.1335 19.5923H55.0668C55.5822 19.5923 56.0001 19.1745 56.0001 18.6593C56.0001 18.1441 55.5822 17.7263 55.0668 17.7263Z" fill="#FFED00"/>
<path d="M54.3373 14.7017C53.9757 14.3525 53.4023 14.3525 53.0405 14.7017L52.3807 15.3613C52.0162 15.7257 52.0164 16.3164 52.3809 16.6808C52.5559 16.8556 52.7932 16.9539 53.0405 16.9539C53.2881 16.9539 53.5254 16.8555 53.7004 16.6805L54.3602 16.0209C54.7183 15.6503 54.7081 15.0596 54.3373 14.7017Z" fill="#FFED00"/>
<path d="M50.4003 13.0616C49.8849 13.0616 49.467 13.4794 49.467 13.9946V14.9276C49.467 15.4428 49.8849 15.8606 50.4003 15.8606C50.9157 15.8606 51.3336 15.4428 51.3336 14.9276V13.9946C51.3336 13.4794 50.9157 13.0616 50.4003 13.0616Z" fill="#FFED00"/>
<path d="M48.4198 15.3613L47.76 14.7017C47.3892 14.3438 46.7985 14.354 46.4403 14.7246C46.091 15.0861 46.091 15.6593 46.4403 16.021L47.1001 16.6806C47.4709 17.0386 48.0617 17.0283 48.4198 16.6577C48.7692 16.2961 48.7692 15.7229 48.4198 15.3613Z" fill="#FFED00"/>
<path d="M11.1564 4.0342C11.0465 3.6967 10.7545 3.45086 10.4032 3.39978L7.664 3.0014L6.44233 0.520636C6.17004 0.0584654 5.57449 -0.0955913 5.11216 0.176603C4.97007 0.26022 4.85166 0.378591 4.76801 0.520636L3.54073 3.0014L0.801532 3.39978C0.291373 3.47337 -0.0624597 3.9465 0.0111535 4.45649C0.0404354 4.65953 0.135864 4.84717 0.282624 4.9905L2.264 6.92175L1.79735 9.64882C1.70776 10.1562 2.04654 10.6402 2.55413 10.7298C2.75852 10.7658 2.96898 10.7328 3.15249 10.6359L5.60237 9.34467L8.05225 10.6322C8.50851 10.8719 9.0728 10.6967 9.31266 10.2406C9.4082 10.059 9.4411 9.85104 9.40645 9.64882L8.93981 6.92175L10.9221 4.9905C11.1759 4.74221 11.2666 4.37159 11.1564 4.0342ZM7.28229 5.92813C7.0625 6.14213 6.96205 6.45048 7.0135 6.75288L7.24496 8.10102L6.03635 7.4638C5.76465 7.32117 5.44009 7.32117 5.16839 7.4638L3.95511 8.10009L4.18657 6.75194C4.23895 6.45071 4.14026 6.14283 3.92245 5.92813L2.94156 4.9737L4.29576 4.77685C4.59978 4.73276 4.86262 4.54185 4.99853 4.26651L5.60237 3.04152L6.20714 4.26651C6.34293 4.54162 6.6053 4.73241 6.90897 4.77685L8.26224 4.9737L7.28229 5.92813Z" fill="#FFED00"/>
<path d="M52.8473 46.7652H52.8436L52.4591 46.1886C50.3031 42.9655 46.9128 40.774 43.0879 40.1308C42.5777 40.058 42.105 40.4126 42.0322 40.9227C41.9618 41.4155 42.2909 41.8767 42.78 41.9706C45.5388 42.4387 48.0529 43.8398 49.9019 45.9395C48.3474 46.219 46.9878 47.1523 46.1687 48.5024C45.1636 50.3019 45.8081 52.5752 47.6083 53.58C49.4085 54.5849 51.6826 53.9405 52.6878 52.1409C53.0717 51.4 53.279 50.5803 53.2935 49.746C54.2865 51.1878 54.3659 53.0706 53.4979 54.5909C53.2349 55.0341 53.3811 55.6065 53.8244 55.8693C54.2677 56.1322 54.8403 55.9861 55.1032 55.5429C55.1116 55.5287 55.1197 55.5143 55.1274 55.4996C56.8362 52.4484 55.8297 48.5927 52.8473 46.7652ZM51.0601 51.2304C50.562 52.1327 49.4265 52.4604 48.524 51.9624C47.6215 51.4644 47.2936 50.3293 47.7917 49.4272C47.7945 49.4221 47.7973 49.417 47.8001 49.412C48.3509 48.5105 49.2799 47.9062 50.3275 47.7681C50.4897 47.7637 50.6504 47.801 50.7941 47.8763C51.5818 48.3158 51.6238 50.2209 51.0601 51.2304Z" fill="#FFED00"/>
</svg>
