<svg width="56" height="56" viewBox="0 0 56 56" fill="none" xmlns="http://www.w3.org/2000/svg">
<path d="M20.2013 22.4202C18.3563 22.4202 16.8552 23.9169 16.8552 25.7567C16.8552 27.5964 18.3563 29.0931 20.2013 29.0931C22.0464 29.0931 23.5474 27.5964 23.5474 25.7567C23.5474 23.9169 22.0464 22.4202 20.2013 22.4202ZM20.2013 27.4571C19.2609 27.4571 18.496 26.6944 18.496 25.7567C18.496 24.819 19.2609 24.0562 20.2013 24.0562C21.1416 24.0562 21.9067 24.819 21.9067 25.7567C21.9067 26.6942 21.1416 27.4571 20.2013 27.4571Z" fill="#FFED00"/>
<path d="M28.925 22.4202C27.0799 22.4202 25.5787 23.9169 25.5787 25.7567C25.5787 27.5964 27.0799 29.0931 28.925 29.0931C30.77 29.0931 32.2711 27.5964 32.2711 25.7567C32.2711 23.9169 30.77 22.4202 28.925 22.4202ZM28.925 27.4571C27.9844 27.4571 27.2195 26.6944 27.2195 25.7567C27.2195 24.819 27.9845 24.0562 28.925 24.0562C29.8654 24.0562 30.6303 24.819 30.6303 25.7567C30.6303 26.6944 29.8653 27.4571 28.925 27.4571Z" fill="#FFED00"/>
<path d="M37.6486 22.4202C35.8036 22.4202 34.3025 23.9169 34.3025 25.7567C34.3025 27.5964 35.8036 29.0931 37.6486 29.0931C39.4936 29.0931 40.9947 27.5964 40.9947 25.7567C40.9947 23.9169 39.4935 22.4202 37.6486 22.4202ZM37.6486 27.4571C36.7082 27.4571 35.9432 26.6944 35.9432 25.7567C35.9432 24.819 36.7083 24.0562 37.6486 24.0562C38.5889 24.0562 39.354 24.819 39.354 25.7567C39.354 26.6944 38.5889 27.4571 37.6486 27.4571Z" fill="#FFED00"/>
<path d="M20.2013 30.5587C18.3563 30.5587 16.8552 32.0555 16.8552 33.8952C16.8552 35.7349 18.3563 37.2317 20.2013 37.2317C22.0464 37.2317 23.5474 35.7349 23.5474 33.8952C23.5474 32.0555 22.0464 30.5587 20.2013 30.5587ZM20.2013 35.5957C19.2609 35.5957 18.496 34.8329 18.496 33.8952C18.496 32.9575 19.2609 32.1947 20.2013 32.1947C21.1416 32.1947 21.9067 32.9575 21.9067 33.8952C21.9067 34.8329 21.1416 35.5957 20.2013 35.5957Z" fill="#FFED00"/>
<path d="M37.6486 30.5587C35.8036 30.5587 34.3025 32.0555 34.3025 33.8952C34.3025 35.7349 35.8036 37.2317 37.6486 37.2317C39.4936 37.2317 40.9947 35.7349 40.9947 33.8952C40.9946 32.0555 39.4935 30.5587 37.6486 30.5587ZM37.6486 35.5957C36.7082 35.5957 35.9432 34.8329 35.9432 33.8952C35.9432 32.9575 36.7083 32.1947 37.6486 32.1947C38.5889 32.1947 39.354 32.9575 39.354 33.8952C39.3539 34.8329 38.5889 35.5957 37.6486 35.5957Z" fill="#FFED00"/>
<path d="M28.925 30.5587C27.0799 30.5587 25.5787 32.0555 25.5787 33.8952C25.5787 35.7349 27.0799 37.2317 28.925 37.2317C30.77 37.2317 32.2711 35.7349 32.2711 33.8952C32.2711 32.0555 30.77 30.5587 28.925 30.5587ZM28.925 35.5957C27.9844 35.5957 27.2195 34.8329 27.2195 33.8952C27.2195 32.9575 27.9845 32.1947 28.925 32.1947C29.8654 32.1947 30.6303 32.9575 30.6303 33.8952C30.6303 34.8329 29.8653 35.5957 28.925 35.5957Z" fill="#FFED00"/>
<path d="M28.925 38.6974C27.0799 38.6974 25.5789 40.1942 25.5789 42.034C25.5789 43.8737 27.0799 45.3705 28.925 45.3705C30.77 45.3705 32.2711 43.8737 32.2711 42.034C32.2711 40.1942 30.77 38.6974 28.925 38.6974ZM28.925 43.7343C27.9845 43.7343 27.2195 42.9716 27.2195 42.0339C27.2196 41.0963 27.9846 40.3333 28.925 40.3333C29.8654 40.3333 30.6303 41.0961 30.6303 42.0339C30.6303 42.9716 29.8653 43.7343 28.925 43.7343Z" fill="#FFED00"/>
<path d="M20.2013 38.6974C18.3563 38.6974 16.8552 40.1942 16.8552 42.034C16.8552 43.8737 18.3563 45.3705 20.2013 45.3705C22.0464 45.3705 23.5474 43.8737 23.5474 42.034C23.5474 40.1942 22.0464 38.6974 20.2013 38.6974ZM20.2013 43.7343C19.2609 43.7343 18.496 42.9716 18.496 42.0339C18.496 41.0962 19.2609 40.3333 20.2013 40.3333C21.1416 40.3333 21.9067 41.0961 21.9067 42.0339C21.9066 42.9716 21.1416 43.7343 20.2013 43.7343Z" fill="#FFED00"/>
<path d="M12.638 25.7568L13.844 24.5543C14.1644 24.2349 14.1644 23.717 13.8439 23.3975C13.5236 23.0782 13.0042 23.078 12.6838 23.3976L11.4779 24.6L10.272 23.3976C9.95168 23.0782 9.43225 23.078 9.11189 23.3975C8.79143 23.717 8.79143 24.2349 9.11179 24.5543L10.3178 25.7568L9.11179 26.9593C8.79121 27.2786 8.79121 27.7964 9.11168 28.1161C9.2718 28.2758 9.4818 28.3556 9.69169 28.3556C9.90158 28.3556 10.1116 28.2758 10.2718 28.116L11.4777 26.9136L12.6835 28.116C12.8438 28.2758 13.0537 28.3556 13.2637 28.3556C13.4736 28.3556 13.6836 28.2758 13.8437 28.1161C14.1641 27.7966 14.1641 27.2787 13.8438 26.9593L12.638 25.7568Z" fill="#FFED00"/>
<path d="M12.638 33.8953L13.844 32.6928C14.1644 32.3734 14.1644 31.8556 13.8439 31.536C13.5236 31.2167 13.0042 31.2166 12.6838 31.5361L11.4779 32.7385L10.272 31.5361C9.95168 31.2166 9.43225 31.2167 9.11189 31.536C8.79143 31.8556 8.79143 32.3734 9.11179 32.6928L10.3178 33.8953L9.11179 35.0978C8.79121 35.4172 8.79121 35.935 9.11168 36.2546C9.2718 36.4143 9.4818 36.4941 9.69169 36.4941C9.90158 36.4941 10.1116 36.4143 10.2718 36.2545L11.4777 35.0521L12.6835 36.2545C12.8438 36.4143 13.0537 36.4941 13.2637 36.4941C13.4736 36.4941 13.6836 36.4143 13.8437 36.2546C14.1641 35.9351 14.1641 35.4173 13.8438 35.0978L12.638 33.8953Z" fill="#FFED00"/>
<path d="M13.8439 43.2361L12.6381 42.0337L13.8439 40.8313C14.1641 40.5119 14.1641 39.9941 13.8437 39.6744C13.5232 39.3551 13.0039 39.3551 12.6835 39.6744L11.4776 40.8768L10.2717 39.6744C9.95127 39.3551 9.43195 39.3551 9.11149 39.6744C8.79113 39.994 8.79113 40.5118 9.11149 40.8313L10.3173 42.0337L9.11149 43.2361C8.79113 43.5557 8.79113 44.0735 9.11149 44.393C9.27172 44.5527 9.48172 44.6325 9.69161 44.6325C9.9015 44.6325 10.1115 44.5527 10.2717 44.393L11.4776 43.1907L12.6835 44.393C12.8437 44.5527 13.0537 44.6325 13.2636 44.6325C13.4735 44.6325 13.6835 44.5527 13.8437 44.393C14.1643 44.0734 14.1643 43.5556 13.8439 43.2361Z" fill="#FFED00"/>
<path d="M55.9529 45.6697L53.7156 33.9299C53.6311 33.4861 53.2007 33.1947 52.7564 33.279C52.3113 33.3633 52.0191 33.7915 52.1036 34.2354L54.3409 45.9753C54.466 46.6324 53.9096 47.2526 53.1518 47.2526H41.0122L48.8862 39.4014C49.0302 39.2578 49.1263 39.048 49.1263 38.823V18.6124L51.3761 30.418C51.4606 30.8618 51.8905 31.1533 52.3352 31.0689C52.7802 30.9846 53.0725 30.5564 52.9879 30.1124L49.121 9.82093C49.0653 8.61374 48.0658 7.64812 46.8418 7.64812H39.6526V5.01791C39.6526 4.56607 39.2854 4.19995 38.8323 4.19995C38.3792 4.19995 38.012 4.56607 38.012 5.01791V7.64801H32.5181V5.01791C32.5181 4.56607 32.1509 4.19995 31.6978 4.19995C31.2446 4.19995 30.8774 4.56607 30.8774 5.01791V7.64801H25.3834V5.01791C25.3834 4.56607 25.0163 4.19995 24.5631 4.19995C24.11 4.19995 23.7428 4.56607 23.7428 5.01791V7.64801H18.2489V5.01791C18.2489 4.56607 17.8817 4.19995 17.4286 4.19995C16.9754 4.19995 16.6083 4.56607 16.6083 5.01791V7.64801H11.1144V5.01791C11.1144 4.56607 10.7472 4.19995 10.294 4.19995C9.84091 4.19995 9.47374 4.56607 9.47374 5.01791V7.64801H2.28452C1.02484 7.64812 0 8.66991 0 9.92607V48.8221C0 50.0781 1.02484 51.0999 2.28452 51.0999H22.6491C23.1022 51.0999 23.4694 50.7338 23.4694 50.282C23.4694 49.8301 23.1022 49.464 22.6491 49.464H2.28452C1.92959 49.464 1.64073 49.1761 1.64073 48.8222V18.2687H47.4857V38.0047H38.2779C37.0182 38.0047 35.9935 39.0266 35.9935 40.2826V49.4639H26.4773C26.0241 49.4639 25.657 49.83 25.657 50.2818C25.657 50.7337 26.0241 51.0998 26.4773 51.0998H36.8138C37.0254 51.0998 37.2376 51.0162 37.3939 50.8603L39.3714 48.8885H53.1519C54.9336 48.8885 56.2716 47.3418 55.9529 45.6697ZM1.64073 16.6326V9.92607C1.64073 9.57217 1.92959 9.28414 2.28452 9.28414H9.47374V12.9584C9.47374 13.4102 9.84091 13.7763 10.294 13.7763C10.7472 13.7763 11.1144 13.4102 11.1144 12.9584V9.28414H16.6083V12.9584C16.6083 13.4102 16.9754 13.7763 17.4286 13.7763C17.8817 13.7763 18.2489 13.4102 18.2489 12.9584V9.28414H23.7428V12.9584C23.7428 13.4102 24.11 13.7763 24.5631 13.7763C25.0163 13.7763 25.3834 13.4102 25.3834 12.9584V9.28414H30.8774V12.9584C30.8774 13.4102 31.2446 13.7763 31.6978 13.7763C32.1509 13.7763 32.5181 13.4102 32.5181 12.9584V9.28414H38.012V12.9584C38.012 13.4102 38.3792 13.7763 38.8323 13.7763C39.2854 13.7763 39.6526 13.4102 39.6526 12.9584V9.28414H46.8418C47.1967 9.28414 47.4856 9.57217 47.4856 9.92607V16.6327H1.64073V16.6326ZM37.6341 48.3071V40.2827C37.6341 39.9288 37.9228 39.6408 38.2778 39.6408H46.3254C45.5045 40.4594 38.4567 47.4868 37.6341 48.3071Z" fill="#FFED00"/>
</svg>
