<svg width="55" height="30" viewBox="0 0 55 30" fill="none" xmlns="http://www.w3.org/2000/svg">
<path d="M55 30L37.7301 0H0L17.3145 30H55Z" fill="#FFED00"/>
<path d="M29.625 8H24.375C21.9591 8 20 9.95913 20 12.375V17.625C20 20.0409 21.9591 22 24.375 22H29.625C32.0409 22 34 20.0409 34 17.625V12.375C34 9.95913 32.0409 8 29.625 8ZM32.6875 17.625C32.6875 19.3138 31.3138 20.6875 29.625 20.6875H24.375C22.6862 20.6875 21.3125 19.3138 21.3125 17.625V12.375C21.3125 10.6862 22.6862 9.3125 24.375 9.3125H29.625C31.3138 9.3125 32.6875 10.6862 32.6875 12.375V17.625Z" fill="#2D2A26"/>
<path d="M27 11.5C25.0671 11.5 23.5 13.0671 23.5 15C23.5 16.9329 25.0671 18.5 27 18.5C28.9329 18.5 30.5 16.9329 30.5 15C30.5 13.0671 28.9329 11.5 27 11.5ZM27 17.1875C25.7943 17.1875 24.8125 16.2057 24.8125 15C24.8125 13.7934 25.7943 12.8125 27 12.8125C28.2057 12.8125 29.1875 13.7934 29.1875 15C29.1875 16.2057 28.2057 17.1875 27 17.1875Z" fill="#2D2A26"/>
<path d="M30.7625 11.704C31.0201 11.704 31.2289 11.4952 31.2289 11.2376C31.2289 10.98 31.0201 10.7712 30.7625 10.7712C30.5049 10.7712 30.2961 10.98 30.2961 11.2376C30.2961 11.4952 30.5049 11.704 30.7625 11.704Z" fill="#2D2A26"/>
</svg>
