<svg width="65" height="51" viewBox="0 0 65 51" fill="none" xmlns="http://www.w3.org/2000/svg">
<path d="M32.8671 22.1803C41.6877 22.1803 48.0931 12.1067 41.0576 2.96767C31.817 -3.99042 21.6314 2.34456 21.6314 11.0681C21.6314 17.1954 26.6717 22.1803 32.8671 22.1803Z" fill="#2D2A26"/>
<path d="M41.1626 19.9995C39.0625 22.2842 35.2822 24.5689 30.4519 24.5689C26.6717 24.5689 23.4165 23.115 21.4214 21.5572C9.13558 22.8035 0 24.6728 0 24.6728V29.5538H64.9991V19.4802C64.9991 19.3763 53.8684 19.3763 41.1626 19.9995Z" fill="#2D2A26"/>
<path d="M7.75033 44.8327V51.0002H0V34.4453H7.75033V41.9112L12.2539 34.4453H21.4705L14.7675 43.1014L21.1563 51.0002H12.3586L7.75033 44.8327Z" fill="#2D2A26"/>
<path d="M65 49.7396C63.2294 50.2809 60.8339 50.6058 58.6467 50.6058C51.0435 50.6058 45.5234 48.332 45.5234 41.8357C45.5234 35.9889 50.9393 33.3904 58.2301 33.3904C60.3131 33.3904 62.9169 33.6069 64.8958 34.2566V39.995C63.4377 39.0206 61.8754 38.4792 59.6882 38.4792C56.8761 38.4792 54.0639 39.8868 54.0639 42.0522C54.0639 44.1094 56.8761 45.6252 59.6882 45.6252C61.7713 45.6252 63.3335 44.9756 64.8958 44.1094L65 49.7396Z" fill="#2D2A26"/>
<path fill-rule="evenodd" clip-rule="evenodd" d="M38.6493 33.8235H23.1305V50.3892H38.441C42.8154 50.3892 44.1694 48.2239 44.1694 46.0583C44.1694 42.7019 41.6697 42.377 39.0659 42.1604C41.5656 42.0522 43.9611 40.7529 43.9611 37.9377C43.9611 35.4475 42.7113 33.8235 38.6493 33.8235ZM30.8378 40.8613H34.6915C36.1496 40.8613 36.7745 40.2117 36.7745 39.2371C36.7745 38.1543 36.1496 37.613 34.7957 37.613H30.8378V40.8613ZM30.8378 47.033H34.7957C36.2538 47.033 36.7745 46.3833 36.7745 45.4087C36.7745 44.4343 36.2538 43.7847 34.7957 43.7847H30.8378V47.033Z" fill="#2D2A26"/>
</svg>
