<svg width="56" height="56" viewBox="0 0 56 56" fill="none" xmlns="http://www.w3.org/2000/svg">
<path d="M36.5 6H37.25C37.25 5.58579 36.9142 5.25 36.5 5.25V6ZM36.5 42.5V43.25C36.9142 43.25 37.25 42.9142 37.25 42.5H36.5ZM4.5 32.75C4.08579 32.75 3.75 33.0858 3.75 33.5C3.75 33.9142 4.08579 34.25 4.5 34.25V32.75ZM40 10.75C39.5858 10.75 39.25 11.0858 39.25 11.5C39.25 11.9142 39.5858 12.25 40 12.25V10.75ZM40 25.25C39.5858 25.25 39.25 25.5858 39.25 26C39.25 26.4142 39.5858 26.75 40 26.75V25.25ZM55 42.5V43.25C55.4142 43.25 55.75 42.9142 55.75 42.5H55ZM53 32.75C52.5858 32.75 52.25 33.0858 52.25 33.5C52.25 33.9142 52.5858 34.25 53 34.25V32.75ZM48.1708 22.8354C48.3561 22.4649 48.2059 22.0144 47.8354 21.8292C47.4649 21.6439 47.0144 21.7941 46.8292 22.1646L48.1708 22.8354ZM1 51.25C0.585786 51.25 0.25 51.5858 0.25 52C0.25 52.4142 0.585786 52.75 1 52.75V51.25ZM55 52.75C55.4142 52.75 55.75 52.4142 55.75 52C55.75 51.5858 55.4142 51.25 55 51.25V52.75ZM14 52.75C14.4142 52.75 14.75 52.4142 14.75 52C14.75 51.5858 14.4142 51.25 14 51.25V52.75ZM20 51.25C19.5858 51.25 19.25 51.5858 19.25 52C19.25 52.4142 19.5858 52.75 20 52.75V51.25ZM29 52.75C29.4142 52.75 29.75 52.4142 29.75 52C29.75 51.5858 29.4142 51.25 29 51.25V52.75ZM34 51.25C33.5858 51.25 33.25 51.5858 33.25 52C33.25 52.4142 33.5858 52.75 34 52.75V51.25ZM37 52.75C37.4142 52.75 37.75 52.4142 37.75 52C37.75 51.5858 37.4142 51.25 37 51.25V52.75ZM40 51.25C39.5858 51.25 39.25 51.5858 39.25 52C39.25 52.4142 39.5858 52.75 40 52.75V51.25ZM5 43.25C5.41421 43.25 5.75 42.9142 5.75 42.5C5.75 42.0858 5.41421 41.75 5 41.75V43.25ZM54.2577 29.1517L54.8222 28.6578L54.2577 29.1517ZM50.2784 14.1913L49.5324 14.2685L50.2784 14.1913ZM1.75 39.5V9H0.25V39.5H1.75ZM4 6.75H36.5V5.25H4V6.75ZM35.75 6V33.5H37.25V6H35.75ZM35.75 33.5V42.5H37.25V33.5H35.75ZM36.5 32.75H4.5V34.25H36.5V32.75ZM40 12.25H47.2943V10.75H40V12.25ZM49.5324 14.2685L50.754 26.0772L52.246 25.9228L51.0244 14.1141L49.5324 14.2685ZM50.9356 26.4939L53.6933 29.6456L54.8222 28.6578L52.0644 25.5061L50.9356 26.4939ZM55 41.75H52V43.25H55V41.75ZM54.25 31.1272V33.5H55.75V31.1272H54.25ZM54.25 33.5V42.5H55.75V33.5H54.25ZM55 32.75H53V34.25H55V32.75ZM51.5 25.25H45.75V26.75H51.5V25.25ZM45.75 25.25H40V26.75H45.75V25.25ZM46.4208 26.3354L48.1708 22.8354L46.8292 22.1646L45.0792 25.6646L46.4208 26.3354ZM1 52.75H14V51.25H1V52.75ZM20 52.75H29V51.25H20V52.75ZM34 52.75H37V51.25H34V52.75ZM40 52.75H55V51.25H40V52.75ZM36.5 41.75H20V43.25H36.5V41.75ZM5 41.75H4V43.25H5V41.75ZM53.6933 29.6456C54.0522 30.0557 54.25 30.5822 54.25 31.1272H55.75C55.75 30.2189 55.4203 29.3414 54.8222 28.6578L53.6933 29.6456ZM1.75 9C1.75 7.75736 2.75736 6.75 4 6.75V5.25C1.92893 5.25 0.25 6.92893 0.25 9H1.75ZM47.2943 12.25C48.4473 12.25 49.4137 13.1216 49.5324 14.2685L51.0244 14.1141C50.8267 12.2027 49.216 10.75 47.2943 10.75V12.25ZM0.25 39.5C0.25 41.5711 1.92893 43.25 4 43.25V41.75C2.75736 41.75 1.75 40.7426 1.75 39.5H0.25Z" fill="#FFED00"/>
<circle cx="14" cy="43" r="6" stroke="#FFED00" stroke-width="1.5"/>
<circle cx="14" cy="43" r="2" stroke="#FFED00" stroke-width="1.5"/>
<circle cx="46" cy="43" r="6" stroke="#FFED00" stroke-width="1.5"/>
<circle cx="46" cy="43" r="2" stroke="#FFED00" stroke-width="1.5"/>
</svg>
