<svg width="94" height="44" viewBox="0 0 94 44" fill="none" xmlns="http://www.w3.org/2000/svg">
<path fill-rule="evenodd" clip-rule="evenodd" d="M92.1869 30.2288C92.508 31.1494 92.8479 32.1077 93.2634 33.0093L93.2823 33.0469C93.9245 34.9634 94 36.9548 94 38.7959C94 39.585 93.7922 40.4116 93.3767 41.1631C92.4702 42.8164 90.6571 43.8308 88.3908 43.9248C88.0319 43.9624 87.6164 43.9812 87.1632 43.9812C86.9851 43.9812 86.8046 43.979 86.6235 43.9751C86.2861 43.968 85.9463 43.9558 85.6144 43.9436C85.1234 43.9248 84.6324 43.906 84.1602 43.906C81.8938 43.7935 79.6275 43.7559 77.4367 43.7371C76.4735 43.7371 75.5291 43.7183 74.5659 43.6995C73.3761 43.6431 72.2051 43.6243 71.0908 43.6243H69.5799C69.2183 43.6243 68.8304 43.6243 68.4296 43.6208C67.9305 43.6167 67.4114 43.6074 66.898 43.5867L62.8753 43.6431L61.251 43.6619C60.6971 43.676 60.1219 43.6582 59.5494 43.6406C59.3606 43.6348 59.172 43.6289 58.9847 43.6243C58.3614 43.6055 57.7004 43.5867 57.0771 43.5867C56.605 43.5867 56.1895 43.6055 55.7929 43.6243C54.2442 43.7183 52.2044 43.8308 50.1269 43.8308C48.4838 43.8308 46.9918 43.7747 45.5753 43.6243C44.8954 43.5679 44.1589 43.5303 43.2523 43.5303C42.5535 43.5303 41.8547 43.5491 41.1559 43.5679C40.5704 43.5867 39.985 43.6055 39.3995 43.6055H39.0595C37.9452 43.6055 36.8121 43.5679 35.7355 43.5303C34.659 43.4927 33.5447 43.4551 32.4493 43.4551C31.0328 43.4551 29.8807 43.5115 28.7853 43.6431C28.4832 43.6807 28.1621 43.6995 27.7844 43.6995C27.4066 43.6995 27.0289 43.6807 26.6512 43.6619C26.1412 43.6431 25.5935 43.6243 25.0647 43.6431C24.8508 43.6509 24.6269 43.6587 24.386 43.6653C24.0528 43.6743 23.6871 43.6807 23.2705 43.6807H22.3829H21.4952C20.9286 43.6807 20.1731 43.6807 19.4366 43.7371C18.9573 43.7463 18.4781 43.751 18.0011 43.7556C17.5195 43.7605 17.0403 43.7651 16.5658 43.7747C14.375 43.7935 12.1087 43.8308 9.86119 43.9248C9.35124 43.9248 8.86021 43.9436 8.38804 43.9624C7.87812 43.9812 7.34928 44 6.83937 44C6.38609 44 5.97059 43.9812 5.59288 43.9436C4.21415 43.8872 2.81657 43.3613 1.7967 42.4971C0.663523 41.5388 0.0213721 40.2424 0.00248173 38.8147C-0.0164086 36.9736 0.0591529 34.9822 0.701273 33.0657L0.720164 33.0281C1.13566 32.1265 1.47563 31.1682 1.7967 30.2476L1.88963 29.9854C2.19947 29.1089 2.51786 28.2083 2.92988 27.3545C3.2024 26.8123 3.4477 26.2566 3.68888 25.7102L3.81755 25.4192C4.21415 24.5176 4.62965 23.5781 5.10182 22.6951C6.10914 20.3384 7.7797 18.3484 9.38566 16.4355L9.44569 16.3638C9.59199 16.1787 9.74766 16.0027 9.89948 15.823C9.96327 15.7476 10.0264 15.6714 10.0878 15.5935C14.7905 10.4646 19.0966 7.13916 23.6671 5.11011C23.9115 5.0061 24.1488 4.91602 24.3832 4.82715C24.5293 4.77173 24.6742 4.7168 24.8192 4.65918C25.9713 4.22705 27.1611 3.77637 28.2943 3.23145C29.1064 2.87451 29.9374 2.63013 30.7495 2.38599L31.1028 2.27783C31.5449 2.14331 32.0029 2.00391 32.4493 1.84106L32.4871 1.82227C34.5457 1.29639 37.2842 0.67627 40.0983 0.450928C42.0625 0.150391 44.14 0 46.4441 0H46.9918H47.5395C49.8248 0 51.9023 0.150391 53.8853 0.450928C56.6805 0.657471 59.419 1.29639 61.4966 1.82227L61.5343 1.84106C62.082 2.02905 62.6675 2.2168 63.2341 2.38599C64.0462 2.63013 64.8772 2.89331 65.6704 3.23145C66.8225 3.79517 68.0123 4.24585 69.1644 4.67798C69.3545 4.75366 69.5445 4.82446 69.7345 4.89526C69.9222 4.96533 70.1099 5.0354 70.2976 5.11011C74.8681 7.13916 79.1931 10.4646 83.8769 15.5747C84.0287 15.7634 84.1804 15.9353 84.3265 16.1072C84.3986 16.1919 84.4693 16.2769 84.5379 16.3638C86.1621 18.2988 87.8431 20.3091 88.8818 22.6951C89.354 23.5781 89.7694 24.5176 90.1661 25.4192C90.4494 26.0393 90.7516 26.6968 91.0537 27.3357C91.4656 28.1892 91.784 29.0896 92.0938 29.9658L92.1869 30.2288ZM92.6213 40.7874C92.9613 40.1487 93.1502 39.4534 93.1502 38.7959C93.169 37.011 93.1124 35.1323 92.5269 33.3665C92.0925 32.427 91.7525 31.4688 91.4315 30.5295C91.1104 29.5901 90.7705 28.613 90.3361 27.7114C90.0339 27.0725 89.7317 26.3962 89.4484 25.7576L89.3579 25.5515C88.9911 24.7161 88.6193 23.8694 88.183 23.0708L88.1641 23.0332C87.2102 20.8069 85.6147 18.8994 84.07 17.0532L83.9336 16.8899C83.7258 16.6267 83.4992 16.3826 83.2915 16.1196C78.7021 11.1033 74.4715 7.83423 70.0143 5.86157C69.8072 5.7749 69.5937 5.69434 69.3776 5.61279C69.2194 5.55322 69.0597 5.49292 68.9 5.42944L68.5626 5.2998C67.498 4.89136 66.41 4.47388 65.3683 3.96411C64.6317 3.62598 63.8196 3.38184 63.0452 3.15625C62.4786 2.9873 61.8743 2.79932 61.3077 2.59277C58.267 1.82227 55.9629 1.40894 53.8287 1.23999H53.7909C51.8645 0.958252 49.8248 0.807861 47.5584 0.807861H47.0107H46.463C44.2155 0.807861 42.1758 0.939453 40.2305 1.23999H40.1927C37.4353 1.44653 34.7535 2.06665 32.7137 2.59277C32.1282 2.79932 31.5428 2.9873 30.9762 3.15625C30.2018 3.40063 29.3897 3.64478 28.6343 3.96411C27.5011 4.50903 26.2923 4.95996 25.1214 5.41064C24.7437 5.56104 24.3659 5.69263 23.9882 5.84277C19.5499 7.81543 15.3194 11.0657 10.7111 16.1008C10.5222 16.345 10.2956 16.5894 10.0878 16.8523L9.95155 17.0154C8.40684 18.8618 6.81129 20.7693 5.85728 22.9958L5.83839 23.0332C5.40229 23.8315 5.03062 24.678 4.66386 25.5132L4.57301 25.72C4.50697 25.8689 4.44093 26.0198 4.37443 26.1719C4.15559 26.6719 3.93159 27.1838 3.68534 27.6738C3.25096 28.5945 2.91102 29.5525 2.58995 30.4919C2.26887 31.4312 1.92893 32.3894 1.49455 33.3289C0.890177 35.1135 0.833506 37.011 0.852396 38.7959C0.871287 40.825 2.68437 42.9856 5.66844 43.1169C6.04615 43.1545 6.42387 43.1733 6.85826 43.1733C7.34931 43.1733 7.87812 43.1545 8.36918 43.1357C8.86024 43.1169 9.37016 43.0981 9.86122 43.0981C11.6431 43.0239 13.4369 42.9966 15.2049 42.97C15.6668 42.9629 16.127 42.9558 16.5848 42.948C17.5109 42.948 18.4371 42.9297 19.3811 42.9111L19.4366 42.9104C20.1921 42.854 20.9475 42.854 21.533 42.854H22.4206H23.3083C23.6502 42.854 23.9492 42.8496 24.2238 42.843C24.5256 42.8359 24.7977 42.8262 25.0647 42.8164C25.535 42.7861 25.9809 42.8047 26.422 42.8228C26.5301 42.8271 26.6379 42.8315 26.7456 42.8352L26.7997 42.8381C27.1577 42.8557 27.4993 42.8728 27.841 42.8728C28.181 42.8728 28.4643 42.854 28.7476 42.8164C29.8808 42.666 31.0706 42.6096 32.506 42.6096C33.6014 42.6096 34.7346 42.6472 35.8111 42.6848C36.8876 42.7224 38.0019 42.76 39.0973 42.76H39.4184C39.985 42.76 40.5704 42.7412 41.1559 42.7224C41.8359 42.7036 42.5535 42.6848 43.2712 42.6848C44.2155 42.6848 44.971 42.7224 45.6887 42.7976C47.0674 42.9292 48.5405 43.0044 50.1459 43.0044C52.2045 43.0044 54.2253 42.8916 55.7551 42.7976C56.1706 42.7788 56.605 42.76 57.0961 42.76C57.468 42.76 57.84 42.7664 58.212 42.7754C58.4821 42.782 58.7523 42.7898 59.0224 42.7976C59.759 42.8164 60.5145 42.854 61.251 42.8352L62.8753 42.8164L66.9169 42.76C67.8613 42.7976 68.7489 42.7976 69.5799 42.7976H71.0908C72.2051 42.7976 73.4139 42.8164 74.6037 42.8916C75.0687 42.9011 75.5432 42.9058 76.0201 42.9106C76.4923 42.9153 76.9668 42.9199 77.4367 42.9292L77.6191 42.9321C79.7541 42.9688 81.975 43.0071 84.1602 43.0981C84.6513 43.0981 85.1423 43.1169 85.6334 43.1357C86.1244 43.1545 86.6532 43.1733 87.1443 43.1733C87.5787 43.1733 87.9564 43.1545 88.3152 43.1169C90.2983 43.0229 91.8659 42.1777 92.6213 40.7874Z" fill="black"/>
<path d="M36.993 20.919C37.7117 21.4597 38.5594 21.7301 39.3149 22.1742C40.4206 22.8694 41.6185 23.5646 42.89 23.6418C43.3323 23.3521 42.89 22.599 42.7979 22.1549C42.761 20.9963 41.9133 20.0887 41.4526 19.0266C41.0472 18.0804 40.3101 17.308 39.7019 16.497C39.3702 16.0528 38.9095 15.7825 38.4857 15.5122C37.3984 15.1453 35.961 14.759 35.1502 15.6473C34.542 16.188 34.5052 17.1342 34.7079 17.9259C35.0949 19.1425 36.0347 20.0887 36.993 20.919Z" fill="black"/>
<path d="M44.8955 19.0977C45.3213 20.0922 45.9244 21.2428 46.9534 21.6718L47.0953 21.5938C47.4856 20.8138 47.7517 19.9557 48.0888 19.1562C48.2307 18.0447 48.8871 17.1282 48.9048 15.9777C48.9048 15.1392 49.1 14.2421 48.7452 13.4036C48.55 12.8771 48.4613 12.2921 48.0178 11.9216C47.2372 11.1611 46.1373 11.0636 45.2148 11.2391C44.1859 11.8241 43.565 13.1111 43.7778 14.4371C44.0262 15.9972 44.3988 17.5572 44.8955 19.0977Z" fill="black"/>
<path d="M51.1587 22.9851C52.5262 22.7602 53.9718 22.6102 55.1245 21.9168C56.1403 21.392 57.2734 20.9797 58.1916 20.305C58.8363 19.5553 59.266 18.6182 59.4028 17.6062C59.3833 16.9127 59.4809 16.0131 58.8167 15.4883C58.0158 14.6637 56.785 14.3451 55.7301 14.4763C54.5579 14.8136 53.5421 15.657 53.1709 16.7628C52.7606 17.6249 52.1745 18.3746 51.8815 19.2929C51.5885 20.305 51.1978 21.2983 50.9242 22.3104C50.9047 22.5353 50.9047 22.8351 51.1587 22.9851Z" fill="black"/>
<path d="M83.7478 32.9212C83.3024 32.3763 82.6898 31.9253 81.836 31.4931C81.5947 31.4368 81.3534 31.3992 81.1121 31.3428C80.7409 31.2677 80.3697 31.2113 79.9984 31.0985C79.9056 31.0798 79.7943 31.0798 79.6829 31.061C78.662 30.9294 77.4926 30.7791 76.7687 29.896L76.7502 29.8772V29.8396C76.7687 29.5578 76.8801 29.3323 76.9915 29.1256L77.01 29.1068L77.0286 29.088C77.6783 28.6746 78.4764 28.4679 79.4045 28.4679C80.2026 28.4679 80.9822 28.6182 81.7618 28.8249C82.0587 28.9001 82.3557 29.1444 82.6713 29.0504C82.9497 28.9565 83.1539 28.7122 83.191 28.4116C83.191 28.3364 83.2096 28.2612 83.2281 28.1861C83.2281 28.0545 83.2652 27.9042 83.3024 27.7727C83.3766 27.5472 83.4323 27.3405 83.2838 27.1526C82.8198 26.6829 82.2258 26.5325 81.5947 26.3634C81.3163 26.2883 81.0193 26.2131 80.7409 26.1004C79.7014 25.7809 78.6806 25.6118 77.7339 25.6118C76.379 25.6118 75.2653 25.95 74.3929 26.6265C74.0773 27.0211 73.8175 27.4345 73.4834 27.9042C73.1864 28.8249 72.908 29.896 73.3163 30.9294C73.4648 31.1361 73.5947 31.3804 73.7061 31.6059C73.9288 32.0381 74.1516 32.4326 74.5414 32.6957C74.8755 32.8648 75.2467 33.0339 75.5994 33.1843C76.0077 33.2218 76.4161 33.2218 76.8244 33.2218C78.0124 33.2406 79.256 33.2594 80.3511 33.9547C80.5738 34.0298 80.7038 34.1613 80.778 34.368C80.8894 34.7063 80.7409 35.1572 80.5367 35.4579C79.9056 36.2095 78.8662 36.2846 77.9196 36.3034H77.901C77.1957 36.3034 76.4903 36.0779 75.8964 35.7209C75.5623 35.533 75.2838 35.2888 75.0054 35.0257C74.8012 34.8378 74.6527 35.0445 74.5043 35.2324C74.263 35.5518 73.9288 36.1155 73.9288 36.5289C73.9288 36.6604 73.9103 36.8108 73.9288 36.9423C73.9845 37.4496 74.4857 37.7315 74.8755 37.9382C75.1539 38.0697 75.4323 38.22 75.6922 38.3891C76.7316 38.577 77.7339 38.7461 78.7363 38.7461C79.0518 38.7461 79.3488 38.7274 79.6458 38.6898C79.72 38.671 79.8128 38.6522 79.9056 38.6522C80.2583 38.5958 80.611 38.5207 80.9822 38.5207C81.6133 38.4643 82.2258 38.0133 82.7826 37.7315C83.191 37.506 83.4137 37.0738 83.5808 36.6604C83.6736 36.4162 83.8035 36.2471 83.952 36.0592C84.0634 35.9088 84.0634 35.6833 84.1005 35.4954C84.1191 35.4015 84.1376 35.3075 84.1562 35.2136C84.2119 34.9129 84.2304 34.6123 84.1747 34.2929C84.1191 33.8043 83.9891 33.3346 83.7478 32.9212Z" fill="black"/>
<path fill-rule="evenodd" clip-rule="evenodd" d="M23.2617 25.5835C23.3376 25.7351 23.4324 25.906 23.5082 26.0766C24.0011 27.1579 24.1528 28.3342 24.1528 29.3205V29.5861C24.1414 29.757 24.1232 29.9211 24.0899 30.0783C24.0678 30.1831 24.039 30.2846 24.0011 30.383C23.7926 31.028 23.3565 31.5971 22.9205 32.0903C22.2001 32.6406 21.3469 33.0957 20.1715 33.551C20.0577 33.5891 19.944 33.646 19.8302 33.6838C19.7016 33.7053 19.5608 33.7268 19.4182 33.7448C19.3086 33.7588 19.1979 33.7705 19.0908 33.7788C18.5031 33.8357 17.8775 33.8735 17.195 33.8925C17.0776 33.9023 16.9553 33.9072 16.8305 33.9094C16.7133 33.9116 16.5939 33.9116 16.4746 33.9116H16.0575H16.0195L16.0006 33.9494C16.0006 33.9621 15.9835 33.9748 15.9666 33.9875C15.9583 33.9939 15.95 34.0002 15.9437 34.0063L15.83 34.1201L15.811 34.1391V34.1772C15.83 34.4997 15.8489 34.822 15.8868 35.1445C15.9248 35.486 15.9816 35.8466 16.0195 36.188C16.0385 36.3777 16.0622 36.5673 16.0859 36.757C16.1096 36.9467 16.1333 37.1364 16.1523 37.3261C16.1712 37.4211 16.1712 37.5349 16.1902 37.6486C16.2091 38.0092 16.285 38.4455 16.0954 38.7871C15.8868 39.1474 15.7541 39.2234 15.356 39.2234L15.1782 39.2229C14.6961 39.2209 14.1788 39.219 13.7066 39.3371L13.6537 39.3518C13.4802 39.4001 13.3831 39.427 13.1758 39.375C13.1378 39.3562 12.626 39.2424 12.626 39.2424C12.5753 39.0092 12.6112 38.7653 12.647 38.5224C12.6782 38.3103 12.7094 38.0988 12.6828 37.8955C12.6828 37.6108 12.7018 37.3073 12.7397 37.0227C12.8167 36.3603 12.7812 35.7231 12.7448 35.0703C12.7364 34.9189 12.7279 34.7668 12.7207 34.6135C12.7018 34.5376 12.7018 34.4807 12.7018 34.4238C12.7018 33.643 12.6108 32.8171 12.5237 32.0268L12.4932 31.7487C12.4364 31.2746 12.3795 30.7815 12.3416 30.3071C12.3226 29.4155 12.2468 28.5239 12.1709 27.6511C12.1141 26.8545 12.0382 26.0388 12.0193 25.2419C12.0059 25.0149 11.9456 24.7924 11.8854 24.5708C11.7746 24.1626 11.6644 23.7561 11.8486 23.3259C12.0227 22.9106 12.3954 22.9682 12.7596 23.0249C12.9111 23.0483 13.0611 23.0715 13.1947 23.0603C14.1047 23.174 15.0147 23.174 15.8868 23.174C17.3656 23.174 18.9013 23.174 20.38 23.6674C20.3988 23.6767 20.4129 23.6814 20.427 23.686C20.4414 23.6909 20.4557 23.6958 20.4748 23.7053C20.5127 23.7148 20.5459 23.729 20.5791 23.7431C20.6123 23.7573 20.6454 23.7717 20.6834 23.7812C21.4227 24.0656 22.1621 24.3694 22.7499 24.8816C22.7756 24.9204 22.8102 24.9502 22.8416 24.9773C22.8564 24.99 22.8704 25.0022 22.8825 25.0144C22.9774 25.1469 23.0722 25.2798 23.1669 25.4316C23.2048 25.4885 23.2238 25.5266 23.2617 25.5835ZM15.0526 30.914V30.9521V30.9712C15.2043 31.1037 15.3939 31.1228 15.5076 31.1228C15.5456 31.1228 15.5835 31.1181 15.6214 31.1132C15.6593 31.1084 15.6972 31.1037 15.7351 31.1037C15.7812 31.0923 15.8203 31.0879 15.8608 31.0861C15.8871 31.0849 15.9139 31.0849 15.9437 31.0849H16.0195C17.0622 31.028 19.5458 30.6486 20.38 28.6377C20.5506 27.9167 20.3042 26.9492 19.5269 26.4751C18.9082 26.1372 18.2153 26.0407 17.5399 25.9467L17.5173 25.9438L17.0622 25.8869C16.7589 25.8869 16.4556 25.8679 16.1712 25.83C15.7351 25.7732 15.2612 25.7351 14.901 25.811H14.882L14.863 25.83C14.5218 26.2285 14.5787 26.7785 14.6545 27.3286C14.6765 27.4279 14.6921 27.5271 14.7014 27.6225C14.708 27.6914 14.7114 27.7583 14.7114 27.822C14.7635 28.2219 14.7997 28.6218 14.8346 29.007L14.8441 29.112C14.901 29.6999 14.9578 30.3071 15.0526 30.914Z" fill="black"/>
<path fill-rule="evenodd" clip-rule="evenodd" d="M71.2555 29.9048C71.2933 30.2644 71.4067 30.6243 71.52 30.9653C71.6145 31.2493 71.7089 31.5334 71.7089 31.7986C71.879 32.821 71.8223 33.8438 71.5578 34.7717C71.4444 35.2073 71.2744 35.624 71.0666 36.0217C70.991 36.2112 70.9155 36.3816 70.8588 36.552C70.821 36.6277 70.8021 36.7034 70.7643 36.7793L70.651 37.0632L70.5187 37.1958C70.4422 37.2852 70.3572 37.366 70.2751 37.4441C70.2355 37.4817 70.1966 37.5188 70.1598 37.5557C70.0837 37.6318 70.0001 37.7119 69.9141 37.7939C69.8077 37.8955 69.6974 38.0002 69.593 38.105C69.4608 38.2375 69.3096 38.3701 69.1585 38.5027C68.2517 38.9192 67.2126 39.3926 66.1168 39.3926H66.0035C65.8217 39.4119 65.6399 39.4019 65.4581 39.3799C65.2809 39.3586 65.1038 39.3262 64.9266 39.2981C64.6243 39.2412 64.3031 39.1843 63.982 39.1843H63.8875C62.6595 38.6541 61.3937 38.0481 60.4491 36.9875C59.5423 36.0974 58.9944 34.98 58.4465 33.7112C58.3996 33.5703 58.3574 33.4199 58.3198 33.2625C58.2817 33.1028 58.2484 32.936 58.2198 32.7644C58.2078 32.668 58.1939 32.5715 58.1799 32.4746C58.1498 32.2666 58.1193 32.0559 58.1065 31.8364V31.8174V31.7605C58.0687 31.0979 58.1443 30.397 58.3898 29.7532C58.9377 28.9578 59.6179 28.0676 60.5814 27.5186L60.6003 27.4995C61.2237 26.9124 62.0928 26.6853 62.924 26.4768L63.5475 26.3064C63.8875 26.2876 64.1709 26.2686 64.4543 26.2686C65.1344 26.2686 65.7579 26.3442 66.3246 26.4958C68.3083 26.7419 70.2353 28.0867 71.2555 29.9048ZM65.021 36.1353C66.0412 36.1353 67.0236 35.7754 67.7037 35.1504C68.1383 34.5444 68.7051 33.6165 68.535 32.575C68.4028 31.2681 67.9305 30.3403 67.1559 29.8289C66.5702 29.469 65.9279 29.4312 65.2855 29.3933C64.8132 29.3743 64.322 29.469 63.8686 29.5637C63.785 29.5876 63.709 29.6116 63.6358 29.6357L63.5097 29.6775C63.2263 29.772 62.924 29.791 62.6406 29.9045C62.5154 29.9548 62.3901 30.0125 62.2665 30.0776C62.1104 30.1597 61.9569 30.2534 61.8093 30.3591C61.2804 30.7378 60.9025 31.2871 60.7703 31.9309C60.638 32.8779 61.0159 33.9385 61.7904 34.7717C62.4328 35.321 63.2452 35.7754 64.1709 36.0596C64.3228 36.0813 64.4871 36.103 64.6532 36.1177C64.7763 36.1284 64.9004 36.1353 65.021 36.1353Z" fill="black"/>
<path fill-rule="evenodd" clip-rule="evenodd" d="M39.0173 35.8428C39.2576 35.8428 39.5349 35.8616 39.7567 36.105C39.8283 36.3228 39.8223 36.5518 39.8159 36.7918C39.814 36.8616 39.8122 36.9324 39.8122 37.0042C39.8031 37.0865 39.8073 37.1822 39.8119 37.2849C39.8166 37.3924 39.8216 37.5073 39.8122 37.6223C39.7937 37.8657 39.7382 38.0906 39.4979 38.1844C39.1652 38.3155 38.6846 38.1656 38.3519 38.128C37.8898 38.0906 37.4277 38.0532 36.9656 38.0532H36.9102C36.6699 38.0532 36.4665 38.0532 36.2447 38.0718C36.18 38.0811 36.1153 38.086 36.0506 38.0906C35.9859 38.0952 35.9212 38.1001 35.8565 38.1094C35.4868 38.0718 35.3944 37.7158 35.339 37.3413C35.3205 37.3225 35.3205 37.304 35.3205 37.2852C35.3028 37.2312 35.2936 37.1775 35.2847 37.1258C35.2751 37.0696 35.2658 37.0157 35.2466 36.9668L35.2281 36.8731L35.2096 36.8919L35.1357 36.9292C34.8214 37.0979 34.5257 37.2852 34.23 37.4724L34.1324 37.5318C33.1469 38.1319 32.138 38.7461 30.9213 38.7461C30.7919 38.7461 30.681 38.7461 30.5701 38.7276C30.3852 38.69 30.2004 38.6712 30.0155 38.6526C29.0728 38.5401 28.1117 38.4278 27.2614 37.9783C27.206 37.9407 27.132 37.8845 27.0766 37.8472L26.9855 37.7774C26.5503 37.4439 26.0997 37.0984 25.8751 36.5733C24.7291 34.4004 24.4888 32.0403 25.2282 30.2796V30.2608C25.3575 29.5865 25.6533 28.6873 26.4111 28.0879L26.4296 28.0694C26.6884 27.7134 27.1135 27.5823 27.5572 27.4698C27.7605 27.4136 27.9453 27.3574 28.1302 27.2825C28.4998 27.1514 28.925 27.0952 29.3316 27.0391C29.8677 26.9829 30.4222 26.908 30.9028 26.6643C31.4758 26.5894 32.0673 26.5144 32.6403 26.4583C32.9545 26.4209 33.2688 26.4021 33.583 26.3833C33.7825 26.3706 33.9799 26.3516 34.1766 26.3325C34.5631 26.2954 34.947 26.2586 35.339 26.271L35.4059 26.274C35.8025 26.291 36.2917 26.312 36.4665 26.7019C36.684 27.1868 36.6399 27.8677 36.6019 28.4551C36.5914 28.6165 36.5814 28.7708 36.5774 28.9121C36.5959 29.7176 36.6883 30.5606 36.7623 31.366C36.7836 31.5896 36.805 31.8162 36.8253 32.0442C36.8577 32.4085 36.8874 32.7771 36.9102 33.1455C36.9194 33.2205 36.924 33.2952 36.9286 33.3701C36.9332 33.4451 36.9379 33.52 36.9471 33.595C37.0026 34.2881 37.0765 34.9998 37.5386 35.5806C37.7974 35.8428 38.1301 35.8804 38.3889 35.8804C38.433 35.8804 38.4813 35.876 38.5318 35.8716C38.5871 35.8667 38.6451 35.8616 38.7031 35.8616C38.814 35.8428 38.9064 35.8428 39.0173 35.8428ZM30.8473 35.8616C31.6422 35.8616 32.3815 35.3933 32.7142 34.6814C33.6569 33.314 33.6015 31.4597 33.5275 29.7925C33.4536 29.3992 33.1948 29.1931 32.7512 29.1931C32.5848 29.1931 32.3815 29.2119 32.1967 29.2493C32.0303 29.2869 31.864 29.3054 31.7346 29.3054H31.6976H31.4573C30.4407 29.3054 29.4795 29.8113 28.851 30.6917C28.1671 31.647 27.9823 32.8645 28.3335 33.9698C28.5368 34.6253 29.0174 35.3184 29.6458 35.6555C29.7752 35.7117 29.9046 35.7678 30.0525 35.8054C30.2373 35.8428 30.4222 35.8616 30.607 35.8428C30.681 35.8616 30.7734 35.8616 30.8473 35.8616Z" fill="black"/>
<path d="M57.1342 36.3962C56.9465 36.4345 56.74 36.4728 56.5523 36.4728C56.3457 36.4728 56.158 36.4345 55.9891 36.3388L55.9703 36.3197C55.3132 35.7455 55.4259 34.9416 55.5385 34.2526C55.5573 34.0612 55.5948 33.889 55.5948 33.7359V33.7167C55.7638 33.1617 55.7075 32.5493 55.6511 31.9559L55.6324 31.7071C55.5948 31.4583 55.6136 31.2095 55.6511 30.9798C55.6887 30.6928 55.7075 30.4248 55.6324 30.1569C55.3695 29.2573 55.0692 28.2238 54.4497 27.3817C54.093 26.8841 53.4922 26.6735 52.9103 26.4821L52.8164 26.463C52.5348 26.463 52.2532 26.463 51.9716 26.4439C51.7463 26.4247 51.521 26.4247 51.277 26.4247C50.0192 26.4247 48.6112 26.9415 47.4848 27.5157C47.3534 27.5922 47.2032 27.6496 47.0718 27.7262C46.6963 27.8984 46.4335 28.1855 46.1332 28.4918C45.8328 28.798 45.5324 29.1233 45.1194 29.3147L45.0068 29.353V29.2382C45.0068 29.0851 44.988 28.9128 44.9692 28.7597C44.9692 28.6449 44.9504 28.5492 44.9504 28.4343C44.9692 28.3961 44.9692 28.3195 44.9692 28.2238C44.9692 28.109 44.9692 27.9941 44.9317 27.8793C44.9317 27.6879 44.9504 27.5157 44.9504 27.3243C44.9504 27.1329 44.9317 26.9415 44.9317 26.731C44.9317 26.6161 44.9504 26.3865 44.8566 26.3099C44.8003 26.2525 44.6501 26.2716 44.575 26.2716C44.4436 26.2716 44.3122 26.3482 44.1995 26.3865C43.9742 26.463 43.7302 26.5587 43.4486 26.5204C42.8854 26.6544 42.3034 26.6735 41.7402 26.6735C41.2709 26.6735 40.7828 26.6735 40.3323 26.7692C40.1445 26.8075 39.9568 26.8075 39.7878 26.7884C39.6564 26.7692 39.4499 26.7884 39.3373 26.9032C39.2246 27.0372 39.1308 27.3243 39.1871 27.4965C39.2434 27.6496 39.2997 27.8219 39.2997 27.975C39.2997 28.0133 39.2997 28.0516 39.2997 28.0707C39.2997 28.109 39.2997 28.1473 39.281 28.2047C39.2997 28.4726 39.1495 28.6831 39.1683 28.9511C39.1683 29.0277 39.1871 29.1233 39.1871 29.1999C39.1871 29.2956 39.2059 29.3913 39.2622 29.4679C39.3373 29.5827 39.4124 29.5827 39.5438 29.5827C39.6752 29.5827 39.8066 29.621 39.938 29.6401C40.0694 29.6401 40.2008 29.621 40.351 29.621C40.6889 29.5827 41.0269 29.5444 41.3648 29.5444C41.6464 29.5444 41.8904 29.5635 42.1345 29.621L42.1908 29.6401L42.2096 29.6975C42.4161 30.3865 42.4536 31.0947 42.4724 31.7837C42.4912 32.1856 42.5099 32.5875 42.5475 32.9895C42.5663 33.2191 42.585 33.4679 42.6038 33.6976C42.6038 33.8124 42.6038 33.9847 42.6226 34.1569C42.6413 34.578 42.6413 34.9991 42.6413 35.401C42.6413 36.09 42.6413 36.779 42.6977 37.468C42.6977 37.5637 42.6789 37.6403 42.6789 37.736C42.6413 38.0805 42.585 38.425 42.9042 38.6164C43.2796 38.6929 43.6551 38.7312 44.0306 38.7695C44.4623 38.8077 44.9317 38.846 45.3635 38.98C45.4949 38.98 45.5887 38.9417 45.6451 38.8652C45.7577 38.7121 45.7014 38.425 45.6638 38.157C45.6451 38.023 45.6263 37.9082 45.6075 37.7934V37.7742V37.7551C45.7577 37.0852 45.7765 36.3579 45.814 35.6498C45.8328 35.3436 45.8328 35.0373 45.8516 34.7311C45.8516 34.6928 45.8516 34.6737 45.8516 34.6354C45.8516 34.5589 45.8703 34.5014 45.8703 34.4249C45.8891 34.2909 45.9079 34.1569 45.9267 34.023C45.9454 33.9464 45.9454 33.8699 45.9642 33.7933V33.7742C46.1144 33.4488 46.1895 33.1043 46.2458 32.7598C46.3397 32.3387 46.4148 31.9177 46.6213 31.5349C47.0906 30.0994 48.5737 29.1233 50.3008 29.1233C50.6387 29.1233 50.9766 29.1616 51.2958 29.2382C51.5023 29.2765 51.6525 29.3913 51.7839 29.5253C51.9716 29.7167 52.0842 29.9463 52.1406 30.1186C52.1781 30.1951 52.1969 30.2717 52.2157 30.3291C52.4222 31.4392 52.4409 32.5493 52.4785 33.621C52.516 34.9799 52.5536 36.3771 52.929 37.736C53.2482 38.3675 53.8677 38.7886 54.4121 39.114C55.2945 39.2862 56.1956 39.4202 57.0967 39.4011C57.8851 39.3819 57.8288 38.5398 57.8476 37.8891C57.8476 37.6785 57.9039 37.468 57.979 37.2766C58.0729 36.9895 58.148 36.7024 58.0541 36.4154C57.8101 36.2814 57.4534 36.3388 57.1342 36.3962Z" fill="black"/>
</svg>
