<svg width="56" height="56" viewBox="0 0 56 56" fill="none" xmlns="http://www.w3.org/2000/svg">
<path d="M6 54.25C5.58579 54.25 5.25 54.5858 5.25 55C5.25 55.4142 5.58579 55.75 6 55.75V54.25ZM52 55.75C52.4142 55.75 52.75 55.4142 52.75 55C52.75 54.5858 52.4142 54.25 52 54.25V55.75ZM45.5 41.5L44.7739 41.6878L45.5 41.5ZM47.7989 48L48.4913 47.7117L47.7989 48ZM10.2706 48L9.57747 47.7136L10.2706 48ZM7 27.25C6.58579 27.25 6.25 27.5858 6.25 28C6.25 28.4142 6.58579 28.75 7 28.75V27.25ZM51 28.75C51.4142 28.75 51.75 28.4142 51.75 28C51.75 27.5858 51.4142 27.25 51 27.25V28.75ZM8.5 24.5V23.75C8.08579 23.75 7.75 24.0858 7.75 24.5H8.5ZM49.5 24.5H50.25C50.25 24.1973 50.068 23.9243 49.7886 23.8078L49.5 24.5ZM20.5 17.5L20.0315 16.9143L20.5 17.5ZM26 17.5L26.636 17.8975L26 17.5ZM36.6933 17.0851L37.1693 16.5056L36.6933 17.0851ZM29 1V0.25H28.25V1H29ZM37 1L37.5857 1.46852C37.7658 1.24339 37.8009 0.934958 37.676 0.675108C37.5511 0.415259 37.2883 0.25 37 0.25V1ZM35 3.5L34.4143 3.03148C34.1952 3.30539 34.1952 3.69461 34.4143 3.96852L35 3.5ZM37 6V6.75C37.2883 6.75 37.5511 6.58474 37.676 6.32489C37.8009 6.06504 37.7658 5.75661 37.5857 5.53148L37 6ZM44.1242 31L44.873 30.9571L44.1242 31ZM6 55.75H7V54.25H6V55.75ZM14 28.75H44V27.25H14V28.75ZM51 55.75H52V54.25H51V55.75ZM7 55.75H21V54.25H7V55.75ZM21 55.75H37V54.25H21V55.75ZM37 55.75H51V54.25H37V55.75ZM36.25 45V48H37.75V45H36.25ZM36.25 48V55H37.75V48H36.25ZM44.7739 41.6878C45.2949 43.7025 46.1922 46.0922 47.1066 48.2883L48.4913 47.7117C47.5854 45.536 46.7204 43.2236 46.2261 41.3122L44.7739 41.6878ZM47.1066 48.2883C47.8914 50.1733 48.6968 51.9345 49.3055 53.2235C49.6101 53.8683 49.8657 54.3958 50.0455 54.7626C50.1354 54.9459 50.2063 55.0892 50.2549 55.1868C50.2792 55.2357 50.2979 55.2731 50.3106 55.2985C50.317 55.3112 50.3218 55.3208 50.3251 55.3274C50.3268 55.3307 50.3281 55.3332 50.3289 55.3349C50.3294 55.3358 50.3297 55.3364 50.3299 55.3369C50.33 55.3371 50.3301 55.3373 50.3302 55.3375C50.3302 55.3375 50.3303 55.3376 50.3303 55.3376C50.3303 55.3377 50.3303 55.3377 51 55C51.6697 54.6623 51.6697 54.6623 51.6697 54.6623C51.6697 54.6623 51.6697 54.6623 51.6696 54.6622C51.6696 54.6622 51.6696 54.6621 51.6695 54.6619C51.6693 54.6616 51.669 54.6611 51.6687 54.6603C51.668 54.6589 51.6668 54.6567 51.6653 54.6537C51.6623 54.6477 51.6578 54.6386 51.6517 54.6265C51.6396 54.6023 51.6215 54.5661 51.5978 54.5186C51.5505 54.4234 51.4809 54.2829 51.3924 54.1024C51.2154 53.7413 50.9629 53.2204 50.6619 52.583C50.0596 51.3074 49.2645 49.5686 48.4913 47.7117L47.1066 48.2883ZM37 48.75H47.7989V47.25H37V48.75ZM21.75 55V48H20.25V55H21.75ZM21.75 48V45H20.25V48H21.75ZM7 55C7.66176 55.3529 7.66179 55.3529 7.66182 55.3528C7.66184 55.3528 7.66188 55.3527 7.66192 55.3526C7.662 55.3525 7.6621 55.3523 7.66223 55.3521C7.66249 55.3516 7.66285 55.3509 7.66331 55.35C7.66423 55.3483 7.66555 55.3458 7.66727 55.3426C7.67071 55.3361 7.67574 55.3266 7.68231 55.3142C7.69544 55.2894 7.71472 55.2528 7.7397 55.2051C7.78966 55.1097 7.86247 54.9697 7.95466 54.79C8.13902 54.4306 8.401 53.912 8.71289 53.2726C9.3363 51.9945 10.1609 50.2298 10.9638 48.2864L9.57747 47.7136C8.78968 49.6204 7.97894 51.3557 7.36471 52.615C7.05778 53.2443 6.80036 53.7538 6.62003 54.1053C6.52987 54.2811 6.459 54.4173 6.41088 54.5092C6.38682 54.5551 6.36845 54.59 6.3562 54.6132C6.35007 54.6248 6.34548 54.6334 6.34246 54.6391C6.34096 54.6419 6.33985 54.644 6.33914 54.6454C6.33879 54.646 6.33854 54.6465 6.33838 54.6468C6.33831 54.6469 6.33826 54.647 6.33823 54.6471C6.33822 54.6471 6.33822 54.6471 6.33822 54.6471C6.33822 54.6471 6.33824 54.6471 7 55ZM10.9638 48.2864C11.8344 46.1792 12.6871 43.8438 13.2276 41.6819L11.7724 41.3181C11.2571 43.3795 10.4346 45.639 9.57747 47.7136L10.9638 48.2864ZM21 47.25H10.2706V48.75H21V47.25ZM14 27.25H8.5V28.75H14V27.25ZM8.5 27.25H7V28.75H8.5V27.25ZM9.25 28V24.5H7.75V28H9.25ZM44 28.75H49.5V27.25H44V28.75ZM49.5 28.75H51V27.25H49.5V28.75ZM48.75 24.5V28H50.25V24.5H48.75ZM8.5 25.25H20V23.75H8.5V25.25ZM20 25.25H38V23.75H20V25.25ZM38 25.25H49.5V23.75H38V25.25ZM8.5 25.25C8.63153 25.25 8.74606 25.2126 8.75176 25.211C8.79234 25.199 8.83427 25.1847 8.87286 25.1707C8.95168 25.1423 9.05053 25.1033 9.16407 25.0563C9.39292 24.9615 9.70536 24.8244 10.084 24.6498C10.8422 24.3001 11.879 23.7937 13.0648 23.1619C15.4313 21.9009 18.418 20.1261 20.9685 18.0857L20.0315 16.9143C17.582 18.8739 14.6848 20.5991 12.3594 21.8381C11.1992 22.4563 10.188 22.9499 9.45571 23.2877C9.08906 23.4568 8.7956 23.5854 8.59037 23.6703C8.48686 23.7132 8.41161 23.7425 8.36334 23.7599C8.33839 23.7689 8.32853 23.7719 8.32957 23.7716C8.32984 23.7715 8.34061 23.7683 8.35822 23.7645C8.36515 23.763 8.42241 23.75 8.5 23.75V25.25ZM20.9685 18.0857C22.7997 16.6207 24.9542 14.4641 26.6354 12.6932C27.4797 11.8039 28.2112 11.005 28.7317 10.4282C28.9921 10.1397 29.1998 9.90658 29.3428 9.74531C29.4142 9.66467 29.4695 9.60198 29.5071 9.55929C29.5258 9.53794 29.5402 9.5216 29.5499 9.51051C29.5547 9.50497 29.5584 9.50074 29.561 9.49785C29.5622 9.49641 29.5632 9.4953 29.5639 9.49454C29.5642 9.49416 29.5644 9.49386 29.5646 9.49365C29.5647 9.49354 29.5648 9.49345 29.5649 9.49339C29.5649 9.49332 29.565 9.49327 29 9C28.435 8.50673 28.435 8.50672 28.435 8.50673C28.435 8.50677 28.435 8.5068 28.4349 8.50687C28.4348 8.507 28.4346 8.50722 28.4343 8.50752C28.4338 8.50812 28.433 8.50906 28.4319 8.51034C28.4296 8.5129 28.4262 8.5168 28.4217 8.52201C28.4125 8.53243 28.3988 8.5481 28.3806 8.56875C28.3443 8.61004 28.2903 8.67128 28.2202 8.75039C28.08 8.90864 27.8752 9.13837 27.6182 9.42318C27.1039 9.99295 26.3812 10.7824 25.5476 11.6604C23.8732 13.424 21.7777 15.5174 20.0315 16.9143L20.9685 18.0857ZM29 9C28.2546 8.91718 28.2546 8.91703 28.2546 8.9169C28.2546 8.91688 28.2546 8.91677 28.2546 8.91672C28.2546 8.91664 28.2546 8.91663 28.2546 8.91668C28.2546 8.91678 28.2546 8.91716 28.2545 8.9178C28.2544 8.91909 28.2541 8.92145 28.2537 8.92487C28.2529 8.93169 28.2515 8.94273 28.2496 8.95783C28.2458 8.98803 28.2398 9.03445 28.2311 9.09588C28.2136 9.21877 28.1857 9.40158 28.1443 9.63461C28.0616 10.101 27.9255 10.7668 27.7133 11.555C27.2875 13.1363 26.562 15.1858 25.364 17.1025L26.636 17.8975C27.938 15.8142 28.7125 13.6137 29.1617 11.945C29.387 11.1082 29.5321 10.399 29.6213 9.89664C29.6659 9.6453 29.6965 9.44529 29.7162 9.30646C29.726 9.23704 29.7332 9.18287 29.7379 9.1452C29.7403 9.12636 29.7421 9.11164 29.7433 9.1012C29.7439 9.09597 29.7444 9.09182 29.7447 9.08875C29.7449 9.08722 29.7451 9.08595 29.7452 9.08496C29.7452 9.08447 29.7453 9.08404 29.7453 9.08369C29.7453 9.08351 29.7454 9.08329 29.7454 9.0832C29.7454 9.083 29.7454 9.08282 29 9ZM25.364 17.1025C24.5284 18.4394 23.0699 20.1457 21.7904 21.5438C21.1562 22.2368 20.5757 22.8436 20.1539 23.277C19.9431 23.4936 19.7721 23.6667 19.6542 23.7853C19.5952 23.8446 19.5495 23.8902 19.5188 23.9209C19.5034 23.9362 19.4917 23.9478 19.484 23.9555C19.4801 23.9593 19.4772 23.9622 19.4754 23.964C19.4744 23.9649 19.4738 23.9656 19.4733 23.966C19.4731 23.9662 19.473 23.9664 19.4729 23.9665C19.4728 23.9665 19.4728 23.9665 19.4728 23.9665C19.4728 23.9665 19.4728 23.9665 20 24.5C20.5272 25.0335 20.5272 25.0334 20.5273 25.0334C20.5273 25.0333 20.5274 25.0332 20.5275 25.0331C20.5277 25.033 20.5279 25.0327 20.5282 25.0324C20.5288 25.0318 20.5297 25.031 20.5308 25.0299C20.533 25.0277 20.5363 25.0245 20.5405 25.0203C20.549 25.0119 20.5614 24.9995 20.5775 24.9834C20.6099 24.9512 20.6572 24.9039 20.7178 24.8429C20.8392 24.7209 21.0139 24.544 21.2288 24.3232C21.6585 23.8817 22.2499 23.2635 22.8969 22.5565C24.1797 21.1548 25.7212 19.3611 26.636 17.8975L25.364 17.1025ZM29 9C28.2537 9.07463 28.2537 9.0748 28.2538 9.075C28.2538 9.07509 28.2538 9.0753 28.2538 9.07548C28.2538 9.07584 28.2539 9.07627 28.2539 9.07679C28.254 9.07781 28.2542 9.07914 28.2543 9.08077C28.2547 9.08403 28.2552 9.0885 28.2558 9.09414C28.257 9.10543 28.2587 9.12143 28.2611 9.14196C28.2657 9.18301 28.2728 9.24216 28.2826 9.31782C28.3021 9.46909 28.3326 9.68657 28.3771 9.95745C28.466 10.4987 28.611 11.2559 28.8365 12.1257C29.2845 13.8539 30.0634 16.0791 31.3897 17.9359L32.6103 17.0641C31.4366 15.4209 30.7155 13.3961 30.2885 11.7493C30.0765 10.9316 29.9403 10.22 29.8573 9.71443C29.8158 9.46187 29.7877 9.26138 29.7702 9.12554C29.7614 9.05764 29.7553 9.00595 29.7514 8.97205C29.7495 8.9551 29.7481 8.94261 29.7473 8.93476C29.7468 8.93084 29.7466 8.92808 29.7464 8.9265C29.7463 8.92572 29.7463 8.92523 29.7462 8.92504C29.7462 8.92494 29.7462 8.92492 29.7462 8.92498C29.7462 8.92501 29.7463 8.92511 29.7463 8.92512C29.7463 8.92524 29.7463 8.92537 29 9ZM31.3897 17.9359C32.4612 19.436 33.9841 21.2113 35.2259 22.5988C35.8494 23.2955 36.4069 23.8998 36.8086 24.3301C37.0095 24.5453 37.1716 24.7171 37.2837 24.8354C37.3398 24.8945 37.3833 24.9402 37.413 24.9713C37.4278 24.9869 37.4392 24.9988 37.4469 25.0068C37.4508 25.0109 37.4537 25.0139 37.4557 25.016C37.4567 25.0171 37.4575 25.0179 37.4581 25.0185C37.4583 25.0187 37.4585 25.019 37.4587 25.0191C37.4588 25.0192 37.4588 25.0193 37.4589 25.0193C37.4589 25.0194 37.459 25.0194 38 24.5C38.541 23.9806 38.5411 23.9806 38.541 23.9806C38.541 23.9806 38.541 23.9806 38.541 23.9805C38.5409 23.9804 38.5407 23.9803 38.5405 23.9801C38.5401 23.9796 38.5395 23.979 38.5386 23.978C38.5368 23.9762 38.5341 23.9734 38.5305 23.9696C38.5233 23.9621 38.5125 23.9508 38.4982 23.9358C38.4696 23.9059 38.4272 23.8613 38.3723 23.8034C38.2626 23.6876 38.1031 23.5186 37.905 23.3064C37.5087 22.882 36.9586 22.2856 36.3436 21.5985C35.1086 20.2185 33.6315 18.4938 32.6103 17.0641L31.3897 17.9359ZM29 9C28.4181 9.4732 28.4182 9.47326 28.4182 9.47333C28.4183 9.47339 28.4184 9.47348 28.4184 9.47359C28.4186 9.4738 28.4188 9.47409 28.4191 9.47446C28.4198 9.4752 28.4206 9.47627 28.4217 9.47765C28.424 9.48041 28.4273 9.48444 28.4316 9.48972C28.4402 9.50027 28.4529 9.51578 28.4695 9.53601C28.5027 9.57647 28.5515 9.63583 28.6147 9.71216C28.741 9.86481 28.9248 10.0854 29.1557 10.3585C29.6174 10.9046 30.2682 11.6615 31.0253 12.5059C32.5322 14.1865 34.4869 16.2434 36.2172 17.6647L37.1693 16.5056C35.5317 15.1605 33.6398 13.1748 32.1421 11.5045C31.3968 10.6733 30.7558 9.9277 30.3012 9.39005C30.074 9.12131 29.8935 8.90475 29.7702 8.75572C29.7085 8.68122 29.6611 8.6236 29.6293 8.58481C29.6134 8.56541 29.6014 8.55071 29.5934 8.54097C29.5895 8.53609 29.5865 8.53245 29.5846 8.53008C29.5836 8.5289 29.5829 8.52803 29.5824 8.52748C29.5822 8.52721 29.5821 8.52701 29.582 8.5269C29.5819 8.52684 29.5819 8.52682 29.5819 8.52679C29.5819 8.52678 29.5819 8.5268 29 9ZM36.2172 17.6647C38.8419 19.8206 42.0971 21.7025 44.6754 23.0387C45.9685 23.7089 47.0997 24.2461 47.9084 24.616C48.3128 24.8011 48.637 24.9445 48.8607 25.0419C48.9726 25.0906 49.0595 25.1278 49.1187 25.1531C49.1484 25.1657 49.1711 25.1753 49.1866 25.1819C49.1944 25.1851 49.2004 25.1876 49.2045 25.1894C49.2066 25.1902 49.2082 25.1909 49.2093 25.1914C49.2099 25.1916 49.2104 25.1918 49.2107 25.192C49.2109 25.192 49.211 25.1921 49.2111 25.1921C49.2113 25.1922 49.2114 25.1922 49.5 24.5C49.7886 23.8078 49.7887 23.8078 49.7887 23.8078C49.7887 23.8078 49.7887 23.8078 49.7886 23.8078C49.7885 23.8077 49.7882 23.8076 49.7879 23.8074C49.7871 23.8071 49.786 23.8066 49.7843 23.806C49.781 23.8046 49.7759 23.8024 49.769 23.7995C49.7552 23.7937 49.7342 23.7848 49.7063 23.773C49.6507 23.7493 49.5676 23.7136 49.4595 23.6666C49.2435 23.5725 48.9278 23.4329 48.5324 23.252C47.7414 22.8901 46.6328 22.3637 45.3656 21.7069C42.823 20.3892 39.6749 18.5637 37.1693 16.5056L36.2172 17.6647ZM29 1.75H37V0.25H29V1.75ZM36.4143 0.531479L34.4143 3.03148L35.5857 3.96852L37.5857 1.46852L36.4143 0.531479ZM34.4143 3.96852L36.4143 6.46852L37.5857 5.53148L35.5857 3.03148L34.4143 3.96852ZM29.75 9C29.75 8.99963 29.75 8.99925 29.75 8.99887C29.75 8.99849 29.75 8.9981 29.75 8.99771C29.75 8.99732 29.75 8.99693 29.75 8.99653C29.75 8.99613 29.75 8.99573 29.75 8.99532C29.75 8.99491 29.75 8.9945 29.75 8.99409C29.75 8.99367 29.75 8.99326 29.75 8.99283C29.75 8.99241 29.75 8.99198 29.75 8.99155C29.75 8.99112 29.75 8.99069 29.75 8.99025C29.75 8.98981 29.75 8.98937 29.75 8.98892C29.75 8.98847 29.75 8.98802 29.75 8.98757C29.75 8.98711 29.75 8.98665 29.75 8.98619C29.75 8.98573 29.75 8.98526 29.75 8.98479C29.75 8.98432 29.75 8.98384 29.75 8.98336C29.75 8.98288 29.75 8.9824 29.75 8.98191C29.75 8.98143 29.75 8.98094 29.75 8.98044C29.75 8.97995 29.75 8.97945 29.75 8.97894C29.75 8.97844 29.75 8.97793 29.75 8.97742C29.75 8.97691 29.75 8.97639 29.75 8.97587C29.75 8.97536 29.75 8.97483 29.75 8.97431C29.75 8.97378 29.75 8.97325 29.75 8.97271C29.75 8.97218 29.75 8.97164 29.75 8.97109C29.75 8.97055 29.75 8.97 29.75 8.96945C29.75 8.9689 29.75 8.96835 29.75 8.96779C29.75 8.96723 29.75 8.96666 29.75 8.9661C29.75 8.96553 29.75 8.96496 29.75 8.96439C29.75 8.96381 29.75 8.96323 29.75 8.96265C29.75 8.96207 29.75 8.96148 29.75 8.96089C29.75 8.9603 29.75 8.9597 29.75 8.9591C29.75 8.95851 29.75 8.9579 29.75 8.9573C29.75 8.95669 29.75 8.95608 29.75 8.95547C29.75 8.95485 29.75 8.95423 29.75 8.95361C29.75 8.95299 29.75 8.95236 29.75 8.95173C29.75 8.9511 29.75 8.95047 29.75 8.94983C29.75 8.94919 29.75 8.94855 29.75 8.94791C29.75 8.94726 29.75 8.94661 29.75 8.94596C29.75 8.94531 29.75 8.94465 29.75 8.94399C29.75 8.94333 29.75 8.94266 29.75 8.94199C29.75 8.94132 29.75 8.94065 29.75 8.93997C29.75 8.9393 29.75 8.93862 29.75 8.93793C29.75 8.93725 29.75 8.93656 29.75 8.93587C29.75 8.93518 29.75 8.93448 29.75 8.93378C29.75 8.93308 29.75 8.93238 29.75 8.93167C29.75 8.93096 29.75 8.93025 29.75 8.92953C29.75 8.92882 29.75 8.9281 29.75 8.92738C29.75 8.92665 29.75 8.92593 29.75 8.9252C29.75 8.92447 29.75 8.92373 29.75 8.92299C29.75 8.92226 29.75 8.92151 29.75 8.92077C29.75 8.92002 29.75 8.91927 29.75 8.91852C29.75 8.91777 29.75 8.91701 29.75 8.91625C29.75 8.91549 29.75 8.91472 29.75 8.91395C29.75 8.91318 29.75 8.91241 29.75 8.91163C29.75 8.91086 29.75 8.91008 29.75 8.90929C29.75 8.90851 29.75 8.90772 29.75 8.90693C29.75 8.90614 29.75 8.90534 29.75 8.90454C29.75 8.90375 29.75 8.90294 29.75 8.90214C29.75 8.90133 29.75 8.90052 29.75 8.89971C29.75 8.89889 29.75 8.89807 29.75 8.89725C29.75 8.89643 29.75 8.8956 29.75 8.89477C29.75 8.89395 29.75 8.89311 29.75 8.89228C29.75 8.89144 29.75 8.8906 29.75 8.88975C29.75 8.88891 29.75 8.88806 29.75 8.88721C29.75 8.88636 29.75 8.8855 29.75 8.88464C29.75 8.88379 29.75 8.88292 29.75 8.88206C29.75 8.88119 29.75 8.88032 29.75 8.87945C29.75 8.87857 29.75 8.87769 29.75 8.87681C29.75 8.87593 29.75 8.87504 29.75 8.87416C29.75 8.87327 29.75 8.87237 29.75 8.87148C29.75 8.87058 29.75 8.86968 29.75 8.86878C29.75 8.86787 29.75 8.86697 29.75 8.86606C29.75 8.86514 29.75 8.86423 29.75 8.86331C29.75 8.86239 29.75 8.86147 29.75 8.86055C29.75 8.85962 29.75 8.85869 29.75 8.85776C29.75 8.85682 29.75 8.85589 29.75 8.85495C29.75 8.85401 29.75 8.85306 29.75 8.85211C29.75 8.85117 29.75 8.85021 29.75 8.84926C29.75 8.8483 29.75 8.84734 29.75 8.84638C29.75 8.84542 29.75 8.84445 29.75 8.84348C29.75 8.84251 29.75 8.84154 29.75 8.84056C29.75 8.83959 29.75 8.83861 29.75 8.83762C29.75 8.83664 29.75 8.83565 29.75 8.83466C29.75 8.83367 29.75 8.83267 29.75 8.83167C29.75 8.83067 29.75 8.82967 29.75 8.82867C29.75 8.82766 29.75 8.82665 29.75 8.82564C29.75 8.82462 29.75 8.82361 29.75 8.82259C29.75 8.82157 29.75 8.82054 29.75 8.81951C29.75 8.81849 29.75 8.81745 29.75 8.81642C29.75 8.81539 29.75 8.81435 29.75 8.8133C29.75 8.81226 29.75 8.81122 29.75 8.81017C29.75 8.80912 29.75 8.80807 29.75 8.80701C29.75 8.80595 29.75 8.80489 29.75 8.80383C29.75 8.80277 29.75 8.8017 29.75 8.80063C29.75 8.79956 29.75 8.79848 29.75 8.79741C29.75 8.79633 29.75 8.79525 29.75 8.79416C29.75 8.79308 29.75 8.79199 29.75 8.7909C29.75 8.78981 29.75 8.78871 29.75 8.78761C29.75 8.78651 29.75 8.78541 29.75 8.7843C29.75 8.7832 29.75 8.78209 29.75 8.78098C29.75 8.77986 29.75 8.77875 29.75 8.77763C29.75 8.77651 29.75 8.77538 29.75 8.77426C29.75 8.77313 29.75 8.772 29.75 8.77086C29.75 8.76973 29.75 8.76859 29.75 8.76745C29.75 8.76631 29.75 8.76516 29.75 8.76402C29.75 8.76287 29.75 8.76172 29.75 8.76056C29.75 8.75941 29.75 8.75825 29.75 8.75709C29.75 8.75592 29.75 8.75476 29.75 8.75359C29.75 8.75242 29.75 8.75125 29.75 8.75007C29.75 8.7489 29.75 8.74772 29.75 8.74653C29.75 8.74535 29.75 8.74416 29.75 8.74297C29.75 8.74178 29.75 8.74059 29.75 8.73939C29.75 8.7382 29.75 8.737 29.75 8.73579C29.75 8.73459 29.75 8.73338 29.75 8.73217C29.75 8.73096 29.75 8.72975 29.75 8.72853C29.75 8.72731 29.75 8.72609 29.75 8.72487C29.75 8.72364 29.75 8.72241 29.75 8.72118C29.75 8.71995 29.75 8.71872 29.75 8.71748C29.75 8.71624 29.75 8.715 29.75 8.71376C29.75 8.71251 29.75 8.71126 29.75 8.71001C29.75 8.70876 29.75 8.7075 29.75 8.70625C29.75 8.70499 29.75 8.70373 29.75 8.70246C29.75 8.7012 29.75 8.69993 29.75 8.69866C29.75 8.69738 29.75 8.69611 29.75 8.69483C29.75 8.69355 29.75 8.69227 29.75 8.69098C29.75 8.6897 29.75 8.68841 29.75 8.68712C29.75 8.68582 29.75 8.68453 29.75 8.68323C29.75 8.68193 29.75 8.68063 29.75 8.67932C29.75 8.67802 29.75 8.67671 29.75 8.6754C29.75 8.67408 29.75 8.67277 29.75 8.67145C29.75 8.67013 29.75 8.66881 29.75 8.66748C29.75 8.66615 29.75 8.66483 29.75 8.66349C29.75 8.66216 29.75 8.66082 29.75 8.65949C29.75 8.65815 29.75 8.6568 29.75 8.65546C29.75 8.65411 29.75 8.65276 29.75 8.65141C29.75 8.65006 29.75 8.6487 29.75 8.64734C29.75 8.64599 29.75 8.64462 29.75 8.64326C29.75 8.64189 29.75 8.64052 29.75 8.63915C29.75 8.63778 29.75 8.6364 29.75 8.63502C29.75 8.63365 29.75 8.63226 29.75 8.63088C29.75 8.62949 29.75 8.6281 29.75 8.62671C29.75 8.62532 29.75 8.62392 29.75 8.62253C29.75 8.62113 29.75 8.61973 29.75 8.61832C29.75 8.61692 29.75 8.61551 29.75 8.6141C29.75 8.61268 29.75 8.61127 29.75 8.60985C29.75 8.60843 29.75 8.60701 29.75 8.60559C29.75 8.60416 29.75 8.60273 29.75 8.6013C29.75 8.59987 29.75 8.59844 29.75 8.597C29.75 8.59556 29.75 8.59412 29.75 8.59268C29.75 8.59123 29.75 8.58979 29.75 8.58834C29.75 8.58689 29.75 8.58543 29.75 8.58397C29.75 8.58252 29.75 8.58106 29.75 8.57959C29.75 8.57813 29.75 8.57666 29.75 8.57519C29.75 8.57372 29.75 8.57225 29.75 8.57078C29.75 8.5693 29.75 8.56782 29.75 8.56634C29.75 8.56485 29.75 8.56337 29.75 8.56188C29.75 8.56039 29.75 8.5589 29.75 8.5574C29.75 8.55591 29.75 8.55441 29.75 8.55291C29.75 8.55141 29.75 8.5499 29.75 8.54839C29.75 8.54688 29.75 8.54537 29.75 8.54386C29.75 8.54234 29.75 8.54083 29.75 8.53931C29.75 8.53779 29.75 8.53626 29.75 8.53473C29.75 8.53321 29.75 8.53168 29.75 8.53014C29.75 8.52861 29.75 8.52707 29.75 8.52553C29.75 8.52399 29.75 8.52245 29.75 8.52091C29.75 8.51936 29.75 8.51781 29.75 8.51626C29.75 8.51471 29.75 8.51315 29.75 8.51159C29.75 8.51003 29.75 8.50847 29.75 8.50691C29.75 8.50534 29.75 8.50377 29.75 8.5022C29.75 8.50063 29.75 8.49906 29.75 8.49748C29.75 8.4959 29.75 8.49432 29.75 8.49274C29.75 8.49116 29.75 8.48957 29.75 8.48798C29.75 8.48639 29.75 8.4848 29.75 8.4832C29.75 8.48161 29.75 8.48001 29.75 8.47841C29.75 8.47681 29.75 8.4752 29.75 8.47359C29.75 8.47198 29.75 8.47037 29.75 8.46876C29.75 8.46714 29.75 8.46553 29.75 8.46391C29.75 8.46229 29.75 8.46066 29.75 8.45904C29.75 8.45741 29.75 8.45578 29.75 8.45415C29.75 8.45252 29.75 8.45088 29.75 8.44924C29.75 8.4476 29.75 8.44596 29.75 8.44432C29.75 8.44267 29.75 8.44102 29.75 8.43937C29.75 8.43772 29.75 8.43607 29.75 8.43441C29.75 8.43275 29.75 8.43109 29.75 8.42943C29.75 8.42777 29.75 8.4261 29.75 8.42443C29.75 8.42276 29.75 8.42109 29.75 8.41942C29.75 8.41774 29.75 8.41606 29.75 8.41438C29.75 8.4127 29.75 8.41102 29.75 8.40933C29.75 8.40764 29.75 8.40595 29.75 8.40426C29.75 8.40257 29.75 8.40087 29.75 8.39917C29.75 8.39747 29.75 8.39577 29.75 8.39407C29.75 8.39236 29.75 8.39065 29.75 8.38894C29.75 8.38723 29.75 8.38552 29.75 8.3838C29.75 8.38208 29.75 8.38036 29.75 8.37864C29.75 8.37692 29.75 8.37519 29.75 8.37346C29.75 8.37173 29.75 8.37 29.75 8.36827C29.75 8.36653 29.75 8.36479 29.75 8.36305C29.75 8.36131 29.75 8.35957 29.75 8.35782C29.75 8.35608 29.75 8.35433 29.75 8.35258C29.75 8.35082 29.75 8.34907 29.75 8.34731C29.75 8.34555 29.75 8.34379 29.75 8.34203C29.75 8.34026 29.75 8.33849 29.75 8.33672C29.75 8.33495 29.75 8.33318 29.75 8.33141C29.75 8.32963 29.75 8.32785 29.75 8.32607C29.75 8.32429 29.75 8.3225 29.75 8.32072C29.75 8.31893 29.75 8.31714 29.75 8.31535C29.75 8.31355 29.75 8.31176 29.75 8.30996C29.75 8.30816 29.75 8.30636 29.75 8.30455C29.75 8.30275 29.75 8.30094 29.75 8.29913C29.75 8.29732 29.75 8.29551 29.75 8.29369C29.75 8.29187 29.75 8.29005 29.75 8.28823C29.75 8.28641 29.75 8.28459 29.75 8.28276C29.75 8.28093 29.75 8.2791 29.75 8.27727C29.75 8.27543 29.75 8.2736 29.75 8.27176C29.75 8.26992 29.75 8.26808 29.75 8.26623C29.75 8.26439 29.75 8.26254 29.75 8.26069C29.75 8.25884 29.75 8.25699 29.75 8.25513C29.75 8.25327 29.75 8.25142 29.75 8.24955C29.75 8.24769 29.75 8.24583 29.75 8.24396C29.75 8.24209 29.75 8.24022 29.75 8.23835C29.75 8.23648 29.75 8.2346 29.75 8.23272C29.75 8.23084 29.75 8.22896 29.75 8.22708C29.75 8.22519 29.75 8.22331 29.75 8.22142C29.75 8.21953 29.75 8.21763 29.75 8.21574C29.75 8.21384 29.75 8.21195 29.75 8.21004C29.75 8.20814 29.75 8.20624 29.75 8.20433C29.75 8.20243 29.75 8.20052 29.75 8.19861C29.75 8.19669 29.75 8.19478 29.75 8.19286C29.75 8.19094 29.75 8.18902 29.75 8.1871C29.75 8.18518 29.75 8.18325 29.75 8.18132C29.75 8.1794 29.75 8.17746 29.75 8.17553C29.75 8.1736 29.75 8.17166 29.75 8.16972C29.75 8.16778 29.75 8.16584 29.75 8.16389C29.75 8.16195 29.75 8.16 29.75 8.15805C29.75 8.1561 29.75 8.15415 29.75 8.15219C29.75 8.15023 29.75 8.14827 29.75 8.14631C29.75 8.14435 29.75 8.14239 29.75 8.14042C29.75 8.13845 29.75 8.13649 29.75 8.13451C29.75 8.13254 29.75 8.13057 29.75 8.12859C29.75 8.12661 29.75 8.12463 29.75 8.12265C29.75 8.12066 29.75 8.11868 29.75 8.11669C29.75 8.1147 29.75 8.11271 29.75 8.11072C29.75 8.10872 29.75 8.10673 29.75 8.10473C29.75 8.10273 29.75 8.10073 29.75 8.09872C29.75 8.09672 29.75 8.09471 29.75 8.0927C29.75 8.09069 29.75 8.08868 29.75 8.08666C29.75 8.08465 29.75 8.08263 29.75 8.08061C29.75 8.07859 29.75 8.07657 29.75 8.07454C29.75 8.07252 29.75 8.07049 29.75 8.06846C29.75 8.06643 29.75 8.06439 29.75 8.06236C29.75 8.06032 29.75 8.05828 29.75 8.05624C29.75 8.0542 29.75 8.05216 29.75 8.05011C29.75 8.04806 29.75 8.04601 29.75 8.04396C29.75 8.04191 29.75 8.03985 29.75 8.0378C29.75 8.03574 29.75 8.03368 29.75 8.03162C29.75 8.02956 29.75 8.02749 29.75 8.02542C29.75 8.02336 29.75 8.02129 29.75 8.01921C29.75 8.01714 29.75 8.01506 29.75 8.01299C29.75 8.01091 29.75 8.00883 29.75 8.00675C29.75 8.00466 29.75 8.00258 29.75 8.00049C29.75 7.9984 29.75 7.99631 29.75 7.99422C29.75 7.99212 29.75 7.99003 29.75 7.98793C29.75 7.98583 29.75 7.98373 29.75 7.98163C29.75 7.97952 29.75 7.97742 29.75 7.97531C29.75 7.9732 29.75 7.97109 29.75 7.96897C29.75 7.96686 29.75 7.96474 29.75 7.96262C29.75 7.96051 29.75 7.95838 29.75 7.95626C29.75 7.95414 29.75 7.95201 29.75 7.94988C29.75 7.94775 29.75 7.94562 29.75 7.94349C29.75 7.94135 29.75 7.93922 29.75 7.93708C29.75 7.93494 29.75 7.9328 29.75 7.93065C29.75 7.92851 29.75 7.92636 29.75 7.92421C29.75 7.92206 29.75 7.91991 29.75 7.91776C29.75 7.9156 29.75 7.91345 29.75 7.91129C29.75 7.90913 29.75 7.90697 29.75 7.9048C29.75 7.90264 29.75 7.90047 29.75 7.8983C29.75 7.89613 29.75 7.89396 29.75 7.89179C29.75 7.88962 29.75 7.88744 29.75 7.88526C29.75 7.88308 29.75 7.8809 29.75 7.87872C29.75 7.87653 29.75 7.87435 29.75 7.87216C29.75 7.86997 29.75 7.86778 29.75 7.86558C29.75 7.86339 29.75 7.86119 29.75 7.859C29.75 7.8568 29.75 7.8546 29.75 7.85239C29.75 7.85019 29.75 7.84798 29.75 7.84578C29.75 7.84357 29.75 7.84136 29.75 7.83914C29.75 7.83693 29.75 7.83472 29.75 7.8325C29.75 7.83028 29.75 7.82806 29.75 7.82584C29.75 7.82361 29.75 7.82139 29.75 7.81916C29.75 7.81693 29.75 7.8147 29.75 7.81247C29.75 7.81024 29.75 7.808 29.75 7.80577C29.75 7.80353 29.75 7.80129 29.75 7.79905C29.75 7.79681 29.75 7.79456 29.75 7.79232C29.75 7.79007 29.75 7.78782 29.75 7.78557C29.75 7.78332 29.75 7.78106 29.75 7.77881C29.75 7.77655 29.75 7.77429 29.75 7.77203C29.75 7.76977 29.75 7.76751 29.75 7.76524C29.75 7.76298 29.75 7.76071 29.75 7.75844C29.75 7.75617 29.75 7.75389 29.75 7.75162C29.75 7.74934 29.75 7.74707 29.75 7.74479C29.75 7.74251 29.75 7.74022 29.75 7.73794C29.75 7.73566 29.75 7.73337 29.75 7.73108C29.75 7.72879 29.75 7.7265 29.75 7.72421C29.75 7.72191 29.75 7.71962 29.75 7.71732C29.75 7.71502 29.75 7.71272 29.75 7.71042C29.75 7.70811 29.75 7.70581 29.75 7.7035C29.75 7.70119 29.75 7.69888 29.75 7.69657C29.75 7.69426 29.75 7.69194 29.75 7.68963C29.75 7.68731 29.75 7.68499 29.75 7.68267C29.75 7.68035 29.75 7.67802 29.75 7.6757C29.75 7.67337 29.75 7.67104 29.75 7.66871C29.75 7.66638 29.75 7.66405 29.75 7.66172C29.75 7.65938 29.75 7.65704 29.75 7.6547C29.75 7.65236 29.75 7.65002 29.75 7.64768C29.75 7.64533 29.75 7.64299 29.75 7.64064C29.75 7.63829 29.75 7.63594 29.75 7.63359C29.75 7.63123 29.75 7.62888 29.75 7.62652C29.75 7.62416 29.75 7.6218 29.75 7.61944C29.75 7.61708 29.75 7.61472 29.75 7.61235C29.75 7.60998 29.75 7.60761 29.75 7.60524C29.75 7.60287 29.75 7.6005 29.75 7.59812C29.75 7.59575 29.75 7.59337 29.75 7.59099C29.75 7.58861 29.75 7.58623 29.75 7.58384C29.75 7.58146 29.75 7.57907 29.75 7.57668C29.75 7.5743 29.75 7.57191 29.75 7.56951C29.75 7.56712 29.75 7.56472 29.75 7.56233C29.75 7.55993 29.75 7.55753 29.75 7.55513C29.75 7.55273 29.75 7.55032 29.75 7.54792C29.75 7.54551 29.75 7.5431 29.75 7.54069C29.75 7.53828 29.75 7.53587 29.75 7.53345C29.75 7.53104 29.75 7.52862 29.75 7.5262C29.75 7.52378 29.75 7.52136 29.75 7.51894C29.75 7.51652 29.75 7.51409 29.75 7.51166C29.75 7.50924 29.75 7.50681 29.75 7.50437C29.75 7.50194 29.75 7.49951 29.75 7.49707C29.75 7.49464 29.75 7.4922 29.75 7.48976C29.75 7.48732 29.75 7.48487 29.75 7.48243C29.75 7.47998 29.75 7.47754 29.75 7.47509C29.75 7.47264 29.75 7.47019 29.75 7.46773C29.75 7.46528 29.75 7.46283 29.75 7.46037C29.75 7.45791 29.75 7.45545 29.75 7.45299C29.75 7.45053 29.75 7.44807 29.75 7.4456C29.75 7.44313 29.75 7.44067 29.75 7.4382C29.75 7.43573 29.75 7.43325 29.75 7.43078C29.75 7.42831 29.75 7.42583 29.75 7.42335C29.75 7.42087 29.75 7.41839 29.75 7.41591C29.75 7.41343 29.75 7.41094 29.75 7.40846C29.75 7.40597 29.75 7.40348 29.75 7.40099C29.75 7.3985 29.75 7.39601 29.75 7.39351C29.75 7.39102 29.75 7.38852 29.75 7.38602C29.75 7.38352 29.75 7.38102 29.75 7.37852C29.75 7.37602 29.75 7.37351 29.75 7.37101C29.75 7.3685 29.75 7.36599 29.75 7.36348C29.75 7.36097 29.75 7.35845 29.75 7.35594C29.75 7.35342 29.75 7.35091 29.75 7.34839C29.75 7.34587 29.75 7.34335 29.75 7.34082C29.75 7.3383 29.75 7.33578 29.75 7.33325C29.75 7.33072 29.75 7.32819 29.75 7.32566C29.75 7.32313 29.75 7.3206 29.75 7.31806C29.75 7.31553 29.75 7.31299 29.75 7.31045C29.75 7.30791 29.75 7.30537 29.75 7.30283C29.75 7.30029 29.75 7.29774 29.75 7.29519C29.75 7.29265 29.75 7.2901 29.75 7.28755C29.75 7.285 29.75 7.28244 29.75 7.27989C29.75 7.27733 29.75 7.27478 29.75 7.27222C29.75 7.26966 29.75 7.2671 29.75 7.26454C29.75 7.26197 29.75 7.25941 29.75 7.25684C29.75 7.25427 29.75 7.25171 29.75 7.24914C29.75 7.24657 29.75 7.24399 29.75 7.24142C29.75 7.23884 29.75 7.23627 29.75 7.23369C29.75 7.23111 29.75 7.22853 29.75 7.22595C29.75 7.22337 29.75 7.22078 29.75 7.2182C29.75 7.21561 29.75 7.21303 29.75 7.21044C29.75 7.20785 29.75 7.20525 29.75 7.20266C29.75 7.20007 29.75 7.19747 29.75 7.19488C29.75 7.19228 29.75 7.18968 29.75 7.18708C29.75 7.18448 29.75 7.18187 29.75 7.17927C29.75 7.17666 29.75 7.17406 29.75 7.17145C29.75 7.16884 29.75 7.16623 29.75 7.16362C29.75 7.16101 29.75 7.15839 29.75 7.15578C29.75 7.15316 29.75 7.15054 29.75 7.14792C29.75 7.1453 29.75 7.14268 29.75 7.14006C29.75 7.13743 29.75 7.13481 29.75 7.13218C29.75 7.12955 29.75 7.12693 29.75 7.12429C29.75 7.12166 29.75 7.11903 29.75 7.1164C29.75 7.11376 29.75 7.11113 29.75 7.10849C29.75 7.10585 29.75 7.10321 29.75 7.10057C29.75 7.09793 29.75 7.09528 29.75 7.09264C29.75 7.08999 29.75 7.08734 29.75 7.0847C29.75 7.08205 29.75 7.0794 29.75 7.07674C29.75 7.07409 29.75 7.07144 29.75 7.06878C29.75 7.06612 29.75 7.06347 29.75 7.0608C29.75 7.05815 29.75 7.05548 29.75 7.05282C29.75 7.05016 29.75 7.04749 29.75 7.04482C29.75 7.04216 29.75 7.03949 29.75 7.03682C29.75 7.03415 29.75 7.03148 29.75 7.0288C29.75 7.02613 29.75 7.02345 29.75 7.02077C29.75 7.0181 29.75 7.01542 29.75 7.01274C29.75 7.01005 29.75 7.00737 29.75 7.00469C29.75 7.002 29.75 6.99932 29.75 6.99663C29.75 6.99394 29.75 6.99125 29.75 6.98856C29.75 6.98587 29.75 6.98317 29.75 6.98048C29.75 6.97778 29.75 6.97509 29.75 6.97239C29.75 6.96969 29.75 6.96699 29.75 6.96429C29.75 6.96158 29.75 6.95888 29.75 6.95617C29.75 6.95347 29.75 6.95076 29.75 6.94805C29.75 6.94534 29.75 6.94263 29.75 6.93992C29.75 6.93721 29.75 6.93449 29.75 6.93178C29.75 6.92906 29.75 6.92635 29.75 6.92363C29.75 6.92091 29.75 6.91819 29.75 6.91546C29.75 6.91274 29.75 6.91002 29.75 6.90729C29.75 6.90457 29.75 6.90184 29.75 6.89911C29.75 6.89638 29.75 6.89365 29.75 6.89092C29.75 6.88818 29.75 6.88545 29.75 6.88271C29.75 6.87998 29.75 6.87724 29.75 6.8745C29.75 6.87176 29.75 6.86902 29.75 6.86628C29.75 6.86354 29.75 6.86079 29.75 6.85805C29.75 6.8553 29.75 6.85255 29.75 6.84981C29.75 6.84706 29.75 6.84431 29.75 6.84155C29.75 6.8388 29.75 6.83605 29.75 6.83329C29.75 6.83054 29.75 6.82778 29.75 6.82502C29.75 6.82226 29.75 6.8195 29.75 6.81674C29.75 6.81398 29.75 6.81121 29.75 6.80845C29.75 6.80568 29.75 6.80292 29.75 6.80015C29.75 6.79738 29.75 6.79461 29.75 6.79184C29.75 6.78906 29.75 6.78629 29.75 6.78352C29.75 6.78074 29.75 6.77797 29.75 6.77519C29.75 6.77241 29.75 6.76963 29.75 6.76685C29.75 6.76407 29.75 6.76128 29.75 6.7585C29.75 6.75572 29.75 6.75293 29.75 6.75014C29.75 6.74735 29.75 6.74457 29.75 6.74178C29.75 6.73898 29.75 6.73619 29.75 6.7334C29.75 6.73061 29.75 6.72781 29.75 6.72501C29.75 6.72222 29.75 6.71942 29.75 6.71662C29.75 6.71382 29.75 6.71102 29.75 6.70821C29.75 6.70541 29.75 6.70261 29.75 6.6998C29.75 6.69699 29.75 6.69419 29.75 6.69138C29.75 6.68857 29.75 6.68576 29.75 6.68294C29.75 6.68013 29.75 6.67732 29.75 6.6745C29.75 6.67169 29.75 6.66887 29.75 6.66605C29.75 6.66324 29.75 6.66042 29.75 6.65759C29.75 6.65477 29.75 6.65195 29.75 6.64913C29.75 6.6463 29.75 6.64348 29.75 6.64065C29.75 6.63782 29.75 6.63499 29.75 6.63216C29.75 6.62933 29.75 6.6265 29.75 6.62367C29.75 6.62083 29.75 6.618 29.75 6.61516C29.75 6.61233 29.75 6.60949 29.75 6.60665C29.75 6.60381 29.75 6.60097 29.75 6.59813C29.75 6.59529 29.75 6.59244 29.75 6.5896C29.75 6.58675 29.75 6.58391 29.75 6.58106C29.75 6.57821 29.75 6.57536 29.75 6.57251C29.75 6.56966 29.75 6.56681 29.75 6.56396C29.75 6.5611 29.75 6.55825 29.75 6.55539C29.75 6.55254 29.75 6.54968 29.75 6.54682C29.75 6.54396 29.75 6.5411 29.75 6.53824C29.75 6.53537 29.75 6.53251 29.75 6.52965C29.75 6.52678 29.75 6.52391 29.75 6.52105C29.75 6.51818 29.75 6.51531 29.75 6.51244C29.75 6.50957 29.75 6.5067 29.75 6.50382C29.75 6.50095 29.75 6.49808 29.75 6.4952C29.75 6.49232 29.75 6.48945 29.75 6.48657C29.75 6.48369 29.75 6.48081 29.75 6.47793C29.75 6.47504 29.75 6.47216 29.75 6.46928C29.75 6.46639 29.75 6.46351 29.75 6.46062C29.75 6.45773 29.75 6.45484 29.75 6.45195C29.75 6.44906 29.75 6.44617 29.75 6.44328C29.75 6.44039 29.75 6.43749 29.75 6.4346C29.75 6.4317 29.75 6.42881 29.75 6.42591C29.75 6.42301 29.75 6.42011 29.75 6.41721C29.75 6.41431 29.75 6.41141 29.75 6.40851C29.75 6.4056 29.75 6.4027 29.75 6.39979C29.75 6.39689 29.75 6.39398 29.75 6.39107C29.75 6.38816 29.75 6.38525 29.75 6.38234C29.75 6.37943 29.75 6.37652 29.75 6.3736C29.75 6.37069 29.75 6.36777 29.75 6.36486C29.75 6.36194 29.75 6.35902 29.75 6.3561C29.75 6.35319 29.75 6.35027 29.75 6.34734C29.75 6.34442 29.75 6.3415 29.75 6.33857C29.75 6.33565 29.75 6.33273 29.75 6.3298C29.75 6.32687 29.75 6.32394 29.75 6.32101C29.75 6.31809 29.75 6.31516 29.75 6.31222C29.75 6.30929 29.75 6.30636 29.75 6.30342C29.75 6.30049 29.75 6.29755 29.75 6.29462C29.75 6.29168 29.75 6.28874 29.75 6.2858C29.75 6.28286 29.75 6.27992 29.75 6.27698C29.75 6.27404 29.75 6.2711 29.75 6.26815C29.75 6.26521 29.75 6.26226 29.75 6.25932C29.75 6.25637 29.75 6.25342 29.75 6.25047C29.75 6.24752 29.75 6.24457 29.75 6.24162C29.75 6.23867 29.75 6.23572 29.75 6.23276C29.75 6.22981 29.75 6.22685 29.75 6.2239C29.75 6.22094 29.75 6.21798 29.75 6.21502C29.75 6.21207 29.75 6.20911 29.75 6.20614C29.75 6.20318 29.75 6.20022 29.75 6.19726C29.75 6.19429 29.75 6.19133 29.75 6.18836C29.75 6.1854 29.75 6.18243 29.75 6.17946C29.75 6.17649 29.75 6.17352 29.75 6.17055C29.75 6.16758 29.75 6.16461 29.75 6.16164C29.75 6.15866 29.75 6.15569 29.75 6.15271C29.75 6.14974 29.75 6.14676 29.75 6.14378C29.75 6.14081 29.75 6.13783 29.75 6.13485C29.75 6.13187 29.75 6.12889 29.75 6.12591C29.75 6.12292 29.75 6.11994 29.75 6.11696C29.75 6.11397 29.75 6.11099 29.75 6.108C29.75 6.10501 29.75 6.10202 29.75 6.09903C29.75 6.09605 29.75 6.09306 29.75 6.09006C29.75 6.08707 29.75 6.08408 29.75 6.08109C29.75 6.07809 29.75 6.0751 29.75 6.0721C29.75 6.06911 29.75 6.06611 29.75 6.06311C29.75 6.06012 29.75 6.05712 29.75 6.05412C29.75 6.05112 29.75 6.04812 29.75 6.04511C29.75 6.04211 29.75 6.03911 29.75 6.0361C29.75 6.0331 29.75 6.03009 29.75 6.02709C29.75 6.02408 29.75 6.02107 29.75 6.01806C29.75 6.01506 29.75 6.01205 29.75 6.00904C29.75 6.00602 29.75 6.00301 29.75 6H28.25C28.25 6.00301 28.25 6.00602 28.25 6.00904C28.25 6.01205 28.25 6.01506 28.25 6.01806C28.25 6.02107 28.25 6.02408 28.25 6.02709C28.25 6.03009 28.25 6.0331 28.25 6.0361C28.25 6.03911 28.25 6.04211 28.25 6.04511C28.25 6.04812 28.25 6.05112 28.25 6.05412C28.25 6.05712 28.25 6.06012 28.25 6.06311C28.25 6.06611 28.25 6.06911 28.25 6.0721C28.25 6.0751 28.25 6.07809 28.25 6.08109C28.25 6.08408 28.25 6.08707 28.25 6.09006C28.25 6.09306 28.25 6.09605 28.25 6.09903C28.25 6.10202 28.25 6.10501 28.25 6.108C28.25 6.11099 28.25 6.11397 28.25 6.11696C28.25 6.11994 28.25 6.12292 28.25 6.12591C28.25 6.12889 28.25 6.13187 28.25 6.13485C28.25 6.13783 28.25 6.14081 28.25 6.14378C28.25 6.14676 28.25 6.14974 28.25 6.15271C28.25 6.15569 28.25 6.15866 28.25 6.16164C28.25 6.16461 28.25 6.16758 28.25 6.17055C28.25 6.17352 28.25 6.17649 28.25 6.17946C28.25 6.18243 28.25 6.1854 28.25 6.18836C28.25 6.19133 28.25 6.19429 28.25 6.19726C28.25 6.20022 28.25 6.20318 28.25 6.20614C28.25 6.20911 28.25 6.21207 28.25 6.21502C28.25 6.21798 28.25 6.22094 28.25 6.2239C28.25 6.22685 28.25 6.22981 28.25 6.23276C28.25 6.23572 28.25 6.23867 28.25 6.24162C28.25 6.24457 28.25 6.24752 28.25 6.25047C28.25 6.25342 28.25 6.25637 28.25 6.25932C28.25 6.26226 28.25 6.26521 28.25 6.26815C28.25 6.2711 28.25 6.27404 28.25 6.27698C28.25 6.27992 28.25 6.28286 28.25 6.2858C28.25 6.28874 28.25 6.29168 28.25 6.29462C28.25 6.29755 28.25 6.30049 28.25 6.30342C28.25 6.30636 28.25 6.30929 28.25 6.31222C28.25 6.31516 28.25 6.31809 28.25 6.32101C28.25 6.32394 28.25 6.32687 28.25 6.3298C28.25 6.33273 28.25 6.33565 28.25 6.33857C28.25 6.3415 28.25 6.34442 28.25 6.34734C28.25 6.35027 28.25 6.35319 28.25 6.3561C28.25 6.35902 28.25 6.36194 28.25 6.36486C28.25 6.36777 28.25 6.37069 28.25 6.3736C28.25 6.37652 28.25 6.37943 28.25 6.38234C28.25 6.38525 28.25 6.38816 28.25 6.39107C28.25 6.39398 28.25 6.39689 28.25 6.39979C28.25 6.4027 28.25 6.4056 28.25 6.40851C28.25 6.41141 28.25 6.41431 28.25 6.41721C28.25 6.42011 28.25 6.42301 28.25 6.42591C28.25 6.42881 28.25 6.4317 28.25 6.4346C28.25 6.43749 28.25 6.44039 28.25 6.44328C28.25 6.44617 28.25 6.44906 28.25 6.45195C28.25 6.45484 28.25 6.45773 28.25 6.46062C28.25 6.46351 28.25 6.46639 28.25 6.46928C28.25 6.47216 28.25 6.47504 28.25 6.47793C28.25 6.48081 28.25 6.48369 28.25 6.48657C28.25 6.48945 28.25 6.49232 28.25 6.4952C28.25 6.49808 28.25 6.50095 28.25 6.50382C28.25 6.5067 28.25 6.50957 28.25 6.51244C28.25 6.51531 28.25 6.51818 28.25 6.52105C28.25 6.52391 28.25 6.52678 28.25 6.52965C28.25 6.53251 28.25 6.53537 28.25 6.53824C28.25 6.5411 28.25 6.54396 28.25 6.54682C28.25 6.54968 28.25 6.55254 28.25 6.55539C28.25 6.55825 28.25 6.5611 28.25 6.56396C28.25 6.56681 28.25 6.56966 28.25 6.57251C28.25 6.57536 28.25 6.57821 28.25 6.58106C28.25 6.58391 28.25 6.58675 28.25 6.5896C28.25 6.59244 28.25 6.59529 28.25 6.59813C28.25 6.60097 28.25 6.60381 28.25 6.60665C28.25 6.60949 28.25 6.61233 28.25 6.61516C28.25 6.618 28.25 6.62083 28.25 6.62367C28.25 6.6265 28.25 6.62933 28.25 6.63216C28.25 6.63499 28.25 6.63782 28.25 6.64065C28.25 6.64348 28.25 6.6463 28.25 6.64913C28.25 6.65195 28.25 6.65477 28.25 6.65759C28.25 6.66042 28.25 6.66324 28.25 6.66605C28.25 6.66887 28.25 6.67169 28.25 6.6745C28.25 6.67732 28.25 6.68013 28.25 6.68294C28.25 6.68576 28.25 6.68857 28.25 6.69138C28.25 6.69419 28.25 6.69699 28.25 6.6998C28.25 6.70261 28.25 6.70541 28.25 6.70821C28.25 6.71102 28.25 6.71382 28.25 6.71662C28.25 6.71942 28.25 6.72222 28.25 6.72501C28.25 6.72781 28.25 6.73061 28.25 6.7334C28.25 6.73619 28.25 6.73898 28.25 6.74178C28.25 6.74457 28.25 6.74735 28.25 6.75014C28.25 6.75293 28.25 6.75572 28.25 6.7585C28.25 6.76128 28.25 6.76407 28.25 6.76685C28.25 6.76963 28.25 6.77241 28.25 6.77519C28.25 6.77797 28.25 6.78074 28.25 6.78352C28.25 6.78629 28.25 6.78906 28.25 6.79184C28.25 6.79461 28.25 6.79738 28.25 6.80015C28.25 6.80292 28.25 6.80568 28.25 6.80845C28.25 6.81121 28.25 6.81398 28.25 6.81674C28.25 6.8195 28.25 6.82226 28.25 6.82502C28.25 6.82778 28.25 6.83054 28.25 6.83329C28.25 6.83605 28.25 6.8388 28.25 6.84155C28.25 6.84431 28.25 6.84706 28.25 6.84981C28.25 6.85255 28.25 6.8553 28.25 6.85805C28.25 6.86079 28.25 6.86354 28.25 6.86628C28.25 6.86902 28.25 6.87176 28.25 6.8745C28.25 6.87724 28.25 6.87998 28.25 6.88271C28.25 6.88545 28.25 6.88818 28.25 6.89092C28.25 6.89365 28.25 6.89638 28.25 6.89911C28.25 6.90184 28.25 6.90457 28.25 6.90729C28.25 6.91002 28.25 6.91274 28.25 6.91546C28.25 6.91819 28.25 6.92091 28.25 6.92363C28.25 6.92635 28.25 6.92906 28.25 6.93178C28.25 6.93449 28.25 6.93721 28.25 6.93992C28.25 6.94263 28.25 6.94534 28.25 6.94805C28.25 6.95076 28.25 6.95347 28.25 6.95617C28.25 6.95888 28.25 6.96158 28.25 6.96429C28.25 6.96699 28.25 6.96969 28.25 6.97239C28.25 6.97509 28.25 6.97778 28.25 6.98048C28.25 6.98317 28.25 6.98587 28.25 6.98856C28.25 6.99125 28.25 6.99394 28.25 6.99663C28.25 6.99932 28.25 7.002 28.25 7.00469C28.25 7.00737 28.25 7.01005 28.25 7.01274C28.25 7.01542 28.25 7.0181 28.25 7.02077C28.25 7.02345 28.25 7.02613 28.25 7.0288C28.25 7.03148 28.25 7.03415 28.25 7.03682C28.25 7.03949 28.25 7.04216 28.25 7.04482C28.25 7.04749 28.25 7.05016 28.25 7.05282C28.25 7.05548 28.25 7.05815 28.25 7.0608C28.25 7.06347 28.25 7.06612 28.25 7.06878C28.25 7.07144 28.25 7.07409 28.25 7.07674C28.25 7.0794 28.25 7.08205 28.25 7.0847C28.25 7.08734 28.25 7.08999 28.25 7.09264C28.25 7.09528 28.25 7.09793 28.25 7.10057C28.25 7.10321 28.25 7.10585 28.25 7.10849C28.25 7.11113 28.25 7.11376 28.25 7.1164C28.25 7.11903 28.25 7.12166 28.25 7.12429C28.25 7.12693 28.25 7.12955 28.25 7.13218C28.25 7.13481 28.25 7.13743 28.25 7.14006C28.25 7.14268 28.25 7.1453 28.25 7.14792C28.25 7.15054 28.25 7.15316 28.25 7.15578C28.25 7.15839 28.25 7.16101 28.25 7.16362C28.25 7.16623 28.25 7.16884 28.25 7.17145C28.25 7.17406 28.25 7.17666 28.25 7.17927C28.25 7.18187 28.25 7.18448 28.25 7.18708C28.25 7.18968 28.25 7.19228 28.25 7.19488C28.25 7.19747 28.25 7.20007 28.25 7.20266C28.25 7.20525 28.25 7.20785 28.25 7.21044C28.25 7.21303 28.25 7.21561 28.25 7.2182C28.25 7.22078 28.25 7.22337 28.25 7.22595C28.25 7.22853 28.25 7.23111 28.25 7.23369C28.25 7.23627 28.25 7.23884 28.25 7.24142C28.25 7.24399 28.25 7.24657 28.25 7.24914C28.25 7.25171 28.25 7.25427 28.25 7.25684C28.25 7.25941 28.25 7.26197 28.25 7.26454C28.25 7.2671 28.25 7.26966 28.25 7.27222C28.25 7.27478 28.25 7.27733 28.25 7.27989C28.25 7.28244 28.25 7.285 28.25 7.28755C28.25 7.2901 28.25 7.29265 28.25 7.29519C28.25 7.29774 28.25 7.30029 28.25 7.30283C28.25 7.30537 28.25 7.30791 28.25 7.31045C28.25 7.31299 28.25 7.31553 28.25 7.31806C28.25 7.3206 28.25 7.32313 28.25 7.32566C28.25 7.32819 28.25 7.33072 28.25 7.33325C28.25 7.33578 28.25 7.3383 28.25 7.34082C28.25 7.34335 28.25 7.34587 28.25 7.34839C28.25 7.35091 28.25 7.35342 28.25 7.35594C28.25 7.35845 28.25 7.36097 28.25 7.36348C28.25 7.36599 28.25 7.3685 28.25 7.37101C28.25 7.37351 28.25 7.37602 28.25 7.37852C28.25 7.38102 28.25 7.38352 28.25 7.38602C28.25 7.38852 28.25 7.39102 28.25 7.39351C28.25 7.39601 28.25 7.3985 28.25 7.40099C28.25 7.40348 28.25 7.40597 28.25 7.40846C28.25 7.41094 28.25 7.41343 28.25 7.41591C28.25 7.41839 28.25 7.42087 28.25 7.42335C28.25 7.42583 28.25 7.42831 28.25 7.43078C28.25 7.43325 28.25 7.43573 28.25 7.4382C28.25 7.44067 28.25 7.44313 28.25 7.4456C28.25 7.44807 28.25 7.45053 28.25 7.45299C28.25 7.45545 28.25 7.45791 28.25 7.46037C28.25 7.46283 28.25 7.46528 28.25 7.46773C28.25 7.47019 28.25 7.47264 28.25 7.47509C28.25 7.47754 28.25 7.47998 28.25 7.48243C28.25 7.48487 28.25 7.48732 28.25 7.48976C28.25 7.4922 28.25 7.49464 28.25 7.49707C28.25 7.49951 28.25 7.50194 28.25 7.50437C28.25 7.50681 28.25 7.50924 28.25 7.51166C28.25 7.51409 28.25 7.51652 28.25 7.51894C28.25 7.52136 28.25 7.52378 28.25 7.5262C28.25 7.52862 28.25 7.53104 28.25 7.53345C28.25 7.53587 28.25 7.53828 28.25 7.54069C28.25 7.5431 28.25 7.54551 28.25 7.54792C28.25 7.55032 28.25 7.55273 28.25 7.55513C28.25 7.55753 28.25 7.55993 28.25 7.56233C28.25 7.56472 28.25 7.56712 28.25 7.56951C28.25 7.57191 28.25 7.5743 28.25 7.57668C28.25 7.57907 28.25 7.58146 28.25 7.58384C28.25 7.58623 28.25 7.58861 28.25 7.59099C28.25 7.59337 28.25 7.59575 28.25 7.59812C28.25 7.6005 28.25 7.60287 28.25 7.60524C28.25 7.60761 28.25 7.60998 28.25 7.61235C28.25 7.61472 28.25 7.61708 28.25 7.61944C28.25 7.6218 28.25 7.62416 28.25 7.62652C28.25 7.62888 28.25 7.63123 28.25 7.63359C28.25 7.63594 28.25 7.63829 28.25 7.64064C28.25 7.64299 28.25 7.64533 28.25 7.64768C28.25 7.65002 28.25 7.65236 28.25 7.6547C28.25 7.65704 28.25 7.65938 28.25 7.66172C28.25 7.66405 28.25 7.66638 28.25 7.66871C28.25 7.67104 28.25 7.67337 28.25 7.6757C28.25 7.67802 28.25 7.68035 28.25 7.68267C28.25 7.68499 28.25 7.68731 28.25 7.68963C28.25 7.69194 28.25 7.69426 28.25 7.69657C28.25 7.69888 28.25 7.70119 28.25 7.7035C28.25 7.70581 28.25 7.70811 28.25 7.71042C28.25 7.71272 28.25 7.71502 28.25 7.71732C28.25 7.71962 28.25 7.72191 28.25 7.72421C28.25 7.7265 28.25 7.72879 28.25 7.73108C28.25 7.73337 28.25 7.73566 28.25 7.73794C28.25 7.74022 28.25 7.74251 28.25 7.74479C28.25 7.74707 28.25 7.74934 28.25 7.75162C28.25 7.75389 28.25 7.75617 28.25 7.75844C28.25 7.76071 28.25 7.76298 28.25 7.76524C28.25 7.76751 28.25 7.76977 28.25 7.77203C28.25 7.77429 28.25 7.77655 28.25 7.77881C28.25 7.78106 28.25 7.78332 28.25 7.78557C28.25 7.78782 28.25 7.79007 28.25 7.79232C28.25 7.79456 28.25 7.79681 28.25 7.79905C28.25 7.80129 28.25 7.80353 28.25 7.80577C28.25 7.808 28.25 7.81024 28.25 7.81247C28.25 7.8147 28.25 7.81693 28.25 7.81916C28.25 7.82139 28.25 7.82361 28.25 7.82584C28.25 7.82806 28.25 7.83028 28.25 7.8325C28.25 7.83472 28.25 7.83693 28.25 7.83914C28.25 7.84136 28.25 7.84357 28.25 7.84578C28.25 7.84798 28.25 7.85019 28.25 7.85239C28.25 7.8546 28.25 7.8568 28.25 7.859C28.25 7.86119 28.25 7.86339 28.25 7.86558C28.25 7.86778 28.25 7.86997 28.25 7.87216C28.25 7.87435 28.25 7.87653 28.25 7.87872C28.25 7.8809 28.25 7.88308 28.25 7.88526C28.25 7.88744 28.25 7.88962 28.25 7.89179C28.25 7.89396 28.25 7.89613 28.25 7.8983C28.25 7.90047 28.25 7.90264 28.25 7.9048C28.25 7.90697 28.25 7.90913 28.25 7.91129C28.25 7.91345 28.25 7.9156 28.25 7.91776C28.25 7.91991 28.25 7.92206 28.25 7.92421C28.25 7.92636 28.25 7.92851 28.25 7.93065C28.25 7.9328 28.25 7.93494 28.25 7.93708C28.25 7.93922 28.25 7.94135 28.25 7.94349C28.25 7.94562 28.25 7.94775 28.25 7.94988C28.25 7.95201 28.25 7.95414 28.25 7.95626C28.25 7.95838 28.25 7.96051 28.25 7.96262C28.25 7.96474 28.25 7.96686 28.25 7.96897C28.25 7.97109 28.25 7.9732 28.25 7.97531C28.25 7.97742 28.25 7.97952 28.25 7.98163C28.25 7.98373 28.25 7.98583 28.25 7.98793C28.25 7.99003 28.25 7.99212 28.25 7.99422C28.25 7.99631 28.25 7.9984 28.25 8.00049C28.25 8.00258 28.25 8.00466 28.25 8.00675C28.25 8.00883 28.25 8.01091 28.25 8.01299C28.25 8.01506 28.25 8.01714 28.25 8.01921C28.25 8.02129 28.25 8.02336 28.25 8.02542C28.25 8.02749 28.25 8.02956 28.25 8.03162C28.25 8.03368 28.25 8.03574 28.25 8.0378C28.25 8.03985 28.25 8.04191 28.25 8.04396C28.25 8.04601 28.25 8.04806 28.25 8.05011C28.25 8.05216 28.25 8.0542 28.25 8.05624C28.25 8.05828 28.25 8.06032 28.25 8.06236C28.25 8.06439 28.25 8.06643 28.25 8.06846C28.25 8.07049 28.25 8.07252 28.25 8.07454C28.25 8.07657 28.25 8.07859 28.25 8.08061C28.25 8.08263 28.25 8.08465 28.25 8.08666C28.25 8.08868 28.25 8.09069 28.25 8.0927C28.25 8.09471 28.25 8.09672 28.25 8.09872C28.25 8.10073 28.25 8.10273 28.25 8.10473C28.25 8.10673 28.25 8.10872 28.25 8.11072C28.25 8.11271 28.25 8.1147 28.25 8.11669C28.25 8.11868 28.25 8.12066 28.25 8.12265C28.25 8.12463 28.25 8.12661 28.25 8.12859C28.25 8.13057 28.25 8.13254 28.25 8.13451C28.25 8.13649 28.25 8.13845 28.25 8.14042C28.25 8.14239 28.25 8.14435 28.25 8.14631C28.25 8.14827 28.25 8.15023 28.25 8.15219C28.25 8.15415 28.25 8.1561 28.25 8.15805C28.25 8.16 28.25 8.16195 28.25 8.16389C28.25 8.16584 28.25 8.16778 28.25 8.16972C28.25 8.17166 28.25 8.1736 28.25 8.17553C28.25 8.17746 28.25 8.1794 28.25 8.18132C28.25 8.18325 28.25 8.18518 28.25 8.1871C28.25 8.18902 28.25 8.19094 28.25 8.19286C28.25 8.19478 28.25 8.19669 28.25 8.19861C28.25 8.20052 28.25 8.20243 28.25 8.20433C28.25 8.20624 28.25 8.20814 28.25 8.21004C28.25 8.21195 28.25 8.21384 28.25 8.21574C28.25 8.21763 28.25 8.21953 28.25 8.22142C28.25 8.22331 28.25 8.22519 28.25 8.22708C28.25 8.22896 28.25 8.23084 28.25 8.23272C28.25 8.2346 28.25 8.23648 28.25 8.23835C28.25 8.24022 28.25 8.24209 28.25 8.24396C28.25 8.24583 28.25 8.24769 28.25 8.24955C28.25 8.25142 28.25 8.25327 28.25 8.25513C28.25 8.25699 28.25 8.25884 28.25 8.26069C28.25 8.26254 28.25 8.26439 28.25 8.26623C28.25 8.26808 28.25 8.26992 28.25 8.27176C28.25 8.2736 28.25 8.27543 28.25 8.27727C28.25 8.2791 28.25 8.28093 28.25 8.28276C28.25 8.28459 28.25 8.28641 28.25 8.28823C28.25 8.29005 28.25 8.29187 28.25 8.29369C28.25 8.29551 28.25 8.29732 28.25 8.29913C28.25 8.30094 28.25 8.30275 28.25 8.30455C28.25 8.30636 28.25 8.30816 28.25 8.30996C28.25 8.31176 28.25 8.31355 28.25 8.31535C28.25 8.31714 28.25 8.31893 28.25 8.32072C28.25 8.3225 28.25 8.32429 28.25 8.32607C28.25 8.32785 28.25 8.32963 28.25 8.33141C28.25 8.33318 28.25 8.33495 28.25 8.33672C28.25 8.33849 28.25 8.34026 28.25 8.34203C28.25 8.34379 28.25 8.34555 28.25 8.34731C28.25 8.34907 28.25 8.35082 28.25 8.35258C28.25 8.35433 28.25 8.35608 28.25 8.35782C28.25 8.35957 28.25 8.36131 28.25 8.36305C28.25 8.36479 28.25 8.36653 28.25 8.36827C28.25 8.37 28.25 8.37173 28.25 8.37346C28.25 8.37519 28.25 8.37692 28.25 8.37864C28.25 8.38036 28.25 8.38208 28.25 8.3838C28.25 8.38552 28.25 8.38723 28.25 8.38894C28.25 8.39065 28.25 8.39236 28.25 8.39407C28.25 8.39577 28.25 8.39747 28.25 8.39917C28.25 8.40087 28.25 8.40257 28.25 8.40426C28.25 8.40595 28.25 8.40764 28.25 8.40933C28.25 8.41102 28.25 8.4127 28.25 8.41438C28.25 8.41606 28.25 8.41774 28.25 8.41942C28.25 8.42109 28.25 8.42276 28.25 8.42443C28.25 8.4261 28.25 8.42777 28.25 8.42943C28.25 8.43109 28.25 8.43275 28.25 8.43441C28.25 8.43607 28.25 8.43772 28.25 8.43937C28.25 8.44102 28.25 8.44267 28.25 8.44432C28.25 8.44596 28.25 8.4476 28.25 8.44924C28.25 8.45088 28.25 8.45252 28.25 8.45415C28.25 8.45578 28.25 8.45741 28.25 8.45904C28.25 8.46066 28.25 8.46229 28.25 8.46391C28.25 8.46553 28.25 8.46714 28.25 8.46876C28.25 8.47037 28.25 8.47198 28.25 8.47359C28.25 8.4752 28.25 8.47681 28.25 8.47841C28.25 8.48001 28.25 8.48161 28.25 8.4832C28.25 8.4848 28.25 8.48639 28.25 8.48798C28.25 8.48957 28.25 8.49116 28.25 8.49274C28.25 8.49432 28.25 8.4959 28.25 8.49748C28.25 8.49906 28.25 8.50063 28.25 8.5022C28.25 8.50377 28.25 8.50534 28.25 8.50691C28.25 8.50847 28.25 8.51003 28.25 8.51159C28.25 8.51315 28.25 8.51471 28.25 8.51626C28.25 8.51781 28.25 8.51936 28.25 8.52091C28.25 8.52245 28.25 8.52399 28.25 8.52553C28.25 8.52707 28.25 8.52861 28.25 8.53014C28.25 8.53168 28.25 8.53321 28.25 8.53473C28.25 8.53626 28.25 8.53779 28.25 8.53931C28.25 8.54083 28.25 8.54234 28.25 8.54386C28.25 8.54537 28.25 8.54688 28.25 8.54839C28.25 8.5499 28.25 8.55141 28.25 8.55291C28.25 8.55441 28.25 8.55591 28.25 8.5574C28.25 8.5589 28.25 8.56039 28.25 8.56188C28.25 8.56337 28.25 8.56485 28.25 8.56634C28.25 8.56782 28.25 8.5693 28.25 8.57078C28.25 8.57225 28.25 8.57372 28.25 8.57519C28.25 8.57666 28.25 8.57813 28.25 8.57959C28.25 8.58106 28.25 8.58252 28.25 8.58397C28.25 8.58543 28.25 8.58689 28.25 8.58834C28.25 8.58979 28.25 8.59123 28.25 8.59268C28.25 8.59412 28.25 8.59556 28.25 8.597C28.25 8.59844 28.25 8.59987 28.25 8.6013C28.25 8.60273 28.25 8.60416 28.25 8.60559C28.25 8.60701 28.25 8.60843 28.25 8.60985C28.25 8.61127 28.25 8.61268 28.25 8.6141C28.25 8.61551 28.25 8.61692 28.25 8.61832C28.25 8.61973 28.25 8.62113 28.25 8.62253C28.25 8.62392 28.25 8.62532 28.25 8.62671C28.25 8.6281 28.25 8.62949 28.25 8.63088C28.25 8.63226 28.25 8.63365 28.25 8.63502C28.25 8.6364 28.25 8.63778 28.25 8.63915C28.25 8.64052 28.25 8.64189 28.25 8.64326C28.25 8.64462 28.25 8.64599 28.25 8.64734C28.25 8.6487 28.25 8.65006 28.25 8.65141C28.25 8.65276 28.25 8.65411 28.25 8.65546C28.25 8.6568 28.25 8.65815 28.25 8.65949C28.25 8.66082 28.25 8.66216 28.25 8.66349C28.25 8.66483 28.25 8.66615 28.25 8.66748C28.25 8.66881 28.25 8.67013 28.25 8.67145C28.25 8.67277 28.25 8.67408 28.25 8.6754C28.25 8.67671 28.25 8.67802 28.25 8.67932C28.25 8.68063 28.25 8.68193 28.25 8.68323C28.25 8.68453 28.25 8.68582 28.25 8.68712C28.25 8.68841 28.25 8.6897 28.25 8.69098C28.25 8.69227 28.25 8.69355 28.25 8.69483C28.25 8.69611 28.25 8.69738 28.25 8.69866C28.25 8.69993 28.25 8.7012 28.25 8.70246C28.25 8.70373 28.25 8.70499 28.25 8.70625C28.25 8.7075 28.25 8.70876 28.25 8.71001C28.25 8.71126 28.25 8.71251 28.25 8.71376C28.25 8.715 28.25 8.71624 28.25 8.71748C28.25 8.71872 28.25 8.71995 28.25 8.72118C28.25 8.72241 28.25 8.72364 28.25 8.72487C28.25 8.72609 28.25 8.72731 28.25 8.72853C28.25 8.72975 28.25 8.73096 28.25 8.73217C28.25 8.73338 28.25 8.73459 28.25 8.73579C28.25 8.737 28.25 8.7382 28.25 8.73939C28.25 8.74059 28.25 8.74178 28.25 8.74297C28.25 8.74416 28.25 8.74535 28.25 8.74653C28.25 8.74772 28.25 8.7489 28.25 8.75007C28.25 8.75125 28.25 8.75242 28.25 8.75359C28.25 8.75476 28.25 8.75592 28.25 8.75709C28.25 8.75825 28.25 8.75941 28.25 8.76056C28.25 8.76172 28.25 8.76287 28.25 8.76402C28.25 8.76516 28.25 8.76631 28.25 8.76745C28.25 8.76859 28.25 8.76973 28.25 8.77086C28.25 8.772 28.25 8.77313 28.25 8.77426C28.25 8.77538 28.25 8.77651 28.25 8.77763C28.25 8.77875 28.25 8.77986 28.25 8.78098C28.25 8.78209 28.25 8.7832 28.25 8.7843C28.25 8.78541 28.25 8.78651 28.25 8.78761C28.25 8.78871 28.25 8.78981 28.25 8.7909C28.25 8.79199 28.25 8.79308 28.25 8.79416C28.25 8.79525 28.25 8.79633 28.25 8.79741C28.25 8.79848 28.25 8.79956 28.25 8.80063C28.25 8.8017 28.25 8.80277 28.25 8.80383C28.25 8.80489 28.25 8.80595 28.25 8.80701C28.25 8.80807 28.25 8.80912 28.25 8.81017C28.25 8.81122 28.25 8.81226 28.25 8.8133C28.25 8.81435 28.25 8.81539 28.25 8.81642C28.25 8.81745 28.25 8.81849 28.25 8.81951C28.25 8.82054 28.25 8.82157 28.25 8.82259C28.25 8.82361 28.25 8.82462 28.25 8.82564C28.25 8.82665 28.25 8.82766 28.25 8.82867C28.25 8.82967 28.25 8.83067 28.25 8.83167C28.25 8.83267 28.25 8.83367 28.25 8.83466C28.25 8.83565 28.25 8.83664 28.25 8.83762C28.25 8.83861 28.25 8.83959 28.25 8.84056C28.25 8.84154 28.25 8.84251 28.25 8.84348C28.25 8.84445 28.25 8.84542 28.25 8.84638C28.25 8.84734 28.25 8.8483 28.25 8.84926C28.25 8.85021 28.25 8.85117 28.25 8.85211C28.25 8.85306 28.25 8.85401 28.25 8.85495C28.25 8.85589 28.25 8.85682 28.25 8.85776C28.25 8.85869 28.25 8.85962 28.25 8.86055C28.25 8.86147 28.25 8.86239 28.25 8.86331C28.25 8.86423 28.25 8.86514 28.25 8.86606C28.25 8.86697 28.25 8.86787 28.25 8.86878C28.25 8.86968 28.25 8.87058 28.25 8.87148C28.25 8.87237 28.25 8.87327 28.25 8.87416C28.25 8.87504 28.25 8.87593 28.25 8.87681C28.25 8.87769 28.25 8.87857 28.25 8.87945C28.25 8.88032 28.25 8.88119 28.25 8.88206C28.25 8.88292 28.25 8.88379 28.25 8.88464C28.25 8.8855 28.25 8.88636 28.25 8.88721C28.25 8.88806 28.25 8.88891 28.25 8.88975C28.25 8.8906 28.25 8.89144 28.25 8.89228C28.25 8.89311 28.25 8.89395 28.25 8.89477C28.25 8.8956 28.25 8.89643 28.25 8.89725C28.25 8.89807 28.25 8.89889 28.25 8.89971C28.25 8.90052 28.25 8.90133 28.25 8.90214C28.25 8.90294 28.25 8.90375 28.25 8.90454C28.25 8.90534 28.25 8.90614 28.25 8.90693C28.25 8.90772 28.25 8.90851 28.25 8.90929C28.25 8.91008 28.25 8.91086 28.25 8.91163C28.25 8.91241 28.25 8.91318 28.25 8.91395C28.25 8.91472 28.25 8.91549 28.25 8.91625C28.25 8.91701 28.25 8.91777 28.25 8.91852C28.25 8.91927 28.25 8.92002 28.25 8.92077C28.25 8.92151 28.25 8.92226 28.25 8.92299C28.25 8.92373 28.25 8.92447 28.25 8.9252C28.25 8.92593 28.25 8.92665 28.25 8.92738C28.25 8.9281 28.25 8.92882 28.25 8.92953C28.25 8.93025 28.25 8.93096 28.25 8.93167C28.25 8.93238 28.25 8.93308 28.25 8.93378C28.25 8.93448 28.25 8.93518 28.25 8.93587C28.25 8.93656 28.25 8.93725 28.25 8.93793C28.25 8.93862 28.25 8.9393 28.25 8.93997C28.25 8.94065 28.25 8.94132 28.25 8.94199C28.25 8.94266 28.25 8.94333 28.25 8.94399C28.25 8.94465 28.25 8.94531 28.25 8.94596C28.25 8.94661 28.25 8.94726 28.25 8.94791C28.25 8.94855 28.25 8.94919 28.25 8.94983C28.25 8.95047 28.25 8.9511 28.25 8.95173C28.25 8.95236 28.25 8.95299 28.25 8.95361C28.25 8.95423 28.25 8.95485 28.25 8.95547C28.25 8.95608 28.25 8.95669 28.25 8.9573C28.25 8.9579 28.25 8.95851 28.25 8.9591C28.25 8.9597 28.25 8.9603 28.25 8.96089C28.25 8.96148 28.25 8.96207 28.25 8.96265C28.25 8.96323 28.25 8.96381 28.25 8.96439C28.25 8.96496 28.25 8.96553 28.25 8.9661C28.25 8.96666 28.25 8.96723 28.25 8.96779C28.25 8.96835 28.25 8.9689 28.25 8.96945C28.25 8.97 28.25 8.97055 28.25 8.97109C28.25 8.97164 28.25 8.97218 28.25 8.97271C28.25 8.97325 28.25 8.97378 28.25 8.97431C28.25 8.97483 28.25 8.97536 28.25 8.97587C28.25 8.97639 28.25 8.97691 28.25 8.97742C28.25 8.97793 28.25 8.97844 28.25 8.97894C28.25 8.97945 28.25 8.97995 28.25 8.98044C28.25 8.98094 28.25 8.98143 28.25 8.98191C28.25 8.9824 28.25 8.98288 28.25 8.98336C28.25 8.98384 28.25 8.98432 28.25 8.98479C28.25 8.98526 28.25 8.98573 28.25 8.98619C28.25 8.98665 28.25 8.98711 28.25 8.98757C28.25 8.98802 28.25 8.98847 28.25 8.98892C28.25 8.98937 28.25 8.98981 28.25 8.99025C28.25 8.99069 28.25 8.99112 28.25 8.99155C28.25 8.99198 28.25 8.99241 28.25 8.99283C28.25 8.99326 28.25 8.99367 28.25 8.99409C28.25 8.9945 28.25 8.99491 28.25 8.99532C28.25 8.99573 28.25 8.99613 28.25 8.99653C28.25 8.99693 28.25 8.99732 28.25 8.99771C28.25 8.9981 28.25 8.99849 28.25 8.99887C28.25 8.99925 28.25 8.99963 28.25 9H29.75ZM29.75 6C29.75 5.99671 29.75 5.99342 29.75 5.99013C29.75 5.98684 29.75 5.98355 29.75 5.98026C29.75 5.97697 29.75 5.97367 29.75 5.97038C29.75 5.96708 29.75 5.96379 29.75 5.96049C29.75 5.95719 29.75 5.9539 29.75 5.95059C29.75 5.9473 29.75 5.94399 29.75 5.94069C29.75 5.93739 29.75 5.93409 29.75 5.93078C29.75 5.92748 29.75 5.92417 29.75 5.92086C29.75 5.91756 29.75 5.91425 29.75 5.91094C29.75 5.90763 29.75 5.90432 29.75 5.90101C29.75 5.8977 29.75 5.89438 29.75 5.89107C29.75 5.88775 29.75 5.88444 29.75 5.88112C29.75 5.87781 29.75 5.87449 29.75 5.87117C29.75 5.86785 29.75 5.86453 29.75 5.86121C29.75 5.85789 29.75 5.85457 29.75 5.85124C29.75 5.84792 29.75 5.8446 29.75 5.84127C29.75 5.83794 29.75 5.83462 29.75 5.83129C29.75 5.82796 29.75 5.82463 29.75 5.8213C29.75 5.81797 29.75 5.81464 29.75 5.81131C29.75 5.80798 29.75 5.80464 29.75 5.80131C29.75 5.79797 29.75 5.79464 29.75 5.7913C29.75 5.78796 29.75 5.78463 29.75 5.78129C29.75 5.77795 29.75 5.77461 29.75 5.77127C29.75 5.76793 29.75 5.76458 29.75 5.76124C29.75 5.7579 29.75 5.75455 29.75 5.75121C29.75 5.74786 29.75 5.74452 29.75 5.74117C29.75 5.73782 29.75 5.73447 29.75 5.73112C29.75 5.72777 29.75 5.72442 29.75 5.72107C29.75 5.71772 29.75 5.71437 29.75 5.71101C29.75 5.70766 29.75 5.7043 29.75 5.70095C29.75 5.69759 29.75 5.69423 29.75 5.69088C29.75 5.68752 29.75 5.68416 29.75 5.6808C29.75 5.67744 29.75 5.67408 29.75 5.67072C29.75 5.66736 29.75 5.66399 29.75 5.66063C29.75 5.65727 29.75 5.6539 29.75 5.65053C29.75 5.64717 29.75 5.6438 29.75 5.64043C29.75 5.63707 29.75 5.6337 29.75 5.63033C29.75 5.62696 29.75 5.62359 29.75 5.62021C29.75 5.61684 29.75 5.61347 29.75 5.6101C29.75 5.60672 29.75 5.60335 29.75 5.59997C29.75 5.5966 29.75 5.59322 29.75 5.58984C29.75 5.58647 29.75 5.58309 29.75 5.57971C29.75 5.57633 29.75 5.57295 29.75 5.56957C29.75 5.56619 29.75 5.5628 29.75 5.55942C29.75 5.55604 29.75 5.55265 29.75 5.54927C29.75 5.54589 29.75 5.5425 29.75 5.53911C29.75 5.53573 29.75 5.53234 29.75 5.52895C29.75 5.52556 29.75 5.52217 29.75 5.51878C29.75 5.51539 29.75 5.512 29.75 5.50861C29.75 5.50522 29.75 5.50182 29.75 5.49843C29.75 5.49504 29.75 5.49164 29.75 5.48825C29.75 5.48485 29.75 5.48146 29.75 5.47806C29.75 5.47466 29.75 5.47126 29.75 5.46786C29.75 5.46447 29.75 5.46107 29.75 5.45766C29.75 5.45426 29.75 5.45086 29.75 5.44746C29.75 5.44406 29.75 5.44066 29.75 5.43725C29.75 5.43385 29.75 5.43044 29.75 5.42704C29.75 5.42363 29.75 5.42023 29.75 5.41682C29.75 5.41341 29.75 5.41 29.75 5.40659C29.75 5.40319 29.75 5.39978 29.75 5.39637C29.75 5.39296 29.75 5.38954 29.75 5.38613C29.75 5.38272 29.75 5.37931 29.75 5.3759C29.75 5.37248 29.75 5.36907 29.75 5.36565C29.75 5.36224 29.75 5.35882 29.75 5.3554C29.75 5.35199 29.75 5.34857 29.75 5.34515C29.75 5.34173 29.75 5.33832 29.75 5.3349C29.75 5.33148 29.75 5.32806 29.75 5.32464C29.75 5.32121 29.75 5.31779 29.75 5.31437C29.75 5.31095 29.75 5.30752 29.75 5.3041C29.75 5.30068 29.75 5.29725 29.75 5.29383C29.75 5.2904 29.75 5.28698 29.75 5.28355C29.75 5.28012 29.75 5.27669 29.75 5.27327C29.75 5.26984 29.75 5.26641 29.75 5.26298C29.75 5.25955 29.75 5.25612 29.75 5.25269C29.75 5.24926 29.75 5.24583 29.75 5.24239C29.75 5.23896 29.75 5.23553 29.75 5.23209C29.75 5.22866 29.75 5.22523 29.75 5.22179C29.75 5.21836 29.75 5.21492 29.75 5.21148C29.75 5.20805 29.75 5.20461 29.75 5.20117C29.75 5.19774 29.75 5.1943 29.75 5.19086C29.75 5.18742 29.75 5.18398 29.75 5.18054C29.75 5.1771 29.75 5.17366 29.75 5.17022C29.75 5.16678 29.75 5.16333 29.75 5.15989C29.75 5.15645 29.75 5.15301 29.75 5.14956C29.75 5.14612 29.75 5.14267 29.75 5.13923C29.75 5.13578 29.75 5.13234 29.75 5.12889C29.75 5.12544 29.75 5.122 29.75 5.11855C29.75 5.1151 29.75 5.11165 29.75 5.10821C29.75 5.10476 29.75 5.10131 29.75 5.09786C29.75 5.09441 29.75 5.09096 29.75 5.08751C29.75 5.08406 29.75 5.08061 29.75 5.07715C29.75 5.0737 29.75 5.07025 29.75 5.0668C29.75 5.06334 29.75 5.05989 29.75 5.05643C29.75 5.05298 29.75 5.04953 29.75 5.04607C29.75 5.04261 29.75 5.03916 29.75 5.0357C29.75 5.03225 29.75 5.02879 29.75 5.02533C29.75 5.02187 29.75 5.01842 29.75 5.01496C29.75 5.0115 29.75 5.00804 29.75 5.00458C29.75 5.00112 29.75 4.99766 29.75 4.9942C29.75 4.99074 29.75 4.98728 29.75 4.98382C29.75 4.98036 29.75 4.9769 29.75 4.97343C29.75 4.96997 29.75 4.96651 29.75 4.96305C29.75 4.95958 29.75 4.95612 29.75 4.95266C29.75 4.94919 29.75 4.94573 29.75 4.94226C29.75 4.9388 29.75 4.93533 29.75 4.93186C29.75 4.9284 29.75 4.92493 29.75 4.92147C29.75 4.918 29.75 4.91453 29.75 4.91106C29.75 4.9076 29.75 4.90413 29.75 4.90066C29.75 4.89719 29.75 4.89372 29.75 4.89025C29.75 4.88678 29.75 4.88331 29.75 4.87984C29.75 4.87637 29.75 4.8729 29.75 4.86943C29.75 4.86596 29.75 4.86249 29.75 4.85902C29.75 4.85555 29.75 4.85207 29.75 4.8486C29.75 4.84513 29.75 4.84166 29.75 4.83818C29.75 4.83471 29.75 4.83123 29.75 4.82776C29.75 4.82429 29.75 4.82081 29.75 4.81734C29.75 4.81386 29.75 4.81039 29.75 4.80691C29.75 4.80344 29.75 4.79996 29.75 4.79648C29.75 4.79301 29.75 4.78953 29.75 4.78605C29.75 4.78258 29.75 4.7791 29.75 4.77562C29.75 4.77215 29.75 4.76867 29.75 4.76519C29.75 4.76171 29.75 4.75823 29.75 4.75475C29.75 4.75127 29.75 4.7478 29.75 4.74432C29.75 4.74084 29.75 4.73736 29.75 4.73388C29.75 4.7304 29.75 4.72692 29.75 4.72344C29.75 4.71995 29.75 4.71647 29.75 4.71299C29.75 4.70951 29.75 4.70603 29.75 4.70255C29.75 4.69907 29.75 4.69558 29.75 4.6921C29.75 4.68862 29.75 4.68514 29.75 4.68165C29.75 4.67817 29.75 4.67469 29.75 4.67121C29.75 4.66772 29.75 4.66424 29.75 4.66075C29.75 4.65727 29.75 4.65379 29.75 4.6503C29.75 4.64682 29.75 4.64333 29.75 4.63985C29.75 4.63636 29.75 4.63288 29.75 4.62939C29.75 4.62591 29.75 4.62242 29.75 4.61894C29.75 4.61545 29.75 4.61197 29.75 4.60848C29.75 4.60499 29.75 4.60151 29.75 4.59802C29.75 4.59453 29.75 4.59105 29.75 4.58756C29.75 4.58407 29.75 4.58059 29.75 4.5771C29.75 4.57361 29.75 4.57012 29.75 4.56664C29.75 4.56315 29.75 4.55966 29.75 4.55617C29.75 4.55269 29.75 4.5492 29.75 4.54571C29.75 4.54222 29.75 4.53873 29.75 4.53524C29.75 4.53176 29.75 4.52827 29.75 4.52478C29.75 4.52129 29.75 4.5178 29.75 4.51431C29.75 4.51082 29.75 4.50733 29.75 4.50384C29.75 4.50035 29.75 4.49686 29.75 4.49337C29.75 4.48988 29.75 4.48639 29.75 4.4829C29.75 4.47941 29.75 4.47592 29.75 4.47243C29.75 4.46894 29.75 4.46545 29.75 4.46196C29.75 4.45847 29.75 4.45498 29.75 4.45149C29.75 4.448 29.75 4.44451 29.75 4.44102C29.75 4.43753 29.75 4.43404 29.75 4.43055C29.75 4.42706 29.75 4.42357 29.75 4.42008C29.75 4.41659 29.75 4.41309 29.75 4.4096C29.75 4.40611 29.75 4.40262 29.75 4.39913C29.75 4.39564 29.75 4.39215 29.75 4.38866C29.75 4.38516 29.75 4.38167 29.75 4.37818C29.75 4.37469 29.75 4.3712 29.75 4.36771C29.75 4.36422 29.75 4.36072 29.75 4.35723C29.75 4.35374 29.75 4.35025 29.75 4.34676C29.75 4.34327 29.75 4.33978 29.75 4.33628C29.75 4.33279 29.75 4.3293 29.75 4.32581C29.75 4.32232 29.75 4.31883 29.75 4.31534C29.75 4.31184 29.75 4.30835 29.75 4.30486C29.75 4.30137 29.75 4.29788 29.75 4.29439C29.75 4.29089 29.75 4.2874 29.75 4.28391C29.75 4.28042 29.75 4.27693 29.75 4.27344C29.75 4.26995 29.75 4.26646 29.75 4.26296C29.75 4.25947 29.75 4.25598 29.75 4.25249C29.75 4.249 29.75 4.24551 29.75 4.24202C29.75 4.23853 29.75 4.23504 29.75 4.23155C29.75 4.22805 29.75 4.22456 29.75 4.22107C29.75 4.21758 29.75 4.21409 29.75 4.2106C29.75 4.20711 29.75 4.20362 29.75 4.20013C29.75 4.19664 29.75 4.19315 29.75 4.18966C29.75 4.18617 29.75 4.18268 29.75 4.17919C29.75 4.1757 29.75 4.17221 29.75 4.16872C29.75 4.16523 29.75 4.16174 29.75 4.15825C29.75 4.15476 29.75 4.15127 29.75 4.14778C29.75 4.14429 29.75 4.14081 29.75 4.13732C29.75 4.13383 29.75 4.13034 29.75 4.12685C29.75 4.12336 29.75 4.11987 29.75 4.11638C29.75 4.1129 29.75 4.10941 29.75 4.10592C29.75 4.10243 29.75 4.09894 29.75 4.09546C29.75 4.09197 29.75 4.08848 29.75 4.08499C29.75 4.08151 29.75 4.07802 29.75 4.07453C29.75 4.07105 29.75 4.06756 29.75 4.06407C29.75 4.06059 29.75 4.0571 29.75 4.05361C29.75 4.05013 29.75 4.04664 29.75 4.04316C29.75 4.03967 29.75 4.03619 29.75 4.0327C29.75 4.02921 29.75 4.02573 29.75 4.02224C29.75 4.01876 29.75 4.01528 29.75 4.01179C29.75 4.00831 29.75 4.00482 29.75 4.00134C29.75 3.99786 29.75 3.99437 29.75 3.99089C29.75 3.9874 29.75 3.98392 29.75 3.98044C29.75 3.97696 29.75 3.97347 29.75 3.96999C29.75 3.96651 29.75 3.96303 29.75 3.95954C29.75 3.95606 29.75 3.95258 29.75 3.9491C29.75 3.94562 29.75 3.94214 29.75 3.93866C29.75 3.93518 29.75 3.9317 29.75 3.92822C29.75 3.92474 29.75 3.92126 29.75 3.91778C29.75 3.9143 29.75 3.91082 29.75 3.90734C29.75 3.90386 29.75 3.90038 29.75 3.8969C29.75 3.89343 29.75 3.88995 29.75 3.88647C29.75 3.88299 29.75 3.87952 29.75 3.87604C29.75 3.87256 29.75 3.86908 29.75 3.86561C29.75 3.86213 29.75 3.85866 29.75 3.85518C29.75 3.85171 29.75 3.84823 29.75 3.84476C29.75 3.84128 29.75 3.83781 29.75 3.83433C29.75 3.83086 29.75 3.82738 29.75 3.82391C29.75 3.82044 29.75 3.81696 29.75 3.81349C29.75 3.81002 29.75 3.80655 29.75 3.80308C29.75 3.7996 29.75 3.79613 29.75 3.79266C29.75 3.78919 29.75 3.78572 29.75 3.78225C29.75 3.77878 29.75 3.77531 29.75 3.77184C29.75 3.76837 29.75 3.7649 29.75 3.76143C29.75 3.75796 29.75 3.7545 29.75 3.75103C29.75 3.74756 29.75 3.74409 29.75 3.74063C29.75 3.73716 29.75 3.73369 29.75 3.73023C29.75 3.72676 29.75 3.72329 29.75 3.71983C29.75 3.71636 29.75 3.7129 29.75 3.70944C29.75 3.70597 29.75 3.70251 29.75 3.69904C29.75 3.69558 29.75 3.69212 29.75 3.68866C29.75 3.68519 29.75 3.68173 29.75 3.67827C29.75 3.67481 29.75 3.67135 29.75 3.66789C29.75 3.66443 29.75 3.66097 29.75 3.65751C29.75 3.65405 29.75 3.65059 29.75 3.64713C29.75 3.64367 29.75 3.64022 29.75 3.63676C29.75 3.6333 29.75 3.62984 29.75 3.62639C29.75 3.62293 29.75 3.61948 29.75 3.61602C29.75 3.61256 29.75 3.60911 29.75 3.60566C29.75 3.6022 29.75 3.59875 29.75 3.59529C29.75 3.59184 29.75 3.58839 29.75 3.58494C29.75 3.58149 29.75 3.57803 29.75 3.57458C29.75 3.57113 29.75 3.56768 29.75 3.56423C29.75 3.56078 29.75 3.55733 29.75 3.55388C29.75 3.55044 29.75 3.54699 29.75 3.54354C29.75 3.54009 29.75 3.53665 29.75 3.5332C29.75 3.52975 29.75 3.52631 29.75 3.52286C29.75 3.51942 29.75 3.51597 29.75 3.51253C29.75 3.50908 29.75 3.50564 29.75 3.5022C29.75 3.49876 29.75 3.49531 29.75 3.49187C29.75 3.48843 29.75 3.48499 29.75 3.48155C29.75 3.47811 29.75 3.47467 29.75 3.47123C29.75 3.46779 29.75 3.46435 29.75 3.46092C29.75 3.45748 29.75 3.45404 29.75 3.4506C29.75 3.44717 29.75 3.44373 29.75 3.4403C29.75 3.43686 29.75 3.43343 29.75 3.42999C29.75 3.42656 29.75 3.42313 29.75 3.41969C29.75 3.41626 29.75 3.41283 29.75 3.4094C29.75 3.40597 29.75 3.40254 29.75 3.39911C29.75 3.39568 29.75 3.39225 29.75 3.38882C29.75 3.38539 29.75 3.38197 29.75 3.37854C29.75 3.37511 29.75 3.37169 29.75 3.36826C29.75 3.36484 29.75 3.36141 29.75 3.35799C29.75 3.35456 29.75 3.35114 29.75 3.34772C29.75 3.34429 29.75 3.34087 29.75 3.33745C29.75 3.33403 29.75 3.33061 29.75 3.32719C29.75 3.32377 29.75 3.32035 29.75 3.31693C29.75 3.31352 29.75 3.3101 29.75 3.30668C29.75 3.30326 29.75 3.29985 29.75 3.29643C29.75 3.29302 29.75 3.2896 29.75 3.28619C29.75 3.28278 29.75 3.27937 29.75 3.27595C29.75 3.27254 29.75 3.26913 29.75 3.26572C29.75 3.26231 29.75 3.2589 29.75 3.25549C29.75 3.25208 29.75 3.24867 29.75 3.24527C29.75 3.24186 29.75 3.23845 29.75 3.23505C29.75 3.23164 29.75 3.22824 29.75 3.22483C29.75 3.22143 29.75 3.21803 29.75 3.21462C29.75 3.21122 29.75 3.20782 29.75 3.20442C29.75 3.20102 29.75 3.19762 29.75 3.19422C29.75 3.19082 29.75 3.18742 29.75 3.18403C29.75 3.18063 29.75 3.17723 29.75 3.17384C29.75 3.17044 29.75 3.16705 29.75 3.16365C29.75 3.16026 29.75 3.15687 29.75 3.15347C29.75 3.15008 29.75 3.14669 29.75 3.1433C29.75 3.13991 29.75 3.13652 29.75 3.13313C29.75 3.12975 29.75 3.12636 29.75 3.12297C29.75 3.11958 29.75 3.1162 29.75 3.11281C29.75 3.10943 29.75 3.10604 29.75 3.10266C29.75 3.09928 29.75 3.0959 29.75 3.09251C29.75 3.08913 29.75 3.08575 29.75 3.08237C29.75 3.07899 29.75 3.07562 29.75 3.07224C29.75 3.06886 29.75 3.06548 29.75 3.06211C29.75 3.05873 29.75 3.05536 29.75 3.05199C29.75 3.04861 29.75 3.04524 29.75 3.04187C29.75 3.0385 29.75 3.03512 29.75 3.03175C29.75 3.02838 29.75 3.02502 29.75 3.02165C29.75 3.01828 29.75 3.01491 29.75 3.01155C29.75 3.00818 29.75 3.00482 29.75 3.00145C29.75 2.99809 29.75 2.99473 29.75 2.99136C29.75 2.988 29.75 2.98464 29.75 2.98128C29.75 2.97792 29.75 2.97456 29.75 2.9712C29.75 2.96785 29.75 2.96449 29.75 2.96113C29.75 2.95778 29.75 2.95442 29.75 2.95107C29.75 2.94771 29.75 2.94436 29.75 2.94101C29.75 2.93766 29.75 2.93431 29.75 2.93096C29.75 2.92761 29.75 2.92426 29.75 2.92091C29.75 2.91756 29.75 2.91422 29.75 2.91087C29.75 2.90753 29.75 2.90418 29.75 2.90084C29.75 2.8975 29.75 2.89415 29.75 2.89081C29.75 2.88747 29.75 2.88413 29.75 2.88079C29.75 2.87745 29.75 2.87411 29.75 2.87078C29.75 2.86744 29.75 2.8641 29.75 2.86077C29.75 2.85744 29.75 2.8541 29.75 2.85077C29.75 2.84744 29.75 2.84411 29.75 2.84078C29.75 2.83745 29.75 2.83412 29.75 2.83079C29.75 2.82746 29.75 2.82413 29.75 2.82081C29.75 2.81748 29.75 2.81416 29.75 2.81083C29.75 2.80751 29.75 2.80419 29.75 2.80087C29.75 2.79755 29.75 2.79423 29.75 2.79091C29.75 2.78759 29.75 2.78427 29.75 2.78095C29.75 2.77764 29.75 2.77432 29.75 2.77101C29.75 2.76769 29.75 2.76438 29.75 2.76107C29.75 2.75776 29.75 2.75445 29.75 2.75114C29.75 2.74783 29.75 2.74452 29.75 2.74121C29.75 2.7379 29.75 2.7346 29.75 2.73129C29.75 2.72799 29.75 2.72469 29.75 2.72138C29.75 2.71808 29.75 2.71478 29.75 2.71148C29.75 2.70818 29.75 2.70488 29.75 2.70158C29.75 2.69829 29.75 2.69499 29.75 2.69169C29.75 2.6884 29.75 2.68511 29.75 2.68181C29.75 2.67852 29.75 2.67523 29.75 2.67194C29.75 2.66865 29.75 2.66536 29.75 2.66207C29.75 2.65879 29.75 2.6555 29.75 2.65221C29.75 2.64893 29.75 2.64565 29.75 2.64236C29.75 2.63908 29.75 2.6358 29.75 2.63252C29.75 2.62924 29.75 2.62596 29.75 2.62268C29.75 2.61941 29.75 2.61613 29.75 2.61286C29.75 2.60958 29.75 2.60631 29.75 2.60303C29.75 2.59976 29.75 2.59649 29.75 2.59322C29.75 2.58995 29.75 2.58668 29.75 2.58342C29.75 2.58015 29.75 2.57688 29.75 2.57362C29.75 2.57036 29.75 2.56709 29.75 2.56383C29.75 2.56057 29.75 2.55731 29.75 2.55405C29.75 2.55079 29.75 2.54753 29.75 2.54428C29.75 2.54102 29.75 2.53777 29.75 2.53451C29.75 2.53126 29.75 2.52801 29.75 2.52476C29.75 2.52151 29.75 2.51826 29.75 2.51501C29.75 2.51176 29.75 2.50851 29.75 2.50527C29.75 2.50202 29.75 2.49878 29.75 2.49554C29.75 2.49229 29.75 2.48905 29.75 2.48581C29.75 2.48257 29.75 2.47933 29.75 2.4761C29.75 2.47286 29.75 2.46962 29.75 2.46639C29.75 2.46316 29.75 2.45992 29.75 2.45669C29.75 2.45346 29.75 2.45023 29.75 2.447C29.75 2.44377 29.75 2.44055 29.75 2.43732C29.75 2.43409 29.75 2.43087 29.75 2.42765C29.75 2.42442 29.75 2.4212 29.75 2.41798C29.75 2.41476 29.75 2.41154 29.75 2.40833C29.75 2.40511 29.75 2.40189 29.75 2.39868C29.75 2.39547 29.75 2.39225 29.75 2.38904C29.75 2.38583 29.75 2.38262 29.75 2.37941C29.75 2.37621 29.75 2.373 29.75 2.36979C29.75 2.36659 29.75 2.36338 29.75 2.36018C29.75 2.35698 29.75 2.35378 29.75 2.35058C29.75 2.34738 29.75 2.34418 29.75 2.34099C29.75 2.33779 29.75 2.3346 29.75 2.3314C29.75 2.32821 29.75 2.32502 29.75 2.32183C29.75 2.31864 29.75 2.31545 29.75 2.31226C29.75 2.30907 29.75 2.30589 29.75 2.3027C29.75 2.29952 29.75 2.29634 29.75 2.29316C29.75 2.28998 29.75 2.2868 29.75 2.28362C29.75 2.28044 29.75 2.27726 29.75 2.27409C29.75 2.27092 29.75 2.26774 29.75 2.26457C29.75 2.2614 29.75 2.25823 29.75 2.25506C29.75 2.25189 29.75 2.24872 29.75 2.24556C29.75 2.24239 29.75 2.23923 29.75 2.23607C29.75 2.23291 29.75 2.22975 29.75 2.22659C29.75 2.22343 29.75 2.22027 29.75 2.21712C29.75 2.21396 29.75 2.21081 29.75 2.20765C29.75 2.2045 29.75 2.20135 29.75 2.1982C29.75 2.19505 29.75 2.1919 29.75 2.18876C29.75 2.18561 29.75 2.18247 29.75 2.17932C29.75 2.17618 29.75 2.17304 29.75 2.1699C29.75 2.16676 29.75 2.16362 29.75 2.16049C29.75 2.15735 29.75 2.15422 29.75 2.15109C29.75 2.14795 29.75 2.14482 29.75 2.14169C29.75 2.13856 29.75 2.13543 29.75 2.13231C29.75 2.12918 29.75 2.12606 29.75 2.12294C29.75 2.11981 29.75 2.11669 29.75 2.11357C29.75 2.11045 29.75 2.10734 29.75 2.10422C29.75 2.1011 29.75 2.09799 29.75 2.09488C29.75 2.09176 29.75 2.08865 29.75 2.08555C29.75 2.08244 29.75 2.07933 29.75 2.07622C29.75 2.07312 29.75 2.07001 29.75 2.06691C29.75 2.06381 29.75 2.06071 29.75 2.05761C29.75 2.05451 29.75 2.05141 29.75 2.04832C29.75 2.04522 29.75 2.04213 29.75 2.03904C29.75 2.03595 29.75 2.03286 29.75 2.02977C29.75 2.02668 29.75 2.02359 29.75 2.02051C29.75 2.01743 29.75 2.01434 29.75 2.01126C29.75 2.00818 29.75 2.0051 29.75 2.00202C29.75 1.99895 29.75 1.99587 29.75 1.9928C29.75 1.98972 29.75 1.98665 29.75 1.98358C29.75 1.98051 29.75 1.97744 29.75 1.97437C29.75 1.97131 29.75 1.96824 29.75 1.96518C29.75 1.96212 29.75 1.95906 29.75 1.956C29.75 1.95294 29.75 1.94988 29.75 1.94682C29.75 1.94377 29.75 1.94071 29.75 1.93766C29.75 1.93461 29.75 1.93156 29.75 1.92851C29.75 1.92546 29.75 1.92242 29.75 1.91937C29.75 1.91633 29.75 1.91328 29.75 1.91024C29.75 1.9072 29.75 1.90416 29.75 1.90113C29.75 1.89809 29.75 1.89505 29.75 1.89202C29.75 1.88899 29.75 1.88595 29.75 1.88293C29.75 1.8799 29.75 1.87687 29.75 1.87384C29.75 1.87082 29.75 1.86779 29.75 1.86477C29.75 1.86175 29.75 1.85873 29.75 1.85571C29.75 1.85269 29.75 1.84967 29.75 1.84666C29.75 1.84365 29.75 1.84063 29.75 1.83762C29.75 1.83461 29.75 1.8316 29.75 1.8286C29.75 1.82559 29.75 1.82259 29.75 1.81958C29.75 1.81658 29.75 1.81358 29.75 1.81058C29.75 1.80758 29.75 1.80458 29.75 1.80159C29.75 1.79859 29.75 1.7956 29.75 1.79261C29.75 1.78962 29.75 1.78663 29.75 1.78364C29.75 1.78065 29.75 1.77767 29.75 1.77469C29.75 1.7717 29.75 1.76872 29.75 1.76574C29.75 1.76276 29.75 1.75979 29.75 1.75681C29.75 1.75384 29.75 1.75086 29.75 1.74789C29.75 1.74492 29.75 1.74195 29.75 1.73898C29.75 1.73602 29.75 1.73305 29.75 1.73009C29.75 1.72712 29.75 1.72416 29.75 1.7212C29.75 1.71824 29.75 1.71529 29.75 1.71233C29.75 1.70938 29.75 1.70642 29.75 1.70347C29.75 1.70052 29.75 1.69757 29.75 1.69463C29.75 1.69168 29.75 1.68873 29.75 1.68579C29.75 1.68285 29.75 1.67991 29.75 1.67697C29.75 1.67403 29.75 1.67109 29.75 1.66816C29.75 1.66522 29.75 1.66229 29.75 1.65936C29.75 1.65643 29.75 1.6535 29.75 1.65058C29.75 1.64765 29.75 1.64473 29.75 1.6418C29.75 1.63888 29.75 1.63596 29.75 1.63304C29.75 1.63013 29.75 1.62721 29.75 1.6243C29.75 1.62138 29.75 1.61847 29.75 1.61556C29.75 1.61265 29.75 1.60975 29.75 1.60684C29.75 1.60394 29.75 1.60103 29.75 1.59813C29.75 1.59523 29.75 1.59233 29.75 1.58944C29.75 1.58654 29.75 1.58364 29.75 1.58075C29.75 1.57786 29.75 1.57497 29.75 1.57208C29.75 1.56919 29.75 1.56631 29.75 1.56342C29.75 1.56054 29.75 1.55766 29.75 1.55478C29.75 1.5519 29.75 1.54902 29.75 1.54615C29.75 1.54327 29.75 1.5404 29.75 1.53753C29.75 1.53466 29.75 1.53179 29.75 1.52893C29.75 1.52606 29.75 1.52319 29.75 1.52033C29.75 1.51747 29.75 1.51461 29.75 1.51175C29.75 1.5089 29.75 1.50604 29.75 1.50319C29.75 1.50034 29.75 1.49749 29.75 1.49464C29.75 1.49179 29.75 1.48894 29.75 1.4861C29.75 1.48325 29.75 1.48041 29.75 1.47757C29.75 1.47473 29.75 1.4719 29.75 1.46906C29.75 1.46623 29.75 1.46339 29.75 1.46056C29.75 1.45773 29.75 1.4549 29.75 1.45208C29.75 1.44925 29.75 1.44643 29.75 1.44361C29.75 1.44078 29.75 1.43797 29.75 1.43515C29.75 1.43233 29.75 1.42952 29.75 1.42671C29.75 1.42389 29.75 1.42108 29.75 1.41827C29.75 1.41547 29.75 1.41266 29.75 1.40986C29.75 1.40706 29.75 1.40425 29.75 1.40146C29.75 1.39866 29.75 1.39586 29.75 1.39307C29.75 1.39027 29.75 1.38748 29.75 1.38469C29.75 1.3819 29.75 1.37912 29.75 1.37633C29.75 1.37355 29.75 1.37077 29.75 1.36799C29.75 1.36521 29.75 1.36243 29.75 1.35965C29.75 1.35688 29.75 1.3541 29.75 1.35133C29.75 1.34856 29.75 1.3458 29.75 1.34303C29.75 1.34026 29.75 1.3375 29.75 1.33474C29.75 1.33198 29.75 1.32922 29.75 1.32646C29.75 1.32371 29.75 1.32095 29.75 1.3182C29.75 1.31545 29.75 1.3127 29.75 1.30996C29.75 1.30721 29.75 1.30446 29.75 1.30172C29.75 1.29898 29.75 1.29624 29.75 1.2935C29.75 1.29077 29.75 1.28803 29.75 1.2853C29.75 1.28257 29.75 1.27984 29.75 1.27711C29.75 1.27438 29.75 1.27166 29.75 1.26894C29.75 1.26621 29.75 1.26349 29.75 1.26078C29.75 1.25806 29.75 1.25534 29.75 1.25263C29.75 1.24992 29.75 1.24721 29.75 1.2445C29.75 1.24179 29.75 1.23909 29.75 1.23638C29.75 1.23368 29.75 1.23098 29.75 1.22828C29.75 1.22558 29.75 1.22289 29.75 1.2202C29.75 1.2175 29.75 1.21481 29.75 1.21213C29.75 1.20944 29.75 1.20675 29.75 1.20407C29.75 1.20139 29.75 1.19871 29.75 1.19603C29.75 1.19335 29.75 1.19067 29.75 1.188C29.75 1.18533 29.75 1.18266 29.75 1.17999C29.75 1.17732 29.75 1.17466 29.75 1.17199C29.75 1.16933 29.75 1.16667 29.75 1.16401C29.75 1.16135 29.75 1.1587 29.75 1.15605C29.75 1.15339 29.75 1.15074 29.75 1.1481C29.75 1.14545 29.75 1.1428 29.75 1.14016C29.75 1.13752 29.75 1.13488 29.75 1.13224C29.75 1.1296 29.75 1.12697 29.75 1.12434C29.75 1.1217 29.75 1.11907 29.75 1.11645C29.75 1.11382 29.75 1.1112 29.75 1.10857C29.75 1.10595 29.75 1.10333 29.75 1.10072C29.75 1.0981 29.75 1.09549 29.75 1.09287C29.75 1.09026 29.75 1.08765 29.75 1.08505C29.75 1.08244 29.75 1.07984 29.75 1.07724C29.75 1.07464 29.75 1.07204 29.75 1.06944C29.75 1.06685 29.75 1.06425 29.75 1.06166C29.75 1.05907 29.75 1.05648 29.75 1.0539C29.75 1.05131 29.75 1.04873 29.75 1.04615C29.75 1.04357 29.75 1.04099 29.75 1.03842C29.75 1.03584 29.75 1.03327 29.75 1.0307C29.75 1.02813 29.75 1.02557 29.75 1.023C29.75 1.02044 29.75 1.01788 29.75 1.01532C29.75 1.01276 29.75 1.0102 29.75 1.00765C29.75 1.0051 29.75 1.00255 29.75 1H28.25C28.25 1.00255 28.25 1.0051 28.25 1.00765C28.25 1.0102 28.25 1.01276 28.25 1.01532C28.25 1.01788 28.25 1.02044 28.25 1.023C28.25 1.02557 28.25 1.02813 28.25 1.0307C28.25 1.03327 28.25 1.03584 28.25 1.03842C28.25 1.04099 28.25 1.04357 28.25 1.04615C28.25 1.04873 28.25 1.05131 28.25 1.0539C28.25 1.05648 28.25 1.05907 28.25 1.06166C28.25 1.06425 28.25 1.06685 28.25 1.06944C28.25 1.07204 28.25 1.07464 28.25 1.07724C28.25 1.07984 28.25 1.08244 28.25 1.08505C28.25 1.08765 28.25 1.09026 28.25 1.09287C28.25 1.09549 28.25 1.0981 28.25 1.10072C28.25 1.10333 28.25 1.10595 28.25 1.10857C28.25 1.1112 28.25 1.11382 28.25 1.11645C28.25 1.11907 28.25 1.1217 28.25 1.12434C28.25 1.12697 28.25 1.1296 28.25 1.13224C28.25 1.13488 28.25 1.13752 28.25 1.14016C28.25 1.1428 28.25 1.14545 28.25 1.1481C28.25 1.15074 28.25 1.15339 28.25 1.15605C28.25 1.1587 28.25 1.16135 28.25 1.16401C28.25 1.16667 28.25 1.16933 28.25 1.17199C28.25 1.17466 28.25 1.17732 28.25 1.17999C28.25 1.18266 28.25 1.18533 28.25 1.188C28.25 1.19067 28.25 1.19335 28.25 1.19603C28.25 1.19871 28.25 1.20139 28.25 1.20407C28.25 1.20675 28.25 1.20944 28.25 1.21213C28.25 1.21481 28.25 1.2175 28.25 1.2202C28.25 1.22289 28.25 1.22558 28.25 1.22828C28.25 1.23098 28.25 1.23368 28.25 1.23638C28.25 1.23909 28.25 1.24179 28.25 1.2445C28.25 1.24721 28.25 1.24992 28.25 1.25263C28.25 1.25534 28.25 1.25806 28.25 1.26078C28.25 1.26349 28.25 1.26621 28.25 1.26894C28.25 1.27166 28.25 1.27438 28.25 1.27711C28.25 1.27984 28.25 1.28257 28.25 1.2853C28.25 1.28803 28.25 1.29077 28.25 1.2935C28.25 1.29624 28.25 1.29898 28.25 1.30172C28.25 1.30446 28.25 1.30721 28.25 1.30996C28.25 1.3127 28.25 1.31545 28.25 1.3182C28.25 1.32095 28.25 1.32371 28.25 1.32646C28.25 1.32922 28.25 1.33198 28.25 1.33474C28.25 1.3375 28.25 1.34026 28.25 1.34303C28.25 1.3458 28.25 1.34856 28.25 1.35133C28.25 1.3541 28.25 1.35688 28.25 1.35965C28.25 1.36243 28.25 1.36521 28.25 1.36799C28.25 1.37077 28.25 1.37355 28.25 1.37633C28.25 1.37912 28.25 1.3819 28.25 1.38469C28.25 1.38748 28.25 1.39027 28.25 1.39307C28.25 1.39586 28.25 1.39866 28.25 1.40146C28.25 1.40425 28.25 1.40706 28.25 1.40986C28.25 1.41266 28.25 1.41547 28.25 1.41827C28.25 1.42108 28.25 1.42389 28.25 1.42671C28.25 1.42952 28.25 1.43233 28.25 1.43515C28.25 1.43797 28.25 1.44078 28.25 1.44361C28.25 1.44643 28.25 1.44925 28.25 1.45208C28.25 1.4549 28.25 1.45773 28.25 1.46056C28.25 1.46339 28.25 1.46623 28.25 1.46906C28.25 1.4719 28.25 1.47473 28.25 1.47757C28.25 1.48041 28.25 1.48325 28.25 1.4861C28.25 1.48894 28.25 1.49179 28.25 1.49464C28.25 1.49749 28.25 1.50034 28.25 1.50319C28.25 1.50604 28.25 1.5089 28.25 1.51175C28.25 1.51461 28.25 1.51747 28.25 1.52033C28.25 1.52319 28.25 1.52606 28.25 1.52893C28.25 1.53179 28.25 1.53466 28.25 1.53753C28.25 1.5404 28.25 1.54327 28.25 1.54615C28.25 1.54902 28.25 1.5519 28.25 1.55478C28.25 1.55766 28.25 1.56054 28.25 1.56342C28.25 1.56631 28.25 1.56919 28.25 1.57208C28.25 1.57497 28.25 1.57786 28.25 1.58075C28.25 1.58364 28.25 1.58654 28.25 1.58944C28.25 1.59233 28.25 1.59523 28.25 1.59813C28.25 1.60103 28.25 1.60394 28.25 1.60684C28.25 1.60975 28.25 1.61265 28.25 1.61556C28.25 1.61847 28.25 1.62138 28.25 1.6243C28.25 1.62721 28.25 1.63013 28.25 1.63304C28.25 1.63596 28.25 1.63888 28.25 1.6418C28.25 1.64473 28.25 1.64765 28.25 1.65058C28.25 1.6535 28.25 1.65643 28.25 1.65936C28.25 1.66229 28.25 1.66522 28.25 1.66816C28.25 1.67109 28.25 1.67403 28.25 1.67697C28.25 1.67991 28.25 1.68285 28.25 1.68579C28.25 1.68873 28.25 1.69168 28.25 1.69463C28.25 1.69757 28.25 1.70052 28.25 1.70347C28.25 1.70642 28.25 1.70938 28.25 1.71233C28.25 1.71529 28.25 1.71824 28.25 1.7212C28.25 1.72416 28.25 1.72712 28.25 1.73009C28.25 1.73305 28.25 1.73602 28.25 1.73898C28.25 1.74195 28.25 1.74492 28.25 1.74789C28.25 1.75086 28.25 1.75384 28.25 1.75681C28.25 1.75979 28.25 1.76276 28.25 1.76574C28.25 1.76872 28.25 1.7717 28.25 1.77469C28.25 1.77767 28.25 1.78065 28.25 1.78364C28.25 1.78663 28.25 1.78962 28.25 1.79261C28.25 1.7956 28.25 1.79859 28.25 1.80159C28.25 1.80458 28.25 1.80758 28.25 1.81058C28.25 1.81358 28.25 1.81658 28.25 1.81958C28.25 1.82259 28.25 1.82559 28.25 1.8286C28.25 1.8316 28.25 1.83461 28.25 1.83762C28.25 1.84063 28.25 1.84365 28.25 1.84666C28.25 1.84967 28.25 1.85269 28.25 1.85571C28.25 1.85873 28.25 1.86175 28.25 1.86477C28.25 1.86779 28.25 1.87082 28.25 1.87384C28.25 1.87687 28.25 1.8799 28.25 1.88293C28.25 1.88595 28.25 1.88899 28.25 1.89202C28.25 1.89505 28.25 1.89809 28.25 1.90113C28.25 1.90416 28.25 1.9072 28.25 1.91024C28.25 1.91328 28.25 1.91633 28.25 1.91937C28.25 1.92242 28.25 1.92546 28.25 1.92851C28.25 1.93156 28.25 1.93461 28.25 1.93766C28.25 1.94071 28.25 1.94377 28.25 1.94682C28.25 1.94988 28.25 1.95294 28.25 1.956C28.25 1.95906 28.25 1.96212 28.25 1.96518C28.25 1.96824 28.25 1.97131 28.25 1.97437C28.25 1.97744 28.25 1.98051 28.25 1.98358C28.25 1.98665 28.25 1.98972 28.25 1.9928C28.25 1.99587 28.25 1.99895 28.25 2.00202C28.25 2.0051 28.25 2.00818 28.25 2.01126C28.25 2.01434 28.25 2.01743 28.25 2.02051C28.25 2.02359 28.25 2.02668 28.25 2.02977C28.25 2.03286 28.25 2.03595 28.25 2.03904C28.25 2.04213 28.25 2.04522 28.25 2.04832C28.25 2.05141 28.25 2.05451 28.25 2.05761C28.25 2.06071 28.25 2.06381 28.25 2.06691C28.25 2.07001 28.25 2.07312 28.25 2.07622C28.25 2.07933 28.25 2.08244 28.25 2.08555C28.25 2.08865 28.25 2.09176 28.25 2.09488C28.25 2.09799 28.25 2.1011 28.25 2.10422C28.25 2.10734 28.25 2.11045 28.25 2.11357C28.25 2.11669 28.25 2.11981 28.25 2.12294C28.25 2.12606 28.25 2.12918 28.25 2.13231C28.25 2.13543 28.25 2.13856 28.25 2.14169C28.25 2.14482 28.25 2.14795 28.25 2.15109C28.25 2.15422 28.25 2.15735 28.25 2.16049C28.25 2.16362 28.25 2.16676 28.25 2.1699C28.25 2.17304 28.25 2.17618 28.25 2.17932C28.25 2.18247 28.25 2.18561 28.25 2.18876C28.25 2.1919 28.25 2.19505 28.25 2.1982C28.25 2.20135 28.25 2.2045 28.25 2.20765C28.25 2.21081 28.25 2.21396 28.25 2.21712C28.25 2.22027 28.25 2.22343 28.25 2.22659C28.25 2.22975 28.25 2.23291 28.25 2.23607C28.25 2.23923 28.25 2.24239 28.25 2.24556C28.25 2.24872 28.25 2.25189 28.25 2.25506C28.25 2.25823 28.25 2.2614 28.25 2.26457C28.25 2.26774 28.25 2.27092 28.25 2.27409C28.25 2.27726 28.25 2.28044 28.25 2.28362C28.25 2.2868 28.25 2.28998 28.25 2.29316C28.25 2.29634 28.25 2.29952 28.25 2.3027C28.25 2.30589 28.25 2.30907 28.25 2.31226C28.25 2.31545 28.25 2.31864 28.25 2.32183C28.25 2.32502 28.25 2.32821 28.25 2.3314C28.25 2.3346 28.25 2.33779 28.25 2.34099C28.25 2.34418 28.25 2.34738 28.25 2.35058C28.25 2.35378 28.25 2.35698 28.25 2.36018C28.25 2.36338 28.25 2.36659 28.25 2.36979C28.25 2.373 28.25 2.37621 28.25 2.37941C28.25 2.38262 28.25 2.38583 28.25 2.38904C28.25 2.39225 28.25 2.39547 28.25 2.39868C28.25 2.40189 28.25 2.40511 28.25 2.40833C28.25 2.41154 28.25 2.41476 28.25 2.41798C28.25 2.4212 28.25 2.42442 28.25 2.42765C28.25 2.43087 28.25 2.43409 28.25 2.43732C28.25 2.44055 28.25 2.44377 28.25 2.447C28.25 2.45023 28.25 2.45346 28.25 2.45669C28.25 2.45992 28.25 2.46316 28.25 2.46639C28.25 2.46962 28.25 2.47286 28.25 2.4761C28.25 2.47933 28.25 2.48257 28.25 2.48581C28.25 2.48905 28.25 2.49229 28.25 2.49554C28.25 2.49878 28.25 2.50202 28.25 2.50527C28.25 2.50851 28.25 2.51176 28.25 2.51501C28.25 2.51826 28.25 2.52151 28.25 2.52476C28.25 2.52801 28.25 2.53126 28.25 2.53451C28.25 2.53777 28.25 2.54102 28.25 2.54428C28.25 2.54753 28.25 2.55079 28.25 2.55405C28.25 2.55731 28.25 2.56057 28.25 2.56383C28.25 2.56709 28.25 2.57036 28.25 2.57362C28.25 2.57688 28.25 2.58015 28.25 2.58342C28.25 2.58668 28.25 2.58995 28.25 2.59322C28.25 2.59649 28.25 2.59976 28.25 2.60303C28.25 2.60631 28.25 2.60958 28.25 2.61286C28.25 2.61613 28.25 2.61941 28.25 2.62268C28.25 2.62596 28.25 2.62924 28.25 2.63252C28.25 2.6358 28.25 2.63908 28.25 2.64236C28.25 2.64565 28.25 2.64893 28.25 2.65221C28.25 2.6555 28.25 2.65879 28.25 2.66207C28.25 2.66536 28.25 2.66865 28.25 2.67194C28.25 2.67523 28.25 2.67852 28.25 2.68181C28.25 2.68511 28.25 2.6884 28.25 2.69169C28.25 2.69499 28.25 2.69829 28.25 2.70158C28.25 2.70488 28.25 2.70818 28.25 2.71148C28.25 2.71478 28.25 2.71808 28.25 2.72138C28.25 2.72469 28.25 2.72799 28.25 2.73129C28.25 2.7346 28.25 2.7379 28.25 2.74121C28.25 2.74452 28.25 2.74783 28.25 2.75114C28.25 2.75445 28.25 2.75776 28.25 2.76107C28.25 2.76438 28.25 2.76769 28.25 2.77101C28.25 2.77432 28.25 2.77764 28.25 2.78095C28.25 2.78427 28.25 2.78759 28.25 2.79091C28.25 2.79423 28.25 2.79755 28.25 2.80087C28.25 2.80419 28.25 2.80751 28.25 2.81083C28.25 2.81416 28.25 2.81748 28.25 2.82081C28.25 2.82413 28.25 2.82746 28.25 2.83079C28.25 2.83412 28.25 2.83745 28.25 2.84078C28.25 2.84411 28.25 2.84744 28.25 2.85077C28.25 2.8541 28.25 2.85744 28.25 2.86077C28.25 2.8641 28.25 2.86744 28.25 2.87078C28.25 2.87411 28.25 2.87745 28.25 2.88079C28.25 2.88413 28.25 2.88747 28.25 2.89081C28.25 2.89415 28.25 2.8975 28.25 2.90084C28.25 2.90418 28.25 2.90753 28.25 2.91087C28.25 2.91422 28.25 2.91756 28.25 2.92091C28.25 2.92426 28.25 2.92761 28.25 2.93096C28.25 2.93431 28.25 2.93766 28.25 2.94101C28.25 2.94436 28.25 2.94771 28.25 2.95107C28.25 2.95442 28.25 2.95778 28.25 2.96113C28.25 2.96449 28.25 2.96785 28.25 2.9712C28.25 2.97456 28.25 2.97792 28.25 2.98128C28.25 2.98464 28.25 2.988 28.25 2.99136C28.25 2.99473 28.25 2.99809 28.25 3.00145C28.25 3.00482 28.25 3.00818 28.25 3.01155C28.25 3.01491 28.25 3.01828 28.25 3.02165C28.25 3.02502 28.25 3.02838 28.25 3.03175C28.25 3.03512 28.25 3.0385 28.25 3.04187C28.25 3.04524 28.25 3.04861 28.25 3.05199C28.25 3.05536 28.25 3.05873 28.25 3.06211C28.25 3.06548 28.25 3.06886 28.25 3.07224C28.25 3.07562 28.25 3.07899 28.25 3.08237C28.25 3.08575 28.25 3.08913 28.25 3.09251C28.25 3.0959 28.25 3.09928 28.25 3.10266C28.25 3.10604 28.25 3.10943 28.25 3.11281C28.25 3.1162 28.25 3.11958 28.25 3.12297C28.25 3.12636 28.25 3.12975 28.25 3.13313C28.25 3.13652 28.25 3.13991 28.25 3.1433C28.25 3.14669 28.25 3.15008 28.25 3.15347C28.25 3.15687 28.25 3.16026 28.25 3.16365C28.25 3.16705 28.25 3.17044 28.25 3.17384C28.25 3.17723 28.25 3.18063 28.25 3.18403C28.25 3.18742 28.25 3.19082 28.25 3.19422C28.25 3.19762 28.25 3.20102 28.25 3.20442C28.25 3.20782 28.25 3.21122 28.25 3.21462C28.25 3.21803 28.25 3.22143 28.25 3.22483C28.25 3.22824 28.25 3.23164 28.25 3.23505C28.25 3.23845 28.25 3.24186 28.25 3.24527C28.25 3.24867 28.25 3.25208 28.25 3.25549C28.25 3.2589 28.25 3.26231 28.25 3.26572C28.25 3.26913 28.25 3.27254 28.25 3.27595C28.25 3.27937 28.25 3.28278 28.25 3.28619C28.25 3.2896 28.25 3.29302 28.25 3.29643C28.25 3.29985 28.25 3.30326 28.25 3.30668C28.25 3.3101 28.25 3.31352 28.25 3.31693C28.25 3.32035 28.25 3.32377 28.25 3.32719C28.25 3.33061 28.25 3.33403 28.25 3.33745C28.25 3.34087 28.25 3.34429 28.25 3.34772C28.25 3.35114 28.25 3.35456 28.25 3.35799C28.25 3.36141 28.25 3.36484 28.25 3.36826C28.25 3.37169 28.25 3.37511 28.25 3.37854C28.25 3.38197 28.25 3.38539 28.25 3.38882C28.25 3.39225 28.25 3.39568 28.25 3.39911C28.25 3.40254 28.25 3.40597 28.25 3.4094C28.25 3.41283 28.25 3.41626 28.25 3.41969C28.25 3.42313 28.25 3.42656 28.25 3.42999C28.25 3.43343 28.25 3.43686 28.25 3.4403C28.25 3.44373 28.25 3.44717 28.25 3.4506C28.25 3.45404 28.25 3.45748 28.25 3.46092C28.25 3.46435 28.25 3.46779 28.25 3.47123C28.25 3.47467 28.25 3.47811 28.25 3.48155C28.25 3.48499 28.25 3.48843 28.25 3.49187C28.25 3.49531 28.25 3.49876 28.25 3.5022C28.25 3.50564 28.25 3.50908 28.25 3.51253C28.25 3.51597 28.25 3.51942 28.25 3.52286C28.25 3.52631 28.25 3.52975 28.25 3.5332C28.25 3.53665 28.25 3.54009 28.25 3.54354C28.25 3.54699 28.25 3.55044 28.25 3.55388C28.25 3.55733 28.25 3.56078 28.25 3.56423C28.25 3.56768 28.25 3.57113 28.25 3.57458C28.25 3.57803 28.25 3.58149 28.25 3.58494C28.25 3.58839 28.25 3.59184 28.25 3.59529C28.25 3.59875 28.25 3.6022 28.25 3.60566C28.25 3.60911 28.25 3.61256 28.25 3.61602C28.25 3.61948 28.25 3.62293 28.25 3.62639C28.25 3.62984 28.25 3.6333 28.25 3.63676C28.25 3.64022 28.25 3.64367 28.25 3.64713C28.25 3.65059 28.25 3.65405 28.25 3.65751C28.25 3.66097 28.25 3.66443 28.25 3.66789C28.25 3.67135 28.25 3.67481 28.25 3.67827C28.25 3.68173 28.25 3.68519 28.25 3.68866C28.25 3.69212 28.25 3.69558 28.25 3.69904C28.25 3.70251 28.25 3.70597 28.25 3.70944C28.25 3.7129 28.25 3.71636 28.25 3.71983C28.25 3.72329 28.25 3.72676 28.25 3.73023C28.25 3.73369 28.25 3.73716 28.25 3.74063C28.25 3.74409 28.25 3.74756 28.25 3.75103C28.25 3.7545 28.25 3.75796 28.25 3.76143C28.25 3.7649 28.25 3.76837 28.25 3.77184C28.25 3.77531 28.25 3.77878 28.25 3.78225C28.25 3.78572 28.25 3.78919 28.25 3.79266C28.25 3.79613 28.25 3.7996 28.25 3.80308C28.25 3.80655 28.25 3.81002 28.25 3.81349C28.25 3.81696 28.25 3.82044 28.25 3.82391C28.25 3.82738 28.25 3.83086 28.25 3.83433C28.25 3.83781 28.25 3.84128 28.25 3.84476C28.25 3.84823 28.25 3.85171 28.25 3.85518C28.25 3.85866 28.25 3.86213 28.25 3.86561C28.25 3.86908 28.25 3.87256 28.25 3.87604C28.25 3.87952 28.25 3.88299 28.25 3.88647C28.25 3.88995 28.25 3.89343 28.25 3.8969C28.25 3.90038 28.25 3.90386 28.25 3.90734C28.25 3.91082 28.25 3.9143 28.25 3.91778C28.25 3.92126 28.25 3.92474 28.25 3.92822C28.25 3.9317 28.25 3.93518 28.25 3.93866C28.25 3.94214 28.25 3.94562 28.25 3.9491C28.25 3.95258 28.25 3.95606 28.25 3.95954C28.25 3.96303 28.25 3.96651 28.25 3.96999C28.25 3.97347 28.25 3.97696 28.25 3.98044C28.25 3.98392 28.25 3.9874 28.25 3.99089C28.25 3.99437 28.25 3.99786 28.25 4.00134C28.25 4.00482 28.25 4.00831 28.25 4.01179C28.25 4.01528 28.25 4.01876 28.25 4.02224C28.25 4.02573 28.25 4.02921 28.25 4.0327C28.25 4.03619 28.25 4.03967 28.25 4.04316C28.25 4.04664 28.25 4.05013 28.25 4.05361C28.25 4.0571 28.25 4.06059 28.25 4.06407C28.25 4.06756 28.25 4.07105 28.25 4.07453C28.25 4.07802 28.25 4.08151 28.25 4.08499C28.25 4.08848 28.25 4.09197 28.25 4.09546C28.25 4.09894 28.25 4.10243 28.25 4.10592C28.25 4.10941 28.25 4.1129 28.25 4.11638C28.25 4.11987 28.25 4.12336 28.25 4.12685C28.25 4.13034 28.25 4.13383 28.25 4.13732C28.25 4.14081 28.25 4.14429 28.25 4.14778C28.25 4.15127 28.25 4.15476 28.25 4.15825C28.25 4.16174 28.25 4.16523 28.25 4.16872C28.25 4.17221 28.25 4.1757 28.25 4.17919C28.25 4.18268 28.25 4.18617 28.25 4.18966C28.25 4.19315 28.25 4.19664 28.25 4.20013C28.25 4.20362 28.25 4.20711 28.25 4.2106C28.25 4.21409 28.25 4.21758 28.25 4.22107C28.25 4.22456 28.25 4.22805 28.25 4.23155C28.25 4.23504 28.25 4.23853 28.25 4.24202C28.25 4.24551 28.25 4.249 28.25 4.25249C28.25 4.25598 28.25 4.25947 28.25 4.26296C28.25 4.26646 28.25 4.26995 28.25 4.27344C28.25 4.27693 28.25 4.28042 28.25 4.28391C28.25 4.2874 28.25 4.29089 28.25 4.29439C28.25 4.29788 28.25 4.30137 28.25 4.30486C28.25 4.30835 28.25 4.31184 28.25 4.31534C28.25 4.31883 28.25 4.32232 28.25 4.32581C28.25 4.3293 28.25 4.33279 28.25 4.33628C28.25 4.33978 28.25 4.34327 28.25 4.34676C28.25 4.35025 28.25 4.35374 28.25 4.35723C28.25 4.36072 28.25 4.36422 28.25 4.36771C28.25 4.3712 28.25 4.37469 28.25 4.37818C28.25 4.38167 28.25 4.38516 28.25 4.38866C28.25 4.39215 28.25 4.39564 28.25 4.39913C28.25 4.40262 28.25 4.40611 28.25 4.4096C28.25 4.41309 28.25 4.41659 28.25 4.42008C28.25 4.42357 28.25 4.42706 28.25 4.43055C28.25 4.43404 28.25 4.43753 28.25 4.44102C28.25 4.44451 28.25 4.448 28.25 4.45149C28.25 4.45498 28.25 4.45847 28.25 4.46196C28.25 4.46545 28.25 4.46894 28.25 4.47243C28.25 4.47592 28.25 4.47941 28.25 4.4829C28.25 4.48639 28.25 4.48988 28.25 4.49337C28.25 4.49686 28.25 4.50035 28.25 4.50384C28.25 4.50733 28.25 4.51082 28.25 4.51431C28.25 4.5178 28.25 4.52129 28.25 4.52478C28.25 4.52827 28.25 4.53176 28.25 4.53524C28.25 4.53873 28.25 4.54222 28.25 4.54571C28.25 4.5492 28.25 4.55269 28.25 4.55617C28.25 4.55966 28.25 4.56315 28.25 4.56664C28.25 4.57012 28.25 4.57361 28.25 4.5771C28.25 4.58059 28.25 4.58407 28.25 4.58756C28.25 4.59105 28.25 4.59453 28.25 4.59802C28.25 4.60151 28.25 4.60499 28.25 4.60848C28.25 4.61197 28.25 4.61545 28.25 4.61894C28.25 4.62242 28.25 4.62591 28.25 4.62939C28.25 4.63288 28.25 4.63636 28.25 4.63985C28.25 4.64333 28.25 4.64682 28.25 4.6503C28.25 4.65379 28.25 4.65727 28.25 4.66075C28.25 4.66424 28.25 4.66772 28.25 4.67121C28.25 4.67469 28.25 4.67817 28.25 4.68165C28.25 4.68514 28.25 4.68862 28.25 4.6921C28.25 4.69558 28.25 4.69907 28.25 4.70255C28.25 4.70603 28.25 4.70951 28.25 4.71299C28.25 4.71647 28.25 4.71995 28.25 4.72344C28.25 4.72692 28.25 4.7304 28.25 4.73388C28.25 4.73736 28.25 4.74084 28.25 4.74432C28.25 4.7478 28.25 4.75127 28.25 4.75475C28.25 4.75823 28.25 4.76171 28.25 4.76519C28.25 4.76867 28.25 4.77215 28.25 4.77562C28.25 4.7791 28.25 4.78258 28.25 4.78605C28.25 4.78953 28.25 4.79301 28.25 4.79648C28.25 4.79996 28.25 4.80344 28.25 4.80691C28.25 4.81039 28.25 4.81386 28.25 4.81734C28.25 4.82081 28.25 4.82429 28.25 4.82776C28.25 4.83123 28.25 4.83471 28.25 4.83818C28.25 4.84166 28.25 4.84513 28.25 4.8486C28.25 4.85207 28.25 4.85555 28.25 4.85902C28.25 4.86249 28.25 4.86596 28.25 4.86943C28.25 4.8729 28.25 4.87637 28.25 4.87984C28.25 4.88331 28.25 4.88678 28.25 4.89025C28.25 4.89372 28.25 4.89719 28.25 4.90066C28.25 4.90413 28.25 4.9076 28.25 4.91106C28.25 4.91453 28.25 4.918 28.25 4.92147C28.25 4.92493 28.25 4.9284 28.25 4.93186C28.25 4.93533 28.25 4.9388 28.25 4.94226C28.25 4.94573 28.25 4.94919 28.25 4.95266C28.25 4.95612 28.25 4.95958 28.25 4.96305C28.25 4.96651 28.25 4.96997 28.25 4.97343C28.25 4.9769 28.25 4.98036 28.25 4.98382C28.25 4.98728 28.25 4.99074 28.25 4.9942C28.25 4.99766 28.25 5.00112 28.25 5.00458C28.25 5.00804 28.25 5.0115 28.25 5.01496C28.25 5.01842 28.25 5.02187 28.25 5.02533C28.25 5.02879 28.25 5.03225 28.25 5.0357C28.25 5.03916 28.25 5.04261 28.25 5.04607C28.25 5.04953 28.25 5.05298 28.25 5.05643C28.25 5.05989 28.25 5.06334 28.25 5.0668C28.25 5.07025 28.25 5.0737 28.25 5.07715C28.25 5.08061 28.25 5.08406 28.25 5.08751C28.25 5.09096 28.25 5.09441 28.25 5.09786C28.25 5.10131 28.25 5.10476 28.25 5.10821C28.25 5.11165 28.25 5.1151 28.25 5.11855C28.25 5.122 28.25 5.12544 28.25 5.12889C28.25 5.13234 28.25 5.13578 28.25 5.13923C28.25 5.14267 28.25 5.14612 28.25 5.14956C28.25 5.15301 28.25 5.15645 28.25 5.15989C28.25 5.16333 28.25 5.16678 28.25 5.17022C28.25 5.17366 28.25 5.1771 28.25 5.18054C28.25 5.18398 28.25 5.18742 28.25 5.19086C28.25 5.1943 28.25 5.19774 28.25 5.20117C28.25 5.20461 28.25 5.20805 28.25 5.21148C28.25 5.21492 28.25 5.21836 28.25 5.22179C28.25 5.22523 28.25 5.22866 28.25 5.23209C28.25 5.23553 28.25 5.23896 28.25 5.24239C28.25 5.24583 28.25 5.24926 28.25 5.25269C28.25 5.25612 28.25 5.25955 28.25 5.26298C28.25 5.26641 28.25 5.26984 28.25 5.27327C28.25 5.27669 28.25 5.28012 28.25 5.28355C28.25 5.28698 28.25 5.2904 28.25 5.29383C28.25 5.29725 28.25 5.30068 28.25 5.3041C28.25 5.30752 28.25 5.31095 28.25 5.31437C28.25 5.31779 28.25 5.32121 28.25 5.32464C28.25 5.32806 28.25 5.33148 28.25 5.3349C28.25 5.33832 28.25 5.34173 28.25 5.34515C28.25 5.34857 28.25 5.35199 28.25 5.3554C28.25 5.35882 28.25 5.36224 28.25 5.36565C28.25 5.36907 28.25 5.37248 28.25 5.3759C28.25 5.37931 28.25 5.38272 28.25 5.38613C28.25 5.38954 28.25 5.39296 28.25 5.39637C28.25 5.39978 28.25 5.40319 28.25 5.40659C28.25 5.41 28.25 5.41341 28.25 5.41682C28.25 5.42023 28.25 5.42363 28.25 5.42704C28.25 5.43044 28.25 5.43385 28.25 5.43725C28.25 5.44066 28.25 5.44406 28.25 5.44746C28.25 5.45086 28.25 5.45426 28.25 5.45766C28.25 5.46107 28.25 5.46447 28.25 5.46786C28.25 5.47126 28.25 5.47466 28.25 5.47806C28.25 5.48146 28.25 5.48485 28.25 5.48825C28.25 5.49164 28.25 5.49504 28.25 5.49843C28.25 5.50182 28.25 5.50522 28.25 5.50861C28.25 5.512 28.25 5.51539 28.25 5.51878C28.25 5.52217 28.25 5.52556 28.25 5.52895C28.25 5.53234 28.25 5.53573 28.25 5.53911C28.25 5.5425 28.25 5.54589 28.25 5.54927C28.25 5.55265 28.25 5.55604 28.25 5.55942C28.25 5.5628 28.25 5.56619 28.25 5.56957C28.25 5.57295 28.25 5.57633 28.25 5.57971C28.25 5.58309 28.25 5.58647 28.25 5.58984C28.25 5.59322 28.25 5.5966 28.25 5.59997C28.25 5.60335 28.25 5.60672 28.25 5.6101C28.25 5.61347 28.25 5.61684 28.25 5.62021C28.25 5.62359 28.25 5.62696 28.25 5.63033C28.25 5.6337 28.25 5.63707 28.25 5.64043C28.25 5.6438 28.25 5.64717 28.25 5.65053C28.25 5.6539 28.25 5.65727 28.25 5.66063C28.25 5.66399 28.25 5.66736 28.25 5.67072C28.25 5.67408 28.25 5.67744 28.25 5.6808C28.25 5.68416 28.25 5.68752 28.25 5.69088C28.25 5.69423 28.25 5.69759 28.25 5.70095C28.25 5.7043 28.25 5.70766 28.25 5.71101C28.25 5.71437 28.25 5.71772 28.25 5.72107C28.25 5.72442 28.25 5.72777 28.25 5.73112C28.25 5.73447 28.25 5.73782 28.25 5.74117C28.25 5.74452 28.25 5.74786 28.25 5.75121C28.25 5.75455 28.25 5.7579 28.25 5.76124C28.25 5.76458 28.25 5.76793 28.25 5.77127C28.25 5.77461 28.25 5.77795 28.25 5.78129C28.25 5.78463 28.25 5.78796 28.25 5.7913C28.25 5.79464 28.25 5.79797 28.25 5.80131C28.25 5.80464 28.25 5.80798 28.25 5.81131C28.25 5.81464 28.25 5.81797 28.25 5.8213C28.25 5.82463 28.25 5.82796 28.25 5.83129C28.25 5.83462 28.25 5.83794 28.25 5.84127C28.25 5.8446 28.25 5.84792 28.25 5.85124C28.25 5.85457 28.25 5.85789 28.25 5.86121C28.25 5.86453 28.25 5.86785 28.25 5.87117C28.25 5.87449 28.25 5.87781 28.25 5.88112C28.25 5.88444 28.25 5.88775 28.25 5.89107C28.25 5.89438 28.25 5.8977 28.25 5.90101C28.25 5.90432 28.25 5.90763 28.25 5.91094C28.25 5.91425 28.25 5.91756 28.25 5.92086C28.25 5.92417 28.25 5.92748 28.25 5.93078C28.25 5.93409 28.25 5.93739 28.25 5.94069C28.25 5.94399 28.25 5.9473 28.25 5.95059C28.25 5.9539 28.25 5.95719 28.25 5.96049C28.25 5.96379 28.25 5.96708 28.25 5.97038C28.25 5.97367 28.25 5.97697 28.25 5.98026C28.25 5.98355 28.25 5.98684 28.25 5.99013C28.25 5.99342 28.25 5.99671 28.25 6H29.75ZM37 5.25H29V6.75H37V5.25ZM13.2276 41.6819C14.1479 38.0007 14.5103 33.7899 14.6542 31.0392L13.1563 30.9608C13.0139 33.6816 12.6574 37.7782 11.7724 41.3181L13.2276 41.6819ZM14.6542 31.0392C14.702 30.1255 14.726 29.368 14.738 28.838C14.744 28.573 14.747 28.3647 14.7485 28.2221C14.7492 28.1508 14.7496 28.0959 14.7498 28.0585C14.7499 28.0398 14.7499 28.0255 14.75 28.0157C14.75 28.0108 14.75 28.007 14.75 28.0044C14.75 28.0031 14.75 28.0021 14.75 28.0013C14.75 28.001 14.75 28.0007 14.75 28.0005C14.75 28.0003 14.75 28.0002 14.75 28.0002C14.75 28.0001 14.75 28.0001 14.75 28.0001C14.75 28 14.75 28 14 28C13.25 28 13.25 28 13.25 28C13.25 28 13.25 27.9999 13.25 27.9999C13.25 27.9999 13.25 28 13.25 28C13.25 28.0001 13.25 28.0002 13.25 28.0004C13.25 28.0008 13.25 28.0015 13.25 28.0025C13.25 28.0045 13.25 28.0076 13.25 28.0119C13.25 28.0204 13.2499 28.0334 13.2498 28.0508C13.2496 28.0855 13.2493 28.1377 13.2486 28.2062C13.2471 28.3432 13.2442 28.5455 13.2383 28.8041C13.2266 29.3215 13.2032 30.064 13.1563 30.9608L14.6542 31.0392ZM44 28C43.2501 28.0134 43.2501 28.0134 43.2501 28.0135C43.2501 28.0135 43.2501 28.0135 43.2501 28.0135C43.2501 28.0136 43.2501 28.0137 43.2501 28.0138C43.2501 28.014 43.2501 28.0143 43.2501 28.0146C43.2502 28.0153 43.2502 28.0163 43.2502 28.0176C43.2502 28.0202 43.2503 28.0239 43.2504 28.0288C43.2506 28.0386 43.2509 28.053 43.2513 28.0718C43.2521 28.1094 43.2534 28.1647 43.2552 28.2365C43.2589 28.3801 43.2649 28.5896 43.2741 28.8552C43.2925 29.3863 43.3238 30.1421 43.3754 31.0429L44.873 30.9571C44.8221 30.0693 44.7913 29.325 44.7732 28.8033C44.7642 28.5425 44.7583 28.3374 44.7547 28.198C44.7529 28.1283 44.7517 28.075 44.751 28.0393C44.7506 28.0215 44.7503 28.0081 44.7501 27.9992C44.75 27.9948 44.75 27.9915 44.7499 27.9894C44.7499 27.9884 44.7499 27.9876 44.7499 27.9871C44.7499 27.9869 44.7499 27.9867 44.7499 27.9866C44.7499 27.9866 44.7499 27.9866 44.7499 27.9866C44.7499 27.9866 44.7499 27.9866 44.7499 27.9866C44.7499 27.9866 44.7499 27.9866 44 28ZM43.3754 31.0429C43.541 33.9314 43.9192 38.3828 44.7739 41.6878L46.2261 41.3122C45.4114 38.1618 45.0381 33.8389 44.873 30.9571L43.3754 31.0429ZM13.9053 31.75H44.1242V30.25H13.9053V31.75ZM29 37.75C33.0041 37.75 36.25 40.9959 36.25 45H37.75C37.75 40.1675 33.8325 36.25 29 36.25V37.75ZM29 36.25C24.1675 36.25 20.25 40.1675 20.25 45H21.75C21.75 40.9959 24.9959 37.75 29 37.75V36.25Z" fill="#FFED00"/>
</svg>
