<svg width="56" height="56" viewBox="0 0 56 56" fill="none" xmlns="http://www.w3.org/2000/svg">
<path d="M4 19L3.26865 18.8338L3.25 18.9158V19H4ZM52 19H52.75V18.9158L52.7313 18.8338L52 19ZM16 19H16.75C16.75 18.5858 16.4142 18.25 16 18.25V19ZM28 19H28.75C28.75 18.5858 28.4142 18.25 28 18.25V19ZM40 19H40.75C40.75 18.5858 40.4142 18.25 40 18.25V19ZM9 18.25C8.58579 18.25 8.25 18.5858 8.25 19C8.25 19.4142 8.58579 19.75 9 19.75V18.25ZM21 18.25C20.5858 18.25 20.25 18.5858 20.25 19C20.25 19.4142 20.5858 19.75 21 19.75V18.25ZM45 18.25C44.5858 18.25 44.25 18.5858 44.25 19C44.25 19.4142 44.5858 19.75 45 19.75V18.25ZM33.5 18.25C33.0858 18.25 32.75 18.5858 32.75 19C32.75 19.4142 33.0858 19.75 33.5 19.75V18.25ZM15.25 14C15.25 14.4142 15.5858 14.75 16 14.75C16.4142 14.75 16.75 14.4142 16.75 14H15.25ZM27.25 14C27.25 14.4142 27.5858 14.75 28 14.75C28.4142 14.75 28.75 14.4142 28.75 14H27.25ZM39.25 14C39.25 14.4142 39.5858 14.75 40 14.75C40.4142 14.75 40.75 14.4142 40.75 14H39.25ZM2 54.5H1.25C1.25 54.9142 1.58579 55.25 2 55.25V54.5ZM54.5 54.5V55.25C54.9142 55.25 55.25 54.9142 55.25 54.5H54.5ZM54.5 50.5H55.25C55.25 50.0858 54.9142 49.75 54.5 49.75V50.5ZM2 50.5V49.75C1.58579 49.75 1.25 50.0858 1.25 50.5H2ZM5.75 25.5C5.75 25.0858 5.41421 24.75 5 24.75C4.58579 24.75 4.25 25.0858 4.25 25.5H5.75ZM52.75 25.5C52.75 25.0858 52.4142 24.75 52 24.75C51.5858 24.75 51.25 25.0858 51.25 25.5H52.75ZM14.25 47.5C14.25 47.9142 14.5858 48.25 15 48.25C15.4142 48.25 15.75 47.9142 15.75 47.5H14.25ZM24.75 42C24.75 41.5858 24.4142 41.25 24 41.25C23.5858 41.25 23.25 41.5858 23.25 42H24.75ZM32.25 47.5C32.25 47.9142 32.5858 48.25 33 48.25C33.4142 48.25 33.75 47.9142 33.75 47.5H32.25ZM42.75 42C42.75 41.5858 42.4142 41.25 42 41.25C41.5858 41.25 41.25 41.5858 41.25 42H42.75ZM8.49668 2.25C8.50905 2.25 8.52147 2.25 8.53395 2.25C8.54642 2.25 8.55895 2.25 8.57152 2.25C8.5841 2.25 8.59673 2.25 8.60941 2.25C8.62209 2.25 8.63482 2.25 8.64761 2.25C8.66039 2.25 8.67322 2.25 8.68611 2.25C8.699 2.25 8.71193 2.25 8.72492 2.25C8.73791 2.25 8.75095 2.25 8.76404 2.25C8.77713 2.25 8.79027 2.25 8.80346 2.25C8.81665 2.25 8.82989 2.25 8.84318 2.25C8.85647 2.25 8.86982 2.25 8.88321 2.25C8.8966 2.25 8.91005 2.25 8.92354 2.25C8.93703 2.25 8.95058 2.25 8.96417 2.25C8.97777 2.25 8.99141 2.25 9.0051 2.25C9.0188 2.25 9.03254 2.25 9.04633 2.25C9.06013 2.25 9.07397 2.25 9.08786 2.25C9.10176 2.25 9.1157 2.25 9.12969 2.25C9.14368 2.25 9.15772 2.25 9.17181 2.25C9.1859 2.25 9.20004 2.25 9.21423 2.25C9.22842 2.25 9.24266 2.25 9.25695 2.25C9.27123 2.25 9.28557 2.25 9.29995 2.25C9.31434 2.25 9.32877 2.25 9.34325 2.25C9.35774 2.25 9.37227 2.25 9.38685 2.25C9.40142 2.25 9.41605 2.25 9.43073 2.25C9.4454 2.25 9.46013 2.25 9.4749 2.25C9.48967 2.25 9.50449 2.25 9.51936 2.25C9.53423 2.25 9.54915 2.25 9.56411 2.25C9.57908 2.25 9.59409 2.25 9.60915 2.25C9.62421 2.25 9.63932 2.25 9.65448 2.25C9.66963 2.25 9.68483 2.25 9.70009 2.25C9.71534 2.25 9.73063 2.25 9.74598 2.25C9.76132 2.25 9.77672 2.25 9.79216 2.25C9.8076 2.25 9.82308 2.25 9.83862 2.25C9.85415 2.25 9.86973 2.25 9.88536 2.25C9.90098 2.25 9.91666 2.25 9.93238 2.25C9.9481 2.25 9.96387 2.25 9.97968 2.25C9.9955 2.25 10.0114 2.25 10.0273 2.25C10.0432 2.25 10.0591 2.25 10.0751 2.25C10.0911 2.25 10.1072 2.25 10.1233 2.25C10.1393 2.25 10.1555 2.25 10.1717 2.25C10.1879 2.25 10.2041 2.25 10.2204 2.25C10.2366 2.25 10.253 2.25 10.2693 2.25C10.2857 2.25 10.3021 2.25 10.3186 2.25C10.335 2.25 10.3515 2.25 10.3681 2.25C10.3846 2.25 10.4012 2.25 10.4178 2.25C10.4345 2.25 10.4512 2.25 10.4679 2.25C10.4846 2.25 10.5014 2.25 10.5182 2.25C10.535 2.25 10.5519 2.25 10.5688 2.25C10.5857 2.25 10.6027 2.25 10.6196 2.25C10.6366 2.25 10.6537 2.25 10.6708 2.25C10.6879 2.25 10.705 2.25 10.7222 2.25C10.7393 2.25 10.7565 2.25 10.7738 2.25C10.7911 2.25 10.8084 2.25 10.8257 2.25C10.8431 2.25 10.8605 2.25 10.8779 2.25C10.8953 2.25 10.9128 2.25 10.9303 2.25C10.9479 2.25 10.9654 2.25 10.9831 2.25C11.0007 2.25 11.0183 2.25 11.036 2.25C11.0537 2.25 11.0715 2.25 11.0892 2.25C11.107 2.25 11.1248 2.25 11.1427 2.25C11.1606 2.25 11.1785 2.25 11.1965 2.25C11.2144 2.25 11.2324 2.25 11.2505 2.25C11.2685 2.25 11.2866 2.25 11.3047 2.25C11.3228 2.25 11.341 2.25 11.3592 2.25C11.3774 2.25 11.3957 2.25 11.414 2.25C11.4323 2.25 11.4506 2.25 11.469 2.25C11.4874 2.25 11.5058 2.25 11.5242 2.25C11.5427 2.25 11.5612 2.25 11.5798 2.25C11.5983 2.25 11.6169 2.25 11.6355 2.25C11.6542 2.25 11.6728 2.25 11.6915 2.25C11.7102 2.25 11.729 2.25 11.7478 2.25C11.7666 2.25 11.7854 2.25 11.8043 2.25C11.8232 2.25 11.8421 2.25 11.8611 2.25C11.88 2.25 11.899 2.25 11.9181 2.25C11.9371 2.25 11.9562 2.25 11.9753 2.25C11.9944 2.25 12.0136 2.25 12.0328 2.25C12.052 2.25 12.0712 2.25 12.0905 2.25C12.1098 2.25 12.1291 2.25 12.1485 2.25C12.1679 2.25 12.1873 2.25 12.2067 2.25C12.2262 2.25 12.2456 2.25 12.2652 2.25C12.2847 2.25 12.3043 2.25 12.3239 2.25C12.3435 2.25 12.3631 2.25 12.3828 2.25C12.4025 2.25 12.4222 2.25 12.442 2.25C12.4617 2.25 12.4815 2.25 12.5014 2.25C12.5212 2.25 12.5411 2.25 12.561 2.25C12.5809 2.25 12.6009 2.25 12.6209 2.25C12.6409 2.25 12.6609 2.25 12.681 2.25C12.7011 2.25 12.7212 2.25 12.7413 2.25C12.7615 2.25 12.7817 2.25 12.8019 2.25C12.8221 2.25 12.8424 2.25 12.8627 2.25C12.883 2.25 12.9033 2.25 12.9237 2.25C12.9441 2.25 12.9645 2.25 12.985 2.25C13.0054 2.25 13.0259 2.25 13.0465 2.25C13.067 2.25 13.0876 2.25 13.1082 2.25C13.1288 2.25 13.1494 2.25 13.1701 2.25C13.1908 2.25 13.2115 2.25 13.2323 2.25C13.253 2.25 13.2738 2.25 13.2947 2.25C13.3155 2.25 13.3364 2.25 13.3573 2.25C13.3782 2.25 13.3991 2.25 13.4201 2.25C13.4411 2.25 13.4621 2.25 13.4832 2.25C13.5042 2.25 13.5253 2.25 13.5464 2.25C13.5676 2.25 13.5887 2.25 13.6099 2.25C13.6311 2.25 13.6524 2.25 13.6736 2.25C13.6949 2.25 13.7162 2.25 13.7376 2.25C13.7589 2.25 13.7803 2.25 13.8017 2.25C13.8231 2.25 13.8446 2.25 13.8661 2.25C13.8876 2.25 13.9091 2.25 13.9307 2.25C13.9522 2.25 13.9738 2.25 13.9955 2.25C14.0171 2.25 14.0388 2.25 14.0605 2.25C14.0822 2.25 14.1039 2.25 14.1257 2.25C14.1474 2.25 14.1693 2.25 14.1911 2.25C14.2129 2.25 14.2348 2.25 14.2567 2.25C14.2786 2.25 14.3006 2.25 14.3226 2.25C14.3446 2.25 14.3666 2.25 14.3886 2.25C14.4107 2.25 14.4328 2.25 14.4549 2.25C14.477 2.25 14.4992 2.25 14.5214 2.25C14.5435 2.25 14.5658 2.25 14.588 2.25C14.6103 2.25 14.6326 2.25 14.6549 2.25C14.6772 2.25 14.6996 2.25 14.722 2.25C14.7444 2.25 14.7668 2.25 14.7893 2.25C14.8117 2.25 14.8342 2.25 14.8568 2.25C14.8793 2.25 14.9018 2.25 14.9244 2.25C14.947 2.25 14.9697 2.25 14.9923 2.25C15.015 2.25 15.0377 2.25 15.0604 2.25C15.0831 2.25 15.1059 2.25 15.1287 2.25C15.1515 2.25 15.1743 2.25 15.1972 2.25C15.22 2.25 15.2429 2.25 15.2658 2.25C15.2888 2.25 15.3117 2.25 15.3347 2.25C15.3577 2.25 15.3807 2.25 15.4038 2.25C15.4268 2.25 15.4499 2.25 15.473 2.25C15.4962 2.25 15.5193 2.25 15.5425 2.25C15.5657 2.25 15.5889 2.25 15.6121 2.25C15.6354 2.25 15.6587 2.25 15.682 2.25C15.7053 2.25 15.7286 2.25 15.752 2.25C15.7754 2.25 15.7988 2.25 15.8222 2.25C15.8456 2.25 15.8691 2.25 15.8926 2.25C15.9161 2.25 15.9396 2.25 15.9632 2.25C15.9867 2.25 16.0103 2.25 16.0339 2.25C16.0576 2.25 16.0812 2.25 16.1049 2.25C16.1286 2.25 16.1523 2.25 16.176 2.25C16.1998 2.25 16.2236 2.25 16.2474 2.25C16.2712 2.25 16.295 2.25 16.3189 2.25C16.3427 2.25 16.3666 2.25 16.3906 2.25C16.4145 2.25 16.4384 2.25 16.4624 2.25C16.4864 2.25 16.5104 2.25 16.5345 2.25C16.5585 2.25 16.5826 2.25 16.6067 2.25C16.6308 2.25 16.6549 2.25 16.6791 2.25C16.7033 2.25 16.7274 2.25 16.7517 2.25C16.7759 2.25 16.8001 2.25 16.8244 2.25C16.8487 2.25 16.873 2.25 16.8973 2.25C16.9217 2.25 16.9461 2.25 16.9704 2.25C16.9948 2.25 17.0193 2.25 17.0437 2.25C17.0682 2.25 17.0927 2.25 17.1172 2.25C17.1417 2.25 17.1662 2.25 17.1908 2.25C17.2154 2.25 17.24 2.25 17.2646 2.25C17.2892 2.25 17.3139 2.25 17.3385 2.25C17.3632 2.25 17.3879 2.25 17.4127 2.25C17.4374 2.25 17.4622 2.25 17.4869 2.25C17.5117 2.25 17.5366 2.25 17.5614 2.25C17.5863 2.25 17.6111 2.25 17.636 2.25C17.6609 2.25 17.6859 2.25 17.7108 2.25C17.7358 2.25 17.7608 2.25 17.7858 2.25C17.8108 2.25 17.8358 2.25 17.8609 2.25C17.886 2.25 17.911 2.25 17.9362 2.25C17.9613 2.25 17.9864 2.25 18.0116 2.25C18.0368 2.25 18.062 2.25 18.0872 2.25C18.1124 2.25 18.1377 2.25 18.1629 2.25C18.1882 2.25 18.2135 2.25 18.2389 2.25C18.2642 2.25 18.2895 2.25 18.3149 2.25C18.3403 2.25 18.3657 2.25 18.3912 2.25C18.4166 2.25 18.4421 2.25 18.4675 2.25C18.493 2.25 18.5185 2.25 18.5441 2.25C18.5696 2.25 18.5952 2.25 18.6208 2.25C18.6464 2.25 18.672 2.25 18.6976 2.25C18.7232 2.25 18.7489 2.25 18.7746 2.25C18.8003 2.25 18.826 2.25 18.8517 2.25C18.8775 2.25 18.9032 2.25 18.929 2.25C18.9548 2.25 18.9806 2.25 19.0065 2.25C19.0323 2.25 19.0582 2.25 19.0841 2.25C19.11 2.25 19.1359 2.25 19.1618 2.25C19.1877 2.25 19.2137 2.25 19.2397 2.25C19.2657 2.25 19.2917 2.25 19.3177 2.25C19.3437 2.25 19.3698 2.25 19.3959 2.25C19.422 2.25 19.4481 2.25 19.4742 2.25C19.5003 2.25 19.5265 2.25 19.5526 2.25C19.5788 2.25 19.605 2.25 19.6312 2.25C19.6575 2.25 19.6837 2.25 19.71 2.25C19.7363 2.25 19.7625 2.25 19.7889 2.25C19.8152 2.25 19.8415 2.25 19.8679 2.25C19.8942 2.25 19.9206 2.25 19.947 2.25C19.9734 2.25 19.9999 2.25 20.0263 2.25C20.0528 2.25 20.0792 2.25 20.1057 2.25C20.1322 2.25 20.1588 2.25 20.1853 2.25C20.2118 2.25 20.2384 2.25 20.265 2.25C20.2916 2.25 20.3182 2.25 20.3448 2.25C20.3714 2.25 20.3981 2.25 20.4248 2.25C20.4515 2.25 20.4781 2.25 20.5049 2.25C20.5316 2.25 20.5583 2.25 20.5851 2.25C20.6118 2.25 20.6386 2.25 20.6654 2.25C20.6922 2.25 20.7191 2.25 20.7459 2.25C20.7728 2.25 20.7996 2.25 20.8265 2.25C20.8534 2.25 20.8803 2.25 20.9072 2.25C20.9342 2.25 20.9611 2.25 20.9881 2.25C21.0151 2.25 21.0421 2.25 21.0691 2.25C21.0961 2.25 21.1231 2.25 21.1502 2.25C21.1772 2.25 21.2043 2.25 21.2314 2.25C21.2585 2.25 21.2856 2.25 21.3127 2.25C21.3399 2.25 21.367 2.25 21.3942 2.25C21.4214 2.25 21.4486 2.25 21.4758 2.25C21.503 2.25 21.5303 2.25 21.5575 2.25C21.5848 2.25 21.612 2.25 21.6393 2.25C21.6666 2.25 21.6939 2.25 21.7213 2.25C21.7486 2.25 21.776 2.25 21.8033 2.25C21.8307 2.25 21.8581 2.25 21.8855 2.25C21.9129 2.25 21.9403 2.25 21.9678 2.25C21.9952 2.25 22.0227 2.25 22.0502 2.25C22.0777 2.25 22.1052 2.25 22.1327 2.25C22.1602 2.25 22.1878 2.25 22.2153 2.25C22.2429 2.25 22.2705 2.25 22.2981 2.25C22.3257 2.25 22.3533 2.25 22.3809 2.25C22.4085 2.25 22.4362 2.25 22.4639 2.25C22.4915 2.25 22.5192 2.25 22.5469 2.25C22.5746 2.25 22.6023 2.25 22.6301 2.25C22.6578 2.25 22.6856 2.25 22.7134 2.25C22.7411 2.25 22.7689 2.25 22.7967 2.25C22.8245 2.25 22.8524 2.25 22.8802 2.25C22.9081 2.25 22.9359 2.25 22.9638 2.25C22.9917 2.25 23.0196 2.25 23.0475 2.25C23.0754 2.25 23.1033 2.25 23.1313 2.25C23.1592 2.25 23.1872 2.25 23.2152 2.25C23.2431 2.25 23.2711 2.25 23.2992 2.25C23.3272 2.25 23.3552 2.25 23.3832 2.25C23.4113 2.25 23.4393 2.25 23.4674 2.25C23.4955 2.25 23.5236 2.25 23.5517 2.25C23.5798 2.25 23.6079 2.25 23.6361 2.25C23.6642 2.25 23.6924 2.25 23.7206 2.25C23.7487 2.25 23.7769 2.25 23.8051 2.25C23.8333 2.25 23.8615 2.25 23.8898 2.25C23.918 2.25 23.9463 2.25 23.9745 2.25C24.0028 2.25 24.0311 2.25 24.0594 2.25C24.0877 2.25 24.116 2.25 24.1443 2.25C24.1726 2.25 24.201 2.25 24.2293 2.25C24.2577 2.25 24.286 2.25 24.3144 2.25C24.3428 2.25 24.3712 2.25 24.3996 2.25C24.428 2.25 24.4564 2.25 24.4849 2.25C24.5133 2.25 24.5418 2.25 24.5703 2.25C24.5987 2.25 24.6272 2.25 24.6557 2.25C24.6842 2.25 24.7127 2.25 24.7412 2.25C24.7698 2.25 24.7983 2.25 24.8269 2.25C24.8554 2.25 24.884 2.25 24.9126 2.25C24.9411 2.25 24.9697 2.25 24.9983 2.25C25.0269 2.25 25.0556 2.25 25.0842 2.25C25.1128 2.25 25.1415 2.25 25.1701 2.25C25.1988 2.25 25.2275 2.25 25.2561 2.25C25.2848 2.25 25.3135 2.25 25.3422 2.25C25.3709 2.25 25.3997 2.25 25.4284 2.25C25.4571 2.25 25.4859 2.25 25.5147 2.25C25.5434 2.25 25.5722 2.25 25.601 2.25C25.6298 2.25 25.6586 2.25 25.6874 2.25C25.7162 2.25 25.745 2.25 25.7738 2.25C25.8027 2.25 25.8315 2.25 25.8604 2.25C25.8892 2.25 25.9181 2.25 25.947 2.25C25.9758 2.25 26.0047 2.25 26.0336 2.25C26.0625 2.25 26.0915 2.25 26.1204 2.25C26.1493 2.25 26.1782 2.25 26.2072 2.25C26.2361 2.25 26.2651 2.25 26.2941 2.25C26.323 2.25 26.352 2.25 26.381 2.25C26.41 2.25 26.439 2.25 26.468 2.25C26.497 2.25 26.5261 2.25 26.5551 2.25C26.5841 2.25 26.6132 2.25 26.6422 2.25C26.6713 2.25 26.7004 2.25 26.7294 2.25C26.7585 2.25 26.7876 2.25 26.8167 2.25C26.8458 2.25 26.8749 2.25 26.904 2.25C26.9331 2.25 26.9623 2.25 26.9914 2.25C27.0205 2.25 27.0497 2.25 27.0788 2.25C27.108 2.25 27.1371 2.25 27.1663 2.25C27.1955 2.25 27.2247 2.25 27.2539 2.25C27.2831 2.25 27.3123 2.25 27.3415 2.25C27.3707 2.25 27.3999 2.25 27.4291 2.25C27.4584 2.25 27.4876 2.25 27.5169 2.25C27.5461 2.25 27.5754 2.25 27.6046 2.25C27.6339 2.25 27.6632 2.25 27.6924 2.25C27.7217 2.25 27.751 2.25 27.7803 2.25C27.8096 2.25 27.8389 2.25 27.8682 2.25C27.8975 2.25 27.9269 2.25 27.9562 2.25C27.9855 2.25 28.0149 2.25 28.0442 2.25C28.0736 2.25 28.1029 2.25 28.1323 2.25C28.1616 2.25 28.191 2.25 28.2204 2.25C28.2498 2.25 28.2792 2.25 28.3086 2.25C28.3379 2.25 28.3673 2.25 28.3968 2.25C28.4262 2.25 28.4556 2.25 28.485 2.25C28.5144 2.25 28.5439 2.25 28.5733 2.25C28.6027 2.25 28.6322 2.25 28.6616 2.25C28.6911 2.25 28.7205 2.25 28.75 2.25C28.7794 2.25 28.8089 2.25 28.8384 2.25C28.8679 2.25 28.8974 2.25 28.9268 2.25C28.9563 2.25 28.9858 2.25 29.0153 2.25C29.0448 2.25 29.0743 2.25 29.1039 2.25C29.1334 2.25 29.1629 2.25 29.1924 2.25C29.2219 2.25 29.2515 2.25 29.281 2.25C29.3105 2.25 29.3401 2.25 29.3696 2.25C29.3992 2.25 29.4287 2.25 29.4583 2.25C29.4879 2.25 29.5174 2.25 29.547 2.25C29.5766 2.25 29.6061 2.25 29.6357 2.25C29.6653 2.25 29.6949 2.25 29.7245 2.25C29.7541 2.25 29.7837 2.25 29.8133 2.25C29.8429 2.25 29.8725 2.25 29.9021 2.25C29.9317 2.25 29.9613 2.25 29.9909 2.25C30.0205 2.25 30.0502 2.25 30.0798 2.25C30.1094 2.25 30.139 2.25 30.1687 2.25C30.1983 2.25 30.228 2.25 30.2576 2.25C30.2872 2.25 30.3169 2.25 30.3465 2.25C30.3762 2.25 30.4059 2.25 30.4355 2.25C30.4652 2.25 30.4948 2.25 30.5245 2.25C30.5542 2.25 30.5838 2.25 30.6135 2.25C30.6432 2.25 30.6729 2.25 30.7025 2.25C30.7322 2.25 30.7619 2.25 30.7916 2.25C30.8213 2.25 30.851 2.25 30.8807 2.25C30.9104 2.25 30.94 2.25 30.9697 2.25C30.9994 2.25 31.0291 2.25 31.0588 2.25C31.0886 2.25 31.1183 2.25 31.148 2.25C31.1777 2.25 31.2074 2.25 31.2371 2.25C31.2668 2.25 31.2965 2.25 31.3262 2.25C31.356 2.25 31.3857 2.25 31.4154 2.25C31.4451 2.25 31.4748 2.25 31.5046 2.25C31.5343 2.25 31.564 2.25 31.5938 2.25C31.6235 2.25 31.6532 2.25 31.6829 2.25C31.7127 2.25 31.7424 2.25 31.7721 2.25C31.8019 2.25 31.8316 2.25 31.8614 2.25C31.8911 2.25 31.9208 2.25 31.9506 2.25C31.9803 2.25 32.0101 2.25 32.0398 2.25C32.0695 2.25 32.0993 2.25 32.129 2.25C32.1588 2.25 32.1885 2.25 32.2183 2.25C32.248 2.25 32.2777 2.25 32.3075 2.25C32.3372 2.25 32.367 2.25 32.3967 2.25C32.4265 2.25 32.4562 2.25 32.486 2.25C32.5157 2.25 32.5455 2.25 32.5752 2.25C32.605 2.25 32.6347 2.25 32.6644 2.25C32.6942 2.25 32.7239 2.25 32.7537 2.25C32.7834 2.25 32.8132 2.25 32.8429 2.25C32.8727 2.25 32.9024 2.25 32.9322 2.25C32.9619 2.25 32.9916 2.25 33.0214 2.25C33.0511 2.25 33.0809 2.25 33.1106 2.25C33.1404 2.25 33.1701 2.25 33.1998 2.25C33.2296 2.25 33.2593 2.25 33.289 2.25C33.3188 2.25 33.3485 2.25 33.3783 2.25C33.408 2.25 33.4377 2.25 33.4674 2.25C33.4972 2.25 33.5269 2.25 33.5566 2.25C33.5864 2.25 33.6161 2.25 33.6458 2.25C33.6755 2.25 33.7053 2.25 33.735 2.25C33.7647 2.25 33.7944 2.25 33.8241 2.25C33.8538 2.25 33.8836 2.25 33.9133 2.25C33.943 2.25 33.9727 2.25 34.0024 2.25C34.0321 2.25 34.0618 2.25 34.0915 2.25C34.1212 2.25 34.1509 2.25 34.1806 2.25C34.2103 2.25 34.24 2.25 34.2697 2.25C34.2994 2.25 34.3291 2.25 34.3587 2.25C34.3884 2.25 34.4181 2.25 34.4478 2.25C34.4775 2.25 34.5071 2.25 34.5368 2.25C34.5665 2.25 34.5961 2.25 34.6258 2.25C34.6555 2.25 34.6851 2.25 34.7148 2.25C34.7444 2.25 34.7741 2.25 34.8037 2.25C34.8334 2.25 34.863 2.25 34.8927 2.25C34.9223 2.25 34.9519 2.25 34.9816 2.25C35.0112 2.25 35.0408 2.25 35.0705 2.25C35.1001 2.25 35.1297 2.25 35.1593 2.25C35.1889 2.25 35.2185 2.25 35.2481 2.25C35.2778 2.25 35.3074 2.25 35.3369 2.25C35.3665 2.25 35.3961 2.25 35.4257 2.25C35.4553 2.25 35.4849 2.25 35.5145 2.25C35.544 2.25 35.5736 2.25 35.6032 2.25C35.6327 2.25 35.6623 2.25 35.6919 2.25C35.7214 2.25 35.751 2.25 35.7805 2.25C35.81 2.25 35.8396 2.25 35.8691 2.25C35.8986 2.25 35.9282 2.25 35.9577 2.25C35.9872 2.25 36.0167 2.25 36.0462 2.25C36.0757 2.25 36.1052 2.25 36.1347 2.25C36.1642 2.25 36.1937 2.25 36.2232 2.25C36.2527 2.25 36.2822 2.25 36.3116 2.25C36.3411 2.25 36.3706 2.25 36.4 2.25C36.4295 2.25 36.4589 2.25 36.4884 2.25C36.5178 2.25 36.5473 2.25 36.5767 2.25C36.6061 2.25 36.6355 2.25 36.665 2.25C36.6944 2.25 36.7238 2.25 36.7532 2.25C36.7826 2.25 36.812 2.25 36.8414 2.25C36.8708 2.25 36.9001 2.25 36.9295 2.25C36.9589 2.25 36.9882 2.25 37.0176 2.25C37.047 2.25 37.0763 2.25 37.1056 2.25C37.135 2.25 37.1643 2.25 37.1936 2.25C37.223 2.25 37.2523 2.25 37.2816 2.25C37.3109 2.25 37.3402 2.25 37.3695 2.25C37.3988 2.25 37.4281 2.25 37.4573 2.25C37.4866 2.25 37.5159 2.25 37.5451 2.25C37.5744 2.25 37.6036 2.25 37.6329 2.25C37.6621 2.25 37.6913 2.25 37.7206 2.25C37.7498 2.25 37.779 2.25 37.8082 2.25C37.8374 2.25 37.8666 2.25 37.8958 2.25C37.925 2.25 37.9541 2.25 37.9833 2.25C38.0125 2.25 38.0416 2.25 38.0708 2.25C38.0999 2.25 38.1291 2.25 38.1582 2.25C38.1873 2.25 38.2164 2.25 38.2455 2.25C38.2746 2.25 38.3037 2.25 38.3328 2.25C38.3619 2.25 38.391 2.25 38.4201 2.25C38.4491 2.25 38.4782 2.25 38.5072 2.25C38.5363 2.25 38.5653 2.25 38.5943 2.25C38.6234 2.25 38.6524 2.25 38.6814 2.25C38.7104 2.25 38.7394 2.25 38.7684 2.25C38.7973 2.25 38.8263 2.25 38.8553 2.25C38.8842 2.25 38.9132 2.25 38.9421 2.25C38.9711 2.25 39 2.25 39.0289 2.25C39.0578 2.25 39.0867 2.25 39.1156 2.25C39.1445 2.25 39.1734 2.25 39.2022 2.25C39.2311 2.25 39.26 2.25 39.2888 2.25C39.3177 2.25 39.3465 2.25 39.3753 2.25C39.4041 2.25 39.433 2.25 39.4618 2.25C39.4906 2.25 39.5193 2.25 39.5481 2.25C39.5769 2.25 39.6056 2.25 39.6344 2.25C39.6631 2.25 39.6919 2.25 39.7206 2.25C39.7493 2.25 39.778 2.25 39.8067 2.25C39.8354 2.25 39.8641 2.25 39.8928 2.25C39.9215 2.25 39.9501 2.25 39.9788 2.25C40.0074 2.25 40.0361 2.25 40.0647 2.25C40.0933 2.25 40.1219 2.25 40.1505 2.25C40.1791 2.25 40.2077 2.25 40.2362 2.25C40.2648 2.25 40.2934 2.25 40.3219 2.25C40.3504 2.25 40.379 2.25 40.4075 2.25C40.436 2.25 40.4645 2.25 40.493 2.25C40.5215 2.25 40.5499 2.25 40.5784 2.25C40.6068 2.25 40.6353 2.25 40.6637 2.25C40.6921 2.25 40.7206 2.25 40.749 2.25C40.7774 2.25 40.8057 2.25 40.8341 2.25C40.8625 2.25 40.8908 2.25 40.9192 2.25C40.9475 2.25 40.9758 2.25 41.0042 2.25C41.0325 2.25 41.0608 2.25 41.089 2.25C41.1173 2.25 41.1456 2.25 41.1738 2.25C41.2021 2.25 41.2303 2.25 41.2585 2.25C41.2868 2.25 41.315 2.25 41.3432 2.25C41.3713 2.25 41.3995 2.25 41.4277 2.25C41.4558 2.25 41.484 2.25 41.5121 2.25C41.5402 2.25 41.5683 2.25 41.5964 2.25C41.6245 2.25 41.6526 2.25 41.6807 2.25C41.7087 2.25 41.7368 2.25 41.7648 2.25C41.7928 2.25 41.8209 2.25 41.8489 2.25C41.8769 2.25 41.9048 2.25 41.9328 2.25C41.9608 2.25 41.9887 2.25 42.0166 2.25C42.0446 2.25 42.0725 2.25 42.1004 2.25C42.1283 2.25 42.1562 2.25 42.184 2.25C42.2119 2.25 42.2397 2.25 42.2676 2.25C42.2954 2.25 42.3232 2.25 42.351 2.25C42.3788 2.25 42.4066 2.25 42.4343 2.25C42.4621 2.25 42.4898 2.25 42.5175 2.25C42.5453 2.25 42.573 2.25 42.6007 2.25C42.6284 2.25 42.656 2.25 42.6837 2.25C42.7113 2.25 42.739 2.25 42.7666 2.25C42.7942 2.25 42.8218 2.25 42.8494 2.25C42.8769 2.25 42.9045 2.25 42.9321 2.25C42.9596 2.25 42.9871 2.25 43.0146 2.25C43.0421 2.25 43.0696 2.25 43.0971 2.25C43.1246 2.25 43.152 2.25 43.1794 2.25C43.2069 2.25 43.2343 2.25 43.2617 2.25C43.2891 2.25 43.3164 2.25 43.3438 2.25C43.3711 2.25 43.3985 2.25 43.4258 2.25C43.4531 2.25 43.4804 2.25 43.5077 2.25C43.535 2.25 43.5622 2.25 43.5895 2.25C43.6167 2.25 43.6439 2.25 43.6711 2.25C43.6983 2.25 43.7255 2.25 43.7526 2.25C43.7798 2.25 43.8069 2.25 43.834 2.25C43.8612 2.25 43.8883 2.25 43.9153 2.25C43.9424 2.25 43.9695 2.25 43.9965 2.25C44.0235 2.25 44.0506 2.25 44.0776 2.25C44.1045 2.25 44.1315 2.25 44.1585 2.25C44.1854 2.25 44.2124 2.25 44.2393 2.25C44.2662 2.25 44.2931 2.25 44.3199 2.25C44.3468 2.25 44.3737 2.25 44.4005 2.25C44.4273 2.25 44.4541 2.25 44.4809 2.25C44.5077 2.25 44.5345 2.25 44.5612 2.25C44.5879 2.25 44.6147 2.25 44.6414 2.25C44.6681 2.25 44.6947 2.25 44.7214 2.25C44.748 2.25 44.7747 2.25 44.8013 2.25C44.8279 2.25 44.8545 2.25 44.881 2.25C44.9076 2.25 44.9342 2.25 44.9607 2.25C44.9872 2.25 45.0137 2.25 45.0402 2.25C45.0667 2.25 45.0931 2.25 45.1195 2.25C45.146 2.25 45.1724 2.25 45.1988 2.25C45.2251 2.25 45.2515 2.25 45.2779 2.25C45.3042 2.25 45.3305 2.25 45.3568 2.25C45.3831 2.25 45.4094 2.25 45.4356 2.25C45.4619 2.25 45.4881 2.25 45.5143 2.25C45.5405 2.25 45.5667 2.25 45.5928 2.25C45.619 2.25 45.6451 2.25 45.6712 2.25C45.6973 2.25 45.7234 2.25 45.7495 2.25C45.7755 2.25 45.8016 2.25 45.8276 2.25C45.8536 2.25 45.8796 2.25 45.9055 2.25C45.9315 2.25 45.9574 2.25 45.9833 2.25C46.0093 2.25 46.0351 2.25 46.061 2.25C46.0869 2.25 46.1127 2.25 46.1385 2.25C46.1643 2.25 46.1901 2.25 46.2159 2.25C46.2417 2.25 46.2674 2.25 46.2931 2.25C46.3188 2.25 46.3445 2.25 46.3702 2.25C46.3959 2.25 46.4215 2.25 46.4471 2.25C46.4727 2.25 46.4983 2.25 46.5239 2.25C46.5495 2.25 46.575 2.25 46.6005 2.25C46.626 2.25 46.6515 2.25 46.677 2.25C46.7024 2.25 46.7279 2.25 46.7533 2.25C46.7787 2.25 46.8041 2.25 46.8294 2.25C46.8548 2.25 46.8801 2.25 46.9054 2.25C46.9307 2.25 46.956 2.25 46.9813 2.25C47.0065 2.25 47.0318 2.25 47.057 2.25C47.0822 2.25 47.1073 2.25 47.1325 2.25C47.1576 2.25 47.1828 2.25 47.2078 2.25C47.2329 2.25 47.258 2.25 47.2831 2.25C47.3081 2.25 47.3331 2.25 47.3581 2.25C47.3831 2.25 47.408 2.25 47.433 2.25C47.4579 2.25 47.4828 2.25 47.5077 2.25V0.75C47.4828 0.75 47.4579 0.75 47.433 0.75C47.408 0.75 47.3831 0.75 47.3581 0.75C47.3331 0.75 47.3081 0.75 47.2831 0.75C47.258 0.75 47.2329 0.75 47.2078 0.75C47.1828 0.75 47.1576 0.75 47.1325 0.75C47.1073 0.75 47.0822 0.75 47.057 0.75C47.0318 0.75 47.0065 0.75 46.9813 0.75C46.956 0.75 46.9307 0.75 46.9054 0.75C46.8801 0.75 46.8548 0.75 46.8294 0.75C46.8041 0.75 46.7787 0.75 46.7533 0.75C46.7279 0.75 46.7024 0.75 46.677 0.75C46.6515 0.75 46.626 0.75 46.6005 0.75C46.575 0.75 46.5495 0.75 46.5239 0.75C46.4983 0.75 46.4727 0.75 46.4471 0.75C46.4215 0.75 46.3959 0.75 46.3702 0.75C46.3445 0.75 46.3188 0.75 46.2931 0.75C46.2674 0.75 46.2417 0.75 46.2159 0.75C46.1901 0.75 46.1643 0.75 46.1385 0.75C46.1127 0.75 46.0869 0.75 46.061 0.75C46.0351 0.75 46.0093 0.75 45.9833 0.75C45.9574 0.75 45.9315 0.75 45.9055 0.75C45.8796 0.75 45.8536 0.75 45.8276 0.75C45.8016 0.75 45.7755 0.75 45.7495 0.75C45.7234 0.75 45.6973 0.75 45.6712 0.75C45.6451 0.75 45.619 0.75 45.5928 0.75C45.5667 0.75 45.5405 0.75 45.5143 0.75C45.4881 0.75 45.4619 0.75 45.4356 0.75C45.4094 0.75 45.3831 0.75 45.3568 0.75C45.3305 0.75 45.3042 0.75 45.2779 0.75C45.2515 0.75 45.2251 0.75 45.1988 0.75C45.1724 0.75 45.146 0.75 45.1195 0.75C45.0931 0.75 45.0667 0.75 45.0402 0.75C45.0137 0.75 44.9872 0.75 44.9607 0.75C44.9342 0.75 44.9076 0.75 44.881 0.75C44.8545 0.75 44.8279 0.75 44.8013 0.75C44.7747 0.75 44.748 0.75 44.7214 0.75C44.6947 0.75 44.6681 0.75 44.6414 0.75C44.6147 0.75 44.5879 0.75 44.5612 0.75C44.5345 0.75 44.5077 0.75 44.4809 0.75C44.4541 0.75 44.4273 0.75 44.4005 0.75C44.3737 0.75 44.3468 0.75 44.3199 0.75C44.2931 0.75 44.2662 0.75 44.2393 0.75C44.2124 0.75 44.1854 0.75 44.1585 0.75C44.1315 0.75 44.1045 0.75 44.0776 0.75C44.0506 0.75 44.0235 0.75 43.9965 0.75C43.9695 0.75 43.9424 0.75 43.9153 0.75C43.8883 0.75 43.8612 0.75 43.834 0.75C43.8069 0.75 43.7798 0.75 43.7526 0.75C43.7255 0.75 43.6983 0.75 43.6711 0.75C43.6439 0.75 43.6167 0.75 43.5895 0.75C43.5622 0.75 43.535 0.75 43.5077 0.75C43.4804 0.75 43.4531 0.75 43.4258 0.75C43.3985 0.75 43.3711 0.75 43.3438 0.75C43.3164 0.75 43.2891 0.75 43.2617 0.75C43.2343 0.75 43.2069 0.75 43.1794 0.75C43.152 0.75 43.1246 0.75 43.0971 0.75C43.0696 0.75 43.0421 0.75 43.0146 0.75C42.9871 0.75 42.9596 0.75 42.9321 0.75C42.9045 0.75 42.8769 0.75 42.8494 0.75C42.8218 0.75 42.7942 0.75 42.7666 0.75C42.739 0.75 42.7113 0.75 42.6837 0.75C42.656 0.75 42.6284 0.75 42.6007 0.75C42.573 0.75 42.5453 0.75 42.5175 0.75C42.4898 0.75 42.4621 0.75 42.4343 0.75C42.4066 0.75 42.3788 0.75 42.351 0.75C42.3232 0.75 42.2954 0.75 42.2676 0.75C42.2397 0.75 42.2119 0.75 42.184 0.75C42.1562 0.75 42.1283 0.75 42.1004 0.75C42.0725 0.75 42.0446 0.75 42.0166 0.75C41.9887 0.75 41.9608 0.75 41.9328 0.75C41.9048 0.75 41.8769 0.75 41.8489 0.75C41.8209 0.75 41.7928 0.75 41.7648 0.75C41.7368 0.75 41.7087 0.75 41.6807 0.75C41.6526 0.75 41.6245 0.75 41.5964 0.75C41.5683 0.75 41.5402 0.75 41.5121 0.75C41.484 0.75 41.4558 0.75 41.4277 0.75C41.3995 0.75 41.3713 0.75 41.3432 0.75C41.315 0.75 41.2868 0.75 41.2585 0.75C41.2303 0.75 41.2021 0.75 41.1738 0.75C41.1456 0.75 41.1173 0.75 41.089 0.75C41.0608 0.75 41.0325 0.75 41.0042 0.75C40.9758 0.75 40.9475 0.75 40.9192 0.75C40.8908 0.75 40.8625 0.75 40.8341 0.75C40.8057 0.75 40.7774 0.75 40.749 0.75C40.7206 0.75 40.6921 0.75 40.6637 0.75C40.6353 0.75 40.6068 0.75 40.5784 0.75C40.5499 0.75 40.5215 0.75 40.493 0.75C40.4645 0.75 40.436 0.75 40.4075 0.75C40.379 0.75 40.3504 0.75 40.3219 0.75C40.2934 0.75 40.2648 0.75 40.2362 0.75C40.2077 0.75 40.1791 0.75 40.1505 0.75C40.1219 0.75 40.0933 0.75 40.0647 0.75C40.0361 0.75 40.0074 0.75 39.9788 0.75C39.9501 0.75 39.9215 0.75 39.8928 0.75C39.8641 0.75 39.8354 0.75 39.8067 0.75C39.778 0.75 39.7493 0.75 39.7206 0.75C39.6919 0.75 39.6631 0.75 39.6344 0.75C39.6056 0.75 39.5769 0.75 39.5481 0.75C39.5193 0.75 39.4906 0.75 39.4618 0.75C39.433 0.75 39.4041 0.75 39.3753 0.75C39.3465 0.75 39.3177 0.75 39.2888 0.75C39.26 0.75 39.2311 0.75 39.2022 0.75C39.1734 0.75 39.1445 0.75 39.1156 0.75C39.0867 0.75 39.0578 0.75 39.0289 0.75C39 0.75 38.9711 0.75 38.9421 0.75C38.9132 0.75 38.8842 0.75 38.8553 0.75C38.8263 0.75 38.7973 0.75 38.7684 0.75C38.7394 0.75 38.7104 0.75 38.6814 0.75C38.6524 0.75 38.6234 0.75 38.5943 0.75C38.5653 0.75 38.5363 0.75 38.5072 0.75C38.4782 0.75 38.4491 0.75 38.4201 0.75C38.391 0.75 38.3619 0.75 38.3328 0.75C38.3037 0.75 38.2746 0.75 38.2455 0.75C38.2164 0.75 38.1873 0.75 38.1582 0.75C38.1291 0.75 38.0999 0.75 38.0708 0.75C38.0416 0.75 38.0125 0.75 37.9833 0.75C37.9541 0.75 37.925 0.75 37.8958 0.75C37.8666 0.75 37.8374 0.75 37.8082 0.75C37.779 0.75 37.7498 0.75 37.7206 0.75C37.6913 0.75 37.6621 0.75 37.6329 0.75C37.6036 0.75 37.5744 0.75 37.5451 0.75C37.5159 0.75 37.4866 0.75 37.4573 0.75C37.4281 0.75 37.3988 0.75 37.3695 0.75C37.3402 0.75 37.3109 0.75 37.2816 0.75C37.2523 0.75 37.223 0.75 37.1936 0.75C37.1643 0.75 37.135 0.75 37.1056 0.75C37.0763 0.75 37.047 0.75 37.0176 0.75C36.9882 0.75 36.9589 0.75 36.9295 0.75C36.9001 0.75 36.8708 0.75 36.8414 0.75C36.812 0.75 36.7826 0.75 36.7532 0.75C36.7238 0.75 36.6944 0.75 36.665 0.75C36.6355 0.75 36.6061 0.75 36.5767 0.75C36.5473 0.75 36.5178 0.75 36.4884 0.75C36.4589 0.75 36.4295 0.75 36.4 0.75C36.3706 0.75 36.3411 0.75 36.3116 0.75C36.2822 0.75 36.2527 0.75 36.2232 0.75C36.1937 0.75 36.1642 0.75 36.1347 0.75C36.1052 0.75 36.0757 0.75 36.0462 0.75C36.0167 0.75 35.9872 0.75 35.9577 0.75C35.9282 0.75 35.8986 0.75 35.8691 0.75C35.8396 0.75 35.81 0.75 35.7805 0.75C35.751 0.75 35.7214 0.75 35.6919 0.75C35.6623 0.75 35.6327 0.75 35.6032 0.75C35.5736 0.75 35.544 0.75 35.5145 0.75C35.4849 0.75 35.4553 0.75 35.4257 0.75C35.3961 0.75 35.3665 0.75 35.3369 0.75C35.3074 0.75 35.2778 0.75 35.2481 0.75C35.2185 0.75 35.1889 0.75 35.1593 0.75C35.1297 0.75 35.1001 0.75 35.0705 0.75C35.0408 0.75 35.0112 0.75 34.9816 0.75C34.9519 0.75 34.9223 0.75 34.8927 0.75C34.863 0.75 34.8334 0.75 34.8037 0.75C34.7741 0.75 34.7444 0.75 34.7148 0.75C34.6851 0.75 34.6555 0.75 34.6258 0.75C34.5961 0.75 34.5665 0.75 34.5368 0.75C34.5071 0.75 34.4775 0.75 34.4478 0.75C34.4181 0.75 34.3884 0.75 34.3587 0.75C34.3291 0.75 34.2994 0.75 34.2697 0.75C34.24 0.75 34.2103 0.75 34.1806 0.75C34.1509 0.75 34.1212 0.75 34.0915 0.75C34.0618 0.75 34.0321 0.75 34.0024 0.75C33.9727 0.75 33.943 0.75 33.9133 0.75C33.8836 0.75 33.8538 0.75 33.8241 0.75C33.7944 0.75 33.7647 0.75 33.735 0.75C33.7053 0.75 33.6755 0.75 33.6458 0.75C33.6161 0.75 33.5864 0.75 33.5566 0.75C33.5269 0.75 33.4972 0.75 33.4674 0.75C33.4377 0.75 33.408 0.75 33.3783 0.75C33.3485 0.75 33.3188 0.75 33.289 0.75C33.2593 0.75 33.2296 0.75 33.1998 0.75C33.1701 0.75 33.1404 0.75 33.1106 0.75C33.0809 0.75 33.0511 0.75 33.0214 0.75C32.9916 0.75 32.9619 0.75 32.9322 0.75C32.9024 0.75 32.8727 0.75 32.8429 0.75C32.8132 0.75 32.7834 0.75 32.7537 0.75C32.7239 0.75 32.6942 0.75 32.6644 0.75C32.6347 0.75 32.605 0.75 32.5752 0.75C32.5455 0.75 32.5157 0.75 32.486 0.75C32.4562 0.75 32.4265 0.75 32.3967 0.75C32.367 0.75 32.3372 0.75 32.3075 0.75C32.2777 0.75 32.248 0.75 32.2183 0.75C32.1885 0.75 32.1588 0.75 32.129 0.75C32.0993 0.75 32.0695 0.75 32.0398 0.75C32.0101 0.75 31.9803 0.75 31.9506 0.75C31.9208 0.75 31.8911 0.75 31.8614 0.75C31.8316 0.75 31.8019 0.75 31.7721 0.75C31.7424 0.75 31.7127 0.75 31.6829 0.75C31.6532 0.75 31.6235 0.75 31.5938 0.75C31.564 0.75 31.5343 0.75 31.5046 0.75C31.4748 0.75 31.4451 0.75 31.4154 0.75C31.3857 0.75 31.356 0.75 31.3262 0.75C31.2965 0.75 31.2668 0.75 31.2371 0.75C31.2074 0.75 31.1777 0.75 31.148 0.75C31.1183 0.75 31.0886 0.75 31.0588 0.75C31.0291 0.75 30.9994 0.75 30.9697 0.75C30.94 0.75 30.9104 0.75 30.8807 0.75C30.851 0.75 30.8213 0.75 30.7916 0.75C30.7619 0.75 30.7322 0.75 30.7025 0.75C30.6729 0.75 30.6432 0.75 30.6135 0.75C30.5838 0.75 30.5542 0.75 30.5245 0.75C30.4948 0.75 30.4652 0.75 30.4355 0.75C30.4059 0.75 30.3762 0.75 30.3465 0.75C30.3169 0.75 30.2872 0.75 30.2576 0.75C30.228 0.75 30.1983 0.75 30.1687 0.75C30.139 0.75 30.1094 0.75 30.0798 0.75C30.0502 0.75 30.0205 0.75 29.9909 0.75C29.9613 0.75 29.9317 0.75 29.9021 0.75C29.8725 0.75 29.8429 0.75 29.8133 0.75C29.7837 0.75 29.7541 0.75 29.7245 0.75C29.6949 0.75 29.6653 0.75 29.6357 0.75C29.6061 0.75 29.5766 0.75 29.547 0.75C29.5174 0.75 29.4879 0.75 29.4583 0.75C29.4287 0.75 29.3992 0.75 29.3696 0.75C29.3401 0.75 29.3105 0.75 29.281 0.75C29.2515 0.75 29.2219 0.75 29.1924 0.75C29.1629 0.75 29.1334 0.75 29.1039 0.75C29.0743 0.75 29.0448 0.75 29.0153 0.75C28.9858 0.75 28.9563 0.75 28.9268 0.75C28.8974 0.75 28.8679 0.75 28.8384 0.75C28.8089 0.75 28.7794 0.75 28.75 0.75C28.7205 0.75 28.6911 0.75 28.6616 0.75C28.6322 0.75 28.6027 0.75 28.5733 0.75C28.5439 0.75 28.5144 0.75 28.485 0.75C28.4556 0.75 28.4262 0.75 28.3968 0.75C28.3673 0.75 28.3379 0.75 28.3086 0.75C28.2792 0.75 28.2498 0.75 28.2204 0.75C28.191 0.75 28.1616 0.75 28.1323 0.75C28.1029 0.75 28.0736 0.75 28.0442 0.75C28.0149 0.75 27.9855 0.75 27.9562 0.75C27.9269 0.75 27.8975 0.75 27.8682 0.75C27.8389 0.75 27.8096 0.75 27.7803 0.75C27.751 0.75 27.7217 0.75 27.6924 0.75C27.6632 0.75 27.6339 0.75 27.6046 0.75C27.5754 0.75 27.5461 0.75 27.5169 0.75C27.4876 0.75 27.4584 0.75 27.4291 0.75C27.3999 0.75 27.3707 0.75 27.3415 0.75C27.3123 0.75 27.2831 0.75 27.2539 0.75C27.2247 0.75 27.1955 0.75 27.1663 0.75C27.1371 0.75 27.108 0.75 27.0788 0.75C27.0497 0.75 27.0205 0.75 26.9914 0.75C26.9623 0.75 26.9331 0.75 26.904 0.75C26.8749 0.75 26.8458 0.75 26.8167 0.75C26.7876 0.75 26.7585 0.75 26.7294 0.75C26.7004 0.75 26.6713 0.75 26.6422 0.75C26.6132 0.75 26.5841 0.75 26.5551 0.75C26.5261 0.75 26.497 0.75 26.468 0.75C26.439 0.75 26.41 0.75 26.381 0.75C26.352 0.75 26.323 0.75 26.2941 0.75C26.2651 0.75 26.2361 0.75 26.2072 0.75C26.1782 0.75 26.1493 0.75 26.1204 0.75C26.0915 0.75 26.0625 0.75 26.0336 0.75C26.0047 0.75 25.9758 0.75 25.947 0.75C25.9181 0.75 25.8892 0.75 25.8604 0.75C25.8315 0.75 25.8027 0.75 25.7738 0.75C25.745 0.75 25.7162 0.75 25.6874 0.75C25.6586 0.75 25.6298 0.75 25.601 0.75C25.5722 0.75 25.5434 0.75 25.5147 0.75C25.4859 0.75 25.4571 0.75 25.4284 0.75C25.3997 0.75 25.3709 0.75 25.3422 0.75C25.3135 0.75 25.2848 0.75 25.2561 0.75C25.2275 0.75 25.1988 0.75 25.1701 0.75C25.1415 0.75 25.1128 0.75 25.0842 0.75C25.0556 0.75 25.0269 0.75 24.9983 0.75C24.9697 0.75 24.9411 0.75 24.9126 0.75C24.884 0.75 24.8554 0.75 24.8269 0.75C24.7983 0.75 24.7698 0.75 24.7412 0.75C24.7127 0.75 24.6842 0.75 24.6557 0.75C24.6272 0.75 24.5987 0.75 24.5703 0.75C24.5418 0.75 24.5133 0.75 24.4849 0.75C24.4564 0.75 24.428 0.75 24.3996 0.75C24.3712 0.75 24.3428 0.75 24.3144 0.75C24.286 0.75 24.2577 0.75 24.2293 0.75C24.201 0.75 24.1726 0.75 24.1443 0.75C24.116 0.75 24.0877 0.75 24.0594 0.75C24.0311 0.75 24.0028 0.75 23.9745 0.75C23.9463 0.75 23.918 0.75 23.8898 0.75C23.8615 0.75 23.8333 0.75 23.8051 0.75C23.7769 0.75 23.7487 0.75 23.7206 0.75C23.6924 0.75 23.6642 0.75 23.6361 0.75C23.6079 0.75 23.5798 0.75 23.5517 0.75C23.5236 0.75 23.4955 0.75 23.4674 0.75C23.4393 0.75 23.4113 0.75 23.3832 0.75C23.3552 0.75 23.3272 0.75 23.2992 0.75C23.2711 0.75 23.2431 0.75 23.2152 0.75C23.1872 0.75 23.1592 0.75 23.1313 0.75C23.1033 0.75 23.0754 0.75 23.0475 0.75C23.0196 0.75 22.9917 0.75 22.9638 0.75C22.9359 0.75 22.9081 0.75 22.8802 0.75C22.8524 0.75 22.8245 0.75 22.7967 0.75C22.7689 0.75 22.7411 0.75 22.7134 0.75C22.6856 0.75 22.6578 0.75 22.6301 0.75C22.6023 0.75 22.5746 0.75 22.5469 0.75C22.5192 0.75 22.4915 0.75 22.4639 0.75C22.4362 0.75 22.4085 0.75 22.3809 0.75C22.3533 0.75 22.3257 0.75 22.2981 0.75C22.2705 0.75 22.2429 0.75 22.2153 0.75C22.1878 0.75 22.1602 0.75 22.1327 0.75C22.1052 0.75 22.0777 0.75 22.0502 0.75C22.0227 0.75 21.9952 0.75 21.9678 0.75C21.9403 0.75 21.9129 0.75 21.8855 0.75C21.8581 0.75 21.8307 0.75 21.8033 0.75C21.776 0.75 21.7486 0.75 21.7213 0.75C21.6939 0.75 21.6666 0.75 21.6393 0.75C21.612 0.75 21.5848 0.75 21.5575 0.75C21.5303 0.75 21.503 0.75 21.4758 0.75C21.4486 0.75 21.4214 0.75 21.3942 0.75C21.367 0.75 21.3399 0.75 21.3127 0.75C21.2856 0.75 21.2585 0.75 21.2314 0.75C21.2043 0.75 21.1772 0.75 21.1502 0.75C21.1231 0.75 21.0961 0.75 21.0691 0.75C21.0421 0.75 21.0151 0.75 20.9881 0.75C20.9611 0.75 20.9342 0.75 20.9072 0.75C20.8803 0.75 20.8534 0.75 20.8265 0.75C20.7996 0.75 20.7728 0.75 20.7459 0.75C20.7191 0.75 20.6922 0.75 20.6654 0.75C20.6386 0.75 20.6118 0.75 20.5851 0.75C20.5583 0.75 20.5316 0.75 20.5049 0.75C20.4781 0.75 20.4515 0.75 20.4248 0.75C20.3981 0.75 20.3714 0.75 20.3448 0.75C20.3182 0.75 20.2916 0.75 20.265 0.75C20.2384 0.75 20.2118 0.75 20.1853 0.75C20.1588 0.75 20.1322 0.75 20.1057 0.75C20.0792 0.75 20.0528 0.75 20.0263 0.75C19.9999 0.75 19.9734 0.75 19.947 0.75C19.9206 0.75 19.8942 0.75 19.8679 0.75C19.8415 0.75 19.8152 0.75 19.7889 0.75C19.7625 0.75 19.7363 0.75 19.71 0.75C19.6837 0.75 19.6575 0.75 19.6312 0.75C19.605 0.75 19.5788 0.75 19.5526 0.75C19.5265 0.75 19.5003 0.75 19.4742 0.75C19.4481 0.75 19.422 0.75 19.3959 0.75C19.3698 0.75 19.3437 0.75 19.3177 0.75C19.2917 0.75 19.2657 0.75 19.2397 0.75C19.2137 0.75 19.1877 0.75 19.1618 0.75C19.1359 0.75 19.11 0.75 19.0841 0.75C19.0582 0.75 19.0323 0.75 19.0065 0.75C18.9806 0.75 18.9548 0.75 18.929 0.75C18.9032 0.75 18.8775 0.75 18.8517 0.75C18.826 0.75 18.8003 0.75 18.7746 0.75C18.7489 0.75 18.7232 0.75 18.6976 0.75C18.672 0.75 18.6464 0.75 18.6208 0.75C18.5952 0.75 18.5696 0.75 18.5441 0.75C18.5185 0.75 18.493 0.75 18.4675 0.75C18.4421 0.75 18.4166 0.75 18.3912 0.75C18.3657 0.75 18.3403 0.75 18.3149 0.75C18.2895 0.75 18.2642 0.75 18.2389 0.75C18.2135 0.75 18.1882 0.75 18.1629 0.75C18.1377 0.75 18.1124 0.75 18.0872 0.75C18.062 0.75 18.0368 0.75 18.0116 0.75C17.9864 0.75 17.9613 0.75 17.9362 0.75C17.911 0.75 17.886 0.75 17.8609 0.75C17.8358 0.75 17.8108 0.75 17.7858 0.75C17.7608 0.75 17.7358 0.75 17.7108 0.75C17.6859 0.75 17.6609 0.75 17.636 0.75C17.6111 0.75 17.5863 0.75 17.5614 0.75C17.5366 0.75 17.5117 0.75 17.4869 0.75C17.4622 0.75 17.4374 0.75 17.4127 0.75C17.3879 0.75 17.3632 0.75 17.3385 0.75C17.3139 0.75 17.2892 0.75 17.2646 0.75C17.24 0.75 17.2154 0.75 17.1908 0.75C17.1662 0.75 17.1417 0.75 17.1172 0.75C17.0927 0.75 17.0682 0.75 17.0437 0.75C17.0193 0.75 16.9948 0.75 16.9704 0.75C16.9461 0.75 16.9217 0.75 16.8973 0.75C16.873 0.75 16.8487 0.75 16.8244 0.75C16.8001 0.75 16.7759 0.75 16.7517 0.75C16.7274 0.75 16.7033 0.75 16.6791 0.75C16.6549 0.75 16.6308 0.75 16.6067 0.75C16.5826 0.75 16.5585 0.75 16.5345 0.75C16.5104 0.75 16.4864 0.75 16.4624 0.75C16.4384 0.75 16.4145 0.75 16.3906 0.75C16.3666 0.75 16.3427 0.75 16.3189 0.75C16.295 0.75 16.2712 0.75 16.2474 0.75C16.2236 0.75 16.1998 0.75 16.176 0.75C16.1523 0.75 16.1286 0.75 16.1049 0.75C16.0812 0.75 16.0576 0.75 16.0339 0.75C16.0103 0.75 15.9867 0.75 15.9632 0.75C15.9396 0.75 15.9161 0.75 15.8926 0.75C15.8691 0.75 15.8456 0.75 15.8222 0.75C15.7988 0.75 15.7754 0.75 15.752 0.75C15.7286 0.75 15.7053 0.75 15.682 0.75C15.6587 0.75 15.6354 0.75 15.6121 0.75C15.5889 0.75 15.5657 0.75 15.5425 0.75C15.5193 0.75 15.4962 0.75 15.473 0.75C15.4499 0.75 15.4268 0.75 15.4038 0.75C15.3807 0.75 15.3577 0.75 15.3347 0.75C15.3117 0.75 15.2888 0.75 15.2658 0.75C15.2429 0.75 15.22 0.75 15.1972 0.75C15.1743 0.75 15.1515 0.75 15.1287 0.75C15.1059 0.75 15.0831 0.75 15.0604 0.75C15.0377 0.75 15.015 0.75 14.9923 0.75C14.9697 0.75 14.947 0.75 14.9244 0.75C14.9018 0.75 14.8793 0.75 14.8568 0.75C14.8342 0.75 14.8117 0.75 14.7893 0.75C14.7668 0.75 14.7444 0.75 14.722 0.75C14.6996 0.75 14.6772 0.75 14.6549 0.75C14.6326 0.75 14.6103 0.75 14.588 0.75C14.5658 0.75 14.5435 0.75 14.5214 0.75C14.4992 0.75 14.477 0.75 14.4549 0.75C14.4328 0.75 14.4107 0.75 14.3886 0.75C14.3666 0.75 14.3446 0.75 14.3226 0.75C14.3006 0.75 14.2786 0.75 14.2567 0.75C14.2348 0.75 14.2129 0.75 14.1911 0.75C14.1693 0.75 14.1474 0.75 14.1257 0.75C14.1039 0.75 14.0822 0.75 14.0605 0.75C14.0388 0.75 14.0171 0.75 13.9955 0.75C13.9738 0.75 13.9522 0.75 13.9307 0.75C13.9091 0.75 13.8876 0.75 13.8661 0.75C13.8446 0.75 13.8231 0.75 13.8017 0.75C13.7803 0.75 13.7589 0.75 13.7376 0.75C13.7162 0.75 13.6949 0.75 13.6736 0.75C13.6524 0.75 13.6311 0.75 13.6099 0.75C13.5887 0.75 13.5676 0.75 13.5464 0.75C13.5253 0.75 13.5042 0.75 13.4832 0.75C13.4621 0.75 13.4411 0.75 13.4201 0.75C13.3991 0.75 13.3782 0.75 13.3573 0.75C13.3364 0.75 13.3155 0.75 13.2947 0.75C13.2738 0.75 13.253 0.75 13.2323 0.75C13.2115 0.75 13.1908 0.75 13.1701 0.75C13.1494 0.75 13.1288 0.75 13.1082 0.75C13.0876 0.75 13.067 0.75 13.0465 0.75C13.0259 0.75 13.0054 0.75 12.985 0.75C12.9645 0.75 12.9441 0.75 12.9237 0.75C12.9033 0.75 12.883 0.75 12.8627 0.75C12.8424 0.75 12.8221 0.75 12.8019 0.75C12.7817 0.75 12.7615 0.75 12.7413 0.75C12.7212 0.75 12.7011 0.75 12.681 0.75C12.6609 0.75 12.6409 0.75 12.6209 0.75C12.6009 0.75 12.5809 0.75 12.561 0.75C12.5411 0.75 12.5212 0.75 12.5014 0.75C12.4815 0.75 12.4617 0.75 12.442 0.75C12.4222 0.75 12.4025 0.75 12.3828 0.75C12.3631 0.75 12.3435 0.75 12.3239 0.75C12.3043 0.75 12.2847 0.75 12.2652 0.75C12.2456 0.75 12.2262 0.75 12.2067 0.75C12.1873 0.75 12.1679 0.75 12.1485 0.75C12.1291 0.75 12.1098 0.75 12.0905 0.75C12.0712 0.75 12.052 0.75 12.0328 0.75C12.0136 0.75 11.9944 0.75 11.9753 0.75C11.9562 0.75 11.9371 0.75 11.9181 0.75C11.899 0.75 11.88 0.75 11.8611 0.75C11.8421 0.75 11.8232 0.75 11.8043 0.75C11.7854 0.75 11.7666 0.75 11.7478 0.75C11.729 0.75 11.7102 0.75 11.6915 0.75C11.6728 0.75 11.6542 0.75 11.6355 0.75C11.6169 0.75 11.5983 0.75 11.5798 0.75C11.5612 0.75 11.5427 0.75 11.5242 0.75C11.5058 0.75 11.4874 0.75 11.469 0.75C11.4506 0.75 11.4323 0.75 11.414 0.75C11.3957 0.75 11.3774 0.75 11.3592 0.75C11.341 0.75 11.3228 0.75 11.3047 0.75C11.2866 0.75 11.2685 0.75 11.2505 0.75C11.2324 0.75 11.2144 0.75 11.1965 0.75C11.1785 0.75 11.1606 0.75 11.1427 0.75C11.1248 0.75 11.107 0.75 11.0892 0.75C11.0715 0.75 11.0537 0.75 11.036 0.75C11.0183 0.75 11.0007 0.75 10.9831 0.75C10.9654 0.75 10.9479 0.75 10.9303 0.75C10.9128 0.75 10.8953 0.75 10.8779 0.75C10.8605 0.75 10.8431 0.75 10.8257 0.75C10.8084 0.75 10.7911 0.75 10.7738 0.75C10.7565 0.75 10.7393 0.75 10.7222 0.75C10.705 0.75 10.6879 0.75 10.6708 0.75C10.6537 0.75 10.6366 0.75 10.6196 0.75C10.6027 0.75 10.5857 0.75 10.5688 0.75C10.5519 0.75 10.535 0.75 10.5182 0.75C10.5014 0.75 10.4846 0.75 10.4679 0.75C10.4512 0.75 10.4345 0.75 10.4178 0.75C10.4012 0.75 10.3846 0.75 10.3681 0.75C10.3515 0.75 10.335 0.75 10.3186 0.75C10.3021 0.75 10.2857 0.75 10.2693 0.75C10.253 0.75 10.2366 0.75 10.2204 0.75C10.2041 0.75 10.1879 0.75 10.1717 0.75C10.1555 0.75 10.1393 0.75 10.1233 0.75C10.1072 0.75 10.0911 0.75 10.0751 0.75C10.0591 0.75 10.0432 0.75 10.0273 0.75C10.0114 0.75 9.9955 0.75 9.97968 0.75C9.96387 0.75 9.9481 0.75 9.93238 0.75C9.91666 0.75 9.90098 0.75 9.88536 0.75C9.86973 0.75 9.85415 0.75 9.83862 0.75C9.82308 0.75 9.8076 0.75 9.79216 0.75C9.77672 0.75 9.76132 0.75 9.74598 0.75C9.73063 0.75 9.71534 0.75 9.70009 0.75C9.68483 0.75 9.66963 0.75 9.65448 0.75C9.63932 0.75 9.62421 0.75 9.60915 0.75C9.59409 0.75 9.57908 0.75 9.56411 0.75C9.54915 0.75 9.53423 0.75 9.51936 0.75C9.50449 0.75 9.48967 0.75 9.4749 0.75C9.46013 0.75 9.4454 0.75 9.43073 0.75C9.41605 0.75 9.40142 0.75 9.38685 0.75C9.37227 0.75 9.35774 0.75 9.34325 0.75C9.32877 0.75 9.31434 0.75 9.29995 0.75C9.28557 0.75 9.27123 0.75 9.25695 0.75C9.24266 0.75 9.22842 0.75 9.21423 0.75C9.20004 0.75 9.1859 0.75 9.17181 0.75C9.15772 0.75 9.14368 0.75 9.12969 0.75C9.1157 0.75 9.10176 0.75 9.08786 0.75C9.07397 0.75 9.06013 0.75 9.04633 0.75C9.03254 0.75 9.0188 0.75 9.0051 0.75C8.99141 0.75 8.97777 0.75 8.96417 0.75C8.95058 0.75 8.93703 0.75 8.92354 0.75C8.91005 0.75 8.8966 0.75 8.88321 0.75C8.86982 0.75 8.85647 0.75 8.84318 0.75C8.82989 0.75 8.81665 0.75 8.80346 0.75C8.79027 0.75 8.77713 0.75 8.76404 0.75C8.75095 0.75 8.73791 0.75 8.72492 0.75C8.71193 0.75 8.699 0.75 8.68611 0.75C8.67322 0.75 8.66039 0.75 8.64761 0.75C8.63482 0.75 8.62209 0.75 8.60941 0.75C8.59673 0.75 8.5841 0.75 8.57152 0.75C8.55895 0.75 8.54642 0.75 8.53395 0.75C8.52147 0.75 8.50905 0.75 8.49668 0.75V2.25ZM48.75 3.5V8H50.25V3.5H48.75ZM7.25 8V3.5H5.75V8H7.25ZM5.76865 7.83378L3.26865 18.8338L4.73135 19.1662L7.23135 8.16622L5.76865 7.83378ZM48.7687 8.16622L51.2687 19.1662L52.7313 18.8338L50.2313 7.83378L48.7687 8.16622ZM15.25 19C15.25 21.8995 12.8995 24.25 10 24.25V25.75C13.7279 25.75 16.75 22.7279 16.75 19H15.25ZM10 24.25C7.1005 24.25 4.75 21.8995 4.75 19H3.25C3.25 22.7279 6.27208 25.75 10 25.75V24.25ZM27.25 19C27.25 21.8995 24.8995 24.25 22 24.25V25.75C25.7279 25.75 28.75 22.7279 28.75 19H27.25ZM22 24.25C19.1005 24.25 16.75 21.8995 16.75 19H15.25C15.25 22.7279 18.2721 25.75 22 25.75V24.25ZM34 24.25C31.1005 24.25 28.75 21.8995 28.75 19H27.25C27.25 22.7279 30.2721 25.75 34 25.75V24.25ZM51.25 19C51.25 21.8995 48.8995 24.25 46 24.25V25.75C49.7279 25.75 52.75 22.7279 52.75 19H51.25ZM16 18.25H9V19.75H16V18.25ZM28 18.25H21V19.75H28V18.25ZM46 24.25C43.1099 24.25 40.765 21.9146 40.7499 19.0281L39.2499 19.036C39.2693 22.7474 42.2841 25.75 46 25.75V24.25ZM40.7499 19.0281C40.7498 19.0148 40.75 19.029 40.75 19H39.25C39.25 19.0028 39.25 19.0054 39.2499 19.0121C39.2499 19.0177 39.2499 19.0264 39.2499 19.036L40.7499 19.0281ZM39.2499 19.0281C39.2348 21.9146 36.8901 24.25 34 24.25V25.75C37.7159 25.75 40.7305 22.7474 40.7499 19.036L39.2499 19.0281ZM52 18.25H45V19.75H52V18.25ZM40 18.25H33.5V19.75H40V18.25ZM16 7.25H6.5V8.75H16V7.25ZM16.75 14V8H15.25V14H16.75ZM28 7.25H16V8.75H28V7.25ZM28.75 14V8H27.25V14H28.75ZM49.5 7.25H40V8.75H49.5V7.25ZM40 7.25H28V8.75H40V7.25ZM40.75 14V8H39.25V14H40.75ZM2 55.25H54.5V53.75H2V55.25ZM55.25 54.5V50.5H53.75V54.5H55.25ZM1.25 50.5V54.5H2.75V50.5H1.25ZM5 49.75H2V51.25H5V49.75ZM5.75 50.5V25.5H4.25V50.5H5.75ZM7.5 49.75H5V51.25H7.5V49.75ZM54.5 49.75H52V51.25H54.5V49.75ZM52.75 50.5V25.5H51.25V50.5H52.75ZM52 49.75H49.5V51.25H52V49.75ZM8.25 50.5V39H6.75V50.5H8.25ZM8.25 39V24.456H6.75V39H8.25ZM50.25 50.5V39H48.75V50.5H50.25ZM50.25 39V24H48.75V39H50.25ZM7.5 39.75H15V38.25H7.5V39.75ZM14.25 39C14.25 39.0008 14.25 39.0016 14.25 39.0024C14.25 39.0033 14.25 39.0041 14.25 39.005C14.25 39.0059 14.25 39.0069 14.25 39.0078C14.25 39.0088 14.25 39.0098 14.25 39.0108C14.25 39.0118 14.25 39.0128 14.25 39.0139C14.25 39.015 14.25 39.0161 14.25 39.0172C14.25 39.0183 14.25 39.0195 14.25 39.0207C14.25 39.0219 14.25 39.0231 14.25 39.0243C14.25 39.0256 14.25 39.0268 14.25 39.0281C14.25 39.0294 14.25 39.0308 14.25 39.0321C14.25 39.0335 14.25 39.0349 14.25 39.0363C14.25 39.0377 14.25 39.0391 14.25 39.0406C14.25 39.0421 14.25 39.0436 14.25 39.0451C14.25 39.0466 14.25 39.0482 14.25 39.0498C14.25 39.0513 14.25 39.0529 14.25 39.0546C14.25 39.0562 14.25 39.0579 14.25 39.0596C14.25 39.0613 14.25 39.063 14.25 39.0647C14.25 39.0665 14.25 39.0683 14.25 39.0701C14.25 39.0719 14.25 39.0737 14.25 39.0755C14.25 39.0774 14.25 39.0793 14.25 39.0812C14.25 39.0831 14.25 39.085 14.25 39.087C14.25 39.089 14.25 39.0909 14.25 39.093C14.25 39.095 14.25 39.097 14.25 39.0991C14.25 39.1012 14.25 39.1033 14.25 39.1054C14.25 39.1075 14.25 39.1097 14.25 39.1118C14.25 39.114 14.25 39.1162 14.25 39.1184C14.25 39.1207 14.25 39.1229 14.25 39.1252C14.25 39.1275 14.25 39.1298 14.25 39.1321C14.25 39.1345 14.25 39.1368 14.25 39.1392C14.25 39.1416 14.25 39.144 14.25 39.1464C14.25 39.1489 14.25 39.1513 14.25 39.1538C14.25 39.1563 14.25 39.1588 14.25 39.1614C14.25 39.1639 14.25 39.1665 14.25 39.1691C14.25 39.1717 14.25 39.1743 14.25 39.1769C14.25 39.1796 14.25 39.1822 14.25 39.1849C14.25 39.1876 14.25 39.1903 14.25 39.1931C14.25 39.1958 14.25 39.1986 14.25 39.2014C14.25 39.2042 14.25 39.207 14.25 39.2098C14.25 39.2127 14.25 39.2156 14.25 39.2185C14.25 39.2213 14.25 39.2243 14.25 39.2272C14.25 39.2301 14.25 39.2331 14.25 39.2361C14.25 39.2391 14.25 39.2421 14.25 39.2452C14.25 39.2482 14.25 39.2513 14.25 39.2544C14.25 39.2574 14.25 39.2606 14.25 39.2637C14.25 39.2668 14.25 39.27 14.25 39.2732C14.25 39.2764 14.25 39.2796 14.25 39.2828C14.25 39.286 14.25 39.2893 14.25 39.2926C14.25 39.2959 14.25 39.2992 14.25 39.3025C14.25 39.3058 14.25 39.3092 14.25 39.3126C14.25 39.3159 14.25 39.3193 14.25 39.3228C14.25 39.3262 14.25 39.3296 14.25 39.3331C14.25 39.3366 14.25 39.3401 14.25 39.3436C14.25 39.3471 14.25 39.3507 14.25 39.3542C14.25 39.3578 14.25 39.3614 14.25 39.365C14.25 39.3686 14.25 39.3722 14.25 39.3759C14.25 39.3795 14.25 39.3832 14.25 39.3869C14.25 39.3906 14.25 39.3943 14.25 39.3981C14.25 39.4018 14.25 39.4056 14.25 39.4094C14.25 39.4132 14.25 39.417 14.25 39.4208C14.25 39.4247 14.25 39.4285 14.25 39.4324C14.25 39.4363 14.25 39.4402 14.25 39.4441C14.25 39.4481 14.25 39.452 14.25 39.456C14.25 39.46 14.25 39.464 14.25 39.468C14.25 39.472 14.25 39.476 14.25 39.4801C14.25 39.4841 14.25 39.4882 14.25 39.4923C14.25 39.4964 14.25 39.5005 14.25 39.5047C14.25 39.5088 14.25 39.513 14.25 39.5172C14.25 39.5214 14.25 39.5256 14.25 39.5298C14.25 39.5341 14.25 39.5383 14.25 39.5426C14.25 39.5469 14.25 39.5512 14.25 39.5555C14.25 39.5598 14.25 39.5641 14.25 39.5685C14.25 39.5728 14.25 39.5772 14.25 39.5816C14.25 39.586 14.25 39.5904 14.25 39.5949C14.25 39.5993 14.25 39.6038 14.25 39.6083C14.25 39.6128 14.25 39.6173 14.25 39.6218C14.25 39.6263 14.25 39.6309 14.25 39.6354C14.25 39.64 14.25 39.6446 14.25 39.6492C14.25 39.6538 14.25 39.6584 14.25 39.6631C14.25 39.6677 14.25 39.6724 14.25 39.6771C14.25 39.6818 14.25 39.6865 14.25 39.6912C14.25 39.6959 14.25 39.7007 14.25 39.7054C14.25 39.7102 14.25 39.715 14.25 39.7198C14.25 39.7246 14.25 39.7294 14.25 39.7343C14.25 39.7391 14.25 39.744 14.25 39.7489C14.25 39.7538 14.25 39.7587 14.25 39.7636C14.25 39.7685 14.25 39.7735 14.25 39.7784C14.25 39.7834 14.25 39.7884 14.25 39.7934C14.25 39.7984 14.25 39.8034 14.25 39.8084C14.25 39.8135 14.25 39.8185 14.25 39.8236C14.25 39.8287 14.25 39.8338 14.25 39.8389C14.25 39.844 14.25 39.8491 14.25 39.8543C14.25 39.8594 14.25 39.8646 14.25 39.8698C14.25 39.875 14.25 39.8802 14.25 39.8854C14.25 39.8907 14.25 39.8959 14.25 39.9012C14.25 39.9064 14.25 39.9117 14.25 39.917C14.25 39.9223 14.25 39.9276 14.25 39.933C14.25 39.9383 14.25 39.9436 14.25 39.949C14.25 39.9544 14.25 39.9598 14.25 39.9652C14.25 39.9706 14.25 39.976 14.25 39.9815C14.25 39.9869 14.25 39.9924 14.25 39.9979C14.25 40.0033 14.25 40.0088 14.25 40.0143C14.25 40.0199 14.25 40.0254 14.25 40.0309C14.25 40.0365 14.25 40.042 14.25 40.0476C14.25 40.0532 14.25 40.0588 14.25 40.0644C14.25 40.07 14.25 40.0757 14.25 40.0813C14.25 40.087 14.25 40.0927 14.25 40.0983C14.25 40.104 14.25 40.1097 14.25 40.1155C14.25 40.1212 14.25 40.1269 14.25 40.1327C14.25 40.1384 14.25 40.1442 14.25 40.15C14.25 40.1558 14.25 40.1616 14.25 40.1674C14.25 40.1732 14.25 40.179 14.25 40.1849C14.25 40.1907 14.25 40.1966 14.25 40.2025C14.25 40.2084 14.25 40.2143 14.25 40.2202C14.25 40.2261 14.25 40.232 14.25 40.238C14.25 40.2439 14.25 40.2499 14.25 40.2559C14.25 40.2619 14.25 40.2679 14.25 40.2739C14.25 40.2799 14.25 40.2859 14.25 40.2919C14.25 40.298 14.25 40.304 14.25 40.3101C14.25 40.3162 14.25 40.3223 14.25 40.3284C14.25 40.3345 14.25 40.3406 14.25 40.3468C14.25 40.3529 14.25 40.359 14.25 40.3652C14.25 40.3714 14.25 40.3776 14.25 40.3837C14.25 40.3899 14.25 40.3962 14.25 40.4024C14.25 40.4086 14.25 40.4148 14.25 40.4211C14.25 40.4274 14.25 40.4336 14.25 40.4399C14.25 40.4462 14.25 40.4525 14.25 40.4588C14.25 40.4651 14.25 40.4715 14.25 40.4778C14.25 40.4841 14.25 40.4905 14.25 40.4969C14.25 40.5032 14.25 40.5096 14.25 40.516C14.25 40.5224 14.25 40.5289 14.25 40.5353C14.25 40.5417 14.25 40.5481 14.25 40.5546C14.25 40.5611 14.25 40.5675 14.25 40.574C14.25 40.5805 14.25 40.587 14.25 40.5935C14.25 40.6 14.25 40.6066 14.25 40.6131C14.25 40.6196 14.25 40.6262 14.25 40.6328C14.25 40.6393 14.25 40.6459 14.25 40.6525C14.25 40.6591 14.25 40.6657 14.25 40.6723C14.25 40.6789 14.25 40.6856 14.25 40.6922C14.25 40.6989 14.25 40.7055 14.25 40.7122C14.25 40.7189 14.25 40.7255 14.25 40.7322C14.25 40.7389 14.25 40.7457 14.25 40.7524C14.25 40.7591 14.25 40.7658 14.25 40.7726C14.25 40.7793 14.25 40.7861 14.25 40.7929C14.25 40.7997 14.25 40.8064 14.25 40.8132C14.25 40.82 14.25 40.8269 14.25 40.8337C14.25 40.8405 14.25 40.8473 14.25 40.8542C14.25 40.861 14.25 40.8679 14.25 40.8748C14.25 40.8816 14.25 40.8885 14.25 40.8954C14.25 40.9023 14.25 40.9092 14.25 40.9161C14.25 40.9231 14.25 40.93 14.25 40.937C14.25 40.9439 14.25 40.9509 14.25 40.9578C14.25 40.9648 14.25 40.9718 14.25 40.9788C14.25 40.9857 14.25 40.9927 14.25 40.9998C14.25 41.0068 14.25 41.0138 14.25 41.0208C14.25 41.0279 14.25 41.0349 14.25 41.042C14.25 41.049 14.25 41.0561 14.25 41.0632C14.25 41.0703 14.25 41.0774 14.25 41.0845C14.25 41.0916 14.25 41.0987 14.25 41.1058C14.25 41.1129 14.25 41.1201 14.25 41.1272C14.25 41.1344 14.25 41.1415 14.25 41.1487C14.25 41.1558 14.25 41.163 14.25 41.1702C14.25 41.1774 14.25 41.1846 14.25 41.1918C14.25 41.199 14.25 41.2062 14.25 41.2135C14.25 41.2207 14.25 41.2279 14.25 41.2352C14.25 41.2424 14.25 41.2497 14.25 41.257C14.25 41.2642 14.25 41.2715 14.25 41.2788C14.25 41.2861 14.25 41.2934 14.25 41.3007C14.25 41.308 14.25 41.3153 14.25 41.3227C14.25 41.33 14.25 41.3373 14.25 41.3447C14.25 41.352 14.25 41.3594 14.25 41.3667C14.25 41.3741 14.25 41.3815 14.25 41.3889C14.25 41.3962 14.25 41.4036 14.25 41.411C14.25 41.4184 14.25 41.4259 14.25 41.4333C14.25 41.4407 14.25 41.4481 14.25 41.4556C14.25 41.463 14.25 41.4705 14.25 41.4779C14.25 41.4854 14.25 41.4928 14.25 41.5003C14.25 41.5078 14.25 41.5153 14.25 41.5228C14.25 41.5303 14.25 41.5378 14.25 41.5453C14.25 41.5528 14.25 41.5603 14.25 41.5678C14.25 41.5753 14.25 41.5829 14.25 41.5904C14.25 41.5979 14.25 41.6055 14.25 41.6131C14.25 41.6206 14.25 41.6282 14.25 41.6358C14.25 41.6433 14.25 41.6509 14.25 41.6585C14.25 41.6661 14.25 41.6737 14.25 41.6813C14.25 41.6889 14.25 41.6965 14.25 41.7041C14.25 41.7118 14.25 41.7194 14.25 41.727C14.25 41.7346 14.25 41.7423 14.25 41.7499C14.25 41.7576 14.25 41.7653 14.25 41.7729C14.25 41.7806 14.25 41.7883 14.25 41.7959C14.25 41.8036 14.25 41.8113 14.25 41.819C14.25 41.8267 14.25 41.8344 14.25 41.8421C14.25 41.8498 14.25 41.8575 14.25 41.8652C14.25 41.873 14.25 41.8807 14.25 41.8884C14.25 41.8962 14.25 41.9039 14.25 41.9116C14.25 41.9194 14.25 41.9271 14.25 41.9349C14.25 41.9427 14.25 41.9504 14.25 41.9582C14.25 41.966 14.25 41.9738 14.25 41.9815C14.25 41.9893 14.25 41.9971 14.25 42.0049C14.25 42.0127 14.25 42.0205 14.25 42.0283C14.25 42.0361 14.25 42.044 14.25 42.0518C14.25 42.0596 14.25 42.0674 14.25 42.0753C14.25 42.0831 14.25 42.0909 14.25 42.0988C14.25 42.1066 14.25 42.1145 14.25 42.1223C14.25 42.1302 14.25 42.138 14.25 42.1459C14.25 42.1538 14.25 42.1616 14.25 42.1695C14.25 42.1774 14.25 42.1853 14.25 42.1932C14.25 42.2011 14.25 42.209 14.25 42.2169C14.25 42.2247 14.25 42.2327 14.25 42.2406C14.25 42.2485 14.25 42.2564 14.25 42.2643C14.25 42.2722 14.25 42.2801 14.25 42.2881C14.25 42.296 14.25 42.3039 14.25 42.3119C14.25 42.3198 14.25 42.3277 14.25 42.3357C14.25 42.3436 14.25 42.3516 14.25 42.3595C14.25 42.3675 14.25 42.3754 14.25 42.3834C14.25 42.3914 14.25 42.3993 14.25 42.4073C14.25 42.4153 14.25 42.4232 14.25 42.4312C14.25 42.4392 14.25 42.4472 14.25 42.4552C14.25 42.4631 14.25 42.4711 14.25 42.4791C14.25 42.4871 14.25 42.4951 14.25 42.5031C14.25 42.5111 14.25 42.5191 14.25 42.5271C14.25 42.5351 14.25 42.5432 14.25 42.5512C14.25 42.5592 14.25 42.5672 14.25 42.5752C14.25 42.5832 14.25 42.5913 14.25 42.5993C14.25 42.6073 14.25 42.6154 14.25 42.6234C14.25 42.6314 14.25 42.6395 14.25 42.6475C14.25 42.6555 14.25 42.6636 14.25 42.6716C14.25 42.6797 14.25 42.6877 14.25 42.6958C14.25 42.7038 14.25 42.7119 14.25 42.7199C14.25 42.728 14.25 42.736 14.25 42.7441C14.25 42.7522 14.25 42.7602 14.25 42.7683C14.25 42.7764 14.25 42.7844 14.25 42.7925C14.25 42.8006 14.25 42.8086 14.25 42.8167C14.25 42.8248 14.25 42.8329 14.25 42.8409C14.25 42.849 14.25 42.8571 14.25 42.8652C14.25 42.8733 14.25 42.8814 14.25 42.8894C14.25 42.8975 14.25 42.9056 14.25 42.9137C14.25 42.9218 14.25 42.9299 14.25 42.938C14.25 42.9461 14.25 42.9542 14.25 42.9622C14.25 42.9703 14.25 42.9784 14.25 42.9865C14.25 42.9946 14.25 43.0027 14.25 43.0108C14.25 43.0189 14.25 43.027 14.25 43.0351C14.25 43.0432 14.25 43.0513 14.25 43.0594C14.25 43.0675 14.25 43.0757 14.25 43.0838C14.25 43.0919 14.25 43.1 14.25 43.1081C14.25 43.1162 14.25 43.1243 14.25 43.1324C14.25 43.1405 14.25 43.1486 14.25 43.1567C14.25 43.1648 14.25 43.1729 14.25 43.1811C14.25 43.1892 14.25 43.1973 14.25 43.2054C14.25 43.2135 14.25 43.2216 14.25 43.2297C14.25 43.2378 14.25 43.2459 14.25 43.254C14.25 43.2622 14.25 43.2703 14.25 43.2784C14.25 43.2865 14.25 43.2946 14.25 43.3027C14.25 43.3108 14.25 43.3189 14.25 43.327C14.25 43.3351 14.25 43.3433 14.25 43.3514C14.25 43.3595 14.25 43.3676 14.25 43.3757C14.25 43.3838 14.25 43.3919 14.25 43.4C14.25 43.4081 14.25 43.4162 14.25 43.4243C14.25 43.4324 14.25 43.4405 14.25 43.4486C14.25 43.4567 14.25 43.4648 14.25 43.4729C14.25 43.481 14.25 43.4891 14.25 43.4972C14.25 43.5053 14.25 43.5134 14.25 43.5215C14.25 43.5296 14.25 43.5377 14.25 43.5458C14.25 43.5539 14.25 43.562 14.25 43.5701C14.25 43.5782 14.25 43.5862 14.25 43.5943C14.25 43.6024 14.25 43.6105 14.25 43.6186C14.25 43.6267 14.25 43.6347 14.25 43.6428C14.25 43.6509 14.25 43.659 14.25 43.667C14.25 43.6751 14.25 43.6832 14.25 43.6913C14.25 43.6993 14.25 43.7074 14.25 43.7155C14.25 43.7235 14.25 43.7316 14.25 43.7397C14.25 43.7477 14.25 43.7558 14.25 43.7638C14.25 43.7719 14.25 43.7799 14.25 43.788C14.25 43.796 14.25 43.8041 14.25 43.8121C14.25 43.8202 14.25 43.8282 14.25 43.8363C14.25 43.8443 14.25 43.8523 14.25 43.8604C14.25 43.8684 14.25 43.8764 14.25 43.8845C14.25 43.8925 14.25 43.9005 14.25 43.9085C14.25 43.9166 14.25 43.9246 14.25 43.9326C14.25 43.9406 14.25 43.9486 14.25 43.9566C14.25 43.9646 14.25 43.9726 14.25 43.9806C14.25 43.9886 14.25 43.9966 14.25 44.0046C14.25 44.0126 14.25 44.0206 14.25 44.0286C14.25 44.0366 14.25 44.0446 14.25 44.0526C14.25 44.0605 14.25 44.0685 14.25 44.0765C14.25 44.0844 14.25 44.0924 14.25 44.1004C14.25 44.1083 14.25 44.1163 14.25 44.1243C14.25 44.1322 14.25 44.1402 14.25 44.1481C14.25 44.156 14.25 44.164 14.25 44.1719C14.25 44.1799 14.25 44.1878 14.25 44.1957C14.25 44.2036 14.25 44.2116 14.25 44.2195C14.25 44.2274 14.25 44.2353 14.25 44.2432C14.25 44.2511 14.25 44.259 14.25 44.2669C14.25 44.2748 14.25 44.2827 14.25 44.2906C14.25 44.2985 14.25 44.3064 14.25 44.3143C14.25 44.3221 14.25 44.33 14.25 44.3379C14.25 44.3457 14.25 44.3536 14.25 44.3615C14.25 44.3693 14.25 44.3772 14.25 44.385C14.25 44.3929 14.25 44.4007 14.25 44.4085C14.25 44.4164 14.25 44.4242 14.25 44.432C14.25 44.4398 14.25 44.4477 14.25 44.4555C14.25 44.4633 14.25 44.4711 14.25 44.4789C14.25 44.4867 14.25 44.4945 14.25 44.5023C14.25 44.51 14.25 44.5178 14.25 44.5256C14.25 44.5334 14.25 44.5411 14.25 44.5489C14.25 44.5567 14.25 44.5644 14.25 44.5722C14.25 44.5799 14.25 44.5877 14.25 44.5954C14.25 44.6031 14.25 44.6108 14.25 44.6186C14.25 44.6263 14.25 44.634 14.25 44.6417C14.25 44.6494 14.25 44.6571 14.25 44.6648C14.25 44.6725 14.25 44.6802 14.25 44.6879C14.25 44.6956 14.25 44.7032 14.25 44.7109C14.25 44.7186 14.25 44.7262 14.25 44.7339C14.25 44.7415 14.25 44.7492 14.25 44.7568C14.25 44.7644 14.25 44.7721 14.25 44.7797C14.25 44.7873 14.25 44.7949 14.25 44.8025C14.25 44.8101 14.25 44.8177 14.25 44.8253C14.25 44.8329 14.25 44.8405 14.25 44.8481C14.25 44.8556 14.25 44.8632 14.25 44.8708C14.25 44.8783 14.25 44.8859 14.25 44.8934C14.25 44.901 14.25 44.9085 14.25 44.916C14.25 44.9235 14.25 44.9311 14.25 44.9386C14.25 44.9461 14.25 44.9536 14.25 44.9611C14.25 44.9686 14.25 44.976 14.25 44.9835C14.25 44.991 14.25 44.9985 14.25 45.0059C14.25 45.0134 14.25 45.0208 14.25 45.0283C14.25 45.0357 14.25 45.0431 14.25 45.0506C14.25 45.058 14.25 45.0654 14.25 45.0728C14.25 45.0802 14.25 45.0876 14.25 45.095C14.25 45.1024 14.25 45.1097 14.25 45.1171C14.25 45.1245 14.25 45.1318 14.25 45.1392C14.25 45.1465 14.25 45.1539 14.25 45.1612C14.25 45.1685 14.25 45.1758 14.25 45.1832C14.25 45.1905 14.25 45.1978 14.25 45.2051C14.25 45.2123 14.25 45.2196 14.25 45.2269C14.25 45.2342 14.25 45.2414 14.25 45.2487C14.25 45.2559 14.25 45.2632 14.25 45.2704C14.25 45.2776 14.25 45.2848 14.25 45.292C14.25 45.2993 14.25 45.3065 14.25 45.3136C14.25 45.3208 14.25 45.328 14.25 45.3352C14.25 45.3424 14.25 45.3495 14.25 45.3567C14.25 45.3638 14.25 45.3709 14.25 45.3781C14.25 45.3852 14.25 45.3923 14.25 45.3994C14.25 45.4065 14.25 45.4136 14.25 45.4207C14.25 45.4278 14.25 45.4348 14.25 45.4419C14.25 45.449 14.25 45.456 14.25 45.463C14.25 45.4701 14.25 45.4771 14.25 45.4841C14.25 45.4911 14.25 45.4981 14.25 45.5051C14.25 45.5121 14.25 45.5191 14.25 45.5261C14.25 45.533 14.25 45.54 14.25 45.5469C14.25 45.5539 14.25 45.5608 14.25 45.5677C14.25 45.5747 14.25 45.5816 14.25 45.5885C14.25 45.5954 14.25 45.6023 14.25 45.6091C14.25 45.616 14.25 45.6229 14.25 45.6297C14.25 45.6366 14.25 45.6434 14.25 45.6502C14.25 45.6571 14.25 45.6639 14.25 45.6707C14.25 45.6775 14.25 45.6843 14.25 45.691C14.25 45.6978 14.25 45.7046 14.25 45.7113C14.25 45.7181 14.25 45.7248 14.25 45.7315C14.25 45.7383 14.25 45.745 14.25 45.7517C14.25 45.7584 14.25 45.7651 14.25 45.7717C14.25 45.7784 14.25 45.7851 14.25 45.7917C14.25 45.7984 14.25 45.805 14.25 45.8116C14.25 45.8182 14.25 45.8248 14.25 45.8314C14.25 45.838 14.25 45.8446 14.25 45.8512C14.25 45.8577 14.25 45.8643 14.25 45.8708C14.25 45.8774 14.25 45.8839 14.25 45.8904C14.25 45.8969 14.25 45.9034 14.25 45.9099C14.25 45.9164 14.25 45.9229 14.25 45.9293C14.25 45.9358 14.25 45.9422 14.25 45.9487C14.25 45.9551 14.25 45.9615 14.25 45.9679C14.25 45.9743 14.25 45.9807 14.25 45.9871C14.25 45.9935 14.25 45.9998 14.25 46.0062C14.25 46.0125 14.25 46.0188 14.25 46.0251C14.25 46.0315 14.25 46.0378 14.25 46.044C14.25 46.0503 14.25 46.0566 14.25 46.0629C14.25 46.0691 14.25 46.0754 14.25 46.0816C14.25 46.0878 14.25 46.094 14.25 46.1002C14.25 46.1064 14.25 46.1126 14.25 46.1188C14.25 46.1249 14.25 46.1311 14.25 46.1372C14.25 46.1434 14.25 46.1495 14.25 46.1556C14.25 46.1617 14.25 46.1678 14.25 46.1739C14.25 46.1799 14.25 46.186 14.25 46.192C14.25 46.1981 14.25 46.2041 14.25 46.2101C14.25 46.2161 14.25 46.2221 14.25 46.2281C14.25 46.2341 14.25 46.2401 14.25 46.246C14.25 46.252 14.25 46.2579 14.25 46.2638C14.25 46.2697 14.25 46.2756 14.25 46.2815C14.25 46.2874 14.25 46.2933 14.25 46.2991C14.25 46.305 14.25 46.3108 14.25 46.3166C14.25 46.3225 14.25 46.3283 14.25 46.3341C14.25 46.3398 14.25 46.3456 14.25 46.3514C14.25 46.3571 14.25 46.3629 14.25 46.3686C14.25 46.3743 14.25 46.38 14.25 46.3857C14.25 46.3914 14.25 46.397 14.25 46.4027C14.25 46.4084 14.25 46.414 14.25 46.4196C14.25 46.4252 14.25 46.4308 14.25 46.4364C14.25 46.442 14.25 46.4476 14.25 46.4531C14.25 46.4587 14.25 46.4642 14.25 46.4697C14.25 46.4752 14.25 46.4807 14.25 46.4862C14.25 46.4917 14.25 46.4972 14.25 46.5026C14.25 46.508 14.25 46.5135 14.25 46.5189C14.25 46.5243 14.25 46.5297 14.25 46.535C14.25 46.5404 14.25 46.5458 14.25 46.5511C14.25 46.5565 14.25 46.5618 14.25 46.5671C14.25 46.5724 14.25 46.5777 14.25 46.5829C14.25 46.5882 14.25 46.5934 14.25 46.5987C14.25 46.6039 14.25 46.6091 14.25 46.6143C14.25 46.6195 14.25 46.6247 14.25 46.6298C14.25 46.635 14.25 46.6401 14.25 46.6452C14.25 46.6503 14.25 46.6554 14.25 46.6605C14.25 46.6656 14.25 46.6706 14.25 46.6757C14.25 46.6807 14.25 46.6857 14.25 46.6907C14.25 46.6958 14.25 46.7007 14.25 46.7057C14.25 46.7107 14.25 46.7156 14.25 46.7205C14.25 46.7255 14.25 46.7304 14.25 46.7353C14.25 46.7401 14.25 46.745 14.25 46.7499C14.25 46.7547 14.25 46.7595 14.25 46.7643C14.25 46.7691 14.25 46.7739 14.25 46.7787C14.25 46.7835 14.25 46.7882 14.25 46.7929C14.25 46.7977 14.25 46.8024 14.25 46.8071C14.25 46.8118 14.25 46.8164 14.25 46.8211C14.25 46.8257 14.25 46.8304 14.25 46.835C14.25 46.8396 14.25 46.8442 14.25 46.8487C14.25 46.8533 14.25 46.8578 14.25 46.8624C14.25 46.8669 14.25 46.8714 14.25 46.8759C14.25 46.8804 14.25 46.8848 14.25 46.8893C14.25 46.8937 14.25 46.8982 14.25 46.9026C14.25 46.907 14.25 46.9113 14.25 46.9157C14.25 46.9201 14.25 46.9244 14.25 46.9287C14.25 46.933 14.25 46.9373 14.25 46.9416C14.25 46.9459 14.25 46.9501 14.25 46.9544C14.25 46.9586 14.25 46.9628 14.25 46.967C14.25 46.9712 14.25 46.9754 14.25 46.9795C14.25 46.9837 14.25 46.9878 14.25 46.9919C14.25 46.996 14.25 47.0001 14.25 47.0041C14.25 47.0082 14.25 47.0122 14.25 47.0163C14.25 47.0203 14.25 47.0243 14.25 47.0282C14.25 47.0322 14.25 47.0362 14.25 47.0401C14.25 47.044 14.25 47.0479 14.25 47.0518C14.25 47.0557 14.25 47.0596 14.25 47.0634C14.25 47.0672 14.25 47.0711 14.25 47.0748C14.25 47.0786 14.25 47.0824 14.25 47.0862C14.25 47.0899 14.25 47.0936 14.25 47.0973C14.25 47.101 14.25 47.1047 14.25 47.1084C14.25 47.112 14.25 47.1157 14.25 47.1193C14.25 47.1229 14.25 47.1265 14.25 47.1301C14.25 47.1336 14.25 47.1372 14.25 47.1407C14.25 47.1442 14.25 47.1477 14.25 47.1512C14.25 47.1546 14.25 47.1581 14.25 47.1615C14.25 47.1649 14.25 47.1684 14.25 47.1717C14.25 47.1751 14.25 47.1785 14.25 47.1818C14.25 47.1851 14.25 47.1884 14.25 47.1917C14.25 47.195 14.25 47.1983 14.25 47.2015C14.25 47.2047 14.25 47.2079 14.25 47.2111C14.25 47.2143 14.25 47.2175 14.25 47.2206C14.25 47.2238 14.25 47.2269 14.25 47.23C14.25 47.2331 14.25 47.2361 14.25 47.2392C14.25 47.2422 14.25 47.2452 14.25 47.2482C14.25 47.2512 14.25 47.2542 14.25 47.2571C14.25 47.2601 14.25 47.263 14.25 47.2659C14.25 47.2688 14.25 47.2717 14.25 47.2745C14.25 47.2774 14.25 47.2802 14.25 47.283C14.25 47.2858 14.25 47.2885 14.25 47.2913C14.25 47.294 14.25 47.2967 14.25 47.2994C14.25 47.3021 14.25 47.3048 14.25 47.3075C14.25 47.3101 14.25 47.3127 14.25 47.3153C14.25 47.3179 14.25 47.3205 14.25 47.323C14.25 47.3256 14.25 47.3281 14.25 47.3306C14.25 47.3331 14.25 47.3355 14.25 47.338C14.25 47.3404 14.25 47.3428 14.25 47.3452C14.25 47.3476 14.25 47.35 14.25 47.3523C14.25 47.3546 14.25 47.3569 14.25 47.3592C14.25 47.3615 14.25 47.3638 14.25 47.366C14.25 47.3682 14.25 47.3704 14.25 47.3726C14.25 47.3748 14.25 47.3769 14.25 47.3791C14.25 47.3812 14.25 47.3833 14.25 47.3854C14.25 47.3874 14.25 47.3895 14.25 47.3915C14.25 47.3935 14.25 47.3955 14.25 47.3975C14.25 47.3994 14.25 47.4014 14.25 47.4033C14.25 47.4052 14.25 47.4071 14.25 47.4089C14.25 47.4108 14.25 47.4126 14.25 47.4144C14.25 47.4162 14.25 47.418 14.25 47.4198C14.25 47.4215 14.25 47.4232 14.25 47.4249C14.25 47.4266 14.25 47.4283 14.25 47.4299C14.25 47.4315 14.25 47.4332 14.25 47.4347C14.25 47.4363 14.25 47.4379 14.25 47.4394C14.25 47.4409 14.25 47.4424 14.25 47.4439C14.25 47.4454 14.25 47.4468 14.25 47.4482C14.25 47.4496 14.25 47.451 14.25 47.4524C14.25 47.4538 14.25 47.4551 14.25 47.4564C14.25 47.4577 14.25 47.459 14.25 47.4602C14.25 47.4615 14.25 47.4627 14.25 47.4639C14.25 47.4651 14.25 47.4662 14.25 47.4673C14.25 47.4685 14.25 47.4696 14.25 47.4707C14.25 47.4717 14.25 47.4728 14.25 47.4738C14.25 47.4748 14.25 47.4758 14.25 47.4768C14.25 47.4777 14.25 47.4786 14.25 47.4795C14.25 47.4804 14.25 47.4813 14.25 47.4822C14.25 47.483 14.25 47.4838 14.25 47.4846C14.25 47.4854 14.25 47.4861 14.25 47.4869C14.25 47.4876 14.25 47.4883 14.25 47.4889C14.25 47.4896 14.25 47.4902 14.25 47.4908C14.25 47.4915 14.25 47.492 14.25 47.4926C14.25 47.4931 14.25 47.4936 14.25 47.4941C14.25 47.4946 14.25 47.4951 14.25 47.4955C14.25 47.4959 14.25 47.4963 14.25 47.4967C14.25 47.4971 14.25 47.4974 14.25 47.4977C14.25 47.498 14.25 47.4983 14.25 47.4985C14.25 47.4988 14.25 47.499 14.25 47.4992C14.25 47.4994 14.25 47.4995 14.25 47.4996C14.25 47.4998 14.25 47.4998 14.25 47.4999C14.25 47.5 14.25 47.5 15 47.5C15.75 47.5 15.75 47.5 15.75 47.4999C15.75 47.4998 15.75 47.4998 15.75 47.4996C15.75 47.4995 15.75 47.4994 15.75 47.4992C15.75 47.499 15.75 47.4988 15.75 47.4985C15.75 47.4983 15.75 47.498 15.75 47.4977C15.75 47.4974 15.75 47.4971 15.75 47.4967C15.75 47.4963 15.75 47.4959 15.75 47.4955C15.75 47.4951 15.75 47.4946 15.75 47.4941C15.75 47.4936 15.75 47.4931 15.75 47.4926C15.75 47.492 15.75 47.4915 15.75 47.4908C15.75 47.4902 15.75 47.4896 15.75 47.4889C15.75 47.4883 15.75 47.4876 15.75 47.4869C15.75 47.4861 15.75 47.4854 15.75 47.4846C15.75 47.4838 15.75 47.483 15.75 47.4822C15.75 47.4813 15.75 47.4804 15.75 47.4795C15.75 47.4786 15.75 47.4777 15.75 47.4768C15.75 47.4758 15.75 47.4748 15.75 47.4738C15.75 47.4728 15.75 47.4717 15.75 47.4707C15.75 47.4696 15.75 47.4685 15.75 47.4673C15.75 47.4662 15.75 47.4651 15.75 47.4639C15.75 47.4627 15.75 47.4615 15.75 47.4602C15.75 47.459 15.75 47.4577 15.75 47.4564C15.75 47.4551 15.75 47.4538 15.75 47.4524C15.75 47.451 15.75 47.4496 15.75 47.4482C15.75 47.4468 15.75 47.4454 15.75 47.4439C15.75 47.4424 15.75 47.4409 15.75 47.4394C15.75 47.4379 15.75 47.4363 15.75 47.4347C15.75 47.4332 15.75 47.4315 15.75 47.4299C15.75 47.4283 15.75 47.4266 15.75 47.4249C15.75 47.4232 15.75 47.4215 15.75 47.4198C15.75 47.418 15.75 47.4162 15.75 47.4144C15.75 47.4126 15.75 47.4108 15.75 47.4089C15.75 47.4071 15.75 47.4052 15.75 47.4033C15.75 47.4014 15.75 47.3994 15.75 47.3975C15.75 47.3955 15.75 47.3935 15.75 47.3915C15.75 47.3895 15.75 47.3874 15.75 47.3854C15.75 47.3833 15.75 47.3812 15.75 47.3791C15.75 47.3769 15.75 47.3748 15.75 47.3726C15.75 47.3704 15.75 47.3682 15.75 47.366C15.75 47.3638 15.75 47.3615 15.75 47.3592C15.75 47.3569 15.75 47.3546 15.75 47.3523C15.75 47.35 15.75 47.3476 15.75 47.3452C15.75 47.3428 15.75 47.3404 15.75 47.338C15.75 47.3355 15.75 47.3331 15.75 47.3306C15.75 47.3281 15.75 47.3256 15.75 47.323C15.75 47.3205 15.75 47.3179 15.75 47.3153C15.75 47.3127 15.75 47.3101 15.75 47.3075C15.75 47.3048 15.75 47.3021 15.75 47.2994C15.75 47.2967 15.75 47.294 15.75 47.2913C15.75 47.2885 15.75 47.2858 15.75 47.283C15.75 47.2802 15.75 47.2774 15.75 47.2745C15.75 47.2717 15.75 47.2688 15.75 47.2659C15.75 47.263 15.75 47.2601 15.75 47.2571C15.75 47.2542 15.75 47.2512 15.75 47.2482C15.75 47.2452 15.75 47.2422 15.75 47.2392C15.75 47.2361 15.75 47.2331 15.75 47.23C15.75 47.2269 15.75 47.2238 15.75 47.2206C15.75 47.2175 15.75 47.2143 15.75 47.2111C15.75 47.2079 15.75 47.2047 15.75 47.2015C15.75 47.1983 15.75 47.195 15.75 47.1917C15.75 47.1884 15.75 47.1851 15.75 47.1818C15.75 47.1785 15.75 47.1751 15.75 47.1717C15.75 47.1684 15.75 47.1649 15.75 47.1615C15.75 47.1581 15.75 47.1546 15.75 47.1512C15.75 47.1477 15.75 47.1442 15.75 47.1407C15.75 47.1372 15.75 47.1336 15.75 47.1301C15.75 47.1265 15.75 47.1229 15.75 47.1193C15.75 47.1157 15.75 47.112 15.75 47.1084C15.75 47.1047 15.75 47.101 15.75 47.0973C15.75 47.0936 15.75 47.0899 15.75 47.0862C15.75 47.0824 15.75 47.0786 15.75 47.0748C15.75 47.0711 15.75 47.0672 15.75 47.0634C15.75 47.0596 15.75 47.0557 15.75 47.0518C15.75 47.0479 15.75 47.044 15.75 47.0401C15.75 47.0362 15.75 47.0322 15.75 47.0282C15.75 47.0243 15.75 47.0203 15.75 47.0163C15.75 47.0122 15.75 47.0082 15.75 47.0041C15.75 47.0001 15.75 46.996 15.75 46.9919C15.75 46.9878 15.75 46.9837 15.75 46.9795C15.75 46.9754 15.75 46.9712 15.75 46.967C15.75 46.9628 15.75 46.9586 15.75 46.9544C15.75 46.9501 15.75 46.9459 15.75 46.9416C15.75 46.9373 15.75 46.933 15.75 46.9287C15.75 46.9244 15.75 46.9201 15.75 46.9157C15.75 46.9113 15.75 46.907 15.75 46.9026C15.75 46.8982 15.75 46.8937 15.75 46.8893C15.75 46.8848 15.75 46.8804 15.75 46.8759C15.75 46.8714 15.75 46.8669 15.75 46.8624C15.75 46.8578 15.75 46.8533 15.75 46.8487C15.75 46.8442 15.75 46.8396 15.75 46.835C15.75 46.8304 15.75 46.8257 15.75 46.8211C15.75 46.8164 15.75 46.8118 15.75 46.8071C15.75 46.8024 15.75 46.7977 15.75 46.7929C15.75 46.7882 15.75 46.7835 15.75 46.7787C15.75 46.7739 15.75 46.7691 15.75 46.7643C15.75 46.7595 15.75 46.7547 15.75 46.7499C15.75 46.745 15.75 46.7401 15.75 46.7353C15.75 46.7304 15.75 46.7255 15.75 46.7205C15.75 46.7156 15.75 46.7107 15.75 46.7057C15.75 46.7007 15.75 46.6958 15.75 46.6907C15.75 46.6857 15.75 46.6807 15.75 46.6757C15.75 46.6706 15.75 46.6656 15.75 46.6605C15.75 46.6554 15.75 46.6503 15.75 46.6452C15.75 46.6401 15.75 46.635 15.75 46.6298C15.75 46.6247 15.75 46.6195 15.75 46.6143C15.75 46.6091 15.75 46.6039 15.75 46.5987C15.75 46.5934 15.75 46.5882 15.75 46.5829C15.75 46.5777 15.75 46.5724 15.75 46.5671C15.75 46.5618 15.75 46.5565 15.75 46.5511C15.75 46.5458 15.75 46.5404 15.75 46.535C15.75 46.5297 15.75 46.5243 15.75 46.5189C15.75 46.5135 15.75 46.508 15.75 46.5026C15.75 46.4972 15.75 46.4917 15.75 46.4862C15.75 46.4807 15.75 46.4752 15.75 46.4697C15.75 46.4642 15.75 46.4587 15.75 46.4531C15.75 46.4476 15.75 46.442 15.75 46.4364C15.75 46.4308 15.75 46.4252 15.75 46.4196C15.75 46.414 15.75 46.4084 15.75 46.4027C15.75 46.397 15.75 46.3914 15.75 46.3857C15.75 46.38 15.75 46.3743 15.75 46.3686C15.75 46.3629 15.75 46.3571 15.75 46.3514C15.75 46.3456 15.75 46.3398 15.75 46.3341C15.75 46.3283 15.75 46.3225 15.75 46.3166C15.75 46.3108 15.75 46.305 15.75 46.2991C15.75 46.2933 15.75 46.2874 15.75 46.2815C15.75 46.2756 15.75 46.2697 15.75 46.2638C15.75 46.2579 15.75 46.252 15.75 46.246C15.75 46.2401 15.75 46.2341 15.75 46.2281C15.75 46.2221 15.75 46.2161 15.75 46.2101C15.75 46.2041 15.75 46.1981 15.75 46.192C15.75 46.186 15.75 46.1799 15.75 46.1739C15.75 46.1678 15.75 46.1617 15.75 46.1556C15.75 46.1495 15.75 46.1434 15.75 46.1372C15.75 46.1311 15.75 46.1249 15.75 46.1188C15.75 46.1126 15.75 46.1064 15.75 46.1002C15.75 46.094 15.75 46.0878 15.75 46.0816C15.75 46.0754 15.75 46.0691 15.75 46.0629C15.75 46.0566 15.75 46.0503 15.75 46.044C15.75 46.0378 15.75 46.0315 15.75 46.0251C15.75 46.0188 15.75 46.0125 15.75 46.0062C15.75 45.9998 15.75 45.9935 15.75 45.9871C15.75 45.9807 15.75 45.9743 15.75 45.9679C15.75 45.9615 15.75 45.9551 15.75 45.9487C15.75 45.9422 15.75 45.9358 15.75 45.9293C15.75 45.9229 15.75 45.9164 15.75 45.9099C15.75 45.9034 15.75 45.8969 15.75 45.8904C15.75 45.8839 15.75 45.8774 15.75 45.8708C15.75 45.8643 15.75 45.8577 15.75 45.8512C15.75 45.8446 15.75 45.838 15.75 45.8314C15.75 45.8248 15.75 45.8182 15.75 45.8116C15.75 45.805 15.75 45.7984 15.75 45.7917C15.75 45.7851 15.75 45.7784 15.75 45.7717C15.75 45.7651 15.75 45.7584 15.75 45.7517C15.75 45.745 15.75 45.7383 15.75 45.7315C15.75 45.7248 15.75 45.7181 15.75 45.7113C15.75 45.7046 15.75 45.6978 15.75 45.691C15.75 45.6843 15.75 45.6775 15.75 45.6707C15.75 45.6639 15.75 45.6571 15.75 45.6502C15.75 45.6434 15.75 45.6366 15.75 45.6297C15.75 45.6229 15.75 45.616 15.75 45.6091C15.75 45.6023 15.75 45.5954 15.75 45.5885C15.75 45.5816 15.75 45.5747 15.75 45.5677C15.75 45.5608 15.75 45.5539 15.75 45.5469C15.75 45.54 15.75 45.533 15.75 45.5261C15.75 45.5191 15.75 45.5121 15.75 45.5051C15.75 45.4981 15.75 45.4911 15.75 45.4841C15.75 45.4771 15.75 45.4701 15.75 45.463C15.75 45.456 15.75 45.449 15.75 45.4419C15.75 45.4348 15.75 45.4278 15.75 45.4207C15.75 45.4136 15.75 45.4065 15.75 45.3994C15.75 45.3923 15.75 45.3852 15.75 45.3781C15.75 45.3709 15.75 45.3638 15.75 45.3567C15.75 45.3495 15.75 45.3424 15.75 45.3352C15.75 45.328 15.75 45.3208 15.75 45.3136C15.75 45.3065 15.75 45.2993 15.75 45.292C15.75 45.2848 15.75 45.2776 15.75 45.2704C15.75 45.2632 15.75 45.2559 15.75 45.2487C15.75 45.2414 15.75 45.2342 15.75 45.2269C15.75 45.2196 15.75 45.2123 15.75 45.2051C15.75 45.1978 15.75 45.1905 15.75 45.1832C15.75 45.1758 15.75 45.1685 15.75 45.1612C15.75 45.1539 15.75 45.1465 15.75 45.1392C15.75 45.1318 15.75 45.1245 15.75 45.1171C15.75 45.1097 15.75 45.1024 15.75 45.095C15.75 45.0876 15.75 45.0802 15.75 45.0728C15.75 45.0654 15.75 45.058 15.75 45.0506C15.75 45.0431 15.75 45.0357 15.75 45.0283C15.75 45.0208 15.75 45.0134 15.75 45.0059C15.75 44.9985 15.75 44.991 15.75 44.9835C15.75 44.976 15.75 44.9686 15.75 44.9611C15.75 44.9536 15.75 44.9461 15.75 44.9386C15.75 44.9311 15.75 44.9235 15.75 44.916C15.75 44.9085 15.75 44.901 15.75 44.8934C15.75 44.8859 15.75 44.8783 15.75 44.8708C15.75 44.8632 15.75 44.8556 15.75 44.8481C15.75 44.8405 15.75 44.8329 15.75 44.8253C15.75 44.8177 15.75 44.8101 15.75 44.8025C15.75 44.7949 15.75 44.7873 15.75 44.7797C15.75 44.7721 15.75 44.7644 15.75 44.7568C15.75 44.7492 15.75 44.7415 15.75 44.7339C15.75 44.7262 15.75 44.7186 15.75 44.7109C15.75 44.7032 15.75 44.6956 15.75 44.6879C15.75 44.6802 15.75 44.6725 15.75 44.6648C15.75 44.6571 15.75 44.6494 15.75 44.6417C15.75 44.634 15.75 44.6263 15.75 44.6186C15.75 44.6108 15.75 44.6031 15.75 44.5954C15.75 44.5877 15.75 44.5799 15.75 44.5722C15.75 44.5644 15.75 44.5567 15.75 44.5489C15.75 44.5411 15.75 44.5334 15.75 44.5256C15.75 44.5178 15.75 44.51 15.75 44.5023C15.75 44.4945 15.75 44.4867 15.75 44.4789C15.75 44.4711 15.75 44.4633 15.75 44.4555C15.75 44.4477 15.75 44.4398 15.75 44.432C15.75 44.4242 15.75 44.4164 15.75 44.4085C15.75 44.4007 15.75 44.3929 15.75 44.385C15.75 44.3772 15.75 44.3693 15.75 44.3615C15.75 44.3536 15.75 44.3457 15.75 44.3379C15.75 44.33 15.75 44.3221 15.75 44.3143C15.75 44.3064 15.75 44.2985 15.75 44.2906C15.75 44.2827 15.75 44.2748 15.75 44.2669C15.75 44.259 15.75 44.2511 15.75 44.2432C15.75 44.2353 15.75 44.2274 15.75 44.2195C15.75 44.2116 15.75 44.2036 15.75 44.1957C15.75 44.1878 15.75 44.1799 15.75 44.1719C15.75 44.164 15.75 44.156 15.75 44.1481C15.75 44.1402 15.75 44.1322 15.75 44.1243C15.75 44.1163 15.75 44.1083 15.75 44.1004C15.75 44.0924 15.75 44.0844 15.75 44.0765C15.75 44.0685 15.75 44.0605 15.75 44.0526C15.75 44.0446 15.75 44.0366 15.75 44.0286C15.75 44.0206 15.75 44.0126 15.75 44.0046C15.75 43.9966 15.75 43.9886 15.75 43.9806C15.75 43.9726 15.75 43.9646 15.75 43.9566C15.75 43.9486 15.75 43.9406 15.75 43.9326C15.75 43.9246 15.75 43.9166 15.75 43.9085C15.75 43.9005 15.75 43.8925 15.75 43.8845C15.75 43.8764 15.75 43.8684 15.75 43.8604C15.75 43.8523 15.75 43.8443 15.75 43.8363C15.75 43.8282 15.75 43.8202 15.75 43.8121C15.75 43.8041 15.75 43.796 15.75 43.788C15.75 43.7799 15.75 43.7719 15.75 43.7638C15.75 43.7558 15.75 43.7477 15.75 43.7397C15.75 43.7316 15.75 43.7235 15.75 43.7155C15.75 43.7074 15.75 43.6993 15.75 43.6913C15.75 43.6832 15.75 43.6751 15.75 43.667C15.75 43.659 15.75 43.6509 15.75 43.6428C15.75 43.6347 15.75 43.6267 15.75 43.6186C15.75 43.6105 15.75 43.6024 15.75 43.5943C15.75 43.5862 15.75 43.5782 15.75 43.5701C15.75 43.562 15.75 43.5539 15.75 43.5458C15.75 43.5377 15.75 43.5296 15.75 43.5215C15.75 43.5134 15.75 43.5053 15.75 43.4972C15.75 43.4891 15.75 43.481 15.75 43.4729C15.75 43.4648 15.75 43.4567 15.75 43.4486C15.75 43.4405 15.75 43.4324 15.75 43.4243C15.75 43.4162 15.75 43.4081 15.75 43.4C15.75 43.3919 15.75 43.3838 15.75 43.3757C15.75 43.3676 15.75 43.3595 15.75 43.3514C15.75 43.3433 15.75 43.3351 15.75 43.327C15.75 43.3189 15.75 43.3108 15.75 43.3027C15.75 43.2946 15.75 43.2865 15.75 43.2784C15.75 43.2703 15.75 43.2622 15.75 43.254C15.75 43.2459 15.75 43.2378 15.75 43.2297C15.75 43.2216 15.75 43.2135 15.75 43.2054C15.75 43.1973 15.75 43.1892 15.75 43.1811C15.75 43.1729 15.75 43.1648 15.75 43.1567C15.75 43.1486 15.75 43.1405 15.75 43.1324C15.75 43.1243 15.75 43.1162 15.75 43.1081C15.75 43.1 15.75 43.0919 15.75 43.0838C15.75 43.0757 15.75 43.0675 15.75 43.0594C15.75 43.0513 15.75 43.0432 15.75 43.0351C15.75 43.027 15.75 43.0189 15.75 43.0108C15.75 43.0027 15.75 42.9946 15.75 42.9865C15.75 42.9784 15.75 42.9703 15.75 42.9622C15.75 42.9542 15.75 42.9461 15.75 42.938C15.75 42.9299 15.75 42.9218 15.75 42.9137C15.75 42.9056 15.75 42.8975 15.75 42.8894C15.75 42.8814 15.75 42.8733 15.75 42.8652C15.75 42.8571 15.75 42.849 15.75 42.8409C15.75 42.8329 15.75 42.8248 15.75 42.8167C15.75 42.8086 15.75 42.8006 15.75 42.7925C15.75 42.7844 15.75 42.7764 15.75 42.7683C15.75 42.7602 15.75 42.7522 15.75 42.7441C15.75 42.736 15.75 42.728 15.75 42.7199C15.75 42.7119 15.75 42.7038 15.75 42.6958C15.75 42.6877 15.75 42.6797 15.75 42.6716C15.75 42.6636 15.75 42.6555 15.75 42.6475C15.75 42.6395 15.75 42.6314 15.75 42.6234C15.75 42.6154 15.75 42.6073 15.75 42.5993C15.75 42.5913 15.75 42.5832 15.75 42.5752C15.75 42.5672 15.75 42.5592 15.75 42.5512C15.75 42.5432 15.75 42.5351 15.75 42.5271C15.75 42.5191 15.75 42.5111 15.75 42.5031C15.75 42.4951 15.75 42.4871 15.75 42.4791C15.75 42.4711 15.75 42.4631 15.75 42.4552C15.75 42.4472 15.75 42.4392 15.75 42.4312C15.75 42.4232 15.75 42.4153 15.75 42.4073C15.75 42.3993 15.75 42.3914 15.75 42.3834C15.75 42.3754 15.75 42.3675 15.75 42.3595C15.75 42.3516 15.75 42.3436 15.75 42.3357C15.75 42.3277 15.75 42.3198 15.75 42.3119C15.75 42.3039 15.75 42.296 15.75 42.2881C15.75 42.2801 15.75 42.2722 15.75 42.2643C15.75 42.2564 15.75 42.2485 15.75 42.2406C15.75 42.2327 15.75 42.2247 15.75 42.2169C15.75 42.209 15.75 42.2011 15.75 42.1932C15.75 42.1853 15.75 42.1774 15.75 42.1695C15.75 42.1616 15.75 42.1538 15.75 42.1459C15.75 42.138 15.75 42.1302 15.75 42.1223C15.75 42.1145 15.75 42.1066 15.75 42.0988C15.75 42.0909 15.75 42.0831 15.75 42.0753C15.75 42.0674 15.75 42.0596 15.75 42.0518C15.75 42.044 15.75 42.0361 15.75 42.0283C15.75 42.0205 15.75 42.0127 15.75 42.0049C15.75 41.9971 15.75 41.9893 15.75 41.9815C15.75 41.9738 15.75 41.966 15.75 41.9582C15.75 41.9504 15.75 41.9427 15.75 41.9349C15.75 41.9271 15.75 41.9194 15.75 41.9116C15.75 41.9039 15.75 41.8962 15.75 41.8884C15.75 41.8807 15.75 41.873 15.75 41.8652C15.75 41.8575 15.75 41.8498 15.75 41.8421C15.75 41.8344 15.75 41.8267 15.75 41.819C15.75 41.8113 15.75 41.8036 15.75 41.7959C15.75 41.7883 15.75 41.7806 15.75 41.7729C15.75 41.7653 15.75 41.7576 15.75 41.7499C15.75 41.7423 15.75 41.7346 15.75 41.727C15.75 41.7194 15.75 41.7118 15.75 41.7041C15.75 41.6965 15.75 41.6889 15.75 41.6813C15.75 41.6737 15.75 41.6661 15.75 41.6585C15.75 41.6509 15.75 41.6433 15.75 41.6358C15.75 41.6282 15.75 41.6206 15.75 41.6131C15.75 41.6055 15.75 41.5979 15.75 41.5904C15.75 41.5829 15.75 41.5753 15.75 41.5678C15.75 41.5603 15.75 41.5528 15.75 41.5453C15.75 41.5378 15.75 41.5303 15.75 41.5228C15.75 41.5153 15.75 41.5078 15.75 41.5003C15.75 41.4928 15.75 41.4854 15.75 41.4779C15.75 41.4705 15.75 41.463 15.75 41.4556C15.75 41.4481 15.75 41.4407 15.75 41.4333C15.75 41.4259 15.75 41.4184 15.75 41.411C15.75 41.4036 15.75 41.3962 15.75 41.3889C15.75 41.3815 15.75 41.3741 15.75 41.3667C15.75 41.3594 15.75 41.352 15.75 41.3447C15.75 41.3373 15.75 41.33 15.75 41.3227C15.75 41.3153 15.75 41.308 15.75 41.3007C15.75 41.2934 15.75 41.2861 15.75 41.2788C15.75 41.2715 15.75 41.2642 15.75 41.257C15.75 41.2497 15.75 41.2424 15.75 41.2352C15.75 41.2279 15.75 41.2207 15.75 41.2135C15.75 41.2062 15.75 41.199 15.75 41.1918C15.75 41.1846 15.75 41.1774 15.75 41.1702C15.75 41.163 15.75 41.1558 15.75 41.1487C15.75 41.1415 15.75 41.1344 15.75 41.1272C15.75 41.1201 15.75 41.1129 15.75 41.1058C15.75 41.0987 15.75 41.0916 15.75 41.0845C15.75 41.0774 15.75 41.0703 15.75 41.0632C15.75 41.0561 15.75 41.049 15.75 41.042C15.75 41.0349 15.75 41.0279 15.75 41.0208C15.75 41.0138 15.75 41.0068 15.75 40.9998C15.75 40.9927 15.75 40.9857 15.75 40.9788C15.75 40.9718 15.75 40.9648 15.75 40.9578C15.75 40.9509 15.75 40.9439 15.75 40.937C15.75 40.93 15.75 40.9231 15.75 40.9161C15.75 40.9092 15.75 40.9023 15.75 40.8954C15.75 40.8885 15.75 40.8816 15.75 40.8748C15.75 40.8679 15.75 40.861 15.75 40.8542C15.75 40.8473 15.75 40.8405 15.75 40.8337C15.75 40.8269 15.75 40.82 15.75 40.8132C15.75 40.8064 15.75 40.7997 15.75 40.7929C15.75 40.7861 15.75 40.7793 15.75 40.7726C15.75 40.7658 15.75 40.7591 15.75 40.7524C15.75 40.7457 15.75 40.7389 15.75 40.7322C15.75 40.7255 15.75 40.7189 15.75 40.7122C15.75 40.7055 15.75 40.6989 15.75 40.6922C15.75 40.6856 15.75 40.6789 15.75 40.6723C15.75 40.6657 15.75 40.6591 15.75 40.6525C15.75 40.6459 15.75 40.6393 15.75 40.6328C15.75 40.6262 15.75 40.6196 15.75 40.6131C15.75 40.6066 15.75 40.6 15.75 40.5935C15.75 40.587 15.75 40.5805 15.75 40.574C15.75 40.5675 15.75 40.5611 15.75 40.5546C15.75 40.5481 15.75 40.5417 15.75 40.5353C15.75 40.5289 15.75 40.5224 15.75 40.516C15.75 40.5096 15.75 40.5032 15.75 40.4969C15.75 40.4905 15.75 40.4841 15.75 40.4778C15.75 40.4715 15.75 40.4651 15.75 40.4588C15.75 40.4525 15.75 40.4462 15.75 40.4399C15.75 40.4336 15.75 40.4274 15.75 40.4211C15.75 40.4148 15.75 40.4086 15.75 40.4024C15.75 40.3962 15.75 40.3899 15.75 40.3837C15.75 40.3776 15.75 40.3714 15.75 40.3652C15.75 40.359 15.75 40.3529 15.75 40.3468C15.75 40.3406 15.75 40.3345 15.75 40.3284C15.75 40.3223 15.75 40.3162 15.75 40.3101C15.75 40.304 15.75 40.298 15.75 40.2919C15.75 40.2859 15.75 40.2799 15.75 40.2739C15.75 40.2679 15.75 40.2619 15.75 40.2559C15.75 40.2499 15.75 40.2439 15.75 40.238C15.75 40.232 15.75 40.2261 15.75 40.2202C15.75 40.2143 15.75 40.2084 15.75 40.2025C15.75 40.1966 15.75 40.1907 15.75 40.1849C15.75 40.179 15.75 40.1732 15.75 40.1674C15.75 40.1616 15.75 40.1558 15.75 40.15C15.75 40.1442 15.75 40.1384 15.75 40.1327C15.75 40.1269 15.75 40.1212 15.75 40.1155C15.75 40.1097 15.75 40.104 15.75 40.0983C15.75 40.0927 15.75 40.087 15.75 40.0813C15.75 40.0757 15.75 40.07 15.75 40.0644C15.75 40.0588 15.75 40.0532 15.75 40.0476C15.75 40.042 15.75 40.0365 15.75 40.0309C15.75 40.0254 15.75 40.0199 15.75 40.0143C15.75 40.0088 15.75 40.0033 15.75 39.9979C15.75 39.9924 15.75 39.9869 15.75 39.9815C15.75 39.976 15.75 39.9706 15.75 39.9652C15.75 39.9598 15.75 39.9544 15.75 39.949C15.75 39.9436 15.75 39.9383 15.75 39.933C15.75 39.9276 15.75 39.9223 15.75 39.917C15.75 39.9117 15.75 39.9064 15.75 39.9012C15.75 39.8959 15.75 39.8907 15.75 39.8854C15.75 39.8802 15.75 39.875 15.75 39.8698C15.75 39.8646 15.75 39.8594 15.75 39.8543C15.75 39.8491 15.75 39.844 15.75 39.8389C15.75 39.8338 15.75 39.8287 15.75 39.8236C15.75 39.8185 15.75 39.8135 15.75 39.8084C15.75 39.8034 15.75 39.7984 15.75 39.7934C15.75 39.7884 15.75 39.7834 15.75 39.7784C15.75 39.7735 15.75 39.7685 15.75 39.7636C15.75 39.7587 15.75 39.7538 15.75 39.7489C15.75 39.744 15.75 39.7391 15.75 39.7343C15.75 39.7294 15.75 39.7246 15.75 39.7198C15.75 39.715 15.75 39.7102 15.75 39.7054C15.75 39.7007 15.75 39.6959 15.75 39.6912C15.75 39.6865 15.75 39.6818 15.75 39.6771C15.75 39.6724 15.75 39.6677 15.75 39.6631C15.75 39.6584 15.75 39.6538 15.75 39.6492C15.75 39.6446 15.75 39.64 15.75 39.6354C15.75 39.6309 15.75 39.6263 15.75 39.6218C15.75 39.6173 15.75 39.6128 15.75 39.6083C15.75 39.6038 15.75 39.5993 15.75 39.5949C15.75 39.5904 15.75 39.586 15.75 39.5816C15.75 39.5772 15.75 39.5728 15.75 39.5685C15.75 39.5641 15.75 39.5598 15.75 39.5555C15.75 39.5512 15.75 39.5469 15.75 39.5426C15.75 39.5383 15.75 39.5341 15.75 39.5298C15.75 39.5256 15.75 39.5214 15.75 39.5172C15.75 39.513 15.75 39.5088 15.75 39.5047C15.75 39.5005 15.75 39.4964 15.75 39.4923C15.75 39.4882 15.75 39.4841 15.75 39.4801C15.75 39.476 15.75 39.472 15.75 39.468C15.75 39.464 15.75 39.46 15.75 39.456C15.75 39.452 15.75 39.4481 15.75 39.4441C15.75 39.4402 15.75 39.4363 15.75 39.4324C15.75 39.4285 15.75 39.4247 15.75 39.4208C15.75 39.417 15.75 39.4132 15.75 39.4094C15.75 39.4056 15.75 39.4018 15.75 39.3981C15.75 39.3943 15.75 39.3906 15.75 39.3869C15.75 39.3832 15.75 39.3795 15.75 39.3759C15.75 39.3722 15.75 39.3686 15.75 39.365C15.75 39.3614 15.75 39.3578 15.75 39.3542C15.75 39.3507 15.75 39.3471 15.75 39.3436C15.75 39.3401 15.75 39.3366 15.75 39.3331C15.75 39.3296 15.75 39.3262 15.75 39.3228C15.75 39.3193 15.75 39.3159 15.75 39.3126C15.75 39.3092 15.75 39.3058 15.75 39.3025C15.75 39.2992 15.75 39.2959 15.75 39.2926C15.75 39.2893 15.75 39.286 15.75 39.2828C15.75 39.2796 15.75 39.2764 15.75 39.2732C15.75 39.27 15.75 39.2668 15.75 39.2637C15.75 39.2606 15.75 39.2574 15.75 39.2544C15.75 39.2513 15.75 39.2482 15.75 39.2452C15.75 39.2421 15.75 39.2391 15.75 39.2361C15.75 39.2331 15.75 39.2301 15.75 39.2272C15.75 39.2243 15.75 39.2213 15.75 39.2185C15.75 39.2156 15.75 39.2127 15.75 39.2098C15.75 39.207 15.75 39.2042 15.75 39.2014C15.75 39.1986 15.75 39.1958 15.75 39.1931C15.75 39.1903 15.75 39.1876 15.75 39.1849C15.75 39.1822 15.75 39.1796 15.75 39.1769C15.75 39.1743 15.75 39.1717 15.75 39.1691C15.75 39.1665 15.75 39.1639 15.75 39.1614C15.75 39.1588 15.75 39.1563 15.75 39.1538C15.75 39.1513 15.75 39.1489 15.75 39.1464C15.75 39.144 15.75 39.1416 15.75 39.1392C15.75 39.1368 15.75 39.1345 15.75 39.1321C15.75 39.1298 15.75 39.1275 15.75 39.1252C15.75 39.1229 15.75 39.1207 15.75 39.1184C15.75 39.1162 15.75 39.114 15.75 39.1118C15.75 39.1097 15.75 39.1075 15.75 39.1054C15.75 39.1033 15.75 39.1012 15.75 39.0991C15.75 39.097 15.75 39.095 15.75 39.093C15.75 39.0909 15.75 39.089 15.75 39.087C15.75 39.085 15.75 39.0831 15.75 39.0812C15.75 39.0793 15.75 39.0774 15.75 39.0755C15.75 39.0737 15.75 39.0719 15.75 39.0701C15.75 39.0683 15.75 39.0665 15.75 39.0647C15.75 39.063 15.75 39.0613 15.75 39.0596C15.75 39.0579 15.75 39.0562 15.75 39.0546C15.75 39.0529 15.75 39.0513 15.75 39.0498C15.75 39.0482 15.75 39.0466 15.75 39.0451C15.75 39.0436 15.75 39.0421 15.75 39.0406C15.75 39.0391 15.75 39.0377 15.75 39.0363C15.75 39.0349 15.75 39.0335 15.75 39.0321C15.75 39.0308 15.75 39.0294 15.75 39.0281C15.75 39.0268 15.75 39.0256 15.75 39.0243C15.75 39.0231 15.75 39.0219 15.75 39.0207C15.75 39.0195 15.75 39.0183 15.75 39.0172C15.75 39.0161 15.75 39.015 15.75 39.0139C15.75 39.0128 15.75 39.0118 15.75 39.0108C15.75 39.0098 15.75 39.0088 15.75 39.0078C15.75 39.0069 15.75 39.0059 15.75 39.005C15.75 39.0041 15.75 39.0033 15.75 39.0024C15.75 39.0016 15.75 39.0008 15.75 39H14.25ZM24 49.75H7.5V51.25H24V49.75ZM24.75 50.5V42H23.25V50.5H24.75ZM15 39.75H33V38.25H15V39.75ZM33 39.75H49.5V38.25H33V39.75ZM32.25 39V47.5H33.75V39H32.25ZM49.5 49.75H42V51.25H49.5V49.75ZM42 49.75H24V51.25H42V49.75ZM42.75 50.5V42H41.25V50.5H42.75ZM47.5077 2.25C48.1943 2.25 48.75 2.80588 48.75 3.5H50.25C50.25 1.98498 49.0302 0.75 47.5077 0.75V2.25ZM8.49668 0.75C6.97627 0.75 5.75 1.98284 5.75 3.5H7.25C7.25 2.80802 7.80795 2.25 8.49668 2.25V0.75Z" fill="#FFED00"/>
</svg>
