<svg width="74" height="58" viewBox="0 0 74 58" fill="none" xmlns="http://www.w3.org/2000/svg">
<path fill-rule="evenodd" clip-rule="evenodd" d="M37 51.198C37 47.4238 39.9947 44.3958 43.7273 44.3958C47.373 44.4397 50.3677 47.4238 50.4545 51.198C50.3677 54.928 47.373 57.9561 43.7273 58C39.9947 57.9124 37 54.8843 37 51.198ZM40.0381 51.1541C39.9513 53.5237 41.644 55.4109 43.7273 55.4546C45.7237 55.4546 47.4164 53.5237 47.4164 51.1541C47.4164 48.7402 45.7237 46.8533 43.7273 46.8533C41.644 46.8533 39.9947 48.7842 40.0381 51.1541Z" fill="black"/>
<path d="M62.2273 45.2461H51.2955V47.5489H55.3949V58.0001H58.2601V47.5489H62.2273V45.2461Z" fill="black"/>
<path fill-rule="evenodd" clip-rule="evenodd" d="M65.675 45.2461H69.0807L74 58H70.7625L69.7534 55.1316H64.7921L63.783 58H60.5455L65.675 45.2461ZM65.675 52.925H67.3989H69.1227L67.3989 48.2471L65.675 52.925Z" fill="black"/>
<path d="M0 47.5489H3.6807V58.0001H6.41021V47.5489H10.0909V45.2461H0V47.5489Z" fill="black"/>
<path fill-rule="evenodd" clip-rule="evenodd" d="M10.9318 51.198C10.9318 47.4238 13.8927 44.3958 17.6373 44.3958C21.2949 44.4397 24.2993 47.4238 24.3864 51.198C24.2993 54.928 21.2949 57.9561 17.6373 58C13.9362 57.9124 10.9318 54.8843 10.9318 51.198ZM13.9362 51.1541C13.8927 53.5237 15.5473 55.4109 17.6373 55.4546C19.6838 55.4546 21.3384 53.5237 21.3384 51.1541C21.3384 48.7402 19.6838 46.8533 17.6373 46.8533C15.5473 46.8533 13.8927 48.7842 13.9362 51.1541Z" fill="black"/>
<path d="M30.7147 50.6045L27.7443 45.2461H24.3864L29.2941 53.1288V58.0001H30.7147H32.0923V53.1288L37 45.2461H33.8574L30.7147 50.6045Z" fill="black"/>
<path fill-rule="evenodd" clip-rule="evenodd" d="M33.5979 0.126465C33.6409 0.0739746 33.6786 0.027832 33.7343 0C33.7229 0.0227051 33.7086 0.0424805 33.6921 0.060791C33.6681 0.0876465 33.6394 0.111328 33.6086 0.136719C33.5799 0.1604 33.5493 0.185791 33.5188 0.216553C33.5493 0.185791 33.5744 0.155029 33.5979 0.126465ZM28.13 10.8665C23.5604 10.0439 20.2409 8.57202 19.2494 6.88354C19.0338 6.53735 18.9476 6.19092 18.9476 5.84448C18.9476 5.62817 18.9907 5.41162 19.0769 5.19531C19.9391 2.77075 25.5865 0.736084 32.9152 0.216553C30.6735 2.25122 28.9491 6.06104 28.13 10.8665ZM36.1916 3.29004C36.2562 3.29004 36.3209 3.2793 36.3855 3.26855C36.4502 3.25781 36.5149 3.24683 36.5795 3.24683C36.6336 3.24683 36.6876 3.25439 36.7416 3.26318L36.7739 3.26831C36.8384 3.2793 36.903 3.29004 36.9675 3.29004C36.8382 3.24683 36.7089 3.24683 36.5795 3.24683C36.4502 3.24683 36.3209 3.24683 36.1916 3.29004ZM39.0368 4.63232C38.7782 4.37256 38.5626 4.15625 38.304 3.9397C38.4966 4.0686 38.6653 4.24561 38.8457 4.43481L38.9328 4.52563C38.9668 4.56104 39.0014 4.59668 39.0368 4.63232ZM32.5703 11.4292C33.8636 11.5159 35.2431 11.5591 36.5795 11.5591C37.916 11.5591 39.2524 11.5159 40.5888 11.4292C39.8559 7.48975 38.3039 5.02197 36.5795 5.02197C34.812 5.02197 33.3032 7.44629 32.5703 11.4292ZM33.3032 12.3169C33.1308 12.3062 32.9583 12.2952 32.7859 12.2952C33.1308 12.3384 33.4756 12.3384 33.8205 12.3384C33.6481 12.3384 33.4756 12.3276 33.3032 12.3169ZM41.1026 12.2485C41.2061 12.2427 41.3096 12.2366 41.4132 12.2285C41.4832 12.2229 41.5533 12.2166 41.6234 12.2087C41.5037 12.2236 41.3788 12.2334 41.2487 12.2417L41.1026 12.2485ZM39.0799 12.3818C38.7351 12.3818 38.4333 12.425 38.0884 12.425C38.4333 12.3818 38.7782 12.3818 39.0799 12.3818ZM31.4926 12.2087C31.6219 11.1697 31.7944 10.2605 32.0099 9.35132C31.7944 10.2173 31.6219 11.1697 31.4926 12.2087ZM32.0099 9.35132L32.1645 8.84546L32.2744 8.48047C32.351 8.22339 32.4224 7.97656 32.4841 7.74951C32.3117 8.22583 32.1392 8.78857 32.0099 9.35132ZM37.0538 3.29028C37.1831 3.3335 37.3124 3.3335 37.4417 3.37695C37.3124 3.37695 37.1831 3.3335 37.0538 3.29028ZM37.4849 3.42017C37.6142 3.46338 37.7004 3.50684 37.8298 3.59326C37.7004 3.55005 37.6142 3.46338 37.4849 3.42017ZM38.2177 3.89648C38.1322 3.81055 38.0042 3.72485 37.876 3.63892L37.8728 3.63672C37.9165 3.65137 37.9602 3.67065 38.0023 3.69507L38.0291 3.71167C38.0455 3.72217 38.0616 3.73364 38.0773 3.74585C38.1303 3.78711 38.1785 3.8374 38.2177 3.89648ZM34.1654 4.63232C34.3809 4.37256 34.6396 4.11279 34.8551 3.9397C34.5965 4.11279 34.3809 4.32935 34.1654 4.63232ZM33.1611 6.11865C33.1348 6.16919 33.1098 6.22192 33.0877 6.27734C33.217 6.06104 33.3032 5.8877 33.3894 5.7146C33.3562 5.78125 33.3167 5.8479 33.2756 5.91699L33.223 6.00659C33.202 6.04297 33.1811 6.08032 33.1611 6.11865ZM33.7774 5.15161C33.9068 4.97852 33.993 4.84863 34.1223 4.71875C33.993 4.80542 33.8636 4.97852 33.7774 5.15161ZM33.4756 0.259766L33.1308 0.606201C33.2601 0.519531 33.3463 0.389648 33.4756 0.259766ZM33.0876 0.692627C33.0606 0.733398 33.0335 0.769775 33.0064 0.804688L32.9581 0.865967C32.9156 0.919434 32.873 0.9729 32.8305 1.03687C32.9162 0.907715 33.0019 0.778809 33.0876 0.692627ZM27.5265 11.689C27.3109 11.6458 27.1385 11.6023 26.9229 11.5591C27.0954 11.6023 27.3109 11.6458 27.5265 11.689ZM26.7505 11.5159C26.5781 11.4727 26.3625 11.4292 26.1901 11.386C26.3625 11.4727 26.535 11.5159 26.7505 11.5159ZM24.3656 10.9626C24.8747 11.1309 25.4254 11.2585 26.0176 11.386L25.7874 11.333C25.3057 11.2227 24.8056 11.1079 24.3656 10.9626ZM23.9268 10.8447C23.8514 10.823 23.7759 10.8013 23.6897 10.7798C23.8165 10.8223 23.9835 10.8643 24.1526 10.9067L24.112 10.8965L24.0396 10.8767L23.9268 10.8447ZM22.9137 10.5632C22.612 10.4768 22.3533 10.3901 22.0946 10.2603C22.2234 10.3035 22.3628 10.3572 22.5023 10.4109C22.643 10.4653 22.7838 10.5198 22.9137 10.5632ZM21.7066 10.1089C21.7605 10.1306 21.8144 10.1523 21.8791 10.1738C21.7942 10.1313 21.6681 10.0886 21.5409 10.0461C21.6026 10.0669 21.6546 10.0879 21.7066 10.1089ZM21.3186 9.95728C21.2324 9.91406 21.1031 9.87061 21.0169 9.82739L21.0197 9.82886C21.1049 9.87158 21.1907 9.91455 21.3186 9.95728ZM20.6113 9.63232C20.6603 9.65869 20.7092 9.6814 20.7582 9.69775C20.6799 9.67798 20.6105 9.64941 20.55 9.61597C20.4772 9.57568 20.4173 9.52856 20.3702 9.4812L20.4204 9.51465C20.4639 9.54346 20.5075 9.57178 20.551 9.5979L20.6113 9.63232ZM19.3764 9.01074L19.4015 9.02759L19.4033 9.02905C19.4347 9.0498 19.4663 9.0708 19.508 9.09155C19.4962 9.07983 19.4811 9.06787 19.4636 9.05591L19.4431 9.04272L19.4048 9.02002L19.3519 8.99219L19.3336 8.98364C19.3488 8.99268 19.3628 9.00171 19.3764 9.01074ZM32.6096 1.24756C32.6363 1.20361 32.6644 1.16089 32.6996 1.12549C32.6565 1.21216 32.5703 1.34204 32.4841 1.42847C32.5021 1.4104 32.5183 1.39038 32.5333 1.36938L32.5455 1.35156L32.56 1.32935L32.5925 1.27612L32.6096 1.24756ZM32.3979 1.55859C32.3117 1.64526 32.2686 1.77515 32.1824 1.90503C32.2686 1.77515 32.3117 1.68848 32.3979 1.55859ZM31.5357 3.03052C31.7081 2.68408 31.8806 2.33765 32.0961 2.03467C32.0481 2.1189 31.9967 2.20679 31.9438 2.29688L31.9371 2.30835C31.8538 2.45068 31.7669 2.59888 31.6839 2.74927C31.6324 2.84253 31.5825 2.93652 31.5357 3.03052ZM31.3526 3.33691L31.3132 3.42358C31.2896 3.47607 31.2645 3.53198 31.2339 3.59326C31.2645 3.53198 31.295 3.47607 31.3236 3.42383C31.3758 3.32837 31.4216 3.24438 31.4495 3.1604C31.4321 3.18652 31.4165 3.21265 31.4019 3.23926C31.3844 3.271 31.3684 3.30347 31.3526 3.33691ZM31.1908 3.7666C31.1477 3.89648 31.0615 4.02637 31.0184 4.19946C31.0615 4.02637 31.1046 3.89648 31.1908 3.7666ZM30.9322 4.3291C30.8459 4.5022 30.8028 4.67554 30.7166 4.84863C30.7597 4.67554 30.8459 4.5022 30.9322 4.3291ZM29.9406 7.1001C29.8975 7.27319 29.8544 7.44653 29.7682 7.66284C29.8544 7.48975 29.8975 7.31665 29.9406 7.1001ZM29.7049 8.11865L29.721 8.05688C29.739 7.9856 29.7555 7.9126 29.7682 7.83594C29.682 8.05249 29.6389 8.31226 29.5957 8.57202C29.5095 8.83179 29.4664 9.04834 29.4233 9.30811C29.4664 9.04834 29.5526 8.83179 29.5957 8.57202C29.6173 8.44214 29.6496 8.32324 29.682 8.2041L29.7049 8.11865ZM29.3155 9.7627L29.3406 9.6499L29.3635 9.55029L29.3802 9.4812C29.3371 9.69775 29.294 9.87085 29.2509 10.0439C29.2724 9.95752 29.2939 9.86011 29.3155 9.7627ZM29.2077 10.3037L29.189 10.3962C29.153 10.572 29.1215 10.7251 29.1215 10.9099C29.1646 10.6934 29.2077 10.4768 29.2077 10.3037ZM40.5457 34.3311C43.6496 31.3438 45.5464 24.8933 45.5464 17.3604C45.5464 17.3604 45.5464 16.3645 45.5033 16.1047C53.22 14.6763 58.5656 11.4724 59.5571 7.70605C62.8766 10.5635 64.6441 13.9402 64.6441 17.4468C64.6872 25.9756 54.3408 33.1621 40.5457 34.3311ZM41.6665 12.2085C41.3216 9.48096 40.6319 7.22974 39.7266 5.7146C40.6319 7.22974 41.2785 9.48096 41.6665 12.2085ZM45.0291 10.8665C49.5987 10.0439 52.9182 8.57202 53.9097 6.88354C54.0822 6.53735 54.2115 6.19092 54.2546 5.84448C54.2546 5.62817 54.2115 5.41162 54.1253 5.19531C53.2631 2.77075 47.6157 0.736084 40.287 0.216553C42.4856 2.25122 44.21 6.06104 45.0291 10.8665ZM40.0283 0.649414C40.0854 0.706787 40.134 0.755615 40.1779 0.803467C40.2337 0.864258 40.2819 0.92334 40.3301 0.99585C40.3064 0.971924 40.2826 0.94458 40.2579 0.915283L40.2106 0.857666L40.1702 0.808105C40.1283 0.757324 40.082 0.703369 40.0283 0.649414ZM43.9514 10.3037C43.9514 10.4309 43.9662 10.5432 43.9873 10.6582L44.0026 10.7378L44.0186 10.8162L44.0376 10.9099C43.9945 10.6934 43.9514 10.4768 43.9514 10.3037ZM43.8435 9.80566L43.8418 9.79761L43.8311 9.73657C43.8568 9.84424 43.8825 9.95801 43.9082 10.0872C43.8867 10.0005 43.8651 9.90308 43.8435 9.80566ZM43.3909 7.83594C43.4771 8.05249 43.5202 8.31226 43.5634 8.57202C43.5202 8.31226 43.434 8.0957 43.3909 7.83594ZM43.1754 7.1001C43.2476 7.24512 43.2896 7.42065 43.3266 7.57544L43.3478 7.66284C43.3286 7.58594 43.3094 7.50903 43.2865 7.42798C43.2684 7.3645 43.248 7.29858 43.2235 7.22852C43.209 7.18726 43.1931 7.14453 43.1754 7.1001ZM42.7011 5.58472L42.4425 4.9353C42.4988 5.02954 42.5387 5.12378 42.573 5.21802C42.5912 5.26807 42.6079 5.31812 42.6245 5.36816C42.6484 5.44043 42.6724 5.51245 42.7011 5.58472ZM42.1407 4.15625C42.0976 4.02637 42.0114 3.89648 41.9683 3.72339C42.0545 3.89648 42.0976 4.02637 42.1407 4.15625ZM41.8821 3.59326C41.7959 3.46338 41.7527 3.3335 41.6665 3.1604C41.7527 3.29028 41.839 3.42017 41.8821 3.59326ZM40.869 1.73193C40.9013 1.78613 40.9337 1.84009 40.9768 1.90503C40.951 1.86621 40.9253 1.8313 40.9008 1.79785C40.843 1.71948 40.7915 1.64966 40.7612 1.55859C40.8043 1.62354 40.8367 1.67773 40.869 1.73193ZM40.6181 1.3584L40.5987 1.32861L40.5671 1.27686C40.5348 1.2229 40.5025 1.1687 40.4594 1.12549C40.4774 1.16162 40.5028 1.20508 40.5325 1.25C40.5743 1.31274 40.6246 1.37793 40.675 1.42847C40.6539 1.40723 40.6353 1.38354 40.6181 1.3584ZM45.988 11.606C45.3943 11.7188 44.8215 11.8274 44.184 11.9036C44.9105 11.8169 45.5945 11.688 46.2362 11.5591L45.988 11.606ZM52.9613 9.43774C52.9022 9.46753 52.838 9.49707 52.7722 9.52686C52.832 9.49561 52.8946 9.4646 52.9613 9.43774ZM52.7722 9.52686L52.7032 9.56348C52.5971 9.62036 52.499 9.67285 52.4009 9.69751C52.4623 9.66675 52.5291 9.63599 52.5975 9.60522L52.681 9.56787L52.6973 9.56055L52.7722 9.52686ZM51.9549 9.91553C52.0298 9.88623 52.0977 9.85669 52.1853 9.82739C52.056 9.87061 51.9267 9.91406 51.8405 9.95728C51.8821 9.94336 51.9193 9.92944 51.9549 9.91553ZM50.9255 10.3323L50.999 10.3044L51.0561 10.282L51.1076 10.2603C50.8058 10.3469 50.4609 10.4768 50.1592 10.6067C50.2239 10.5789 50.2906 10.553 50.3585 10.5283C50.4417 10.498 50.5266 10.4695 50.6117 10.4409L50.6334 10.4336C50.7316 10.4006 50.8298 10.3677 50.9255 10.3323ZM50.1161 10.6067C50.0299 10.6284 49.9544 10.6499 49.879 10.6716C49.8113 10.6912 49.7437 10.7102 49.6683 10.7297L49.7568 10.7073L49.876 10.6765C49.9384 10.6602 49.998 10.6436 50.0523 10.6272L50.1161 10.6067ZM48.8659 10.9531C48.3055 11.1262 47.745 11.2561 47.0984 11.386C47.7019 11.2561 48.3055 11.1262 48.8659 10.9531ZM47.0121 11.4292C46.8397 11.4724 46.6241 11.5159 46.4517 11.5591C46.6241 11.5159 46.7966 11.4724 47.0121 11.4292ZM39.4248 0C39.4805 0.027832 39.5182 0.0739746 39.5612 0.126221C39.5847 0.155029 39.6098 0.185791 39.6404 0.216553C39.6205 0.196533 39.6006 0.178711 39.5813 0.162354L39.5506 0.136719C39.4984 0.09375 39.4526 0.0559082 39.4248 0ZM28.6904 14.936C28.5611 14.936 28.4749 14.8928 28.3456 14.8928C28.4749 14.936 28.5611 14.936 28.6904 14.936ZM26.4918 14.5896C26.3625 14.5461 26.1901 14.5461 26.0607 14.5029C26.2332 14.5029 26.3625 14.5461 26.4918 14.5896ZM25.5865 14.3733C25.4572 14.3298 25.3279 14.3298 25.1554 14.2866L25.2005 14.3013L25.255 14.3191L25.3107 14.3352C25.328 14.3398 25.3456 14.3442 25.3635 14.3481C25.3967 14.3555 25.4311 14.3616 25.4674 14.366C25.5049 14.3706 25.5444 14.3733 25.5865 14.3733ZM23.431 13.8538C23.3017 13.8103 23.1724 13.7671 23.0862 13.7671C23.2155 13.7671 23.3448 13.8103 23.431 13.8538ZM21.1462 13.0745C21.2755 13.1611 21.4049 13.2043 21.4911 13.2043C21.3618 13.1611 21.2755 13.1177 21.1462 13.0745ZM19.8529 12.5984C19.7236 12.5549 19.5511 12.4685 19.4218 12.3818C19.483 12.4126 19.5388 12.438 19.591 12.4617L19.5932 12.4624L19.5984 12.4646C19.6307 12.4795 19.6617 12.4937 19.6919 12.5083C19.7475 12.5349 19.8002 12.563 19.8529 12.5984ZM18.7752 12.0786C18.8614 12.1218 18.9907 12.1653 19.077 12.2085C18.949 12.1658 18.8633 12.1228 18.778 12.0801L18.7752 12.0786ZM18.4303 11.9053C18.3441 11.8621 18.2147 11.7754 18.1285 11.7322C18.2147 11.7754 18.3009 11.8188 18.4303 11.9053ZM18.4303 8.31226C18.4734 8.35547 18.5165 8.35547 18.5596 8.39893C18.4966 8.39893 18.4796 8.37573 18.4582 8.34644L18.4451 8.3291C18.4407 8.32349 18.4358 8.31787 18.4303 8.31226ZM27.6127 16.1482C19.896 14.7197 14.5935 11.5159 13.5589 7.74951C10.2394 10.6069 8.47189 13.9836 8.42879 17.5337C8.42879 26.019 18.7752 33.2056 32.5703 34.3745C29.4664 31.3872 27.5696 24.9368 27.5696 17.4038C27.5696 17.4038 27.6127 16.3647 27.6127 16.1482ZM54.0997 8.75415C54.1155 8.74438 54.1303 8.73438 54.1451 8.72461L54.1541 8.71875L54.1774 8.70337L54.1985 8.68994C54.2155 8.67944 54.2338 8.66895 54.2546 8.65845C54.2325 8.68066 54.1989 8.70288 54.1599 8.7251C54.1406 8.73608 54.12 8.74707 54.0988 8.75806L54.0444 8.78564C54.0648 8.77515 54.0829 8.76465 54.0997 8.75415ZM54.5995 8.44214C54.6426 8.39893 54.6857 8.35547 54.7719 8.31226C54.7288 8.35547 54.6426 8.39893 54.5995 8.44214ZM54.8797 11.7974C54.9444 11.7649 55.009 11.7324 55.0737 11.689C55.0347 11.7283 54.9868 11.7585 54.9301 11.7881C54.8972 11.8052 54.8613 11.8223 54.8224 11.8401L54.8148 11.8438L54.748 11.8752L54.6857 11.9055C54.7029 11.894 54.7202 11.8833 54.7374 11.873L54.7708 11.854L54.7976 11.8394L54.8304 11.8223L54.8797 11.7974ZM54.2788 12.1074L54.2546 12.1221L54.2106 12.1482L54.1907 12.1594L54.1708 12.1682C54.1381 12.1826 54.1082 12.1956 54.0822 12.2085C54.1215 12.1953 54.1569 12.1782 54.1907 12.1594C54.2621 12.1282 54.3445 12.0908 54.427 12.0354C54.4057 12.0425 54.3855 12.0508 54.3661 12.0598L54.3477 12.0691L54.3257 12.0806C54.3098 12.0891 54.2942 12.0981 54.2788 12.1074ZM52.7458 12.8147L52.3578 12.9446C52.5302 12.9014 52.6595 12.8579 52.7458 12.8147ZM51.0214 13.4207C50.8489 13.4639 50.6765 13.5073 50.5472 13.5938C50.5776 13.5835 50.6104 13.5732 50.645 13.5625C50.7576 13.5278 50.8895 13.4871 51.0214 13.4207ZM47.9029 14.313C47.9314 14.3071 47.9599 14.3003 47.9885 14.2915L47.9842 14.293L47.9804 14.2944L47.912 14.3167C47.8831 14.3257 47.8543 14.3345 47.8253 14.342C47.7554 14.3606 47.6856 14.3733 47.6157 14.3733C47.6595 14.3586 47.7032 14.3489 47.747 14.3408L47.8102 14.3296L47.8152 14.3289C47.8445 14.324 47.8737 14.3191 47.9029 14.313ZM47.0553 14.5029C46.9259 14.5461 46.7966 14.5461 46.6673 14.5896C46.7966 14.5461 46.9259 14.5029 47.0553 14.5029ZM46.0858 14.6909C46.0545 14.6975 46.0247 14.7026 45.9959 14.7073L45.9699 14.7144C46.0332 14.7051 46.0954 14.6946 46.1499 14.6763C46.1279 14.6819 46.1065 14.6868 46.0858 14.6909ZM45.8858 14.7268L45.9342 14.7195L45.9364 14.7168C45.8602 14.7283 45.7921 14.7385 45.7228 14.7617C45.7522 14.7522 45.7837 14.7449 45.8163 14.7385C45.839 14.7341 45.8623 14.7305 45.8858 14.7268ZM17.2447 7.0564C17.2488 7.06055 17.2529 7.0647 17.2564 7.06958C17.2615 7.07642 17.2654 7.08472 17.2662 7.09595C17.2637 7.05396 17.2232 7.01343 17.2232 7.01343C17.2232 7.03491 17.234 7.04565 17.2447 7.0564ZM17.0939 6.75366C17.0939 6.73877 17.0889 6.72412 17.0822 6.71094C17.0695 6.68579 17.0508 6.66699 17.0508 6.66699L17.051 6.68579C17.0513 6.6936 17.0521 6.69971 17.0541 6.70532C17.0585 6.71802 17.0691 6.72876 17.0939 6.75366ZM16.9646 6.40723C16.9646 6.36377 16.9646 6.36377 16.9214 6.32056C16.9214 6.36377 16.9214 6.40723 16.9646 6.40723ZM16.9214 10.9961C16.9646 11.0286 17.0077 11.061 17.0508 11.0828C17.0018 11.0337 16.939 10.9985 16.8859 10.9692L16.9214 10.9961ZM16.8842 10.9683C16.8535 10.9458 16.8228 10.925 16.7921 10.9097C16.8105 10.928 16.8446 10.9465 16.8842 10.9683ZM15.7575 10.1089L15.7086 10.0715C15.6817 10.0503 15.655 10.0276 15.6282 10.0005C15.6684 10.0208 15.7087 10.0503 15.749 10.085C15.7949 10.1248 15.8409 10.1709 15.8868 10.217C15.8603 10.1904 15.8339 10.168 15.8074 10.147L15.7575 10.1089ZM13.8607 7.61938C13.8821 7.6626 13.9036 7.71655 13.9251 7.77051C13.9467 7.82471 13.9684 7.87891 13.99 7.92236C13.99 7.85645 13.9398 7.76514 13.8968 7.68701C13.8835 7.66284 13.8709 7.63989 13.8607 7.61938ZM15.0246 9.39453C14.9384 9.30786 14.8091 9.17798 14.7229 9.0481C14.766 9.11304 14.8199 9.16724 14.8737 9.22144C14.9276 9.27563 14.9815 9.32959 15.0246 9.39453ZM59.5571 6.71045C59.5571 6.75366 59.5571 6.79712 59.514 6.84033C59.5164 6.79663 59.526 6.7417 59.5571 6.71045ZM59.514 6.88354C59.514 6.87158 59.5131 6.85718 59.514 6.84033V6.88354ZM58.6518 8.74512C58.6841 8.7019 58.7165 8.65869 58.738 8.61523C58.7061 8.67944 58.6743 8.74341 58.6249 8.80762L58.6021 8.83545C58.5909 8.84863 58.5787 8.86182 58.5656 8.875C58.5871 8.83154 58.6195 8.78833 58.6518 8.74512ZM58.8674 8.44189C58.9105 8.35547 58.9967 8.22559 59.0398 8.13892C58.974 8.20508 58.9333 8.29639 58.8986 8.37427C58.8878 8.39844 58.8776 8.42139 58.8674 8.44189ZM59.126 8.00903C59.1691 7.87915 59.2554 7.74927 59.2985 7.61938C59.2122 7.74927 59.1691 7.87915 59.126 8.00903ZM56.6257 10.6934C56.7981 10.5635 56.9274 10.4768 57.0567 10.3469C56.9274 10.4768 56.7981 10.6067 56.6257 10.6934ZM57.3801 10.0869C57.3262 10.1304 57.2723 10.1736 57.2292 10.217C57.3585 10.1304 57.4447 10.0439 57.531 9.95728C57.5186 9.96948 57.5054 9.98169 57.4916 9.9939L57.4702 10.0129C57.4415 10.0376 57.4108 10.0623 57.3801 10.0869ZM55.591 7.4895L55.6772 7.40283C55.6341 7.40283 55.6341 7.44604 55.591 7.4895ZM55.8928 7.1001C55.9359 7.05688 55.9359 7.01343 55.979 6.97021C55.9359 7.01343 55.8928 7.05688 55.8928 7.1001ZM56.0868 6.68872C56.076 6.71045 56.0652 6.73193 56.0652 6.75366C56.0652 6.75366 56.1083 6.71045 56.1083 6.62378L56.1076 6.63403L56.1046 6.64722C56.1005 6.66113 56.0937 6.6748 56.0868 6.68872ZM56.1945 6.40723C56.1945 6.3855 56.2054 6.37451 56.2161 6.36353C56.2269 6.35278 56.2377 6.34204 56.2377 6.32056L56.2374 6.34473L56.2368 6.35449C56.2352 6.37524 56.2306 6.39282 56.217 6.40161C56.2135 6.40381 56.2095 6.40552 56.2047 6.40649L56.1945 6.40723ZM44.1669 11.9055C44.1238 11.6458 44.0807 11.3428 44.0376 11.083C44.1238 11.3428 44.1669 11.6458 44.1669 11.9055ZM42.8794 6.10303C42.8935 6.14844 42.9064 6.19263 42.9167 6.23413L42.8955 6.14673C42.8585 5.99194 42.8165 5.81641 42.7443 5.67139C42.7658 5.75781 42.7982 5.85522 42.8305 5.95264C42.8473 6.00317 42.8641 6.05371 42.8794 6.10303ZM23.9484 13.9836C24.0777 13.9836 24.207 14.0269 24.3363 14.0703C24.2077 14.0703 24.0792 14.0273 23.9506 13.9844L23.9484 13.9836ZM44.4687 14.9792C44.5549 14.9792 44.6842 14.936 44.7704 14.936C44.6411 14.936 44.5549 14.936 44.4687 14.9792ZM58.2128 9.2605L58.2638 9.19971C58.3177 9.13477 58.3716 9.06982 58.4363 9.00488C58.3069 9.17798 58.2207 9.26465 58.0914 9.39453C58.1358 9.34985 58.1751 9.30518 58.2128 9.2605Z" fill="black"/>
<path d="M32.0961 16.7109C33.5619 16.8408 35.0707 16.8841 36.5796 16.8841C38.0884 16.8841 39.5973 16.7975 41.063 16.7109C41.063 23.2914 39.123 28.4865 36.5796 28.4865C34.0792 28.5298 32.0961 23.3347 32.0961 16.7109C32.0961 16.7542 32.0961 16.7542 32.0961 16.7109Z" fill="black"/>
</svg>
