<svg width="17" height="14" viewBox="0 0 17 14" fill="none" xmlns="http://www.w3.org/2000/svg">
<path d="M15.539 3.47935C15.4062 9.52046 11.5547 13.723 5.71092 13.9856C3.3203 14.117 1.59375 13.329 0 12.4097C1.72656 12.6724 3.98436 12.0158 5.17967 10.9651C3.45311 10.8337 2.39062 9.91444 1.85937 8.46983C2.39062 8.60116 2.92187 8.46983 3.3203 8.46983C1.72656 7.94452 0.664061 7.02522 0.531249 4.92396C0.929685 5.18662 1.46093 5.31795 1.99218 5.31795C0.796872 4.66131 -2.37487e-07 2.16607 0.929684 0.590126C2.65624 2.42872 4.78123 4.00467 8.23435 4.26732C7.30467 0.590126 12.3516 -1.3798 14.3438 1.11544C15.2734 0.984112 15.9375 0.590126 16.6016 0.32747C16.3359 1.24677 15.8047 1.77208 15.1406 2.2974C15.8047 2.16607 16.4688 2.03474 17 1.77208C16.8671 2.42872 16.2031 2.95404 15.539 3.47935Z" fill="#2D2A26"/>
</svg>
