<svg width="56" height="56" viewBox="0 0 56 56" fill="none" xmlns="http://www.w3.org/2000/svg">
<path d="M1.54558 19.3375C1.97069 19.5422 2.45177 19.6456 2.96661 19.6456C3.26141 19.6456 3.56732 19.6118 3.88049 19.5435C5.76081 19.1333 6.82123 17.6884 6.45978 16.0294C6.45978 16.0289 6.45978 16.0289 6.45978 16.0289L4.39148 6.54663L13.0877 4.64966L14.6206 11.677C14.131 11.5843 13.5799 11.5971 12.9856 11.7266C11.0634 12.1457 10.0123 13.5321 10.3708 15.1757C10.6729 16.5609 11.8145 17.3974 13.2774 17.3974C13.5666 17.3974 13.8691 17.3645 14.1797 17.297C16.06 16.8868 17.1209 15.4415 16.759 13.7825C16.759 13.7825 16.759 13.7825 16.759 13.782L14.0028 1.14581C13.8319 0.361389 13.0539 -0.137634 12.2686 0.0336912L3.21313 2.00885C2.83331 2.09174 2.5086 2.31732 2.29839 2.64417C2.08776 2.97144 2.01769 3.36108 2.10058 3.74091L4.32141 13.9239C3.83178 13.8312 3.28021 13.8436 2.68633 13.973C1.82714 14.1606 1.12218 14.5438 0.648362 15.0809C0.0861039 15.7183 -0.118975 16.5497 0.0715774 17.4222C0.260848 18.2899 0.784226 18.9701 1.54558 19.3375ZM13.8298 15.694C13.4568 15.7751 12.2195 15.9537 11.9738 14.8262C11.7564 13.8299 12.7335 13.4608 13.3355 13.3296C13.5376 13.2856 13.7546 13.2548 13.9661 13.2548C14.504 13.2548 15.0077 13.4526 15.156 14.1315V14.132C15.4021 15.259 14.2032 15.6124 13.8298 15.694ZM12.4391 1.6756L12.7382 3.04663L4.04199 4.9436L3.74292 3.573L12.4391 1.6756ZM1.87883 16.1665C2.11681 15.8969 2.52782 15.6871 3.03625 15.5761C3.23834 15.532 3.45538 15.5013 3.66687 15.5013C4.20477 15.5013 4.7085 15.6995 4.85675 16.378V16.3784C5.10242 17.5059 3.90399 17.8593 3.53057 17.9404C3.04052 18.0472 2.58849 18.0186 2.2578 17.8593C1.94805 17.7101 1.75707 17.4525 1.67461 17.0727C1.59386 16.7036 1.6588 16.4156 1.87883 16.1665Z" fill="#FFED00"/>
<path d="M55.8758 41.0421C55.719 40.6858 55.4327 40.4123 55.0704 40.2713L46.4302 36.914C45.6812 36.6231 44.8361 36.9956 44.5452 37.7442L40.7687 47.4653C40.4064 47.1085 39.9386 46.812 39.3814 46.5954C38.5615 46.2771 37.7626 46.2071 37.0705 46.3929C36.2497 46.6134 35.62 47.1936 35.2965 48.0258C34.9748 48.8538 35.0355 49.71 35.467 50.4364C35.846 51.0742 36.4796 51.5801 37.2995 51.8984C37.7929 52.0902 38.2774 52.1821 38.7342 52.1821C39.9381 52.1821 40.9452 51.5416 41.3912 50.3941L44.9057 41.3476L53.202 44.5711L50.5946 51.2827C50.2322 50.9264 49.7648 50.6299 49.2073 50.4133C47.3735 49.7006 45.7316 50.2757 45.1224 51.8437C44.8006 52.6717 44.8613 53.5275 45.2933 54.2542C45.6722 54.8921 46.3058 55.3975 47.1253 55.7163C47.6188 55.9077 48.1037 56 48.5604 56C49.7644 56 50.7714 55.3591 51.2171 54.2115L55.9005 42.1563C56.0411 41.7936 56.0326 41.398 55.8758 41.0421ZM37.8933 50.3689C37.4255 50.1873 37.0645 49.9138 36.8773 49.5985C36.7017 49.3025 36.6847 48.9824 36.8256 48.6201C36.9624 48.2677 37.1756 48.0639 37.4964 47.9776C37.6088 47.9472 37.7331 47.9323 37.866 47.9323C38.1433 47.9323 38.4594 47.9972 38.7871 48.125C39.2661 48.3108 39.631 48.5761 39.8151 48.8722C39.986 49.1469 40.0005 49.4417 39.8617 49.7998C39.4438 50.8751 38.2497 50.5073 37.8933 50.3689ZM45.4996 39.818L46.0076 38.5102L54.3043 41.7338L53.7963 43.0416L45.4996 39.818ZM47.7192 54.1867C47.2513 54.0052 46.8907 53.7313 46.7036 53.416C46.5276 53.1203 46.5109 52.8003 46.6515 52.438C46.8583 51.9061 47.268 51.7446 47.6897 51.7446C48.0212 51.7446 48.3605 51.8446 48.613 51.9428C49.0919 52.1287 49.4568 52.394 49.6409 52.6901C49.8118 52.9648 49.8264 53.2596 49.6875 53.6172C49.2697 54.693 48.0755 54.3252 47.7192 54.1867Z" fill="#FFED00"/>
<path d="M24.0919 52.2483C19.0479 55.9141 11.3715 54.7148 6.23556 49.4588C3.24013 46.3933 1.56574 42.3704 1.64307 38.4217C1.7046 35.2665 2.9026 32.4275 5.01619 30.4271C6.52139 29.0044 8.44101 28.0448 10.5679 27.6517C13.4578 27.1181 16.0165 25.7227 17.9674 23.6168C18.2754 23.2844 18.2557 22.7653 17.9233 22.4577C17.5909 22.1492 17.0723 22.1693 16.7642 22.5017C15.0548 24.3465 12.8096 25.5693 10.2701 26.0384C7.83133 26.4888 5.62502 27.594 3.88869 29.2351C1.45295 31.5405 0.0729393 34.7914 0.00287064 38.3897C-0.0830061 42.7754 1.76142 47.2277 5.06234 50.6055C8.5145 54.1384 13.0267 55.9999 17.3154 55.9999C20.1091 55.9999 22.8089 55.2091 25.0562 53.5757C25.4228 53.3096 25.504 52.7965 25.2378 52.4299C24.9712 52.0633 24.4581 51.9821 24.0919 52.2483Z" fill="#FFED00"/>
<path d="M38.2582 35.7532C39.9727 34.0382 40.7922 31.8289 40.6269 29.3637C40.4961 27.4073 39.7536 25.3288 38.4748 23.316L43.7099 18.081C44.0303 17.7605 44.0303 17.241 43.7103 16.921C43.3899 16.6006 42.8703 16.6006 42.5503 16.921L28.035 31.4358C27.7227 30.6617 27.2557 29.9507 26.6477 29.3428C26.0398 28.7348 25.3293 28.2674 24.5551 27.9555L41.6407 10.8686L45.1215 14.3494L45.0245 14.4464C44.7041 14.7664 44.7041 15.2859 45.0245 15.6064C45.1847 15.7666 45.3945 15.8465 45.6047 15.8465C45.8145 15.8465 46.0247 15.7666 46.1845 15.6064L46.3921 15.3991C46.5224 15.4402 46.6587 15.4619 46.7972 15.4619C46.8113 15.4619 46.8254 15.4615 46.8395 15.4611C47.2133 15.4496 47.5692 15.2817 47.8162 15.001L48.6869 14.0123L49.6204 14.9458C49.7806 15.1061 49.9908 15.1864 50.2006 15.1864C50.4104 15.1864 50.6206 15.1061 50.7808 14.9458C51.1013 14.6254 51.1013 14.1063 50.7808 13.7859L49.7734 12.7784L51.1436 11.2224L52.1185 12.1974C52.2788 12.3576 52.489 12.4375 52.6987 12.4375C52.9085 12.4375 53.1187 12.3576 53.2789 12.1974C53.5994 11.8769 53.5994 11.3574 53.2789 11.037L52.23 9.9885L53.59 8.44443L54.2962 9.1511C54.4564 9.31131 54.6666 9.39121 54.8764 9.39121C55.0862 9.39121 55.2964 9.31131 55.4566 9.1511C55.7771 8.83066 55.7771 8.31113 55.4566 7.99069L54.676 7.21054L55.6604 6.09287C56.133 5.55624 56.1073 4.73978 55.6019 4.23392L51.7656 0.397674C51.2598 -0.108186 50.4433 -0.133821 49.9067 0.338714L48.7886 1.32352L48.0076 0.542937C47.6871 0.22293 47.1676 0.22293 46.8476 0.543365C46.5271 0.863799 46.5276 1.38333 46.848 1.70377L47.5547 2.41L46.011 3.76907L44.9527 2.71121C44.6327 2.39078 44.1132 2.39078 43.7928 2.71121C43.4723 3.03122 43.4723 3.55075 43.7928 3.87119L44.7776 4.85556L43.2211 6.22617L42.2141 5.21915C41.8941 4.89871 41.3745 4.89871 41.0541 5.21915C40.7337 5.53958 40.7337 6.05911 41.0541 6.37912L41.9876 7.31265L40.9986 8.18338C40.7183 8.43033 40.5508 8.78623 40.5388 9.16007C40.5341 9.30747 40.5547 9.45359 40.5965 9.59287L32.6835 17.5063C28.0718 14.5429 23.4276 14.5254 20.4467 17.5068C19.6793 18.2724 19.0919 19.0201 18.6505 19.7921C18.4254 20.1856 18.5621 20.6867 18.9551 20.9115C19.0838 20.985 19.2235 21.02 19.3619 21.02C19.6464 21.02 19.9233 20.8713 20.0745 20.6064C20.4428 19.963 20.9431 19.329 21.6062 18.6672C24.867 15.406 29.3343 17.3982 31.491 18.6988L22.6705 27.5197C22.515 27.5082 22.3586 27.5005 22.2009 27.5005C20.5214 27.5005 18.9419 28.1546 17.7542 29.3428C16.566 30.5305 15.9119 32.11 15.9119 33.79C15.9119 35.4699 16.566 37.0494 17.7542 38.2372C18.9419 39.4249 20.5214 40.0794 22.2009 40.0794C23.8809 40.0794 25.4604 39.4249 26.6482 38.2372C27.8359 37.0494 28.49 35.4699 28.49 33.79C28.49 33.6323 28.4823 33.4759 28.4708 33.3204L37.2811 24.5102C38.5679 26.6784 40.5094 31.182 37.0978 34.5936C36.5607 35.1319 35.9472 35.5917 35.2747 35.9599C31.5449 38 29.0775 41.3578 28.3277 45.4145C28.0154 47.1081 27.3625 48.6393 26.3867 49.9664C26.1184 50.3316 26.1966 50.8452 26.5614 51.1135C26.708 51.2212 26.878 51.2729 27.0468 51.2729C27.2989 51.2729 27.5475 51.1571 27.7082 50.9383C28.8323 49.4097 29.5834 47.6515 29.941 45.7123C30.5994 42.1503 32.7732 39.198 36.0621 37.3989C36.8718 36.9554 37.6109 36.4017 38.2582 35.7532ZM50.7924 1.74478L54.2543 5.20676L46.7831 13.6914L42.3085 9.21604L50.7924 1.74478ZM25.4878 37.0768C24.6098 37.9548 23.4425 38.4384 22.2009 38.4384C20.9594 38.4384 19.7921 37.9548 18.9141 37.0768C18.0361 36.1988 17.5525 35.0315 17.5525 33.79C17.5525 32.548 18.0361 31.3807 18.9141 30.5027C19.7917 29.6247 20.9594 29.1411 22.2009 29.1411C23.4425 29.1411 24.6098 29.6247 25.4878 30.5027C26.3653 31.3807 26.849 32.548 26.849 33.79C26.849 35.0315 26.3658 36.1988 25.4878 37.0768Z" fill="#FFED00"/>
<path d="M6.97856 36.6205C5.87157 37.7275 5.87157 39.5292 6.97856 40.6362L15.3548 49.0128C15.9085 49.5661 16.6356 49.843 17.3624 49.843C18.0896 49.843 18.8167 49.5661 19.3705 49.0124C20.4775 47.9054 20.4775 46.1041 19.3705 44.9967L10.9943 36.6201C10.4581 36.0839 9.74499 35.7887 8.98663 35.7887C8.22826 35.7887 7.51519 36.0844 6.97856 36.6205ZM18.21 46.1571C18.6775 46.6245 18.6775 47.385 18.21 47.8524C17.7431 48.3198 16.9826 48.3203 16.5147 47.8524L8.13897 39.4763C7.67156 39.0089 7.67156 38.2479 8.13897 37.7805C8.36498 37.5545 8.66619 37.4293 8.98663 37.4293C9.30664 37.4293 9.60785 37.5541 9.83429 37.7805L18.21 46.1571Z" fill="#FFED00"/>
<path d="M41.234 17.318C41.4438 17.318 41.654 17.2381 41.8142 17.0779C42.1342 16.7575 42.1342 16.2379 41.8142 15.9179L40.0642 14.1675C39.7437 13.8475 39.2242 13.8475 38.9038 14.1675C38.5833 14.4879 38.5833 15.0075 38.9038 15.3279L40.6538 17.0779C40.814 17.2381 41.0242 17.318 41.234 17.318Z" fill="#FFED00"/>
<path d="M38.8094 19.7426C39.0196 19.7426 39.2294 19.6627 39.3896 19.5025C39.71 19.182 39.71 18.6625 39.3896 18.3425L37.6396 16.5921C37.3191 16.272 36.8 16.272 36.4796 16.5921C36.1591 16.9125 36.1591 17.432 36.4796 17.7525L38.2296 19.5025C38.3898 19.6627 38.5996 19.7426 38.8094 19.7426Z" fill="#FFED00"/>
<path d="M36.3851 22.1672C36.5949 22.1672 36.8047 22.0873 36.9649 21.9271C37.2853 21.6067 37.2853 21.0871 36.9649 20.7667L35.2149 19.0167C34.8944 18.6963 34.3753 18.6963 34.0549 19.0167C33.7345 19.3371 33.7345 19.8567 34.0549 20.1767L35.8049 21.9271C35.9651 22.0873 36.1749 22.1672 36.3851 22.1672Z" fill="#FFED00"/>
<path d="M33.9605 24.5919C34.1703 24.5919 34.3805 24.512 34.5407 24.3518C34.8611 24.0313 34.8611 23.5118 34.5407 23.1914L32.7907 21.4414C32.4702 21.1209 31.9507 21.1209 31.6307 21.4414C31.3103 21.7618 31.3103 22.2813 31.6307 22.6013L33.3807 24.3518C33.5409 24.512 33.7507 24.5919 33.9605 24.5919Z" fill="#FFED00"/>
<path d="M29.2061 23.8659C28.8857 24.1864 28.8857 24.7059 29.2061 25.0263L30.9562 26.7763C31.1164 26.9366 31.3261 27.0165 31.5364 27.0165C31.7461 27.0165 31.9559 26.9366 32.1161 26.7763C32.4366 26.4559 32.4366 25.9364 32.1161 25.6159L30.3661 23.8659C30.0457 23.5455 29.5266 23.5455 29.2061 23.8659Z" fill="#FFED00"/>
<path d="M45.6774 8.3718C45.357 8.05136 44.8379 8.05136 44.5174 8.3718C44.197 8.69223 44.197 9.21133 44.5174 9.53177C44.8379 9.8522 45.357 9.8522 45.6774 9.53177C45.9978 9.21133 45.9978 8.69223 45.6774 8.3718Z" fill="#FFED00"/>
<path d="M47.6448 10.3222C47.3244 10.0018 46.8048 10.0018 46.4844 10.3222C46.1644 10.6422 46.1644 11.1618 46.4844 11.4822C46.8048 11.8026 47.3244 11.8026 47.6448 11.4822C47.9648 11.1618 47.9648 10.6422 47.6448 10.3222Z" fill="#FFED00"/>
<path d="M48.1392 5.90622C47.8188 5.58578 47.2992 5.58578 46.9792 5.90622C46.6588 6.22665 46.6588 6.74619 46.9792 7.06619C47.2992 7.38663 47.8188 7.38663 48.1392 7.06619C48.4596 6.74619 48.4596 6.22665 48.1392 5.90622Z" fill="#FFED00"/>
<path d="M50.1079 7.85873C49.7875 7.5383 49.268 7.5383 48.948 7.85873C48.6275 8.17917 48.6275 8.6987 48.948 9.01871C49.268 9.33914 49.7875 9.33914 50.1079 9.01871C50.4284 8.6987 50.4284 8.17917 50.1079 7.85873Z" fill="#FFED00"/>
<path d="M50.6022 3.44308C50.2818 3.12265 49.7627 3.12265 49.4422 3.44308C49.1218 3.76352 49.1218 4.28262 49.4422 4.60306C49.7627 4.92349 50.2818 4.92349 50.6022 4.60306C50.9226 4.28262 50.9226 3.76352 50.6022 3.44308Z" fill="#FFED00"/>
<path d="M52.5706 5.39523C52.2502 5.0748 51.7306 5.0748 51.4106 5.39523C51.0902 5.71524 51.0902 6.23477 51.4106 6.55521C51.7306 6.87564 52.2502 6.87564 52.5706 6.55521C52.891 6.23477 52.891 5.71524 52.5706 5.39523Z" fill="#FFED00"/>
</svg>
