<svg width="58" height="57" viewBox="0 0 58 57" fill="none" xmlns="http://www.w3.org/2000/svg">
<path d="M42.3 21.7L42.9894 21.4045C42.8712 21.1288 42.6 20.95 42.3 20.95V21.7ZM56.3 47.5999V48.3499C56.7142 48.3499 57.05 48.0142 57.05 47.5999H56.3ZM48.6 36.4L47.9106 36.6954C48.0288 36.9712 48.3 37.15 48.6 37.15V36.4ZM52.1 44.7999H51.35C51.35 45.2142 51.6858 45.5499 52.1 45.5499V44.7999ZM52.1 41.2999V40.5499C51.6858 40.5499 51.35 40.8857 51.35 41.2999H52.1ZM31.8 25.2V24.45C31.3858 24.45 31.05 24.7857 31.05 25.2H31.8ZM31.8 34.3H31.05C31.05 34.7142 31.3858 35.05 31.8 35.05V34.3ZM47.7 34.3L48.3894 34.0045L47.7 34.3ZM36.05 28.7C36.05 28.2857 35.7142 27.95 35.3 27.95C34.8858 27.95 34.55 28.2857 34.55 28.7H36.05ZM35.3 31.5H34.55C34.55 31.9142 34.8858 32.25 35.3 32.25V31.5ZM38.8 32.25C39.2142 32.25 39.55 31.9142 39.55 31.5C39.55 31.0857 39.2142 30.75 38.8 30.75V32.25ZM28.3 25.2H29.05C29.05 24.7857 28.7142 24.45 28.3 24.45V25.2ZM5.9 25.2V24.45C5.48578 24.45 5.15 24.7857 5.15 25.2H5.9ZM5.9 39.8999H5.15C5.15 40.3142 5.48578 40.6499 5.9 40.6499V39.8999ZM28.3 39.8999V40.6499C28.7142 40.6499 29.05 40.3142 29.05 39.8999H28.3ZM9.4 28H8.65C8.65 28.4142 8.98578 28.75 9.4 28.75V28ZM13.6 28V28.75C14.0142 28.75 14.35 28.4142 14.35 28H13.6ZM19.9 28H19.15C19.15 28.4142 19.4858 28.75 19.9 28.75V28ZM24.1 28V28.75C24.5142 28.75 24.85 28.4142 24.85 28H24.1ZM9.4 32.15C8.98578 32.15 8.65 32.4857 8.65 32.9C8.65 33.3142 8.98578 33.65 9.4 33.65V32.15ZM13.6 33.65C14.0142 33.65 14.35 33.3142 14.35 32.9C14.35 32.4857 14.0142 32.15 13.6 32.15V33.65ZM19.9 32.15C19.4858 32.15 19.15 32.4857 19.15 32.9C19.15 33.3142 19.4858 33.65 19.9 33.65V32.15ZM24.1 33.65C24.5142 33.65 24.85 33.3142 24.85 32.9C24.85 32.4857 24.5142 32.15 24.1 32.15V33.65ZM17.5 34.3C17.5 33.8857 17.1642 33.55 16.75 33.55C16.3358 33.55 16 33.8857 16 34.3H17.5ZM40.2 39.1499C39.7858 39.1499 39.45 39.4857 39.45 39.8999C39.45 40.3142 39.7858 40.6499 40.2 40.6499V39.1499ZM43 40.6499C43.4142 40.6499 43.75 40.3142 43.75 39.8999C43.75 39.4857 43.4142 39.1499 43 39.1499V40.6499ZM8 9.04997C7.58578 9.04997 7.25 9.38576 7.25 9.79997C7.25 10.2142 7.58578 10.55 8 10.55V9.04997ZM35.3 10.55C35.7142 10.55 36.05 10.2142 36.05 9.79997C36.05 9.38576 35.7142 9.04997 35.3 9.04997V10.55ZM9.4 12.55C8.98578 12.55 8.65 12.8858 8.65 13.3C8.65 13.7142 8.98578 14.05 9.4 14.05V12.55ZM33.9 14.05C34.3142 14.05 34.65 13.7142 34.65 13.3C34.65 12.8858 34.3142 12.55 33.9 12.55V14.05ZM1.7 54.5499C1.28578 54.5499 0.949997 54.8857 0.949997 55.2999C0.949997 55.7141 1.28578 56.0499 1.7 56.0499V54.5499ZM56.3 56.0499C56.7142 56.0499 57.05 55.7141 57.05 55.2999C57.05 54.8857 56.7142 54.5499 56.3 54.5499V56.0499ZM5.2 56.0499C5.61421 56.0499 5.95 55.7141 5.95 55.2999C5.95 54.8857 5.61421 54.5499 5.2 54.5499V56.0499ZM38.1 56.0499C38.5142 56.0499 38.85 55.7141 38.85 55.2999C38.85 54.8857 38.5142 54.5499 38.1 54.5499V56.0499ZM0.949997 23.7V45.5999H2.45V23.7H0.949997ZM3.7 48.3499H6.6V46.8499H3.7V48.3499ZM51.4 35.65H48.6V37.15H51.4V35.65ZM57.05 47.5999V44.7999H55.55V47.5999H57.05ZM56.3 44.0499H52.1V45.5499H56.3V44.0499ZM52.85 44.7999V41.2999H51.35V44.7999H52.85ZM57.05 44.7999V41.2999H55.55V44.7999H57.05ZM52.1 42.0499H56.3V40.5499H52.1V42.0499ZM44.4894 24.9045L42.9894 21.4045L41.6106 21.9954L43.1106 25.4954L44.4894 24.9045ZM43.8 24.45H31.8V25.95H43.8V24.45ZM31.05 25.2V34.3H32.55V25.2H31.05ZM49.2894 36.1045L48.3894 34.0045L47.0106 34.5954L47.9106 36.6954L49.2894 36.1045ZM48.3894 34.0045L44.4894 24.9045L43.1106 25.4954L47.0106 34.5954L48.3894 34.0045ZM31.8 35.05H47.7V33.55H31.8V35.05ZM34.55 28.7V31.5H36.05V28.7H34.55ZM35.3 32.25H38.8V30.75H35.3V32.25ZM5.9 40.6499H28.3V39.1499H5.9V40.6499ZM5.15 25.2V36.4H6.65V25.2H5.15ZM5.15 36.4V39.8999H6.65V36.4H5.15ZM29.05 39.8999V36.4H27.55V39.8999H29.05ZM29.05 36.4V25.2H27.55V36.4H29.05ZM9.4 24.45H5.9V25.95H9.4V24.45ZM8.65 25.2V28H10.15V25.2H8.65ZM9.4 28.75H13.6V27.25H9.4V28.75ZM13.6 24.45H9.4V25.95H13.6V24.45ZM14.35 28V25.2H12.85V28H14.35ZM19.9 24.45H13.6V25.95H19.9V24.45ZM19.15 25.2V28H20.65V25.2H19.15ZM19.9 28.75H24.1V27.25H19.9V28.75ZM28.3 24.45H24.1V25.95H28.3V24.45ZM24.1 24.45H19.9V25.95H24.1V24.45ZM24.85 28V25.2H23.35V28H24.85ZM9.4 33.65H11.5V32.15H9.4V33.65ZM11.5 33.65H13.6V32.15H11.5V33.65ZM5.9 37.15H11.5V35.65H5.9V37.15ZM10.75 32.9V36.4H12.25V32.9H10.75ZM22 37.15H28.3V35.65H22V37.15ZM22.75 36.4V32.9H21.25V36.4H22.75ZM22 32.15H19.9V33.65H22V32.15ZM22 33.65H24.1V32.15H22V33.65ZM11.5 37.15H16.75V35.65H11.5V37.15ZM16.75 37.15H22V35.65H16.75V37.15ZM17.5 36.4V34.3H16V36.4H17.5ZM40.2 40.6499H43V39.1499H40.2V40.6499ZM8.7 20.95H3.7V22.45H8.7V20.95ZM9.45 21.7V17.5H7.95V21.7H9.45ZM8.7 16.75H5.8V18.25H8.7V16.75ZM4.55 15.5V7.59998H3.05V15.5H4.55ZM5.8 6.34998H37.5V4.84998H5.8V6.34998ZM38.75 7.59998V15.5H40.25V7.59998H38.75ZM37.5 16.75H34.6V18.25H37.5V16.75ZM42.3 20.95H34.6V22.45H42.3V20.95ZM33.85 17.5V21.7H35.35V17.5H33.85ZM12.2 20.95H8.7V22.45H12.2V20.95ZM12.95 21.7V17.5H11.45V21.7H12.95ZM12.2 18.25H31.1V16.75H12.2V18.25ZM34.6 20.95H31.1V22.45H34.6V20.95ZM31.1 20.95H12.2V22.45H31.1V20.95ZM30.35 17.5V21.7H31.85V17.5H30.35ZM8.7 18.25H12.2V16.75H8.7V18.25ZM31.1 18.25H34.6V16.75H31.1V18.25ZM8 10.55H35.3V9.04997H8V10.55ZM9.4 14.05H33.9V12.55H9.4V14.05ZM17.45 48.3499H39.85V46.8499H17.45V48.3499ZM50.35 48.3499H56.3V46.8499H50.35V48.3499ZM1.7 56.0499H5.2V54.5499H1.7V56.0499ZM45.1 56.0499H56.3V54.5499H45.1V56.0499ZM12.2 56.0499H38.1V54.5499H12.2V56.0499ZM37.5 6.34998C38.1903 6.34998 38.75 6.90962 38.75 7.59998H40.25C40.25 6.08119 39.0188 4.84998 37.5 4.84998V6.34998ZM38.75 15.5C38.75 16.1903 38.1904 16.75 37.5 16.75V18.25C39.0188 18.25 40.25 17.0187 40.25 15.5H38.75ZM51.4 37.15C53.692 37.15 55.55 39.008 55.55 41.2999H57.05C57.05 38.1795 54.5204 35.65 51.4 35.65V37.15ZM4.55 7.59998C4.55 6.90962 5.10964 6.34998 5.8 6.34998V4.84998C4.28121 4.84998 3.05 6.08119 3.05 7.59998H4.55ZM0.949997 45.5999C0.949997 47.1187 2.18121 48.3499 3.7 48.3499V46.8499C3.00964 46.8499 2.45 46.2903 2.45 45.5999H0.949997ZM5.8 16.75C5.10964 16.75 4.55 16.1903 4.55 15.5H3.05C3.05 17.0188 4.28121 18.25 5.8 18.25V16.75ZM2.45 23.7C2.45 23.0096 3.00964 22.45 3.7 22.45V20.95C2.18121 20.95 0.949997 22.1812 0.949997 23.7H2.45Z" fill="#2D2A26"/>
<ellipse cx="12.2" cy="49.7" rx="5.6" ry="5.6" stroke="#2D2A26" stroke-width="1.5" stroke-linecap="round"/>
<ellipse cx="12.2" cy="49.7" rx="2.1" ry="2.1" stroke="#2D2A26" stroke-width="1.5" stroke-linecap="round"/>
<ellipse cx="45.1" cy="49.7" rx="5.6" ry="5.6" stroke="#2D2A26" stroke-width="1.5" stroke-linecap="round"/>
<ellipse cx="45.1" cy="49.7" rx="2.1" ry="2.1" stroke="#2D2A26" stroke-width="1.5" stroke-linecap="round"/>
</svg>
