<svg width="56" height="56" viewBox="0 0 56 56" fill="none" xmlns="http://www.w3.org/2000/svg">
<path d="M10.7122 54C10.7122 54.4142 11.048 54.75 11.4622 54.75C11.8764 54.75 12.2122 54.4142 12.2122 54H10.7122ZM4 12.916V12.166C3.58579 12.166 3.25 12.5018 3.25 12.916H4ZM11.0588 26.6107L10.3089 26.5996C10.3059 26.8004 10.3836 26.9941 10.5246 27.1371C10.6656 27.2801 10.858 27.3607 11.0588 27.3607V26.6107ZM21.6029 40.9008C21.6029 41.315 21.9387 41.6508 22.3529 41.6508C22.7672 41.6508 23.1029 41.315 23.1029 40.9008H21.6029ZM27.25 53.8015C27.25 54.2157 27.5858 54.5515 28 54.5515C28.4142 54.5515 28.75 54.2157 28.75 53.8015H27.25ZM14.3424 18.2748C14.3424 18.689 14.6782 19.0248 15.0924 19.0248C15.5066 19.0248 15.8424 18.689 15.8424 18.2748H14.3424ZM19.7878 15.4962C19.7878 15.9104 20.1236 16.2462 20.5378 16.2462C20.952 16.2462 21.2878 15.9104 21.2878 15.4962H19.7878ZM25.2332 16.0916C25.2332 16.5058 25.569 16.8416 25.9832 16.8416C26.3974 16.8416 26.7332 16.5058 26.7332 16.0916H25.2332ZM43.7878 54C43.7878 54.4142 44.1236 54.75 44.5378 54.75C44.952 54.75 45.2878 54.4142 45.2878 54H43.7878ZM44.6831 48.635L45.2948 49.0689L45.2948 49.0689L44.6831 48.635ZM51.2738 39.3443L51.8855 39.7783L51.2738 39.3443ZM52 12.916H52.75C52.75 12.5018 52.4142 12.166 52 12.166V12.916ZM44.8344 19.3592L44.0845 19.3703L44.8344 19.3592ZM44.9412 26.6107V27.3607C45.142 27.3607 45.3344 27.2801 45.4754 27.1371C45.6164 26.9941 45.6941 26.8004 45.6911 26.5996L44.9412 26.6107ZM32.8971 40.9008C32.8971 41.315 33.2328 41.6508 33.6471 41.6508C34.0613 41.6508 34.3971 41.315 34.3971 40.9008H32.8971ZM34.7122 15.4962C34.7122 15.9104 35.048 16.2462 35.4622 16.2462C35.8764 16.2462 36.2122 15.9104 36.2122 15.4962H34.7122ZM40.1576 18.2748C40.1576 18.689 40.4933 19.0248 40.9076 19.0248C41.3218 19.0248 41.6576 18.689 41.6576 18.2748H40.1576ZM29.2668 16.0916C29.2668 16.5058 29.6026 16.8416 30.0168 16.8416C30.431 16.8416 30.7668 16.5058 30.7668 16.0916H29.2668ZM28 18.5063L27.4371 19.0019L28 19.6413L28.5629 19.0019L28 18.5063ZM11.0934 48.3199L10.4817 48.7538L11.0934 48.3199ZM12.2122 54V49.477H10.7122V54H12.2122ZM11.7051 47.8859L6.45555 40.4858L5.23213 41.3537L10.4817 48.7538L11.7051 47.8859ZM4.75 35.1339V12.916H3.25V35.1339H4.75ZM4 13.666H4.15665V12.166H4V13.666ZM10.406 20.0081L10.3089 26.5996L11.8087 26.6217L11.9058 20.0302L10.406 20.0081ZM11.0588 26.6107C11.0588 27.3607 11.0588 27.3607 11.0588 27.3607C11.0588 27.3607 11.0588 27.3607 11.0588 27.3607C11.0589 27.3607 11.0589 27.3607 11.0589 27.3607C11.0589 27.3607 11.0589 27.3607 11.0589 27.3607C11.0589 27.3607 11.0589 27.3607 11.059 27.3607C11.059 27.3607 11.059 27.3607 11.059 27.3607C11.059 27.3607 11.0591 27.3607 11.0591 27.3607C11.0591 27.3607 11.0592 27.3607 11.0592 27.3607C11.0592 27.3607 11.0592 27.3607 11.0593 27.3607C11.0593 27.3607 11.0594 27.3607 11.0594 27.3607C11.0594 27.3607 11.0595 27.3607 11.0595 27.3607C11.0595 27.3607 11.0596 27.3607 11.0596 27.3607C11.0597 27.3607 11.0597 27.3607 11.0598 27.3607C11.0598 27.3607 11.0599 27.3607 11.0599 27.3607C11.06 27.3607 11.06 27.3607 11.0601 27.3607C11.0601 27.3607 11.0602 27.3607 11.0603 27.3607C11.0603 27.3607 11.0604 27.3607 11.0605 27.3607C11.0605 27.3607 11.0606 27.3607 11.0606 27.3607C11.0607 27.3607 11.0608 27.3607 11.0609 27.3607C11.0609 27.3607 11.061 27.3607 11.0611 27.3607C11.0612 27.3607 11.0612 27.3607 11.0613 27.3607C11.0614 27.3607 11.0615 27.3607 11.0615 27.3607C11.0616 27.3607 11.0617 27.3607 11.0618 27.3607C11.0619 27.3607 11.062 27.3607 11.0621 27.3607C11.0622 27.3607 11.0622 27.3607 11.0623 27.3607C11.0624 27.3607 11.0625 27.3607 11.0626 27.3607C11.0627 27.3607 11.0628 27.3607 11.0629 27.3607C11.063 27.3607 11.0631 27.3607 11.0632 27.3607C11.0633 27.3607 11.0634 27.3607 11.0636 27.3607C11.0637 27.3607 11.0638 27.3607 11.0639 27.3607C11.064 27.3607 11.0641 27.3607 11.0642 27.3607C11.0643 27.3607 11.0645 27.3607 11.0646 27.3607C11.0647 27.3607 11.0648 27.3607 11.0649 27.3607C11.0651 27.3607 11.0652 27.3607 11.0653 27.3607C11.0654 27.3607 11.0656 27.3607 11.0657 27.3607C11.0658 27.3607 11.066 27.3607 11.0661 27.3607C11.0662 27.3607 11.0664 27.3607 11.0665 27.3607C11.0666 27.3607 11.0668 27.3607 11.0669 27.3607C11.0671 27.3607 11.0672 27.3607 11.0674 27.3607C11.0675 27.3607 11.0676 27.3607 11.0678 27.3607C11.0679 27.3607 11.0681 27.3607 11.0682 27.3607C11.0684 27.3607 11.0686 27.3607 11.0687 27.3607C11.0689 27.3607 11.069 27.3607 11.0692 27.3607C11.0693 27.3607 11.0695 27.3607 11.0697 27.3607C11.0698 27.3607 11.07 27.3607 11.0702 27.3607C11.0703 27.3607 11.0705 27.3607 11.0707 27.3607C11.0708 27.3607 11.071 27.3607 11.0712 27.3607C11.0714 27.3607 11.0715 27.3607 11.0717 27.3607C11.0719 27.3607 11.0721 27.3607 11.0723 27.3607C11.0724 27.3607 11.0726 27.3607 11.0728 27.3607C11.073 27.3607 11.0732 27.3607 11.0734 27.3607C11.0736 27.3607 11.0737 27.3607 11.0739 27.3607C11.0741 27.3607 11.0743 27.3607 11.0745 27.3607C11.0747 27.3607 11.0749 27.3607 11.0751 27.3607C11.0753 27.3607 11.0755 27.3607 11.0757 27.3607C11.0759 27.3607 11.0761 27.3607 11.0763 27.3607C11.0765 27.3607 11.0767 27.3607 11.077 27.3607C11.0772 27.3607 11.0774 27.3607 11.0776 27.3607C11.0778 27.3607 11.078 27.3607 11.0782 27.3607C11.0785 27.3607 11.0787 27.3607 11.0789 27.3607C11.0791 27.3607 11.0793 27.3607 11.0796 27.3607C11.0798 27.3607 11.08 27.3607 11.0803 27.3607C11.0805 27.3607 11.0807 27.3607 11.0809 27.3607C11.0812 27.3607 11.0814 27.3607 11.0816 27.3607C11.0819 27.3607 11.0821 27.3607 11.0824 27.3607C11.0826 27.3607 11.0828 27.3607 11.0831 27.3607C11.0833 27.3607 11.0836 27.3607 11.0838 27.3607C11.0841 27.3607 11.0843 27.3607 11.0846 27.3607C11.0848 27.3607 11.0851 27.3607 11.0853 27.3607C11.0856 27.3607 11.0858 27.3607 11.0861 27.3607C11.0863 27.3607 11.0866 27.3607 11.0869 27.3607C11.0871 27.3607 11.0874 27.3607 11.0876 27.3607C11.0879 27.3607 11.0882 27.3607 11.0884 27.3607C11.0887 27.3607 11.089 27.3607 11.0893 27.3607C11.0895 27.3607 11.0898 27.3607 11.0901 27.3607C11.0903 27.3607 11.0906 27.3607 11.0909 27.3607C11.0912 27.3607 11.0915 27.3607 11.0917 27.3607C11.092 27.3607 11.0923 27.3607 11.0926 27.3607C11.0929 27.3607 11.0932 27.3607 11.0935 27.3607C11.0938 27.3607 11.094 27.3607 11.0943 27.3607C11.0946 27.3607 11.0949 27.3607 11.0952 27.3607C11.0955 27.3607 11.0958 27.3607 11.0961 27.3607C11.0964 27.3607 11.0967 27.3607 11.097 27.3607C11.0973 27.3607 11.0976 27.3607 11.0979 27.3607C11.0982 27.3607 11.0985 27.3607 11.0989 27.3607C11.0992 27.3607 11.0995 27.3607 11.0998 27.3607C11.1001 27.3607 11.1004 27.3607 11.1007 27.3607C11.1011 27.3607 11.1014 27.3607 11.1017 27.3607C11.102 27.3607 11.1023 27.3607 11.1027 27.3607C11.103 27.3607 11.1033 27.3607 11.1037 27.3607C11.104 27.3607 11.1043 27.3607 11.1046 27.3607C11.105 27.3607 11.1053 27.3607 11.1056 27.3607C11.106 27.3607 11.1063 27.3607 11.1067 27.3607C11.107 27.3607 11.1073 27.3607 11.1077 27.3607C11.108 27.3607 11.1084 27.3607 11.1087 27.3607C11.1091 27.3607 11.1094 27.3607 11.1097 27.3607C11.1101 27.3607 11.1104 27.3607 11.1108 27.3607C11.1112 27.3607 11.1115 27.3607 11.1119 27.3607C11.1122 27.3607 11.1126 27.3607 11.1129 27.3607C11.1133 27.3607 11.1137 27.3607 11.114 27.3607C11.1144 27.3607 11.1148 27.3607 11.1151 27.3607C11.1155 27.3607 11.1159 27.3607 11.1162 27.3607C11.1166 27.3607 11.117 27.3607 11.1173 27.3607C11.1177 27.3607 11.1181 27.3607 11.1185 27.3607C11.1188 27.3607 11.1192 27.3607 11.1196 27.3607C11.12 27.3607 11.1204 27.3607 11.1207 27.3607C11.1211 27.3607 11.1215 27.3607 11.1219 27.3607C11.1223 27.3607 11.1227 27.3607 11.1231 27.3607C11.1235 27.3607 11.1239 27.3607 11.1243 27.3607C11.1246 27.3607 11.125 27.3607 11.1254 27.3607C11.1258 27.3607 11.1262 27.3607 11.1266 27.3607C11.127 27.3607 11.1274 27.3607 11.1279 27.3607C11.1283 27.3607 11.1287 27.3607 11.1291 27.3607C11.1295 27.3607 11.1299 27.3607 11.1303 27.3607C11.1307 27.3607 11.1311 27.3607 11.1315 27.3607C11.132 27.3607 11.1324 27.3607 11.1328 27.3607C11.1332 27.3607 11.1336 27.3607 11.1341 27.3607C11.1345 27.3607 11.1349 27.3607 11.1353 27.3607C11.1357 27.3607 11.1362 27.3607 11.1366 27.3607C11.137 27.3607 11.1375 27.3607 11.1379 27.3607C11.1383 27.3607 11.1388 27.3607 11.1392 27.3607C11.1396 27.3607 11.1401 27.3607 11.1405 27.3607C11.141 27.3607 11.1414 27.3607 11.1418 27.3607C11.1423 27.3607 11.1427 27.3607 11.1432 27.3607C11.1436 27.3607 11.1441 27.3607 11.1445 27.3607C11.145 27.3607 11.1454 27.3607 11.1459 27.3607C11.1463 27.3607 11.1468 27.3607 11.1472 27.3607C11.1477 27.3607 11.1481 27.3607 11.1486 27.3607C11.1491 27.3607 11.1495 27.3607 11.15 27.3607C11.1505 27.3607 11.1509 27.3607 11.1514 27.3607C11.1519 27.3607 11.1523 27.3607 11.1528 27.3607C11.1533 27.3607 11.1537 27.3607 11.1542 27.3607C11.1547 27.3607 11.1552 27.3607 11.1556 27.3607C11.1561 27.3607 11.1566 27.3607 11.1571 27.3607C11.1575 27.3607 11.158 27.3607 11.1585 27.3607C11.159 27.3607 11.1595 27.3607 11.16 27.3607C11.1605 27.3607 11.1609 27.3607 11.1614 27.3607C11.1619 27.3607 11.1624 27.3607 11.1629 27.3607C11.1634 27.3607 11.1639 27.3607 11.1644 27.3607C11.1649 27.3607 11.1654 27.3607 11.1659 27.3607C11.1664 27.3607 11.1669 27.3607 11.1674 27.3607C11.1679 27.3607 11.1684 27.3607 11.1689 27.3607C11.1694 27.3607 11.1699 27.3607 11.1704 27.3607C11.171 27.3607 11.1715 27.3607 11.172 27.3607C11.1725 27.3607 11.173 27.3607 11.1735 27.3607C11.174 27.3607 11.1746 27.3607 11.1751 27.3607C11.1756 27.3607 11.1761 27.3607 11.1767 27.3607C11.1772 27.3607 11.1777 27.3607 11.1782 27.3607C11.1788 27.3607 11.1793 27.3607 11.1798 27.3607C11.1803 27.3607 11.1809 27.3607 11.1814 27.3607C11.1819 27.3607 11.1825 27.3607 11.183 27.3607C11.1836 27.3607 11.1841 27.3607 11.1846 27.3607C11.1852 27.3607 11.1857 27.3607 11.1863 27.3607C11.1868 27.3607 11.1874 27.3607 11.1879 27.3607C11.1884 27.3607 11.189 27.3607 11.1895 27.3607C11.1901 27.3607 11.1907 27.3607 11.1912 27.3607C11.1918 27.3607 11.1923 27.3607 11.1929 27.3607C11.1934 27.3607 11.194 27.3607 11.1946 27.3607C11.1951 27.3607 11.1957 27.3607 11.1962 27.3607C11.1968 27.3607 11.1974 27.3607 11.1979 27.3607C11.1985 27.3607 11.1991 27.3607 11.1996 27.3607C11.2002 27.3607 11.2008 27.3607 11.2014 27.3607C11.2019 27.3607 11.2025 27.3607 11.2031 27.3607C11.2037 27.3607 11.2042 27.3607 11.2048 27.3607C11.2054 27.3607 11.206 27.3607 11.2066 27.3607C11.2072 27.3607 11.2077 27.3607 11.2083 27.3607C11.2089 27.3607 11.2095 27.3607 11.2101 27.3607C11.2107 27.3607 11.2113 27.3607 11.2119 27.3607C11.2125 27.3607 11.2131 27.3607 11.2137 27.3607C11.2143 27.3607 11.2149 27.3607 11.2155 27.3607C11.2161 27.3607 11.2167 27.3607 11.2173 27.3607C11.2179 27.3607 11.2185 27.3607 11.2191 27.3607C11.2197 27.3607 11.2203 27.3607 11.2209 27.3607C11.2215 27.3607 11.2221 27.3607 11.2227 27.3607C11.2234 27.3607 11.224 27.3607 11.2246 27.3607C11.2252 27.3607 11.2258 27.3607 11.2264 27.3607C11.2271 27.3607 11.2277 27.3607 11.2283 27.3607C11.2289 27.3607 11.2296 27.3607 11.2302 27.3607C11.2308 27.3607 11.2314 27.3607 11.2321 27.3607C11.2327 27.3607 11.2333 27.3607 11.234 27.3607C11.2346 27.3607 11.2352 27.3607 11.2359 27.3607C11.2365 27.3607 11.2371 27.3607 11.2378 27.3607C11.2384 27.3607 11.2391 27.3607 11.2397 27.3607C11.2403 27.3607 11.241 27.3607 11.2416 27.3607C11.2423 27.3607 11.2429 27.3607 11.2436 27.3607C11.2442 27.3607 11.2449 27.3607 11.2455 27.3607C11.2462 27.3607 11.2468 27.3607 11.2475 27.3607C11.2482 27.3607 11.2488 27.3607 11.2495 27.3607C11.2501 27.3607 11.2508 27.3607 11.2515 27.3607C11.2521 27.3607 11.2528 27.3607 11.2534 27.3607C11.2541 27.3607 11.2548 27.3607 11.2554 27.3607C11.2561 27.3607 11.2568 27.3607 11.2575 27.3607C11.2581 27.3607 11.2588 27.3607 11.2595 27.3607C11.2602 27.3607 11.2608 27.3607 11.2615 27.3607C11.2622 27.3607 11.2629 27.3607 11.2636 27.3607C11.2642 27.3607 11.2649 27.3607 11.2656 27.3607C11.2663 27.3607 11.267 27.3607 11.2677 27.3607C11.2684 27.3607 11.269 27.3607 11.2697 27.3607C11.2704 27.3607 11.2711 27.3607 11.2718 27.3607C11.2725 27.3607 11.2732 27.3607 11.2739 27.3607C11.2746 27.3607 11.2753 27.3607 11.276 27.3607C11.2767 27.3607 11.2774 27.3607 11.2781 27.3607C11.2788 27.3607 11.2795 27.3607 11.2802 27.3607C11.2809 27.3607 11.2816 27.3607 11.2824 27.3607C11.2831 27.3607 11.2838 27.3607 11.2845 27.3607C11.2852 27.3607 11.2859 27.3607 11.2866 27.3607C11.2874 27.3607 11.2881 27.3607 11.2888 27.3607C11.2895 27.3607 11.2902 27.3607 11.291 27.3607C11.2917 27.3607 11.2924 27.3607 11.2931 27.3607C11.2939 27.3607 11.2946 27.3607 11.2953 27.3607C11.296 27.3607 11.2968 27.3607 11.2975 27.3607C11.2982 27.3607 11.299 27.3607 11.2997 27.3607C11.3004 27.3607 11.3012 27.3607 11.3019 27.3607C11.3027 27.3607 11.3034 27.3607 11.3041 27.3607C11.3049 27.3607 11.3056 27.3607 11.3064 27.3607C11.3071 27.3607 11.3079 27.3607 11.3086 27.3607C11.3094 27.3607 11.3101 27.3607 11.3109 27.3607C11.3116 27.3607 11.3124 27.3607 11.3131 27.3607C11.3139 27.3607 11.3146 27.3607 11.3154 27.3607C11.3162 27.3607 11.3169 27.3607 11.3177 27.3607C11.3184 27.3607 11.3192 27.3607 11.32 27.3607C11.3207 27.3607 11.3215 27.3607 11.3223 27.3607C11.323 27.3607 11.3238 27.3607 11.3246 27.3607C11.3253 27.3607 11.3261 27.3607 11.3269 27.3607C11.3277 27.3607 11.3284 27.3607 11.3292 27.3607C11.33 27.3607 11.3308 27.3607 11.3316 27.3607C11.3323 27.3607 11.3331 27.3607 11.3339 27.3607C11.3347 27.3607 11.3355 27.3607 11.3363 27.3607C11.337 27.3607 11.3378 27.3607 11.3386 27.3607C11.3394 27.3607 11.3402 27.3607 11.341 27.3607C11.3418 27.3607 11.3426 27.3607 11.3434 27.3607C11.3442 27.3607 11.345 27.3607 11.3458 27.3607C11.3466 27.3607 11.3474 27.3607 11.3482 27.3607C11.349 27.3607 11.3498 27.3607 11.3506 27.3607C11.3514 27.3607 11.3522 27.3607 11.353 27.3607C11.3538 27.3607 11.3546 27.3607 11.3554 27.3607C11.3562 27.3607 11.3571 27.3607 11.3579 27.3607C11.3587 27.3607 11.3595 27.3607 11.3603 27.3607C11.3611 27.3607 11.362 27.3607 11.3628 27.3607C11.3636 27.3607 11.3644 27.3607 11.3652 27.3607C11.3661 27.3607 11.3669 27.3607 11.3677 27.3607C11.3685 27.3607 11.3694 27.3607 11.3702 27.3607C11.371 27.3607 11.3719 27.3607 11.3727 27.3607C11.3735 27.3607 11.3744 27.3607 11.3752 27.3607C11.376 27.3607 11.3769 27.3607 11.3777 27.3607C11.3786 27.3607 11.3794 27.3607 11.3802 27.3607C11.3811 27.3607 11.3819 27.3607 11.3828 27.3607C11.3836 27.3607 11.3845 27.3607 11.3853 27.3607C11.3862 27.3607 11.387 27.3607 11.3879 27.3607C11.3887 27.3607 11.3896 27.3607 11.3904 27.3607C11.3913 27.3607 11.3921 27.3607 11.393 27.3607C11.3938 27.3607 11.3947 27.3607 11.3956 27.3607C11.3964 27.3607 11.3973 27.3607 11.3981 27.3607C11.399 27.3607 11.3999 27.3607 11.4007 27.3607C11.4016 27.3607 11.4025 27.3607 11.4033 27.3607C11.4042 27.3607 11.4051 27.3607 11.406 27.3607C11.4068 27.3607 11.4077 27.3607 11.4086 27.3607C11.4095 27.3607 11.4103 27.3607 11.4112 27.3607C11.4121 27.3607 11.413 27.3607 11.4139 27.3607C11.4147 27.3607 11.4156 27.3607 11.4165 27.3607C11.4174 27.3607 11.4183 27.3607 11.4192 27.3607C11.4201 27.3607 11.4209 27.3607 11.4218 27.3607C11.4227 27.3607 11.4236 27.3607 11.4245 27.3607C11.4254 27.3607 11.4263 27.3607 11.4272 27.3607C11.4281 27.3607 11.429 27.3607 11.4299 27.3607C11.4308 27.3607 11.4317 27.3607 11.4326 27.3607C11.4335 27.3607 11.4344 27.3607 11.4353 27.3607C11.4362 27.3607 11.4371 27.3607 11.438 27.3607C11.4389 27.3607 11.4399 27.3607 11.4408 27.3607C11.4417 27.3607 11.4426 27.3607 11.4435 27.3607C11.4444 27.3607 11.4453 27.3607 11.4463 27.3607C11.4472 27.3607 11.4481 27.3607 11.449 27.3607C11.4499 27.3607 11.4509 27.3607 11.4518 27.3607C11.4527 27.3607 11.4536 27.3607 11.4546 27.3607C11.4555 27.3607 11.4564 27.3607 11.4573 27.3607C11.4583 27.3607 11.4592 27.3607 11.4601 27.3607C11.4611 27.3607 11.462 27.3607 11.4629 27.3607C11.4639 27.3607 11.4648 27.3607 11.4658 27.3607C11.4667 27.3607 11.4676 27.3607 11.4686 27.3607C11.4695 27.3607 11.4705 27.3607 11.4714 27.3607C11.4724 27.3607 11.4733 27.3607 11.4742 27.3607C11.4752 27.3607 11.4761 27.3607 11.4771 27.3607C11.478 27.3607 11.479 27.3607 11.48 27.3607C11.4809 27.3607 11.4819 27.3607 11.4828 27.3607C11.4838 27.3607 11.4847 27.3607 11.4857 27.3607C11.4867 27.3607 11.4876 27.3607 11.4886 27.3607C11.4895 27.3607 11.4905 27.3607 11.4915 27.3607C11.4924 27.3607 11.4934 27.3607 11.4944 27.3607C11.4953 27.3607 11.4963 27.3607 11.4973 27.3607C11.4983 27.3607 11.4992 27.3607 11.5002 27.3607C11.5012 27.3607 11.5022 27.3607 11.5031 27.3607C11.5041 27.3607 11.5051 27.3607 11.5061 27.3607C11.507 27.3607 11.508 27.3607 11.509 27.3607C11.51 27.3607 11.511 27.3607 11.512 27.3607C11.513 27.3607 11.5139 27.3607 11.5149 27.3607C11.5159 27.3607 11.5169 27.3607 11.5179 27.3607C11.5189 27.3607 11.5199 27.3607 11.5209 27.3607C11.5219 27.3607 11.5229 27.3607 11.5239 27.3607C11.5249 27.3607 11.5259 27.3607 11.5269 27.3607C11.5279 27.3607 11.5289 27.3607 11.5299 27.3607C11.5309 27.3607 11.5319 27.3607 11.5329 27.3607C11.5339 27.3607 11.5349 27.3607 11.5359 27.3607C11.5369 27.3607 11.5379 27.3607 11.539 27.3607C11.54 27.3607 11.541 27.3607 11.542 27.3607C11.543 27.3607 11.544 27.3607 11.545 27.3607C11.5461 27.3607 11.5471 27.3607 11.5481 27.3607C11.5491 27.3607 11.5501 27.3607 11.5512 27.3607C11.5522 27.3607 11.5532 27.3607 11.5543 27.3607C11.5553 27.3607 11.5563 27.3607 11.5573 27.3607C11.5584 27.3607 11.5594 27.3607 11.5604 27.3607C11.5615 27.3607 11.5625 27.3607 11.5635 27.3607C11.5646 27.3607 11.5656 27.3607 11.5666 27.3607C11.5677 27.3607 11.5687 27.3607 11.5698 27.3607C11.5708 27.3607 11.5719 27.3607 11.5729 27.3607C11.5739 27.3607 11.575 27.3607 11.576 27.3607C11.5771 27.3607 11.5781 27.3607 11.5792 27.3607C11.5802 27.3607 11.5813 27.3607 11.5823 27.3607C11.5834 27.3607 11.5844 27.3607 11.5855 27.3607C11.5866 27.3607 11.5876 27.3607 11.5887 27.3607C11.5897 27.3607 11.5908 27.3607 11.5919 27.3607C11.5929 27.3607 11.594 27.3607 11.595 27.3607C11.5961 27.3607 11.5972 27.3607 11.5982 27.3607C11.5993 27.3607 11.6004 27.3607 11.6014 27.3607C11.6025 27.3607 11.6036 27.3607 11.6047 27.3607C11.6057 27.3607 11.6068 27.3607 11.6079 27.3607C11.609 27.3607 11.61 27.3607 11.6111 27.3607C11.6122 27.3607 11.6133 27.3607 11.6144 27.3607C11.6154 27.3607 11.6165 27.3607 11.6176 27.3607C11.6187 27.3607 11.6198 27.3607 11.6209 27.3607C11.6219 27.3607 11.623 27.3607 11.6241 27.3607C11.6252 27.3607 11.6263 27.3607 11.6274 27.3607C11.6285 27.3607 11.6296 27.3607 11.6307 27.3607C11.6318 27.3607 11.6329 27.3607 11.634 27.3607C11.6351 27.3607 11.6362 27.3607 11.6373 27.3607C11.6384 27.3607 11.6395 27.3607 11.6406 27.3607C11.6417 27.3607 11.6428 27.3607 11.6439 27.3607C11.645 27.3607 11.6461 27.3607 11.6472 27.3607C11.6483 27.3607 11.6494 27.3607 11.6506 27.3607C11.6517 27.3607 11.6528 27.3607 11.6539 27.3607C11.655 27.3607 11.6561 27.3607 11.6573 27.3607C11.6584 27.3607 11.6595 27.3607 11.6606 27.3607C11.6617 27.3607 11.6629 27.3607 11.664 27.3607C11.6651 27.3607 11.6662 27.3607 11.6674 27.3607C11.6685 27.3607 11.6696 27.3607 11.6707 27.3607C11.6719 27.3607 11.673 27.3607 11.6741 27.3607C11.6753 27.3607 11.6764 27.3607 11.6775 27.3607C11.6787 27.3607 11.6798 27.3607 11.6809 27.3607C11.6821 27.3607 11.6832 27.3607 11.6844 27.3607C11.6855 27.3607 11.6866 27.3607 11.6878 27.3607C11.6889 27.3607 11.6901 27.3607 11.6912 27.3607C11.6924 27.3607 11.6935 27.3607 11.6947 27.3607C11.6958 27.3607 11.697 27.3607 11.6981 27.3607C11.6993 27.3607 11.7004 27.3607 11.7016 27.3607C11.7027 27.3607 11.7039 27.3607 11.705 27.3607C11.7062 27.3607 11.7074 27.3607 11.7085 27.3607C11.7097 27.3607 11.7108 27.3607 11.712 27.3607C11.7132 27.3607 11.7143 27.3607 11.7155 27.3607C11.7167 27.3607 11.7178 27.3607 11.719 27.3607C11.7202 27.3607 11.7213 27.3607 11.7225 27.3607C11.7237 27.3607 11.7248 27.3607 11.726 27.3607C11.7272 27.3607 11.7284 27.3607 11.7295 27.3607C11.7307 27.3607 11.7319 27.3607 11.7331 27.3607C11.7343 27.3607 11.7354 27.3607 11.7366 27.3607C11.7378 27.3607 11.739 27.3607 11.7402 27.3607C11.7414 27.3607 11.7425 27.3607 11.7437 27.3607C11.7449 27.3607 11.7461 27.3607 11.7473 27.3607C11.7485 27.3607 11.7497 27.3607 11.7509 27.3607C11.7521 27.3607 11.7533 27.3607 11.7545 27.3607C11.7557 27.3607 11.7568 27.3607 11.758 27.3607C11.7592 27.3607 11.7604 27.3607 11.7616 27.3607C11.7628 27.3607 11.7641 27.3607 11.7653 27.3607C11.7665 27.3607 11.7677 27.3607 11.7689 27.3607C11.7701 27.3607 11.7713 27.3607 11.7725 27.3607C11.7737 27.3607 11.7749 27.3607 11.7761 27.3607C11.7773 27.3607 11.7786 27.3607 11.7798 27.3607C11.781 27.3607 11.7822 27.3607 11.7834 27.3607C11.7846 27.3607 11.7858 27.3607 11.7871 27.3607C11.7883 27.3607 11.7895 27.3607 11.7907 27.3607C11.792 27.3607 11.7932 27.3607 11.7944 27.3607C11.7956 27.3607 11.7969 27.3607 11.7981 27.3607C11.7993 27.3607 11.8005 27.3607 11.8018 27.3607C11.803 27.3607 11.8042 27.3607 11.8055 27.3607C11.8067 27.3607 11.8079 27.3607 11.8092 27.3607C11.8104 27.3607 11.8116 27.3607 11.8129 27.3607C11.8141 27.3607 11.8154 27.3607 11.8166 27.3607C11.8179 27.3607 11.8191 27.3607 11.8203 27.3607C11.8216 27.3607 11.8228 27.3607 11.8241 27.3607C11.8253 27.3607 11.8266 27.3607 11.8278 27.3607C11.8291 27.3607 11.8303 27.3607 11.8316 27.3607C11.8328 27.3607 11.8341 27.3607 11.8353 27.3607C11.8366 27.3607 11.8378 27.3607 11.8391 27.3607C11.8404 27.3607 11.8416 27.3607 11.8429 27.3607C11.8441 27.3607 11.8454 27.3607 11.8467 27.3607C11.8479 27.3607 11.8492 27.3607 11.8505 27.3607C11.8517 27.3607 11.853 27.3607 11.8543 27.3607C11.8555 27.3607 11.8568 27.3607 11.8581 27.3607C11.8593 27.3607 11.8606 27.3607 11.8619 27.3607C11.8632 27.3607 11.8644 27.3607 11.8657 27.3607C11.867 27.3607 11.8683 27.3607 11.8695 27.3607C11.8708 27.3607 11.8721 27.3607 11.8734 27.3607C11.8747 27.3607 11.8759 27.3607 11.8772 27.3607C11.8785 27.3607 11.8798 27.3607 11.8811 27.3607C11.8824 27.3607 11.8837 27.3607 11.8849 27.3607C11.8862 27.3607 11.8875 27.3607 11.8888 27.3607C11.8901 27.3607 11.8914 27.3607 11.8927 27.3607C11.894 27.3607 11.8953 27.3607 11.8966 27.3607C11.8979 27.3607 11.8992 27.3607 11.9005 27.3607C11.9018 27.3607 11.9031 27.3607 11.9044 27.3607C11.9057 27.3607 11.907 27.3607 11.9083 27.3607C11.9096 27.3607 11.9109 27.3607 11.9122 27.3607C11.9135 27.3607 11.9148 27.3607 11.9161 27.3607C11.9174 27.3607 11.9188 27.3607 11.9201 27.3607C11.9214 27.3607 11.9227 27.3607 11.924 27.3607C11.9253 27.3607 11.9266 27.3607 11.928 27.3607C11.9293 27.3607 11.9306 27.3607 11.9319 27.3607C11.9332 27.3607 11.9346 27.3607 11.9359 27.3607C11.9372 27.3607 11.9385 27.3607 11.9399 27.3607C11.9412 27.3607 11.9425 27.3607 11.9438 27.3607C11.9452 27.3607 11.9465 27.3607 11.9478 27.3607C11.9492 27.3607 11.9505 27.3607 11.9518 27.3607C11.9532 27.3607 11.9545 27.3607 11.9558 27.3607C11.9572 27.3607 11.9585 27.3607 11.9598 27.3607C11.9612 27.3607 11.9625 27.3607 11.9639 27.3607C11.9652 27.3607 11.9665 27.3607 11.9679 27.3607C11.9692 27.3607 11.9706 27.3607 11.9719 27.3607C11.9733 27.3607 11.9746 27.3607 11.976 27.3607C11.9773 27.3607 11.9787 27.3607 11.98 27.3607C11.9814 27.3607 11.9827 27.3607 11.9841 27.3607C11.9854 27.3607 11.9868 27.3607 11.9881 27.3607C11.9895 27.3607 11.9908 27.3607 11.9922 27.3607C11.9936 27.3607 11.9949 27.3607 11.9963 27.3607C11.9977 27.3607 11.999 27.3607 12.0004 27.3607C12.0017 27.3607 12.0031 27.3607 12.0045 27.3607C12.0058 27.3607 12.0072 27.3607 12.0086 27.3607C12.0099 27.3607 12.0113 27.3607 12.0127 27.3607C12.0141 27.3607 12.0154 27.3607 12.0168 27.3607C12.0182 27.3607 12.0196 27.3607 12.0209 27.3607C12.0223 27.3607 12.0237 27.3607 12.0251 27.3607C12.0264 27.3607 12.0278 27.3607 12.0292 27.3607C12.0306 27.3607 12.032 27.3607 12.0334 27.3607C12.0347 27.3607 12.0361 27.3607 12.0375 27.3607C12.0389 27.3607 12.0403 27.3607 12.0417 27.3607C12.0431 27.3607 12.0445 27.3607 12.0459 27.3607C12.0472 27.3607 12.0486 27.3607 12.05 27.3607C12.0514 27.3607 12.0528 27.3607 12.0542 27.3607C12.0556 27.3607 12.057 27.3607 12.0584 27.3607C12.0598 27.3607 12.0612 27.3607 12.0626 27.3607C12.064 27.3607 12.0654 27.3607 12.0668 27.3607C12.0682 27.3607 12.0696 27.3607 12.071 27.3607C12.0724 27.3607 12.0739 27.3607 12.0753 27.3607C12.0767 27.3607 12.0781 27.3607 12.0795 27.3607C12.0809 27.3607 12.0823 27.3607 12.0837 27.3607C12.0851 27.3607 12.0866 27.3607 12.088 27.3607C12.0894 27.3607 12.0908 27.3607 12.0922 27.3607C12.0937 27.3607 12.0951 27.3607 12.0965 27.3607C12.0979 27.3607 12.0993 27.3607 12.1008 27.3607C12.1022 27.3607 12.1036 27.3607 12.105 27.3607C12.1065 27.3607 12.1079 27.3607 12.1093 27.3607C12.1108 27.3607 12.1122 27.3607 12.1136 27.3607C12.115 27.3607 12.1165 27.3607 12.1179 27.3607C12.1193 27.3607 12.1208 27.3607 12.1222 27.3607C12.1237 27.3607 12.1251 27.3607 12.1265 27.3607C12.128 27.3607 12.1294 27.3607 12.1309 27.3607C12.1323 27.3607 12.1337 27.3607 12.1352 27.3607C12.1366 27.3607 12.1381 27.3607 12.1395 27.3607C12.141 27.3607 12.1424 27.3607 12.1439 27.3607C12.1453 27.3607 12.1468 27.3607 12.1482 27.3607C12.1497 27.3607 12.1511 27.3607 12.1526 27.3607C12.154 27.3607 12.1555 27.3607 12.1569 27.3607C12.1584 27.3607 12.1598 27.3607 12.1613 27.3607C12.1628 27.3607 12.1642 27.3607 12.1657 27.3607C12.1671 27.3607 12.1686 27.3607 12.1701 27.3607C12.1715 27.3607 12.173 27.3607 12.1745 27.3607C12.1759 27.3607 12.1774 27.3607 12.1789 27.3607C12.1803 27.3607 12.1818 27.3607 12.1833 27.3607C12.1847 27.3607 12.1862 27.3607 12.1877 27.3607C12.1892 27.3607 12.1906 27.3607 12.1921 27.3607C12.1936 27.3607 12.1951 27.3607 12.1965 27.3607C12.198 27.3607 12.1995 27.3607 12.201 27.3607C12.2025 27.3607 12.2039 27.3607 12.2054 27.3607C12.2069 27.3607 12.2084 27.3607 12.2099 27.3607C12.2114 27.3607 12.2128 27.3607 12.2143 27.3607C12.2158 27.3607 12.2173 27.3607 12.2188 27.3607C12.2203 27.3607 12.2218 27.3607 12.2233 27.3607C12.2248 27.3607 12.2263 27.3607 12.2278 27.3607C12.2292 27.3607 12.2307 27.3607 12.2322 27.3607C12.2337 27.3607 12.2352 27.3607 12.2367 27.3607C12.2382 27.3607 12.2397 27.3607 12.2412 27.3607C12.2427 27.3607 12.2442 27.3607 12.2457 27.3607C12.2473 27.3607 12.2488 27.3607 12.2503 27.3607C12.2518 27.3607 12.2533 27.3607 12.2548 27.3607C12.2563 27.3607 12.2578 27.3607 12.2593 27.3607C12.2608 27.3607 12.2623 27.3607 12.2639 27.3607C12.2654 27.3607 12.2669 27.3607 12.2684 27.3607C12.2699 27.3607 12.2714 27.3607 12.2729 27.3607C12.2745 27.3607 12.276 27.3607 12.2775 27.3607C12.279 27.3607 12.2806 27.3607 12.2821 27.3607C12.2836 27.3607 12.2851 27.3607 12.2866 27.3607C12.2882 27.3607 12.2897 27.3607 12.2912 27.3607C12.2928 27.3607 12.2943 27.3607 12.2958 27.3607C12.2973 27.3607 12.2989 27.3607 12.3004 27.3607C12.3019 27.3607 12.3035 27.3607 12.305 27.3607C12.3065 27.3607 12.3081 27.3607 12.3096 27.3607C12.3112 27.3607 12.3127 27.3607 12.3142 27.3607C12.3158 27.3607 12.3173 27.3607 12.3189 27.3607C12.3204 27.3607 12.3219 27.3607 12.3235 27.3607C12.325 27.3607 12.3266 27.3607 12.3281 27.3607C12.3297 27.3607 12.3312 27.3607 12.3328 27.3607C12.3343 27.3607 12.3359 27.3607 12.3374 27.3607C12.339 27.3607 12.3405 27.3607 12.3421 27.3607C12.3436 27.3607 12.3452 27.3607 12.3467 27.3607C12.3483 27.3607 12.3498 27.3607 12.3514 27.3607V25.8607C12.3498 25.8607 12.3483 25.8607 12.3467 25.8607C12.3452 25.8607 12.3436 25.8607 12.3421 25.8607C12.3405 25.8607 12.339 25.8607 12.3374 25.8607C12.3359 25.8607 12.3343 25.8607 12.3328 25.8607C12.3312 25.8607 12.3297 25.8607 12.3281 25.8607C12.3266 25.8607 12.325 25.8607 12.3235 25.8607C12.3219 25.8607 12.3204 25.8607 12.3189 25.8607C12.3173 25.8607 12.3158 25.8607 12.3142 25.8607C12.3127 25.8607 12.3112 25.8607 12.3096 25.8607C12.3081 25.8607 12.3065 25.8607 12.305 25.8607C12.3035 25.8607 12.3019 25.8607 12.3004 25.8607C12.2989 25.8607 12.2973 25.8607 12.2958 25.8607C12.2943 25.8607 12.2928 25.8607 12.2912 25.8607C12.2897 25.8607 12.2882 25.8607 12.2866 25.8607C12.2851 25.8607 12.2836 25.8607 12.2821 25.8607C12.2806 25.8607 12.279 25.8607 12.2775 25.8607C12.276 25.8607 12.2745 25.8607 12.2729 25.8607C12.2714 25.8607 12.2699 25.8607 12.2684 25.8607C12.2669 25.8607 12.2654 25.8607 12.2639 25.8607C12.2623 25.8607 12.2608 25.8607 12.2593 25.8607C12.2578 25.8607 12.2563 25.8607 12.2548 25.8607C12.2533 25.8607 12.2518 25.8607 12.2503 25.8607C12.2488 25.8607 12.2473 25.8607 12.2457 25.8607C12.2442 25.8607 12.2427 25.8607 12.2412 25.8607C12.2397 25.8607 12.2382 25.8607 12.2367 25.8607C12.2352 25.8607 12.2337 25.8607 12.2322 25.8607C12.2307 25.8607 12.2292 25.8607 12.2278 25.8607C12.2263 25.8607 12.2248 25.8607 12.2233 25.8607C12.2218 25.8607 12.2203 25.8607 12.2188 25.8607C12.2173 25.8607 12.2158 25.8607 12.2143 25.8607C12.2128 25.8607 12.2114 25.8607 12.2099 25.8607C12.2084 25.8607 12.2069 25.8607 12.2054 25.8607C12.2039 25.8607 12.2025 25.8607 12.201 25.8607C12.1995 25.8607 12.198 25.8607 12.1965 25.8607C12.1951 25.8607 12.1936 25.8607 12.1921 25.8607C12.1906 25.8607 12.1892 25.8607 12.1877 25.8607C12.1862 25.8607 12.1847 25.8607 12.1833 25.8607C12.1818 25.8607 12.1803 25.8607 12.1789 25.8607C12.1774 25.8607 12.1759 25.8607 12.1745 25.8607C12.173 25.8607 12.1715 25.8607 12.1701 25.8607C12.1686 25.8607 12.1671 25.8607 12.1657 25.8607C12.1642 25.8607 12.1628 25.8607 12.1613 25.8607C12.1598 25.8607 12.1584 25.8607 12.1569 25.8607C12.1555 25.8607 12.154 25.8607 12.1526 25.8607C12.1511 25.8607 12.1497 25.8607 12.1482 25.8607C12.1468 25.8607 12.1453 25.8607 12.1439 25.8607C12.1424 25.8607 12.141 25.8607 12.1395 25.8607C12.1381 25.8607 12.1366 25.8607 12.1352 25.8607C12.1337 25.8607 12.1323 25.8607 12.1309 25.8607C12.1294 25.8607 12.128 25.8607 12.1265 25.8607C12.1251 25.8607 12.1237 25.8607 12.1222 25.8607C12.1208 25.8607 12.1193 25.8607 12.1179 25.8607C12.1165 25.8607 12.115 25.8607 12.1136 25.8607C12.1122 25.8607 12.1108 25.8607 12.1093 25.8607C12.1079 25.8607 12.1065 25.8607 12.105 25.8607C12.1036 25.8607 12.1022 25.8607 12.1008 25.8607C12.0993 25.8607 12.0979 25.8607 12.0965 25.8607C12.0951 25.8607 12.0937 25.8607 12.0922 25.8607C12.0908 25.8607 12.0894 25.8607 12.088 25.8607C12.0866 25.8607 12.0851 25.8607 12.0837 25.8607C12.0823 25.8607 12.0809 25.8607 12.0795 25.8607C12.0781 25.8607 12.0767 25.8607 12.0753 25.8607C12.0739 25.8607 12.0724 25.8607 12.071 25.8607C12.0696 25.8607 12.0682 25.8607 12.0668 25.8607C12.0654 25.8607 12.064 25.8607 12.0626 25.8607C12.0612 25.8607 12.0598 25.8607 12.0584 25.8607C12.057 25.8607 12.0556 25.8607 12.0542 25.8607C12.0528 25.8607 12.0514 25.8607 12.05 25.8607C12.0486 25.8607 12.0472 25.8607 12.0459 25.8607C12.0445 25.8607 12.0431 25.8607 12.0417 25.8607C12.0403 25.8607 12.0389 25.8607 12.0375 25.8607C12.0361 25.8607 12.0347 25.8607 12.0334 25.8607C12.032 25.8607 12.0306 25.8607 12.0292 25.8607C12.0278 25.8607 12.0264 25.8607 12.0251 25.8607C12.0237 25.8607 12.0223 25.8607 12.0209 25.8607C12.0196 25.8607 12.0182 25.8607 12.0168 25.8607C12.0154 25.8607 12.0141 25.8607 12.0127 25.8607C12.0113 25.8607 12.0099 25.8607 12.0086 25.8607C12.0072 25.8607 12.0058 25.8607 12.0045 25.8607C12.0031 25.8607 12.0017 25.8607 12.0004 25.8607C11.999 25.8607 11.9977 25.8607 11.9963 25.8607C11.9949 25.8607 11.9936 25.8607 11.9922 25.8607C11.9908 25.8607 11.9895 25.8607 11.9881 25.8607C11.9868 25.8607 11.9854 25.8607 11.9841 25.8607C11.9827 25.8607 11.9814 25.8607 11.98 25.8607C11.9787 25.8607 11.9773 25.8607 11.976 25.8607C11.9746 25.8607 11.9733 25.8607 11.9719 25.8607C11.9706 25.8607 11.9692 25.8607 11.9679 25.8607C11.9665 25.8607 11.9652 25.8607 11.9639 25.8607C11.9625 25.8607 11.9612 25.8607 11.9598 25.8607C11.9585 25.8607 11.9572 25.8607 11.9558 25.8607C11.9545 25.8607 11.9532 25.8607 11.9518 25.8607C11.9505 25.8607 11.9492 25.8607 11.9478 25.8607C11.9465 25.8607 11.9452 25.8607 11.9438 25.8607C11.9425 25.8607 11.9412 25.8607 11.9399 25.8607C11.9385 25.8607 11.9372 25.8607 11.9359 25.8607C11.9346 25.8607 11.9332 25.8607 11.9319 25.8607C11.9306 25.8607 11.9293 25.8607 11.928 25.8607C11.9266 25.8607 11.9253 25.8607 11.924 25.8607C11.9227 25.8607 11.9214 25.8607 11.9201 25.8607C11.9188 25.8607 11.9174 25.8607 11.9161 25.8607C11.9148 25.8607 11.9135 25.8607 11.9122 25.8607C11.9109 25.8607 11.9096 25.8607 11.9083 25.8607C11.907 25.8607 11.9057 25.8607 11.9044 25.8607C11.9031 25.8607 11.9018 25.8607 11.9005 25.8607C11.8992 25.8607 11.8979 25.8607 11.8966 25.8607C11.8953 25.8607 11.894 25.8607 11.8927 25.8607C11.8914 25.8607 11.8901 25.8607 11.8888 25.8607C11.8875 25.8607 11.8862 25.8607 11.8849 25.8607C11.8837 25.8607 11.8824 25.8607 11.8811 25.8607C11.8798 25.8607 11.8785 25.8607 11.8772 25.8607C11.8759 25.8607 11.8747 25.8607 11.8734 25.8607C11.8721 25.8607 11.8708 25.8607 11.8695 25.8607C11.8683 25.8607 11.867 25.8607 11.8657 25.8607C11.8644 25.8607 11.8632 25.8607 11.8619 25.8607C11.8606 25.8607 11.8593 25.8607 11.8581 25.8607C11.8568 25.8607 11.8555 25.8607 11.8543 25.8607C11.853 25.8607 11.8517 25.8607 11.8505 25.8607C11.8492 25.8607 11.8479 25.8607 11.8467 25.8607C11.8454 25.8607 11.8441 25.8607 11.8429 25.8607C11.8416 25.8607 11.8404 25.8607 11.8391 25.8607C11.8378 25.8607 11.8366 25.8607 11.8353 25.8607C11.8341 25.8607 11.8328 25.8607 11.8316 25.8607C11.8303 25.8607 11.8291 25.8607 11.8278 25.8607C11.8266 25.8607 11.8253 25.8607 11.8241 25.8607C11.8228 25.8607 11.8216 25.8607 11.8203 25.8607C11.8191 25.8607 11.8179 25.8607 11.8166 25.8607C11.8154 25.8607 11.8141 25.8607 11.8129 25.8607C11.8116 25.8607 11.8104 25.8607 11.8092 25.8607C11.8079 25.8607 11.8067 25.8607 11.8055 25.8607C11.8042 25.8607 11.803 25.8607 11.8018 25.8607C11.8005 25.8607 11.7993 25.8607 11.7981 25.8607C11.7969 25.8607 11.7956 25.8607 11.7944 25.8607C11.7932 25.8607 11.792 25.8607 11.7907 25.8607C11.7895 25.8607 11.7883 25.8607 11.7871 25.8607C11.7858 25.8607 11.7846 25.8607 11.7834 25.8607C11.7822 25.8607 11.781 25.8607 11.7798 25.8607C11.7786 25.8607 11.7773 25.8607 11.7761 25.8607C11.7749 25.8607 11.7737 25.8607 11.7725 25.8607C11.7713 25.8607 11.7701 25.8607 11.7689 25.8607C11.7677 25.8607 11.7665 25.8607 11.7653 25.8607C11.7641 25.8607 11.7628 25.8607 11.7616 25.8607C11.7604 25.8607 11.7592 25.8607 11.758 25.8607C11.7568 25.8607 11.7557 25.8607 11.7545 25.8607C11.7533 25.8607 11.7521 25.8607 11.7509 25.8607C11.7497 25.8607 11.7485 25.8607 11.7473 25.8607C11.7461 25.8607 11.7449 25.8607 11.7437 25.8607C11.7425 25.8607 11.7414 25.8607 11.7402 25.8607C11.739 25.8607 11.7378 25.8607 11.7366 25.8607C11.7354 25.8607 11.7343 25.8607 11.7331 25.8607C11.7319 25.8607 11.7307 25.8607 11.7295 25.8607C11.7284 25.8607 11.7272 25.8607 11.726 25.8607C11.7248 25.8607 11.7237 25.8607 11.7225 25.8607C11.7213 25.8607 11.7202 25.8607 11.719 25.8607C11.7178 25.8607 11.7167 25.8607 11.7155 25.8607C11.7143 25.8607 11.7132 25.8607 11.712 25.8607C11.7108 25.8607 11.7097 25.8607 11.7085 25.8607C11.7074 25.8607 11.7062 25.8607 11.705 25.8607C11.7039 25.8607 11.7027 25.8607 11.7016 25.8607C11.7004 25.8607 11.6993 25.8607 11.6981 25.8607C11.697 25.8607 11.6958 25.8607 11.6947 25.8607C11.6935 25.8607 11.6924 25.8607 11.6912 25.8607C11.6901 25.8607 11.6889 25.8607 11.6878 25.8607C11.6866 25.8607 11.6855 25.8607 11.6844 25.8607C11.6832 25.8607 11.6821 25.8607 11.6809 25.8607C11.6798 25.8607 11.6787 25.8607 11.6775 25.8607C11.6764 25.8607 11.6753 25.8607 11.6741 25.8607C11.673 25.8607 11.6719 25.8607 11.6707 25.8607C11.6696 25.8607 11.6685 25.8607 11.6674 25.8607C11.6662 25.8607 11.6651 25.8607 11.664 25.8607C11.6629 25.8607 11.6617 25.8607 11.6606 25.8607C11.6595 25.8607 11.6584 25.8607 11.6573 25.8607C11.6561 25.8607 11.655 25.8607 11.6539 25.8607C11.6528 25.8607 11.6517 25.8607 11.6506 25.8607C11.6494 25.8607 11.6483 25.8607 11.6472 25.8607C11.6461 25.8607 11.645 25.8607 11.6439 25.8607C11.6428 25.8607 11.6417 25.8607 11.6406 25.8607C11.6395 25.8607 11.6384 25.8607 11.6373 25.8607C11.6362 25.8607 11.6351 25.8607 11.634 25.8607C11.6329 25.8607 11.6318 25.8607 11.6307 25.8607C11.6296 25.8607 11.6285 25.8607 11.6274 25.8607C11.6263 25.8607 11.6252 25.8607 11.6241 25.8607C11.623 25.8607 11.6219 25.8607 11.6209 25.8607C11.6198 25.8607 11.6187 25.8607 11.6176 25.8607C11.6165 25.8607 11.6154 25.8607 11.6144 25.8607C11.6133 25.8607 11.6122 25.8607 11.6111 25.8607C11.61 25.8607 11.609 25.8607 11.6079 25.8607C11.6068 25.8607 11.6057 25.8607 11.6047 25.8607C11.6036 25.8607 11.6025 25.8607 11.6014 25.8607C11.6004 25.8607 11.5993 25.8607 11.5982 25.8607C11.5972 25.8607 11.5961 25.8607 11.595 25.8607C11.594 25.8607 11.5929 25.8607 11.5919 25.8607C11.5908 25.8607 11.5897 25.8607 11.5887 25.8607C11.5876 25.8607 11.5866 25.8607 11.5855 25.8607C11.5844 25.8607 11.5834 25.8607 11.5823 25.8607C11.5813 25.8607 11.5802 25.8607 11.5792 25.8607C11.5781 25.8607 11.5771 25.8607 11.576 25.8607C11.575 25.8607 11.5739 25.8607 11.5729 25.8607C11.5719 25.8607 11.5708 25.8607 11.5698 25.8607C11.5687 25.8607 11.5677 25.8607 11.5666 25.8607C11.5656 25.8607 11.5646 25.8607 11.5635 25.8607C11.5625 25.8607 11.5615 25.8607 11.5604 25.8607C11.5594 25.8607 11.5584 25.8607 11.5573 25.8607C11.5563 25.8607 11.5553 25.8607 11.5543 25.8607C11.5532 25.8607 11.5522 25.8607 11.5512 25.8607C11.5501 25.8607 11.5491 25.8607 11.5481 25.8607C11.5471 25.8607 11.5461 25.8607 11.545 25.8607C11.544 25.8607 11.543 25.8607 11.542 25.8607C11.541 25.8607 11.54 25.8607 11.539 25.8607C11.5379 25.8607 11.5369 25.8607 11.5359 25.8607C11.5349 25.8607 11.5339 25.8607 11.5329 25.8607C11.5319 25.8607 11.5309 25.8607 11.5299 25.8607C11.5289 25.8607 11.5279 25.8607 11.5269 25.8607C11.5259 25.8607 11.5249 25.8607 11.5239 25.8607C11.5229 25.8607 11.5219 25.8607 11.5209 25.8607C11.5199 25.8607 11.5189 25.8607 11.5179 25.8607C11.5169 25.8607 11.5159 25.8607 11.5149 25.8607C11.5139 25.8607 11.513 25.8607 11.512 25.8607C11.511 25.8607 11.51 25.8607 11.509 25.8607C11.508 25.8607 11.507 25.8607 11.5061 25.8607C11.5051 25.8607 11.5041 25.8607 11.5031 25.8607C11.5022 25.8607 11.5012 25.8607 11.5002 25.8607C11.4992 25.8607 11.4983 25.8607 11.4973 25.8607C11.4963 25.8607 11.4953 25.8607 11.4944 25.8607C11.4934 25.8607 11.4924 25.8607 11.4915 25.8607C11.4905 25.8607 11.4895 25.8607 11.4886 25.8607C11.4876 25.8607 11.4867 25.8607 11.4857 25.8607C11.4847 25.8607 11.4838 25.8607 11.4828 25.8607C11.4819 25.8607 11.4809 25.8607 11.48 25.8607C11.479 25.8607 11.478 25.8607 11.4771 25.8607C11.4761 25.8607 11.4752 25.8607 11.4742 25.8607C11.4733 25.8607 11.4724 25.8607 11.4714 25.8607C11.4705 25.8607 11.4695 25.8607 11.4686 25.8607C11.4676 25.8607 11.4667 25.8607 11.4658 25.8607C11.4648 25.8607 11.4639 25.8607 11.4629 25.8607C11.462 25.8607 11.4611 25.8607 11.4601 25.8607C11.4592 25.8607 11.4583 25.8607 11.4573 25.8607C11.4564 25.8607 11.4555 25.8607 11.4546 25.8607C11.4536 25.8607 11.4527 25.8607 11.4518 25.8607C11.4509 25.8607 11.4499 25.8607 11.449 25.8607C11.4481 25.8607 11.4472 25.8607 11.4463 25.8607C11.4453 25.8607 11.4444 25.8607 11.4435 25.8607C11.4426 25.8607 11.4417 25.8607 11.4408 25.8607C11.4399 25.8607 11.4389 25.8607 11.438 25.8607C11.4371 25.8607 11.4362 25.8607 11.4353 25.8607C11.4344 25.8607 11.4335 25.8607 11.4326 25.8607C11.4317 25.8607 11.4308 25.8607 11.4299 25.8607C11.429 25.8607 11.4281 25.8607 11.4272 25.8607C11.4263 25.8607 11.4254 25.8607 11.4245 25.8607C11.4236 25.8607 11.4227 25.8607 11.4218 25.8607C11.4209 25.8607 11.4201 25.8607 11.4192 25.8607C11.4183 25.8607 11.4174 25.8607 11.4165 25.8607C11.4156 25.8607 11.4147 25.8607 11.4139 25.8607C11.413 25.8607 11.4121 25.8607 11.4112 25.8607C11.4103 25.8607 11.4095 25.8607 11.4086 25.8607C11.4077 25.8607 11.4068 25.8607 11.406 25.8607C11.4051 25.8607 11.4042 25.8607 11.4033 25.8607C11.4025 25.8607 11.4016 25.8607 11.4007 25.8607C11.3999 25.8607 11.399 25.8607 11.3981 25.8607C11.3973 25.8607 11.3964 25.8607 11.3956 25.8607C11.3947 25.8607 11.3938 25.8607 11.393 25.8607C11.3921 25.8607 11.3913 25.8607 11.3904 25.8607C11.3896 25.8607 11.3887 25.8607 11.3879 25.8607C11.387 25.8607 11.3862 25.8607 11.3853 25.8607C11.3845 25.8607 11.3836 25.8607 11.3828 25.8607C11.3819 25.8607 11.3811 25.8607 11.3802 25.8607C11.3794 25.8607 11.3786 25.8607 11.3777 25.8607C11.3769 25.8607 11.376 25.8607 11.3752 25.8607C11.3744 25.8607 11.3735 25.8607 11.3727 25.8607C11.3719 25.8607 11.371 25.8607 11.3702 25.8607C11.3694 25.8607 11.3685 25.8607 11.3677 25.8607C11.3669 25.8607 11.3661 25.8607 11.3652 25.8607C11.3644 25.8607 11.3636 25.8607 11.3628 25.8607C11.362 25.8607 11.3611 25.8607 11.3603 25.8607C11.3595 25.8607 11.3587 25.8607 11.3579 25.8607C11.3571 25.8607 11.3562 25.8607 11.3554 25.8607C11.3546 25.8607 11.3538 25.8607 11.353 25.8607C11.3522 25.8607 11.3514 25.8607 11.3506 25.8607C11.3498 25.8607 11.349 25.8607 11.3482 25.8607C11.3474 25.8607 11.3466 25.8607 11.3458 25.8607C11.345 25.8607 11.3442 25.8607 11.3434 25.8607C11.3426 25.8607 11.3418 25.8607 11.341 25.8607C11.3402 25.8607 11.3394 25.8607 11.3386 25.8607C11.3378 25.8607 11.337 25.8607 11.3363 25.8607C11.3355 25.8607 11.3347 25.8607 11.3339 25.8607C11.3331 25.8607 11.3323 25.8607 11.3316 25.8607C11.3308 25.8607 11.33 25.8607 11.3292 25.8607C11.3284 25.8607 11.3277 25.8607 11.3269 25.8607C11.3261 25.8607 11.3253 25.8607 11.3246 25.8607C11.3238 25.8607 11.323 25.8607 11.3223 25.8607C11.3215 25.8607 11.3207 25.8607 11.32 25.8607C11.3192 25.8607 11.3184 25.8607 11.3177 25.8607C11.3169 25.8607 11.3162 25.8607 11.3154 25.8607C11.3146 25.8607 11.3139 25.8607 11.3131 25.8607C11.3124 25.8607 11.3116 25.8607 11.3109 25.8607C11.3101 25.8607 11.3094 25.8607 11.3086 25.8607C11.3079 25.8607 11.3071 25.8607 11.3064 25.8607C11.3056 25.8607 11.3049 25.8607 11.3041 25.8607C11.3034 25.8607 11.3027 25.8607 11.3019 25.8607C11.3012 25.8607 11.3004 25.8607 11.2997 25.8607C11.299 25.8607 11.2982 25.8607 11.2975 25.8607C11.2968 25.8607 11.296 25.8607 11.2953 25.8607C11.2946 25.8607 11.2939 25.8607 11.2931 25.8607C11.2924 25.8607 11.2917 25.8607 11.291 25.8607C11.2902 25.8607 11.2895 25.8607 11.2888 25.8607C11.2881 25.8607 11.2874 25.8607 11.2866 25.8607C11.2859 25.8607 11.2852 25.8607 11.2845 25.8607C11.2838 25.8607 11.2831 25.8607 11.2824 25.8607C11.2816 25.8607 11.2809 25.8607 11.2802 25.8607C11.2795 25.8607 11.2788 25.8607 11.2781 25.8607C11.2774 25.8607 11.2767 25.8607 11.276 25.8607C11.2753 25.8607 11.2746 25.8607 11.2739 25.8607C11.2732 25.8607 11.2725 25.8607 11.2718 25.8607C11.2711 25.8607 11.2704 25.8607 11.2697 25.8607C11.269 25.8607 11.2684 25.8607 11.2677 25.8607C11.267 25.8607 11.2663 25.8607 11.2656 25.8607C11.2649 25.8607 11.2642 25.8607 11.2636 25.8607C11.2629 25.8607 11.2622 25.8607 11.2615 25.8607C11.2608 25.8607 11.2602 25.8607 11.2595 25.8607C11.2588 25.8607 11.2581 25.8607 11.2575 25.8607C11.2568 25.8607 11.2561 25.8607 11.2554 25.8607C11.2548 25.8607 11.2541 25.8607 11.2534 25.8607C11.2528 25.8607 11.2521 25.8607 11.2515 25.8607C11.2508 25.8607 11.2501 25.8607 11.2495 25.8607C11.2488 25.8607 11.2482 25.8607 11.2475 25.8607C11.2468 25.8607 11.2462 25.8607 11.2455 25.8607C11.2449 25.8607 11.2442 25.8607 11.2436 25.8607C11.2429 25.8607 11.2423 25.8607 11.2416 25.8607C11.241 25.8607 11.2403 25.8607 11.2397 25.8607C11.2391 25.8607 11.2384 25.8607 11.2378 25.8607C11.2371 25.8607 11.2365 25.8607 11.2359 25.8607C11.2352 25.8607 11.2346 25.8607 11.234 25.8607C11.2333 25.8607 11.2327 25.8607 11.2321 25.8607C11.2314 25.8607 11.2308 25.8607 11.2302 25.8607C11.2296 25.8607 11.2289 25.8607 11.2283 25.8607C11.2277 25.8607 11.2271 25.8607 11.2264 25.8607C11.2258 25.8607 11.2252 25.8607 11.2246 25.8607C11.224 25.8607 11.2234 25.8607 11.2227 25.8607C11.2221 25.8607 11.2215 25.8607 11.2209 25.8607C11.2203 25.8607 11.2197 25.8607 11.2191 25.8607C11.2185 25.8607 11.2179 25.8607 11.2173 25.8607C11.2167 25.8607 11.2161 25.8607 11.2155 25.8607C11.2149 25.8607 11.2143 25.8607 11.2137 25.8607C11.2131 25.8607 11.2125 25.8607 11.2119 25.8607C11.2113 25.8607 11.2107 25.8607 11.2101 25.8607C11.2095 25.8607 11.2089 25.8607 11.2083 25.8607C11.2077 25.8607 11.2072 25.8607 11.2066 25.8607C11.206 25.8607 11.2054 25.8607 11.2048 25.8607C11.2042 25.8607 11.2037 25.8607 11.2031 25.8607C11.2025 25.8607 11.2019 25.8607 11.2014 25.8607C11.2008 25.8607 11.2002 25.8607 11.1996 25.8607C11.1991 25.8607 11.1985 25.8607 11.1979 25.8607C11.1974 25.8607 11.1968 25.8607 11.1962 25.8607C11.1957 25.8607 11.1951 25.8607 11.1946 25.8607C11.194 25.8607 11.1934 25.8607 11.1929 25.8607C11.1923 25.8607 11.1918 25.8607 11.1912 25.8607C11.1907 25.8607 11.1901 25.8607 11.1895 25.8607C11.189 25.8607 11.1884 25.8607 11.1879 25.8607C11.1874 25.8607 11.1868 25.8607 11.1863 25.8607C11.1857 25.8607 11.1852 25.8607 11.1846 25.8607C11.1841 25.8607 11.1836 25.8607 11.183 25.8607C11.1825 25.8607 11.1819 25.8607 11.1814 25.8607C11.1809 25.8607 11.1803 25.8607 11.1798 25.8607C11.1793 25.8607 11.1788 25.8607 11.1782 25.8607C11.1777 25.8607 11.1772 25.8607 11.1767 25.8607C11.1761 25.8607 11.1756 25.8607 11.1751 25.8607C11.1746 25.8607 11.174 25.8607 11.1735 25.8607C11.173 25.8607 11.1725 25.8607 11.172 25.8607C11.1715 25.8607 11.171 25.8607 11.1704 25.8607C11.1699 25.8607 11.1694 25.8607 11.1689 25.8607C11.1684 25.8607 11.1679 25.8607 11.1674 25.8607C11.1669 25.8607 11.1664 25.8607 11.1659 25.8607C11.1654 25.8607 11.1649 25.8607 11.1644 25.8607C11.1639 25.8607 11.1634 25.8607 11.1629 25.8607C11.1624 25.8607 11.1619 25.8607 11.1614 25.8607C11.1609 25.8607 11.1605 25.8607 11.16 25.8607C11.1595 25.8607 11.159 25.8607 11.1585 25.8607C11.158 25.8607 11.1575 25.8607 11.1571 25.8607C11.1566 25.8607 11.1561 25.8607 11.1556 25.8607C11.1552 25.8607 11.1547 25.8607 11.1542 25.8607C11.1537 25.8607 11.1533 25.8607 11.1528 25.8607C11.1523 25.8607 11.1519 25.8607 11.1514 25.8607C11.1509 25.8607 11.1505 25.8607 11.15 25.8607C11.1495 25.8607 11.1491 25.8607 11.1486 25.8607C11.1481 25.8607 11.1477 25.8607 11.1472 25.8607C11.1468 25.8607 11.1463 25.8607 11.1459 25.8607C11.1454 25.8607 11.145 25.8607 11.1445 25.8607C11.1441 25.8607 11.1436 25.8607 11.1432 25.8607C11.1427 25.8607 11.1423 25.8607 11.1418 25.8607C11.1414 25.8607 11.141 25.8607 11.1405 25.8607C11.1401 25.8607 11.1396 25.8607 11.1392 25.8607C11.1388 25.8607 11.1383 25.8607 11.1379 25.8607C11.1375 25.8607 11.137 25.8607 11.1366 25.8607C11.1362 25.8607 11.1357 25.8607 11.1353 25.8607C11.1349 25.8607 11.1345 25.8607 11.1341 25.8607C11.1336 25.8607 11.1332 25.8607 11.1328 25.8607C11.1324 25.8607 11.132 25.8607 11.1315 25.8607C11.1311 25.8607 11.1307 25.8607 11.1303 25.8607C11.1299 25.8607 11.1295 25.8607 11.1291 25.8607C11.1287 25.8607 11.1283 25.8607 11.1279 25.8607C11.1274 25.8607 11.127 25.8607 11.1266 25.8607C11.1262 25.8607 11.1258 25.8607 11.1254 25.8607C11.125 25.8607 11.1246 25.8607 11.1243 25.8607C11.1239 25.8607 11.1235 25.8607 11.1231 25.8607C11.1227 25.8607 11.1223 25.8607 11.1219 25.8607C11.1215 25.8607 11.1211 25.8607 11.1207 25.8607C11.1204 25.8607 11.12 25.8607 11.1196 25.8607C11.1192 25.8607 11.1188 25.8607 11.1185 25.8607C11.1181 25.8607 11.1177 25.8607 11.1173 25.8607C11.117 25.8607 11.1166 25.8607 11.1162 25.8607C11.1159 25.8607 11.1155 25.8607 11.1151 25.8607C11.1148 25.8607 11.1144 25.8607 11.114 25.8607C11.1137 25.8607 11.1133 25.8607 11.1129 25.8607C11.1126 25.8607 11.1122 25.8607 11.1119 25.8607C11.1115 25.8607 11.1112 25.8607 11.1108 25.8607C11.1104 25.8607 11.1101 25.8607 11.1097 25.8607C11.1094 25.8607 11.1091 25.8607 11.1087 25.8607C11.1084 25.8607 11.108 25.8607 11.1077 25.8607C11.1073 25.8607 11.107 25.8607 11.1067 25.8607C11.1063 25.8607 11.106 25.8607 11.1056 25.8607C11.1053 25.8607 11.105 25.8607 11.1046 25.8607C11.1043 25.8607 11.104 25.8607 11.1037 25.8607C11.1033 25.8607 11.103 25.8607 11.1027 25.8607C11.1023 25.8607 11.102 25.8607 11.1017 25.8607C11.1014 25.8607 11.1011 25.8607 11.1007 25.8607C11.1004 25.8607 11.1001 25.8607 11.0998 25.8607C11.0995 25.8607 11.0992 25.8607 11.0989 25.8607C11.0985 25.8607 11.0982 25.8607 11.0979 25.8607C11.0976 25.8607 11.0973 25.8607 11.097 25.8607C11.0967 25.8607 11.0964 25.8607 11.0961 25.8607C11.0958 25.8607 11.0955 25.8607 11.0952 25.8607C11.0949 25.8607 11.0946 25.8607 11.0943 25.8607C11.094 25.8607 11.0938 25.8607 11.0935 25.8607C11.0932 25.8607 11.0929 25.8607 11.0926 25.8607C11.0923 25.8607 11.092 25.8607 11.0917 25.8607C11.0915 25.8607 11.0912 25.8607 11.0909 25.8607C11.0906 25.8607 11.0903 25.8607 11.0901 25.8607C11.0898 25.8607 11.0895 25.8607 11.0893 25.8607C11.089 25.8607 11.0887 25.8607 11.0884 25.8607C11.0882 25.8607 11.0879 25.8607 11.0876 25.8607C11.0874 25.8607 11.0871 25.8607 11.0869 25.8607C11.0866 25.8607 11.0863 25.8607 11.0861 25.8607C11.0858 25.8607 11.0856 25.8607 11.0853 25.8607C11.0851 25.8607 11.0848 25.8607 11.0846 25.8607C11.0843 25.8607 11.0841 25.8607 11.0838 25.8607C11.0836 25.8607 11.0833 25.8607 11.0831 25.8607C11.0828 25.8607 11.0826 25.8607 11.0824 25.8607C11.0821 25.8607 11.0819 25.8607 11.0816 25.8607C11.0814 25.8607 11.0812 25.8607 11.0809 25.8607C11.0807 25.8607 11.0805 25.8607 11.0803 25.8607C11.08 25.8607 11.0798 25.8607 11.0796 25.8607C11.0793 25.8607 11.0791 25.8607 11.0789 25.8607C11.0787 25.8607 11.0785 25.8607 11.0782 25.8607C11.078 25.8607 11.0778 25.8607 11.0776 25.8607C11.0774 25.8607 11.0772 25.8607 11.077 25.8607C11.0767 25.8607 11.0765 25.8607 11.0763 25.8607C11.0761 25.8607 11.0759 25.8607 11.0757 25.8607C11.0755 25.8607 11.0753 25.8607 11.0751 25.8607C11.0749 25.8607 11.0747 25.8607 11.0745 25.8607C11.0743 25.8607 11.0741 25.8607 11.0739 25.8607C11.0737 25.8607 11.0736 25.8607 11.0734 25.8607C11.0732 25.8607 11.073 25.8607 11.0728 25.8607C11.0726 25.8607 11.0724 25.8607 11.0723 25.8607C11.0721 25.8607 11.0719 25.8607 11.0717 25.8607C11.0715 25.8607 11.0714 25.8607 11.0712 25.8607C11.071 25.8607 11.0708 25.8607 11.0707 25.8607C11.0705 25.8607 11.0703 25.8607 11.0702 25.8607C11.07 25.8607 11.0698 25.8607 11.0697 25.8607C11.0695 25.8607 11.0693 25.8607 11.0692 25.8607C11.069 25.8607 11.0689 25.8607 11.0687 25.8607C11.0686 25.8607 11.0684 25.8607 11.0682 25.8607C11.0681 25.8607 11.0679 25.8607 11.0678 25.8607C11.0676 25.8607 11.0675 25.8607 11.0674 25.8607C11.0672 25.8607 11.0671 25.8607 11.0669 25.8607C11.0668 25.8607 11.0666 25.8607 11.0665 25.8607C11.0664 25.8607 11.0662 25.8607 11.0661 25.8607C11.066 25.8607 11.0658 25.8607 11.0657 25.8607C11.0656 25.8607 11.0654 25.8607 11.0653 25.8607C11.0652 25.8607 11.0651 25.8607 11.0649 25.8607C11.0648 25.8607 11.0647 25.8607 11.0646 25.8607C11.0645 25.8607 11.0643 25.8607 11.0642 25.8607C11.0641 25.8607 11.064 25.8607 11.0639 25.8607C11.0638 25.8607 11.0637 25.8607 11.0636 25.8607C11.0634 25.8607 11.0633 25.8607 11.0632 25.8607C11.0631 25.8607 11.063 25.8607 11.0629 25.8607C11.0628 25.8607 11.0627 25.8607 11.0626 25.8607C11.0625 25.8607 11.0624 25.8607 11.0623 25.8607C11.0622 25.8607 11.0622 25.8607 11.0621 25.8607C11.062 25.8607 11.0619 25.8607 11.0618 25.8607C11.0617 25.8607 11.0616 25.8607 11.0615 25.8607C11.0615 25.8607 11.0614 25.8607 11.0613 25.8607C11.0612 25.8607 11.0612 25.8607 11.0611 25.8607C11.061 25.8607 11.0609 25.8607 11.0609 25.8607C11.0608 25.8607 11.0607 25.8607 11.0606 25.8607C11.0606 25.8607 11.0605 25.8607 11.0605 25.8607C11.0604 25.8607 11.0603 25.8607 11.0603 25.8607C11.0602 25.8607 11.0601 25.8607 11.0601 25.8607C11.06 25.8607 11.06 25.8607 11.0599 25.8607C11.0599 25.8607 11.0598 25.8607 11.0598 25.8607C11.0597 25.8607 11.0597 25.8607 11.0596 25.8607C11.0596 25.8607 11.0595 25.8607 11.0595 25.8607C11.0595 25.8607 11.0594 25.8607 11.0594 25.8607C11.0594 25.8607 11.0593 25.8607 11.0593 25.8607C11.0592 25.8607 11.0592 25.8607 11.0592 25.8607C11.0592 25.8607 11.0591 25.8607 11.0591 25.8607C11.0591 25.8607 11.059 25.8607 11.059 25.8607C11.059 25.8607 11.059 25.8607 11.059 25.8607C11.0589 25.8607 11.0589 25.8607 11.0589 25.8607C11.0589 25.8607 11.0589 25.8607 11.0589 25.8607C11.0589 25.8607 11.0589 25.8607 11.0588 25.8607C11.0588 25.8607 11.0588 25.8607 11.0588 25.8607C11.0588 25.8607 11.0588 25.8607 11.0588 26.6107ZM21.6029 36.6107V40.9008H23.1029V36.6107H21.6029ZM28.75 53.8015V42.0916H27.25V53.8015H28.75ZM28.5354 41.5664L22.8883 35.8106L21.8176 36.8611L27.4646 42.6169L28.5354 41.5664ZM10.3971 15.2977V7.50132H8.89706V15.2977H10.3971ZM21.2878 15.4962V4.72269H19.7878V15.4962H21.2878ZM14.3424 7.50132V7.75573H15.8424V7.50132H14.3424ZM14.3424 7.75573V18.2748H15.8424V7.75573H14.3424ZM14.3424 4.72269V7.75573H15.8424V4.72269H14.3424ZM26.7332 16.0916V11.2723H25.2332V16.0916H26.7332ZM19.7878 11.2723V14.5038H21.2878V11.2723H19.7878ZM45.2878 54V49.0894H43.7878V54H45.2878ZM45.2948 49.0689L51.8855 39.7783L50.6621 38.9104L44.0713 48.201L45.2948 49.0689ZM52.75 37.0721V12.916H51.25V37.0721H52.75ZM52 12.166H51.2875V13.666H52V12.166ZM44.0845 19.3703L44.1913 26.6217L45.6911 26.5996L45.5843 19.3482L44.0845 19.3703ZM44.9412 25.8607H44.1378V27.3607H44.9412V25.8607ZM32.8971 36.9313V40.9008H34.3971V36.9313H32.8971ZM28.5354 42.6169L34.1824 36.8611L33.1117 35.8106L27.4646 41.5664L28.5354 42.6169ZM47.1029 15.2977V15.1736H45.6029V15.2977H47.1029ZM47.1029 15.1736V7.45802H45.6029V15.1736H47.1029ZM36.2122 15.4962V14.5038H34.7122V15.4962H36.2122ZM36.2122 14.5038V11.229H34.7122V14.5038H36.2122ZM36.2122 11.229V4.67939H34.7122V11.229H36.2122ZM40.1576 7.45802V7.75573H41.6576V7.45802H40.1576ZM40.1576 7.75573V18.2748H41.6576V7.75573H40.1576ZM40.1576 4.67939V7.45802H41.6576V4.67939H40.1576ZM30.7668 16.0916V11.229H29.2668V16.0916H30.7668ZM32.7395 9.29962C33.8404 9.29962 34.7122 10.1747 34.7122 11.229H36.2122C36.2122 9.32372 34.646 7.79962 32.7395 7.79962V9.29962ZM30.7668 11.229C30.7668 10.1747 31.6386 9.29962 32.7395 9.29962V7.79962C30.833 7.79962 29.2668 9.32372 29.2668 11.229H30.7668ZM36.2122 4.67939C36.2122 3.62511 37.084 2.75 38.1849 2.75V1.25C36.2783 1.25 34.7122 2.7741 34.7122 4.67939H36.2122ZM51.2875 12.166C49.0804 12.166 47.1045 13.1449 45.7836 14.6854L46.9223 15.6618C47.9675 14.4428 49.5323 13.666 51.2875 13.666V12.166ZM45.7836 14.6854C44.7028 15.9459 44.0582 17.5853 44.0845 19.3703L45.5843 19.3482C45.5636 17.9455 46.0686 16.6575 46.9223 15.6618L45.7836 14.6854ZM45.2878 49.0894C45.2878 49.0832 45.2897 49.0761 45.2948 49.0689L44.0714 48.201C43.8874 48.4604 43.7878 48.7705 43.7878 49.0894H45.2878ZM47.1029 7.45802C47.1029 5.55273 45.5368 4.02863 43.6303 4.02863V5.52863C44.7311 5.52863 45.6029 6.40373 45.6029 7.45802H47.1029ZM43.6303 4.02863C41.7237 4.02863 40.1576 5.55273 40.1576 7.45802H41.6576C41.6576 6.40373 42.5294 5.52863 43.6303 5.52863V4.02863ZM51.8855 39.7783C52.4477 38.9858 52.75 38.0412 52.75 37.0721H51.25C51.25 37.7285 51.0454 38.3701 50.6621 38.9104L51.8855 39.7783ZM38.1849 2.75C39.2857 2.75 40.1576 3.62511 40.1576 4.67939H41.6576C41.6576 2.7741 40.0914 1.25 38.1849 1.25V2.75ZM44.1378 25.8607C37.9432 25.8607 32.8971 30.8056 32.8971 36.9313H34.3971C34.3971 31.6572 38.7483 27.3607 44.1378 27.3607V25.8607ZM14.229 23.8321C14.229 19.7634 17.5839 16.4447 21.7479 16.4447V14.9447C16.7783 14.9447 12.729 18.9124 12.729 23.8321H14.229ZM34.2521 16.4447C38.4161 16.4447 41.771 19.7634 41.771 23.8321H43.271C43.271 18.9124 39.2217 14.9447 34.2521 14.9447V16.4447ZM28.5629 19.0019C29.9413 17.4362 31.9771 16.4447 34.2521 16.4447V14.9447C31.5326 14.9447 29.0911 16.1319 27.4371 18.0107L28.5629 19.0019ZM21.7479 16.4447C24.0229 16.4447 26.0587 17.4362 27.4371 19.0019L28.5629 18.0107C26.9089 16.1319 24.4674 14.9447 21.7479 14.9447V16.4447ZM14.7152 26.4515C14.4012 25.6382 14.229 24.7557 14.229 23.8321H12.729C12.729 24.9437 12.9365 26.0092 13.3158 26.9918L14.7152 26.4515ZM41.771 23.8321C41.771 24.8545 41.56 25.8268 41.179 26.7107L42.5564 27.3046C43.0166 26.237 43.271 25.0629 43.271 23.8321H41.771ZM23.2605 7.79962C21.3426 7.79962 19.7878 9.35439 19.7878 11.2723H21.2878C21.2878 10.1828 22.171 9.29962 23.2605 9.29962V7.79962ZM26.7332 11.2723C26.7332 9.35439 25.1784 7.79962 23.2605 7.79962V9.29962C24.35 9.29962 25.2332 10.1828 25.2332 11.2723H26.7332ZM21.2878 4.72269C21.2878 2.80477 19.733 1.25 17.8151 1.25V2.75C18.9046 2.75 19.7878 3.6332 19.7878 4.72269H21.2878ZM4.15665 13.666C7.64443 13.666 10.4573 16.5207 10.406 20.0081L11.9058 20.0302C11.9695 15.7058 8.4815 12.166 4.15665 12.166V13.666ZM12.2122 49.477C12.2122 48.9069 12.035 48.3509 11.7051 47.8859L10.4817 48.7538C10.6316 48.9652 10.7122 49.2179 10.7122 49.477H12.2122ZM10.3971 7.50132C10.3971 6.41183 11.2803 5.52863 12.3697 5.52863V4.02863C10.4518 4.02863 8.89706 5.5834 8.89706 7.50132H10.3971ZM12.3697 5.52863C13.4592 5.52863 14.3424 6.41183 14.3424 7.50132H15.8424C15.8424 5.5834 14.2877 4.02863 12.3697 4.02863V5.52863ZM6.45555 40.4858C5.34601 38.9218 4.75 37.0515 4.75 35.1339H3.25C3.25 37.3625 3.94266 39.536 5.23213 41.3537L6.45555 40.4858ZM17.8151 1.25C15.8972 1.25 14.3424 2.80478 14.3424 4.72269H15.8424C15.8424 3.6332 16.7256 2.75 17.8151 2.75V1.25ZM12.3514 27.3607C17.4602 27.3607 21.6029 31.5022 21.6029 36.6107H23.1029C23.1029 30.6735 18.2883 25.8607 12.3514 25.8607V27.3607Z" fill="#FFED00"/>
</svg>
