<svg width="95" height="95" viewBox="0 0 95 95" fill="none" xmlns="http://www.w3.org/2000/svg">
<path d="M48.9495 17.8487C49.1882 17.8487 49.3473 17.6076 49.3473 17.3664C49.3473 17.1252 49.1882 16.884 48.9495 16.884C48.7108 16.884 48.5517 17.1252 48.5517 17.3664C48.5517 17.6076 48.7108 17.8487 48.9495 17.8487Z" fill="black"/>
<path fill-rule="evenodd" clip-rule="evenodd" d="M39.5606 21.2249C39.481 21.3054 39.4015 21.3857 39.3219 21.3054C39.2689 21.3054 39.2512 21.2339 39.2217 21.1147C39.2132 21.0803 39.2036 21.0417 39.192 20.9998C39.1835 20.9692 39.1739 20.937 39.1628 20.9033C39.4015 20.5015 39.6402 20.2603 39.9584 20.1799C40.1971 20.1799 40.3563 20.1799 40.5154 20.3406C40.595 19.9387 40.8337 19.6172 41.2315 19.5369C41.7089 19.376 42.0272 19.6975 42.1068 20.0996C42.1863 20.019 42.2659 19.8584 42.3455 19.6975C42.1863 19.6172 42.0272 19.4563 42.0272 19.1348C42.0272 18.8132 42.1863 18.572 42.425 18.4917C42.8228 18.4114 42.982 18.7329 42.982 19.1348H43.2207C43.2669 19.1348 43.3065 19.1279 43.3452 19.1143C43.3922 19.0979 43.438 19.0713 43.493 19.0347C43.5195 19.0171 43.5481 18.9971 43.58 18.9749C43.6149 18.9504 43.6537 18.9233 43.6981 18.8936C43.7776 18.6523 43.9368 18.572 44.1755 18.6523C44.4142 18.7329 44.4142 18.9741 44.3346 19.2151C44.2948 19.376 44.2351 19.5569 44.1754 19.7378C44.1158 19.9187 44.0561 20.0996 44.0164 20.2603C43.8572 20.7427 43.7776 21.2249 43.7776 21.627C43.7776 21.7649 43.8037 21.8501 43.8557 21.8979C43.8947 21.9338 43.9482 21.9485 44.0164 21.9485C44.255 22.0288 44.4937 21.7073 44.6529 21.3857V21.2249V19.376C44.6529 18.572 45.0507 18.2505 45.5281 18.2505C45.8464 18.2505 46.0055 18.4114 46.0851 18.4917C46.1646 18.2505 46.3238 18.1702 46.4829 18.1702C46.7216 18.1702 46.8012 18.3308 46.8012 18.6523V20.9839C46.8012 21.2249 46.8012 21.4661 47.0399 21.4661C47.1468 21.4661 47.2538 21.4297 47.3366 21.3572C47.377 21.3218 47.4116 21.2776 47.4377 21.2249V16.8035C47.4377 16.4016 47.5968 16.2407 47.8355 16.2407C48.0742 16.2407 48.1538 16.4016 48.1538 16.7231V20.9033C48.1538 21.1445 48.1538 21.3857 48.3925 21.3857C48.4721 21.3857 48.6312 21.3054 48.7108 21.1445V18.6523C48.7108 18.2505 48.8699 18.0896 49.1086 18.0896C49.3473 18.0896 49.4269 18.2505 49.4269 18.572V20.9839C49.4269 21.2249 49.4269 21.4661 49.6656 21.4661C49.7451 21.4661 49.9043 21.3857 49.9838 21.2249V18.7329C49.9838 18.4114 50.143 18.2505 50.3817 18.2505C50.6204 18.2505 50.7 18.4917 50.7 18.7329C50.8591 18.4917 51.1773 18.4114 51.4956 18.4917C52.0526 18.6523 52.0526 19.1348 52.0526 19.5369V21.7073C52.0526 21.9485 52.1321 22.1094 52.2913 22.1094C52.3207 22.1094 52.361 22.1094 52.4041 22.1052C52.4355 22.1023 52.4684 22.0972 52.4997 22.0884C52.5417 22.0764 52.5808 22.0579 52.6095 22.0288V20.1799C52.6095 19.5369 52.9278 19.2151 53.4052 19.2151L53.4698 19.2312C53.7758 19.3074 54.1372 19.3975 54.36 19.6975C54.5191 19.8584 54.5191 20.0996 54.5191 20.3406V20.6624C54.5191 21.0642 54.36 21.3054 53.9622 21.627C53.9258 21.6638 53.8811 21.7007 53.8319 21.7375C53.7736 21.781 53.7089 21.8245 53.6443 21.8679C53.5248 21.9482 53.4053 22.0288 53.3256 22.1094V22.5112C53.3256 22.8328 53.4848 22.9131 53.6439 22.9937C53.8826 22.9937 54.0417 22.8328 54.2009 22.6721C54.444 22.4263 54.6871 21.8054 54.8948 21.2749C54.959 21.1111 55.0198 20.9558 55.0761 20.823C54.9965 20.5015 54.917 20.0996 54.9965 19.7778C55.0761 19.376 55.3944 19.2151 55.5535 19.2957C55.8718 19.376 55.8718 19.6172 55.8718 19.8584C55.8718 19.9524 55.8445 20.074 55.806 20.1909C55.7787 20.2739 55.7457 20.3545 55.7126 20.4211C56.0309 21.3857 56.2696 22.1897 56.2696 23.3955C56.2696 23.8779 56.19 24.1995 55.9513 24.521C55.7922 24.7622 55.3148 24.8425 54.917 24.6013C54.5191 24.3601 54.4396 23.9583 54.4396 23.4758C54.4396 23.1543 54.6783 23.074 54.8374 23.074C55.0761 23.074 55.0761 23.3152 55.0761 23.5564C55.0935 23.6091 55.1071 23.6582 55.1194 23.7024C55.1633 23.8604 55.1905 23.9583 55.3148 23.9583C55.5535 24.0386 55.5535 23.6367 55.5535 23.3152C55.6235 22.6787 55.5088 22.229 55.3718 21.6921L55.3148 21.4661C55.1557 22.0288 54.8374 22.6721 54.5987 22.9937C54.2009 23.4758 53.7235 23.6367 53.3256 23.4758C52.9278 23.3152 52.6891 22.9937 52.6095 22.5916C52.4504 22.6721 52.2913 22.7524 52.1321 22.7524C51.8934 22.7524 51.416 22.6721 51.416 22.0288V19.6975C51.416 19.376 51.3365 19.2151 51.0978 19.2151C50.9386 19.2151 50.8591 19.376 50.7795 19.5369V21.7876C50.7795 22.1094 50.6204 22.27 50.3817 22.1897C50.2225 22.1094 50.0634 22.0288 50.0634 21.7073C49.9838 21.8682 49.7451 22.0288 49.5064 22.0288C49.2677 22.0288 48.9495 21.8682 48.7903 21.5466C48.6312 21.7073 48.3925 21.8682 48.1538 21.8682C47.9151 21.8682 47.6764 21.7876 47.5173 21.5466C47.3582 21.7073 47.1194 21.9485 46.8012 21.9485C46.5625 21.9485 46.3238 21.8682 46.1646 21.627C46.0851 21.8682 45.8464 22.1094 45.4485 22.1094C45.2098 22.1897 44.9711 22.0288 44.812 21.7876C44.4937 22.1897 44.0959 22.6721 43.6185 22.6721C43.2207 22.7524 42.982 22.4309 42.982 21.8682C42.9024 21.1445 43.2207 20.0996 43.3798 19.6172C43.2207 19.6975 43.1411 19.6975 42.982 19.6975C42.9024 20.0996 42.6637 20.4211 42.3455 20.5818V22.6721C42.2659 23.3152 41.9476 23.7976 41.4702 23.8779C41.2832 23.9409 41.145 23.8557 41.0174 23.7773C40.9821 23.7556 40.9477 23.7344 40.9132 23.717V25.0034C40.9132 25.2446 40.7541 25.4856 40.5154 25.4856C40.2767 25.4856 40.1176 25.325 40.1176 25.0034V21.4661C40.1176 21.2249 40.1176 21.0642 39.9584 20.9839C39.7993 20.9839 39.7198 20.9839 39.5606 21.2249ZM53.803 20.4209C53.803 20.2603 53.7235 20.019 53.5643 20.019C53.4052 20.019 53.2461 20.0994 53.2461 20.4209C53.2461 20.5015 53.2461 21.0642 53.3256 21.7073L53.5643 21.4661C53.7235 21.3054 53.803 21.0642 53.803 20.7427V20.4209ZM45.2098 19.5369C45.2098 19.2957 45.369 19.1348 45.5281 19.0544C45.6872 19.0544 45.8464 19.1348 45.9259 19.2153V21.2251C45.8464 21.3857 45.6872 21.5466 45.5281 21.4661C45.2894 21.4661 45.2098 21.3054 45.2098 20.9839V19.5369ZM41.4702 21.0642C41.4702 20.7427 41.311 20.5818 41.1519 20.5818C41.0304 20.5818 40.9553 20.6755 40.8911 20.7556C40.8712 20.7805 40.8524 20.804 40.8336 20.823V22.9934C40.9132 23.1543 40.9928 23.2346 41.1519 23.2346C41.311 23.2346 41.4702 23.074 41.4702 22.7524V21.0642Z" fill="black"/>
<path d="M48.5517 43.2521C48.5517 43.4933 48.7904 43.7345 49.0291 43.7345C49.2678 43.7345 49.5065 43.4933 49.5065 43.2521C49.5065 43.0109 49.2678 42.7698 49.0291 42.7698C48.7108 42.7698 48.5517 43.0109 48.5517 43.2521Z" fill="black"/>
<path fill-rule="evenodd" clip-rule="evenodd" d="M55.4739 45.3423C55.3943 45.5029 55.3148 45.5833 55.1557 45.5833C54.9965 45.5833 54.9965 45.4226 54.9965 45.1814V42.5286C54.9965 42.207 54.8374 42.0461 54.5987 42.0461C54.36 42.0461 54.2009 42.207 54.2009 42.6089C54.0417 42.5286 53.803 42.448 53.5643 42.448C53.0869 42.5286 52.6891 42.8501 52.6891 43.7344V45.9854C52.6891 46.0312 52.6891 46.0706 52.6909 46.1074C52.6928 46.1445 52.6966 46.1787 52.7043 46.2139C52.7155 46.2654 52.7349 46.3191 52.7686 46.3872C52.6891 46.5481 52.53 46.7893 52.3708 46.7893C52.2117 46.7893 52.1321 46.6284 52.1321 46.3069V42.6892C52.1321 42.3677 51.973 42.207 51.7343 42.207C51.4956 42.207 51.3365 42.3677 51.3365 42.7698V43.7344C51.1773 43.6541 51.0182 43.5735 50.8591 43.5735C50.3817 43.6541 49.9838 43.9756 49.9838 44.7795V46.7087V47.0303C49.9043 47.1912 49.7451 47.3521 49.586 47.2715C49.3473 47.2715 49.3473 47.1108 49.3473 46.7893V44.3774C49.3473 44.0559 49.1882 43.895 48.9495 43.895C48.7108 43.895 48.5516 44.0559 48.5516 44.4578V47.1108C48.472 47.2715 48.3129 47.3521 48.1538 47.3521C47.9947 47.4324 47.9947 47.2715 47.9947 47.0303V45.1011C47.9947 44.6187 47.8355 44.2168 47.2786 44.1362C47.0399 44.1362 46.8011 44.2168 46.4829 44.3774C46.3238 44.0559 46.0851 43.9756 45.7668 43.9756C45.5962 43.9756 45.4485 43.9985 45.3114 44.02C45.1927 44.0386 45.0819 44.0559 44.9711 44.0559C44.812 43.8147 44.4937 43.6541 44.1755 43.4932C43.6981 43.3325 42.982 43.5735 43.0615 44.4578V45.7441C42.9422 45.8247 42.8228 45.925 42.7035 46.0254C42.5841 46.126 42.4648 46.2266 42.3454 46.3069C42.1863 46.3872 41.9476 46.3872 41.7885 46.2266C41.6552 46.0918 41.5777 45.8442 41.5093 45.6257C41.496 45.5833 41.4831 45.542 41.4702 45.5029C41.7089 45.4226 42.0272 45.2617 42.2659 45.1011C42.5841 44.8599 42.8228 44.6187 42.8228 43.8147C42.8228 42.9304 42.425 42.5286 41.7885 42.3677C41.3111 42.2874 40.6745 42.5286 40.6745 43.4128V45.5029C40.6745 46.4678 41.1519 46.7893 41.7089 46.95C42.2659 47.1108 42.6637 46.8696 43.1411 46.4678C43.2207 47.2715 43.6981 47.593 44.1755 47.7539C44.812 47.9148 45.369 47.5127 45.369 46.8696V45.1011C45.369 44.9402 45.369 44.7795 45.2894 44.6187H45.6077C45.8464 44.699 45.9259 44.7795 45.9259 45.1011V47.5127C45.9259 47.8342 46.0851 47.9951 46.3238 47.9951C46.5625 47.9951 46.7216 47.8342 46.7216 47.4324V45.0205C46.8011 44.8599 46.9603 44.7795 47.0399 44.7795C47.199 44.7795 47.2786 44.9402 47.2786 45.1814V47.2715C47.2786 47.9148 47.756 48.0754 48.0742 48.0754C48.3925 48.0754 48.6312 47.8342 48.7903 47.6736C48.9495 47.9148 49.2677 48.0754 49.5064 47.9951C49.9043 47.9951 50.1429 47.7539 50.3021 47.4324C50.4612 47.6736 50.6999 47.7539 50.9386 47.7539C51.2569 47.7539 51.4956 47.4324 51.6547 47.1912C51.8138 47.4324 52.0526 47.4324 52.2913 47.4324C52.6891 47.3521 52.9278 47.0303 53.0869 46.7087C53.246 46.8696 53.4848 46.95 53.6439 46.95C54.1213 46.95 54.36 46.4678 54.4396 46.2266C54.5987 46.3872 54.8374 46.3872 54.9965 46.3872C55.3943 46.3069 55.7922 45.9854 55.7922 45.4226C55.7126 45.1814 55.5535 45.1814 55.4739 45.3423ZM41.4702 43.4932C41.4702 43.1716 41.5498 43.0913 41.7885 43.0913C42.0272 43.0913 42.1068 43.3325 42.1068 43.6541C42.1068 44.2168 42.0272 44.458 41.7885 44.6187C41.709 44.6992 41.6294 44.7795 41.4702 44.7795V43.4932ZM44.0959 46.8699C44.255 46.8699 44.4142 46.7893 44.4142 46.4678V44.8601L44.413 44.8411L44.4084 44.814C44.401 44.7798 44.3877 44.7395 44.3744 44.6992C44.3545 44.6389 44.3346 44.5786 44.3346 44.5386C44.1755 44.5386 44.0164 44.458 43.9368 44.3777C43.8894 44.3777 43.8421 44.4346 43.8115 44.5146C43.7907 44.5691 43.7776 44.6343 43.7776 44.6992V46.3071C43.7776 46.6287 43.9368 46.7893 44.0959 46.8699ZM50.8591 46.5481V45.1011C50.8591 44.7795 50.9387 44.6187 51.1774 44.5383C51.251 44.5383 51.3076 44.5383 51.3551 44.5461C51.4102 44.5554 51.4529 44.5754 51.4956 44.6187V46.709C51.4258 46.7441 51.3561 46.7949 51.293 46.8408C51.2122 46.8994 51.1425 46.95 51.0978 46.95C50.9387 46.95 50.8591 46.8696 50.8591 46.5481ZM53.5643 45.6636C53.5643 45.9851 53.6439 46.0657 53.803 46.0657C53.9412 46.0657 54.0194 45.9443 54.1418 45.7544L54.2009 45.6636V45.5833V43.4126C54.1213 43.3323 54.0417 43.3323 53.8826 43.3323C53.6439 43.4126 53.5643 43.5735 53.5643 43.895V45.6636Z" fill="black"/>
<path d="M61.1232 27.8172C61.1232 27.576 61.0436 27.4956 60.8845 27.4956H60.6458C60.6458 27.4956 60.5662 27.4956 60.5662 27.576V28.1387C60.6458 28.1387 60.7253 28.1387 60.8049 28.1387C60.964 28.1387 61.1232 28.0583 61.1232 27.8172Z" fill="black"/>
<path fill-rule="evenodd" clip-rule="evenodd" d="M55.474 30.309C55.6331 31.0326 55.7922 31.756 55.7922 32.4797C55.7922 33.7658 55.474 35.0522 54.9966 36.0971C54.0417 35.6952 52.6096 35.2934 50.9387 35.5344C50.143 34.007 51.5752 32.1581 52.0526 31.9972C52.7687 32.3991 52.4504 33.7658 51.5752 34.4894C51.4956 34.5698 51.3365 34.811 51.8139 34.7306C53.7235 34.3285 54.1213 32.8815 54.0417 32.3188C54.36 32.3188 54.5191 31.6757 54.2009 31.113C54.7578 31.2736 54.6783 30.309 54.2804 30.0678C54.917 30.0678 54.4396 29.1835 54.1213 28.9423C54.7578 28.9423 54.2009 28.2189 53.8826 28.1384C54.36 27.9777 53.8826 27.1738 53.3257 27.1738C53.8826 26.8522 53.0074 26.4504 52.6096 26.5307C52.6891 26.4504 52.8482 26.1286 52.6096 25.968C52.2117 25.5659 51.1773 25.6464 50.6204 26.2092C50.7795 25.0837 49.4269 24.0385 49.3473 24.7621C48.9495 24.36 48.1538 24.1994 48.2334 24.5209C47.9151 24.2797 47.1194 24.1994 47.2786 24.5209C47.0399 24.36 46.2442 24.2797 46.4034 24.6013C46.0851 24.4404 45.369 24.4404 45.6873 24.8425C45.4485 24.7621 45.1303 24.7621 44.7325 24.8425C44.1755 25.0031 44.2551 25.0837 44.4142 25.2443C43.6185 25.3249 43.3003 25.6464 43.2207 25.7267C43.0616 25.8071 42.982 26.2092 43.0616 26.2092C44.4937 26.0483 45.7668 26.9326 45.926 27.1738C45.9537 27.2299 45.9718 27.2763 45.9836 27.3129C46.0055 27.381 46.0055 27.415 46.0055 27.415C46.0055 27.415 45.8464 27.6562 45.926 27.8168C45.9314 27.8278 45.9376 27.8383 45.9443 27.8486C45.9672 27.8835 45.9965 27.9152 46.0253 27.9462C46.1128 28.0405 46.1966 28.1303 46.0851 28.2993L46.0051 28.4057C45.7639 28.7253 45.4152 29.1874 45.1303 29.9072C44.9712 29.9875 44.812 30.0678 44.7325 30.309C44.5733 30.6306 44.8916 30.8718 45.4485 31.113C45.369 31.3542 45.369 31.5954 45.4485 31.6757C45.5281 31.756 45.2098 32.56 45.1303 32.7209C44.8916 33.0424 45.0507 33.2834 45.2098 33.3639C45.2894 33.3639 45.4485 33.4443 45.369 33.5246C45.2894 33.6052 45.369 33.7658 45.4485 33.8461C45.2894 34.1679 45.4485 34.3285 45.5281 34.4089C45.5812 34.4626 45.5281 34.6235 45.4868 34.7485C45.4736 34.7885 45.4616 34.8249 45.4547 34.853C45.4508 34.8686 45.4485 34.8818 45.4485 34.8913C45.4485 35.1325 45.6873 35.5344 46.2442 35.6149C46.4829 35.6149 46.8012 35.6952 46.9603 35.6952C45.8464 36.5795 45.5281 38.2678 45.4485 38.7502C45.0507 39.2324 44.7325 39.7148 44.4937 40.1166C44.0164 39.956 43.6185 39.7148 43.2207 39.4736V38.1874C43.2207 38.1874 43.3798 38.1069 43.4594 37.7853C43.5389 37.6247 43.5389 37.3032 43.4594 37.2226C43.4827 37.1992 43.4991 37.1894 43.5128 37.1813C43.5457 37.1618 43.5622 37.152 43.6185 36.9814C43.6185 36.8207 43.6185 36.5795 43.5389 36.4992C43.6981 36.4186 43.6981 35.7756 43.4594 35.7756C43.5389 35.6952 43.5389 35.2934 43.3798 35.1325C43.3003 34.9716 42.5842 34.9716 42.5842 34.9716V34.6501C42.5842 34.6501 43.4594 34.0873 43.4594 33.2834C43.4594 32.3991 43.2207 30.7109 42.1863 28.5405V34.2482C42.1863 34.2482 41.5498 34.0873 41.3907 33.3639C41.238 32.5927 41.5979 29.8981 41.6977 29.538C40.9911 31.6066 40.8345 32.6445 40.9928 33.4443C41.0724 34.2482 42.0272 34.7306 42.0272 34.7306V34.9716C42.0272 34.9716 40.9133 35.0522 40.7541 35.3737C40.6746 35.6149 40.595 36.258 40.595 36.6598C39.8789 35.454 39.481 34.007 39.481 32.56C39.481 31.9169 39.5606 31.2736 39.7198 30.6306C39.481 31.3542 39.4015 32.1581 39.4015 32.9618C39.4015 37.6247 43.1411 41.3227 47.6764 41.3227C52.2913 41.3227 55.9513 37.5441 55.9513 32.9618C55.8718 31.9972 55.7126 31.113 55.474 30.309ZM42.1067 38.6696V38.4284C42.1067 38.0265 42.5045 38.0265 42.5045 38.3481V38.9911L42.5019 38.9882C42.4612 38.9472 42.4007 38.8867 42.3306 38.8261C42.2621 38.7673 42.1844 38.7089 42.1067 38.6696ZM41.6294 36.9816C42.1068 37.1425 42.5842 37.2228 42.982 37.1425C43.0059 37.1186 43.0369 37.0656 43.0686 37.0053C43.0898 36.965 43.1112 36.9216 43.1311 36.8815C43.166 36.8112 43.196 36.7504 43.2108 36.7343C43.215 36.7363 43.2184 36.7382 43.2207 36.7407C43.2207 36.7287 43.2171 36.7275 43.2108 36.7343C43.1703 36.7167 43.0464 36.7223 42.8852 36.7299C42.4909 36.748 41.8734 36.7763 41.7089 36.4994C41.9673 36.6298 42.6978 36.6015 43.0912 36.5861L43.1163 36.5854L43.2039 36.582C43.2432 36.5807 43.2759 36.5798 43.3003 36.5798C43.3798 36.4994 43.3798 36.1779 43.2207 36.1779C43.1676 36.1511 42.9994 36.1511 42.79 36.1511C42.3716 36.1511 41.7885 36.1511 41.6294 35.9367C41.8652 35.9963 42.4507 35.9675 42.8353 35.9487C42.9696 35.9421 43.0793 35.9367 43.1411 35.9367C43.1411 35.7758 43.1411 35.4543 42.7433 35.4543C42.7174 35.4594 42.6885 35.4643 42.6571 35.4689L42.5803 35.4792L42.4987 35.4887L42.411 35.4975L42.2231 35.5148C41.7518 35.5573 41.1827 35.6086 41.0724 35.7758C40.9928 35.9367 40.9133 36.821 40.9133 37.3837C41.152 37.7856 41.5498 38.1877 41.8681 38.5092V38.1877C41.8681 37.9465 42.1068 37.8659 42.1863 37.8659C42.425 37.7856 42.6637 37.7856 42.8229 37.8659C42.8229 37.842 42.844 37.8039 42.8695 37.7577C42.9297 37.6491 43.0142 37.4965 42.9024 37.3837C42.8156 37.3251 42.6868 37.3198 42.535 37.3137C42.2693 37.3027 41.9332 37.2888 41.6294 36.9816ZM51.0978 31.8364C50.9387 32.0776 50.7795 32.3991 50.6204 32.7206C50.5922 32.7065 50.5616 32.6896 50.5284 32.6708C50.4837 32.6454 50.4345 32.6164 50.3808 32.5847L50.364 32.5746C50.3053 32.54 50.2414 32.5024 50.1722 32.4631C50.0902 32.4164 50.0009 32.3676 49.9043 32.3188V32.1579C50.0634 31.0324 49.0291 29.9072 47.756 28.862C48.2334 29.4247 48.7108 30.0678 49.0291 30.6306C49.586 31.5148 49.586 31.9169 49.586 32.2385C49.586 32.2817 49.5631 32.3942 49.5311 32.5514C49.4439 32.9799 49.2891 33.7404 49.3473 34.3285C49.3473 34.9716 49.586 35.6149 50.0634 35.8559C50.0043 35.8559 49.9561 35.8669 49.9108 35.881L49.8645 35.8962C49.8048 35.9164 49.7451 35.9365 49.6656 35.9365C49.1882 35.5344 48.9495 34.8913 48.9495 34.3285C48.9495 33.6667 49.0826 33.0051 49.1662 32.5895L49.1882 32.4797C49.2648 31.6276 48.8984 31.0739 48.5869 30.6035L48.5516 30.5502C47.8355 29.5854 46.6421 28.058 46.4829 27.9777C46.3238 27.8168 46.4034 27.7365 46.7216 27.8168C47.199 27.8168 48.2334 27.9777 49.2678 28.6208C49.3631 28.685 49.468 28.7524 49.5799 28.8244C50.0281 29.1125 50.5884 29.4728 51.0978 29.9875C51.416 30.1481 51.6548 31.0324 51.0978 31.8364ZM49.7451 33.3637C49.586 34.3283 49.586 35.1323 50.3021 35.3735C50.0634 34.8107 50.0634 34.248 50.2225 33.6852C50.143 33.6049 49.9839 33.5246 49.7451 33.3637ZM49.7451 33.0424C49.7451 32.9621 49.765 32.902 49.7849 32.8417C49.8048 32.7814 49.8247 32.7211 49.8247 32.6406C50.1429 32.8014 50.3021 32.9621 50.4612 33.0424C50.4214 33.0827 50.4016 33.143 50.3817 33.2033C50.3618 33.2636 50.3419 33.3239 50.3021 33.3642C50.2933 33.3554 50.2826 33.3466 50.2701 33.3376C50.2556 33.3268 50.2387 33.3161 50.2198 33.3051C50.1815 33.2829 50.135 33.2595 50.0831 33.2333C49.9837 33.183 49.8644 33.1227 49.7451 33.0424ZM51.3365 29.1835C49.586 26.7719 47.5968 26.6913 47.1194 26.7719C46.5625 26.8522 46.8012 27.0129 46.8807 27.0129C46.5625 27.0934 46.3238 27.3344 46.8012 27.3344C47.2786 27.3344 48.8699 27.5756 50.3021 28.7817C49.586 27.7365 48.3925 27.3344 47.5968 27.0934C48.2334 27.0934 49.6656 27.415 51.3365 29.1835ZM52.2913 34.1679C52.6891 33.6052 53.1665 32.7209 52.4504 31.6757C53.6439 32.4797 53.087 34.007 52.2913 34.1679ZM53.377 32.769C53.3859 32.8405 53.394 32.9052 53.4052 32.9618C53.6439 32.801 53.7235 31.113 52.2117 30.9521C53.2368 31.6425 53.3227 32.3329 53.377 32.769ZM53.803 31.9169C53.3256 30.6306 52.3708 30.309 52.0526 30.2287C52.2913 30.1481 53.8826 30.3893 53.803 31.9169ZM52.4504 27.2543C52.4504 27.2543 53.1665 26.7722 52.5299 26.6916C51.5752 26.5309 50.859 27.4152 50.6999 27.7368C51.2661 27.3076 51.7694 27.3242 52.0417 27.3329L52.0864 27.3342L52.1321 27.3349C51.5334 27.5163 51.3402 27.7888 51.1795 28.0153L51.1779 28.0175C51.1543 28.0507 51.1313 28.0829 51.1079 28.1137C51.0795 28.1513 51.0503 28.1867 51.0182 28.2192C51.416 28.0583 51.8138 27.8976 52.6095 28.0583C51.6547 28.1386 51.3365 28.4601 51.2569 28.7014C51.5752 28.621 52.2117 28.4601 52.7686 28.7819C51.5752 28.8622 51.5752 29.1838 51.5752 29.1838C51.5752 29.1838 52.7686 29.1035 53.246 29.7465C52.4504 29.5053 51.8138 29.8268 51.8138 29.8268C51.8138 29.8268 53.246 29.9877 53.8826 30.9523C54.1213 30.5505 53.5643 29.9074 53.5643 29.9074C53.5643 29.9074 53.7234 29.9877 53.8826 29.8268C54.1213 29.5053 53.1665 28.8622 53.1665 28.8622C53.1665 28.8622 53.7234 28.8622 53.7234 28.7014C53.7234 28.2995 52.9278 28.0583 52.9278 28.0583C52.9278 28.0583 53.4052 27.978 53.4052 27.8171C53.3256 27.3349 52.4504 27.2543 52.4504 27.2543ZM51.8139 26.1286C52.0526 26.1286 52.2117 26.2895 51.973 26.3698C51.1466 26.5217 50.7458 27.0322 50.4357 27.4267L50.3817 27.4953C50.3021 27.0129 51.0182 26.0483 51.8139 26.1286ZM49.7451 27.0934L49.9043 27.2543C50.2226 26.6916 50.3021 25.5661 49.6656 25.0837C49.9839 25.968 49.8247 26.8522 49.7451 27.0934ZM49.5064 26.2092C49.5064 26.3974 49.4791 26.5856 49.4565 26.7419L49.4556 26.7482L49.4548 26.7534C49.4481 26.8002 49.4418 26.8434 49.437 26.8832C49.4308 26.9333 49.4268 26.9772 49.4268 27.0131C49.3969 26.9828 49.3669 26.964 49.3369 26.9479L49.3076 26.933C49.2678 26.9128 49.228 26.8925 49.1881 26.8522C49.2677 26.2092 49.1086 25.5661 48.7108 25.0034C49.3473 25.0034 49.4268 25.5661 49.5064 26.2092ZM48.6312 26.5307C48.7108 26.611 48.8699 26.611 48.9495 26.6913C48.9405 26.6459 48.9315 26.5873 48.921 26.519C48.8387 25.9811 48.6645 24.8425 47.6764 24.8425C48.5516 25.5661 48.6312 26.2895 48.6312 26.5307ZM43.9368 25.8874C44.6529 25.4855 45.5281 25.6464 45.5281 25.6464C45.369 25.4855 45.2099 25.4052 44.9712 25.3246C45.5281 25.0837 46.4034 25.4052 46.4034 25.4052C46.4034 25.4052 46.3238 25.2443 46.0055 25.0031C46.4034 24.8425 47.0399 25.2443 47.1195 25.3246C47.0399 25.164 46.8808 25.0031 46.7216 24.8425C47.5969 24.7619 48.1538 25.8874 48.313 26.4501C48.1538 26.3698 47.9947 26.3698 47.8356 26.3698C47.8356 26.1286 47.6764 25.7267 47.2786 25.4855C47.5173 25.8071 47.5969 26.1286 47.5969 26.2895H47.2786L47.259 26.249C47.1731 26.069 47.0037 25.7145 46.5625 25.5659C46.8012 25.7267 46.9603 26.1286 47.0399 26.3698C46.9603 26.3698 46.8012 26.3698 46.7216 26.4501C46.5625 26.2092 46.2442 25.8874 45.6873 25.8071C46.0851 25.968 46.4034 26.3698 46.4829 26.5307C46.3238 26.611 46.1647 26.6913 46.1647 26.8522C46.0055 26.5307 44.9712 25.8071 43.9368 25.8874ZM48.8699 31.5951C48.6312 30.7912 47.9947 29.9872 46.5625 28.5402C46.0851 28.9421 45.7668 29.4245 45.4485 30.0676C46.2442 30.3088 47.6764 31.0324 48.8699 31.6755V31.5951ZM45.2098 30.7111C44.9712 30.5505 44.9712 30.3093 45.2894 30.3093C46.8807 30.9523 47.9947 31.5151 48.8699 32.0778V32.4799C48.7888 32.4389 48.7101 32.3979 48.6316 32.3564L48.4208 32.2443C48.1037 32.0751 47.7644 31.894 47.2786 31.676C46.8807 31.4347 45.926 30.9523 45.2098 30.7111ZM48.4499 33.4521C48.5179 33.8014 48.5767 34.1032 48.7108 34.3288C48.7108 33.9076 48.7714 33.4868 48.8397 33.0124L48.8699 32.8014L48.1538 32.319C48.1538 32.3993 48.2333 32.4799 48.2333 32.5602C48.338 32.8774 48.3968 33.1791 48.4499 33.4521ZM46.0851 35.2931C45.8463 35.2128 45.7668 35.1325 45.7668 34.9716C45.7668 34.8776 45.7941 34.7834 45.8167 34.7055L45.8297 34.6596C45.8394 34.624 45.8463 34.5934 45.8463 34.5698C45.9019 34.4575 45.8799 34.3847 45.8616 34.3237C45.8536 34.2971 45.8463 34.2726 45.8463 34.2482C45.7668 34.2482 45.6872 34.2482 45.6872 34.1677C45.6077 34.007 45.8463 33.8461 45.8463 33.8461C45.8463 33.8461 45.6077 33.7658 45.6077 33.6049L45.6293 33.5825C45.6562 33.5539 45.6776 33.5278 45.6935 33.5041C45.7046 33.4872 45.713 33.4716 45.7185 33.4567C45.7454 33.3852 45.7084 33.3344 45.6077 33.2834L45.5391 33.2614C45.3405 33.1992 45.2256 33.163 45.369 32.8012C45.5281 32.4797 45.6872 32.1579 45.6872 31.9169C45.6872 31.8835 45.6736 31.8364 45.6576 31.7812C45.6349 31.7031 45.6077 31.6091 45.6077 31.5148C45.6872 31.2736 45.6872 31.2736 45.7668 31.1933L46.2442 31.4345C46.0851 31.5148 45.9259 31.5951 45.7668 31.5148C45.7668 31.6757 45.9259 31.9169 46.1646 31.9972V32.0776V32.2385C46.1646 32.2385 46.3238 32.3991 46.7216 32.1579C46.4829 31.9169 46.3238 31.8364 46.2442 31.8364C46.1646 31.756 46.1646 31.6757 46.2442 31.6757C46.4033 31.5951 46.642 31.6757 46.8011 31.756C46.9603 31.8364 47.1194 31.9169 47.199 31.9972C47.2259 31.9972 47.2528 32.0065 47.2797 32.0185L47.3184 32.0375C47.333 32.0449 47.3477 32.0522 47.3623 32.0585C47.3772 32.0651 47.392 32.0705 47.4068 32.0739C47.4171 32.0761 47.4274 32.0776 47.4377 32.0776C47.5968 32.2385 47.756 32.56 47.1194 32.8815C46.7808 33.0868 46.788 33.4667 46.7977 33.9721L46.7978 33.975L46.799 34.04C46.8002 34.1074 46.8011 34.1769 46.8011 34.2482C46.9015 34.1215 46.9464 33.947 46.9934 33.7646C47.0954 33.3686 47.2067 32.9365 47.9151 32.8815C47.962 33.0554 47.9997 33.2414 48.039 33.4357C48.1999 34.2302 48.3883 35.1611 49.3473 35.9365C49.1086 36.0168 48.7903 36.0971 48.5516 36.258C48.2334 36.4186 47.9151 36.5795 47.6764 36.7402C47.5968 36.5795 47.3581 35.8559 47.3581 35.6149C47.3799 35.593 47.4254 35.5649 47.4833 35.5292C47.6373 35.4345 47.879 35.2858 47.9947 35.0522C47.9802 35.0522 47.9421 35.0681 47.8831 35.0927C47.6179 35.2035 46.9314 35.4904 46.0851 35.2931ZM47.1592 36.539C47.1418 36.4687 47.1243 36.3984 47.1069 36.3312C47.0846 36.2453 47.0622 36.165 47.0399 36.0971C46.5271 36.4858 46.1693 37.2917 45.9247 37.8425L45.9218 37.8491L45.9205 37.852C45.8632 37.9806 45.8121 38.0956 45.7668 38.1872C45.9259 38.0265 46.1646 37.8657 46.3238 37.705C46.3696 37.6125 46.4153 37.5002 46.463 37.383C46.5205 37.2416 46.5808 37.0934 46.6472 36.9655C46.717 36.8307 46.7936 36.7184 46.8807 36.6598C46.8012 36.9814 46.7216 37.2226 46.6421 37.4638C46.6992 37.4059 46.7666 37.3483 46.8405 37.2905C46.9726 37.1874 47.1256 37.0844 47.2786 36.9814C47.2584 36.9201 47.2381 36.8483 47.2179 36.7714C47.1983 36.6972 47.1787 36.6181 47.1592 36.539ZM52.6891 38.9108C51.973 38.7499 50.0634 38.5893 48.1538 40.197C50.3021 39.3127 51.3365 39.3932 51.8138 39.5539C50.5408 40.3578 49.1086 40.7597 47.5172 40.7597H47.0399C47.5968 40.0363 48.1538 39.3932 49.6656 38.7499C51.0182 38.1872 52.3708 38.2678 53.0869 38.5087C53.0074 38.6696 52.8482 38.8305 52.6891 38.9108ZM53.4052 38.2678L54.36 37.0619C53.803 36.7404 51.3365 35.8561 48.5516 37.3835C51.0978 35.6952 53.0074 36.0973 54.4396 36.4189C53.0869 35.9365 51.2569 35.6149 49.1882 36.4189C46.8807 37.3032 45.6077 38.9108 44.812 40.2775C44.8916 40.3578 45.0507 40.3578 45.2098 40.4384C45.6077 39.7953 46.4829 38.509 47.9947 37.705C46.642 38.7502 45.8464 39.8757 45.4485 40.5187C45.8464 40.5991 46.3238 40.6796 46.7216 40.7599C47.1194 40.1972 47.9151 39.2326 49.5064 38.509C51.2569 37.705 52.6891 38.0265 53.4052 38.2678Z" fill="black"/>
<path fill-rule="evenodd" clip-rule="evenodd" d="M60.407 23.3152C58.7361 23.3152 57.8609 25.0837 57.8609 26.6917C57.8609 29.4565 59.3632 31.5422 60.8997 33.6755C62.446 35.8223 64.0269 38.0173 64.1467 41.0012C64.1467 43.8149 61.6801 45.8247 58.8953 45.8247C57.6222 45.8247 56.1105 45.262 56.0309 43.4131C55.9513 41.8855 57.2244 41.1621 57.4631 41.1621C57.6222 41.1621 57.7814 41.3228 57.7814 41.4836C57.7814 41.6445 57.6222 41.8052 57.5427 41.8052C56.9857 42.2073 56.6674 42.9307 56.6674 43.4934C56.6674 44.2974 57.4631 45.1013 58.8953 45.1013C61.2027 45.1013 63.1123 43.0916 63.1123 41.0012C63.1123 38.7397 61.8005 36.9553 60.407 35.0598C58.8283 32.9124 57.1448 30.6226 57.1448 27.3347C57.1448 25.0034 58.0201 22.6721 60.4866 22.6721C62.3167 22.6721 63.5101 24.521 63.5101 26.6917C63.5101 27.8171 62.7145 29.9072 61.0436 29.8269C60.407 29.8269 59.6114 29.2642 59.5318 28.1387C59.4523 27.0938 60.0888 26.3701 60.8049 26.3701C61.521 26.3701 61.9188 26.6917 62.1575 27.3347C62.4758 26.8525 62.4758 26.4504 62.4758 26.2092C62.4758 24.8428 61.7597 23.3152 60.407 23.3152ZM61.2027 28.9424C61.2823 29.0227 61.3619 29.0227 61.4414 28.9424C61.4414 28.8904 61.4414 28.8384 61.463 28.7864C61.4747 28.7581 61.4929 28.7295 61.521 28.7012C61.4414 28.7012 61.1232 28.2993 61.1232 28.2993C61.3619 28.2188 61.521 28.0581 61.521 27.7366C61.521 27.4954 61.3619 27.2542 60.964 27.2542H60.4866C60.4071 27.2542 60.3275 27.3345 60.3275 27.415V28.7815C60.3275 28.9424 60.4071 29.0227 60.4866 29.0227C60.5662 29.0227 60.6458 28.9424 60.6458 28.7815V28.2993C60.8049 28.5405 61.1232 28.8621 61.2027 28.9424Z" fill="black"/>
<path fill-rule="evenodd" clip-rule="evenodd" d="M47.6764 23.1541C52.9278 23.1541 57.1448 27.4148 57.1448 32.7207C57.1448 38.0264 52.9278 42.3674 47.6764 42.2871C42.425 42.2871 38.208 38.0264 38.208 32.7207C38.208 27.4148 42.425 23.1541 47.6764 23.1541ZM38.765 32.7207C38.765 37.7048 42.7433 41.7244 47.6764 41.7244C52.6096 41.7244 56.5879 37.7048 56.5879 32.7207C56.5879 27.7363 52.6096 23.7168 47.6764 23.7168C42.7433 23.7168 38.765 27.7363 38.765 32.7207Z" fill="black"/>
<path fill-rule="evenodd" clip-rule="evenodd" d="M38.6058 41.2424C38.6854 41.2424 38.765 41.2424 38.8445 41.3228C39.9585 42.0464 40.2767 43.1719 40.1176 44.1365C39.8789 45.1013 39.0037 45.6641 37.8897 45.7444C36.2984 45.8247 35.0253 44.8601 34.2297 44.2168C33.5135 44.8601 32.7179 45.4229 31.604 45.5032C30.5696 45.5835 29.6944 44.9404 29.6944 43.8149C29.6944 42.6091 30.8083 41.8052 32.0018 41.8052C32.877 41.8855 33.434 42.0464 34.4684 42.7698C35.0253 41.8855 35.3436 40.76 35.3436 39.6345C35.3829 37.3306 34.5675 35.5959 33.7324 33.8196C32.8774 32.0007 32.0018 30.1382 32.0018 27.5759C32.0018 24.4407 33.8318 22.4309 35.6619 22.4309C37.7306 22.4309 38.9241 23.7976 38.9241 26.3701C38.9241 27.3347 38.1284 29.7466 36.378 29.5857C35.821 29.5857 35.0253 29.0229 34.9458 27.9778C34.9458 27.0132 35.5027 26.2898 36.2188 26.2092C36.7758 26.1289 37.2532 26.4504 37.5715 27.0132C37.5715 26.9329 37.9693 26.3701 37.9693 25.5662C37.9693 24.2798 37.2532 23.074 35.6619 23.074C34.0705 23.074 32.7975 24.9231 32.7975 27.0935C32.7975 28.8599 33.5963 30.5347 34.4308 32.2842C35.3433 34.1973 36.2984 36.1997 36.2984 38.509C36.2984 40.2778 35.9006 41.7249 34.9458 43.1719C35.2929 43.3823 35.5997 43.613 35.8915 43.8325C36.6029 44.3679 37.2256 44.8367 38.1284 44.7795C38.765 44.7795 39.2424 44.2168 39.3219 43.5737C39.4015 42.9307 39.0832 42.2876 38.5262 41.8855C38.4302 41.8369 38.3632 41.7883 38.3251 41.7222C38.3001 41.6787 38.2876 41.6277 38.2876 41.564C38.2876 41.3228 38.4467 41.2424 38.6058 41.2424ZM30.2513 43.8953C30.1718 44.458 30.4901 44.9402 31.3653 44.9402C32.1609 44.9402 33.0362 44.3774 33.5136 43.8147C33.1953 43.5737 32.1609 42.8501 31.5244 42.8501C30.8083 42.8501 30.2513 43.3325 30.2513 43.8953Z" fill="black"/>
<path fill-rule="evenodd" clip-rule="evenodd" d="M61.6006 52.658V51.2913L60.7253 50.3267L64.465 48.156V58.5264L65.4198 59.4912L62.7941 61.0186L61.6801 59.4106L59.0544 61.0989C59.0544 61.0989 56.9061 59.1697 56.9061 56.999C56.9061 54.1853 58.8157 52.658 61.0436 52.658H61.6006ZM20.1464 60.6162V57.8831L16.2476 59.8125V50.8889L17.5207 49.1204H12.1897L13.4628 50.8086V58.8477L12.1897 60.6162H20.1464ZM51.7343 50.4873H54.6783V51.2913L51.7343 53.0598V50.4873ZM81.1739 55.0693L77.9117 53.9441C77.9117 53.9441 78.23 54.9087 80.2987 55.7126C81.4126 56.1145 82.9244 57.0793 82.9244 58.5264C82.9244 60.3752 81.1739 61.0183 79.4235 61.0183C77.5934 61.0183 75.843 59.9734 75.843 59.9734L77.5139 58.6067L81.3331 59.8928C81.3331 59.8928 81.0944 59.0085 79.2643 58.1243L79.073 58.0281C77.8521 57.4153 76.5591 56.7661 76.5591 55.3911C76.5591 53.7832 77.9117 52.6577 80.1396 52.6577C81.5718 52.6577 83.0835 53.6223 83.0835 53.6223L81.1739 55.0693ZM25.4773 52.738C27.7052 52.738 29.4557 54.5066 29.4557 56.7576L25.1591 58.1243C25.1591 58.1243 26.7504 59.4104 28.1826 59.7322C27.4665 60.3752 26.5117 60.7771 25.4773 60.7771C23.329 60.7771 21.499 59.0085 21.499 56.7576C21.499 54.5869 23.2495 52.738 25.4773 52.738ZM26.5913 57.0791L23.8064 55.9536C23.7269 55.6321 23.7269 55.3105 23.7269 54.989C23.7269 54.5066 23.8064 53.9438 23.8064 53.9438C23.8064 53.9438 26.4321 54.3457 26.5913 57.0791ZM70.512 52.738C72.7399 52.738 74.1721 53.542 74.1721 53.542V58.5261L75.2064 59.4104L72.4216 60.938L71.3077 59.3301L68.682 61.0183C68.682 61.0183 66.5337 59.0889 66.5337 56.9185C66.5337 54.6675 68.2841 52.738 70.512 52.738ZM68.6024 55.2302C68.6024 54.5872 68.7616 54.0244 68.7616 54.0244L71.2281 55.2302V58.5232C71.2206 58.5164 71.1887 58.4985 71.1373 58.47L71.1346 58.4685C70.6631 58.2053 68.6024 57.0547 68.6024 55.2302ZM36.5371 59.5713C36.5371 59.5713 32.877 58.1243 32.877 54.989C32.877 54.5869 33.0362 53.9438 33.0362 53.9438C33.0362 53.9438 36.6167 55.4712 36.6167 58.1243C36.6167 58.7673 36.5371 59.5713 36.5371 59.5713ZM34.707 52.738C36.9349 52.738 38.6854 54.5869 38.6854 56.7576C38.6854 59.0085 36.8553 60.7771 34.707 60.7771C32.4792 60.7771 30.7287 58.9282 30.7287 56.7576C30.7287 54.5066 32.4792 52.738 34.707 52.738ZM54.5987 58.9285V52.4971L51.0182 54.748L51.8139 55.8735V59.0088L50.5408 60.697H55.8718L54.5987 58.9285ZM40.9928 54.989L40.1176 54.1851L42.7433 52.6577L43.6185 54.0244L45.9259 52.6577C45.9259 52.6577 48.7108 53.3008 48.7108 55.5518V59.0085L49.9838 60.7771H45.8464V56.1145C45.8464 54.9087 43.9368 54.5872 43.9368 54.5872V59.0085L45.2098 60.7771H39.8789L41.1519 59.0891V55.9539V54.989H40.9928ZM58.8953 55.2302C58.8953 54.5872 59.134 54.0244 59.134 54.0244L61.6006 55.2302V58.5264C61.6006 58.5264 58.8953 57.3206 58.8953 55.2302Z" fill="black"/>
<path d="M43.8572 54.5068V58.9283L45.1303 60.697H39.7993L41.0724 59.0087V55.8735L43.8572 54.5068Z" fill="black"/>
<path d="M18.8733 68.8968C18.7142 68.8968 18.6346 68.9772 18.4755 69.138C18.1572 69.54 17.6798 70.1831 17.2024 70.8262C17.6798 70.8262 18.3164 70.8262 18.4755 70.8262C18.5551 70.8262 18.5551 70.987 18.4755 70.987C18.2368 70.987 17.5207 70.987 17.0433 70.987C16.8046 71.3086 15.452 73.1576 15.5315 73.7203C15.5315 73.8811 15.6111 73.9615 15.5315 73.9615C15.5315 74.0419 15.3724 73.8007 15.3724 73.7203C15.2133 73.238 15.5315 72.5948 15.7702 72.1929C16.0089 71.7909 16.4068 71.2282 16.5659 70.987C16.2476 70.987 16.3272 70.987 16.1681 70.987C15.9294 70.987 15.9294 70.7458 16.0885 70.7458C16.2476 70.7458 16.4068 70.7458 16.725 70.7458C17.282 69.8615 17.9185 69.138 18.1572 68.8164C17.839 68.8164 17.6798 68.8164 17.5207 68.8164C17.2024 68.8164 17.282 68.8164 17.1229 68.8164C16.8842 68.8164 16.9637 68.5753 17.0433 68.5753C17.2024 68.5753 17.3616 68.5753 17.6798 68.5753C17.839 68.5753 17.9981 68.5753 18.3959 68.5753C18.5551 68.4949 18.6346 68.4949 18.7142 68.4949C18.7938 68.4949 18.8733 68.4949 18.8733 68.5753C19.2712 68.5753 19.7486 68.5753 19.9077 68.5753C19.9873 68.5753 19.9873 68.736 19.9077 68.736C19.7486 68.8968 19.2712 68.8968 18.8733 68.8968Z" fill="black"/>
<path d="M18.8733 68.8968C18.7142 68.8968 18.6346 68.9772 18.4755 69.138C18.1572 69.54 17.6798 70.1831 17.2024 70.8262C17.6798 70.8262 18.3164 70.8262 18.4755 70.8262C18.5551 70.8262 18.5551 70.987 18.4755 70.987C18.2368 70.987 17.5207 70.987 17.0433 70.987C16.8046 71.3086 15.452 73.1576 15.5315 73.7203C15.5315 73.8811 15.6111 73.9615 15.5315 73.9615C15.5315 74.0419 15.3724 73.8007 15.3724 73.7203C15.2133 73.238 15.5315 72.5948 15.7702 72.1929C16.0089 71.7909 16.4068 71.2282 16.5659 70.987C16.2476 70.987 16.3272 70.987 16.1681 70.987C15.9294 70.987 15.9294 70.7458 16.0885 70.7458C16.2476 70.7458 16.4068 70.7458 16.725 70.7458C17.282 69.8615 17.9185 69.138 18.1572 68.8164C17.839 68.8164 17.6798 68.8164 17.5207 68.8164C17.2024 68.8164 17.282 68.8164 17.1229 68.8164C16.8842 68.8164 16.9637 68.5753 17.0433 68.5753C17.2024 68.5753 17.3616 68.5753 17.6798 68.5753C17.839 68.5753 17.9981 68.5753 18.3959 68.5753C18.5551 68.4949 18.6346 68.4949 18.7142 68.4949C18.7938 68.4949 18.8733 68.4949 18.8733 68.5753C19.2712 68.5753 19.7486 68.5753 19.9077 68.5753C19.9873 68.5753 19.9873 68.736 19.9077 68.736C19.7486 68.8968 19.2712 68.8968 18.8733 68.8968Z" fill="black"/>
<path d="M20.385 71.3888C19.9872 71.3888 19.1915 72.0319 18.8733 72.3535C18.4754 72.7554 18.1572 73.3182 17.7593 73.7201C17.5206 73.9613 17.2024 73.6397 17.4411 73.3182C17.8389 72.7554 18.4754 71.9515 18.7141 71.3084C18.7937 71.0672 18.7937 70.9868 18.9528 70.9868C19.112 70.9868 19.2711 71.0672 19.112 71.3888C18.9528 71.7907 18.6346 72.1927 18.0776 73.077C18.6346 72.4339 19.6689 70.9868 20.1463 70.9868C20.2259 70.9868 20.4646 70.9868 20.4646 71.228C20.5442 71.4692 20.4646 71.3888 20.385 71.3888Z" fill="black"/>
<path d="M20.385 71.3888C19.9872 71.3888 19.1915 72.0319 18.8733 72.3535C18.4754 72.7554 18.1572 73.3182 17.7593 73.7201C17.5206 73.9613 17.2024 73.6397 17.4411 73.3182C17.8389 72.7554 18.4754 71.9515 18.7141 71.3084C18.7937 71.0672 18.7937 70.9868 18.9528 70.9868C19.112 70.9868 19.2711 71.0672 19.112 71.3888C18.9528 71.7907 18.6346 72.1927 18.0776 73.077C18.6346 72.4339 19.6689 70.9868 20.1463 70.9868C20.2259 70.9868 20.4646 70.9868 20.4646 71.228C20.5442 71.4692 20.4646 71.3888 20.385 71.3888Z" fill="black"/>
<path d="M22.8516 72.7558C22.3742 73.2382 21.3399 73.8009 20.7033 73.8009C19.1916 73.8813 20.8625 70.8264 22.1355 70.9068C23.0903 70.9872 21.7377 72.595 20.942 72.7558C20.8625 72.7558 20.8625 72.7558 20.8625 72.6754L20.942 72.595C21.1807 72.5147 21.5786 72.1931 21.8173 71.9519C22.1355 71.55 22.2947 71.148 22.1355 71.148C21.4194 71.148 20.0668 73.5597 20.942 73.5597C21.6581 73.5597 22.6925 72.7558 23.0108 72.4343C22.8516 72.6754 22.9312 72.595 22.8516 72.7558Z" fill="black"/>
<path d="M22.8516 72.7558C22.3742 73.2382 21.3399 73.8009 20.7033 73.8009C19.1916 73.8813 20.8625 70.8264 22.1355 70.9068C23.0903 70.9872 21.7377 72.595 20.942 72.7558C20.8625 72.7558 20.8625 72.7558 20.8625 72.6754L20.942 72.595C21.1807 72.5147 21.5786 72.1931 21.8173 71.9519C22.1355 71.55 22.2947 71.148 22.1355 71.148C21.4194 71.148 20.0668 73.5597 20.942 73.5597C21.6581 73.5597 22.6925 72.7558 23.0108 72.4343C22.8516 72.6754 22.9312 72.595 22.8516 72.7558Z" fill="black"/>
<path d="M22.6129 72.9162C22.6129 72.9162 22.6925 72.7554 22.7721 72.5946C22.8516 72.5142 23.0903 72.273 23.1699 72.1926C23.2495 72.1123 23.329 72.0319 23.329 71.9515C23.4882 71.2279 23.886 70.826 24.6021 70.9064C24.7612 70.9064 25.0795 70.9868 25.0795 71.1476C25.0795 71.2279 24.9999 71.2279 24.9204 71.2279C24.6021 71.1476 24.2838 71.1476 24.0451 71.4691C23.4882 72.0319 23.886 73.2377 23.0903 73.7201C23.7269 73.6397 24.6021 73.2377 25.4773 72.5142C25.3978 72.7554 25.3978 72.8358 25.3182 72.9162C24.6817 73.3985 23.6473 73.9612 22.7721 73.9612C22.6925 73.8809 22.5334 73.8005 22.5334 73.8005C22.4538 73.7201 22.4538 73.4789 22.4538 73.5593C22.5334 73.6397 22.6129 73.6397 22.7721 73.7201C22.9312 73.7201 23.0108 73.6397 23.0903 73.5593C23.329 73.3181 23.329 72.7554 23.329 72.3534C23.0903 72.5142 22.9312 72.675 22.6129 72.9162Z" fill="black"/>
<path d="M22.6129 72.9162C22.6129 72.9162 22.6925 72.7554 22.7721 72.5946C22.8516 72.5142 23.0903 72.273 23.1699 72.1926C23.2495 72.1123 23.329 72.0319 23.329 71.9515C23.4882 71.2279 23.886 70.826 24.6021 70.9064C24.7612 70.9064 25.0795 70.9868 25.0795 71.1476C25.0795 71.2279 24.9999 71.2279 24.9204 71.2279C24.6021 71.1476 24.2838 71.1476 24.0451 71.4691C23.4882 72.0319 23.886 73.2377 23.0903 73.7201C23.7269 73.6397 24.6021 73.2377 25.4773 72.5142C25.3978 72.7554 25.3978 72.8358 25.3182 72.9162C24.6817 73.3985 23.6473 73.9612 22.7721 73.9612C22.6925 73.8809 22.5334 73.8005 22.5334 73.8005C22.4538 73.7201 22.4538 73.4789 22.4538 73.5593C22.5334 73.6397 22.6129 73.6397 22.7721 73.7201C22.9312 73.7201 23.0108 73.6397 23.0903 73.5593C23.329 73.3181 23.329 72.7554 23.329 72.3534C23.0903 72.5142 22.9312 72.675 22.6129 72.9162Z" fill="black"/>
<path d="M29.6148 67.8517C29.4556 67.7713 28.9782 68.0928 28.5008 68.736C27.3869 70.0222 26.4321 71.4693 25.5569 72.9163C26.0343 72.5143 27.4665 71.0673 28.0234 71.0673C28.2621 71.0673 28.2621 71.3889 28.103 71.63C27.7847 72.032 27.4665 72.5947 27.3073 72.9967C26.9891 74.1222 29.2169 72.5947 29.2965 72.434C29.2169 72.6751 29.2169 72.5947 29.1374 72.7555C28.66 73.1575 27.7052 73.6398 27.1482 73.6398C26.3525 73.6398 26.8299 72.6751 27.1482 72.1928C27.3073 71.9516 27.4665 71.7104 27.546 71.5497C27.7847 71.2281 27.3869 71.4693 27.3073 71.4693C26.4321 72.032 25.716 72.7555 24.9999 73.5594C24.7612 73.8006 24.5225 73.479 24.6816 73.1575C25.4773 71.7104 26.6708 69.8614 27.7847 68.6556C28.4213 67.9321 29.0578 67.4497 29.4556 67.4497C29.6943 67.4497 29.7739 67.5301 29.6943 67.6909C29.7739 68.0124 29.6943 67.8517 29.6148 67.8517Z" fill="black"/>
<path d="M29.6148 67.8517C29.4556 67.7713 28.9782 68.0928 28.5008 68.736C27.3869 70.0222 26.4321 71.4693 25.5569 72.9163C26.0343 72.5143 27.4665 71.0673 28.0234 71.0673C28.2621 71.0673 28.2621 71.3889 28.103 71.63C27.7847 72.032 27.4665 72.5947 27.3073 72.9967C26.9891 74.1222 29.2169 72.5947 29.2965 72.434C29.2169 72.6751 29.2169 72.5947 29.1374 72.7555C28.66 73.1575 27.7052 73.6398 27.1482 73.6398C26.3525 73.6398 26.8299 72.6751 27.1482 72.1928C27.3073 71.9516 27.4665 71.7104 27.546 71.5497C27.7847 71.2281 27.3869 71.4693 27.3073 71.4693C26.4321 72.032 25.716 72.7555 24.9999 73.5594C24.7612 73.8006 24.5225 73.479 24.6816 73.1575C25.4773 71.7104 26.6708 69.8614 27.7847 68.6556C28.4213 67.9321 29.0578 67.4497 29.4556 67.4497C29.6943 67.4497 29.7739 67.5301 29.6943 67.6909C29.7739 68.0124 29.6943 67.8517 29.6148 67.8517Z" fill="black"/>
<path d="M32.6383 71.3889C33.1157 71.4693 33.6727 71.5497 33.7522 72.2732C33.8318 73.3183 32.4792 74.0418 31.5244 74.0418C31.2857 74.0418 31.1265 73.9614 31.1265 73.7203C31.1265 73.7203 31.1265 73.6399 31.1265 73.5595C31.1265 73.4791 31.1265 73.3987 31.2061 73.4791C31.2061 73.5595 31.3652 73.6399 31.5244 73.6399C32.2405 73.6399 33.434 73.1575 33.434 72.1928C33.434 71.7909 32.7974 71.5497 32.4792 71.5497C32.3996 71.5497 32.3996 71.4693 32.3996 71.4693C32.3996 71.3889 32.4792 71.3085 32.5587 71.3085C33.2748 71.2281 34.3888 70.585 34.3888 69.5399C34.3888 69.2988 34.2296 69.0576 33.9909 69.0576C33.8318 69.0576 33.7522 69.138 33.5931 69.2988C33.0361 69.9419 32.5587 70.585 32.0813 71.3085C31.8426 71.6301 30.5696 73.3183 30.6491 73.881C30.6491 74.0418 30.7287 74.1222 30.6491 74.1222C30.5696 74.2026 30.4104 73.9614 30.4104 73.881C30.2513 73.3987 30.5696 72.7556 30.8083 72.3536C31.6039 71.2281 32.32 70.0223 33.1953 69.0576C32.7974 69.0576 32.4792 69.138 32.0813 69.2988H32.0018C31.9222 69.2988 31.9222 69.2988 31.9222 69.2184C31.9222 68.8968 33.2748 68.8968 33.434 68.8968C33.5135 68.8164 33.6727 68.8164 33.7522 68.8164C33.8318 68.8164 33.9114 68.8164 33.9114 68.8968C34.2296 68.8968 34.707 69.138 34.707 69.5399C34.7866 70.585 33.434 71.3085 32.6383 71.3889Z" fill="black"/>
<path d="M32.6383 71.3889C33.1157 71.4693 33.6727 71.5497 33.7522 72.2732C33.8318 73.3183 32.4792 74.0418 31.5244 74.0418C31.2857 74.0418 31.1265 73.9614 31.1265 73.7203C31.1265 73.7203 31.1265 73.6399 31.1265 73.5595C31.1265 73.4791 31.1265 73.3987 31.2061 73.4791C31.2061 73.5595 31.3652 73.6399 31.5244 73.6399C32.2405 73.6399 33.434 73.1575 33.434 72.1928C33.434 71.7909 32.7974 71.5497 32.4792 71.5497C32.3996 71.5497 32.3996 71.4693 32.3996 71.4693C32.3996 71.3889 32.4792 71.3085 32.5587 71.3085C33.2748 71.2281 34.3888 70.585 34.3888 69.5399C34.3888 69.2988 34.2296 69.0576 33.9909 69.0576C33.8318 69.0576 33.7522 69.138 33.5931 69.2988C33.0361 69.9419 32.5587 70.585 32.0813 71.3085C31.8426 71.6301 30.5696 73.3183 30.6491 73.881C30.6491 74.0418 30.7287 74.1222 30.6491 74.1222C30.5696 74.2026 30.4104 73.9614 30.4104 73.881C30.2513 73.3987 30.5696 72.7556 30.8083 72.3536C31.6039 71.2281 32.32 70.0223 33.1953 69.0576C32.7974 69.0576 32.4792 69.138 32.0813 69.2988H32.0018C31.9222 69.2988 31.9222 69.2988 31.9222 69.2184C31.9222 68.8968 33.2748 68.8968 33.434 68.8968C33.5135 68.8164 33.6727 68.8164 33.7522 68.8164C33.8318 68.8164 33.9114 68.8164 33.9114 68.8968C34.2296 68.8968 34.707 69.138 34.707 69.5399C34.7866 70.585 33.434 71.3085 32.6383 71.3889Z" fill="black"/>
<path d="M36.6962 72.7558C36.2188 73.2382 35.1845 73.8009 34.5479 73.8009C33.0362 73.8813 34.7071 70.8264 35.9801 70.9068C36.9349 70.9872 35.5823 72.595 34.7866 72.7558C34.7071 72.7558 34.7071 72.7558 34.7071 72.6754L34.7866 72.595C35.0253 72.5147 35.4232 72.1931 35.6619 71.9519C35.9801 71.55 36.1393 71.148 35.9801 71.148C35.264 71.148 33.9114 73.5597 34.7866 73.5597C35.5027 73.5597 36.5371 72.7558 36.8554 72.4343C36.7758 72.6754 36.7758 72.595 36.6962 72.7558Z" fill="black"/>
<path d="M36.6962 72.7558C36.2188 73.2382 35.1845 73.8009 34.5479 73.8009C33.0362 73.8813 34.7071 70.8264 35.9801 70.9068C36.9349 70.9872 35.5823 72.595 34.7866 72.7558C34.7071 72.7558 34.7071 72.7558 34.7071 72.6754L34.7866 72.595C35.0253 72.5147 35.4232 72.1931 35.6619 71.9519C35.9801 71.55 36.1393 71.148 35.9801 71.148C35.264 71.148 33.9114 73.5597 34.7866 73.5597C35.5027 73.5597 36.5371 72.7558 36.8554 72.4343C36.7758 72.6754 36.7758 72.595 36.6962 72.7558Z" fill="black"/>
<path d="M40.7541 67.7714C40.595 67.6911 40.1176 68.093 39.6402 68.6557C39.1628 69.2185 36.7758 72.4341 36.8553 73.238C36.8553 73.3988 36.9349 73.4792 37.094 73.4792C37.4919 73.4792 38.6058 72.8361 38.9241 72.4341C38.8445 72.5949 38.8445 72.6753 38.7649 72.7557C38.5262 72.9969 37.8897 73.3988 37.5714 73.5596C37.3327 73.7204 36.6166 73.9616 36.3779 73.8008C36.2984 73.7204 36.2188 73.64 36.2188 73.4792C36.2188 72.5145 38.4467 69.4597 38.9241 68.8165C39.5606 68.093 40.1176 67.5303 40.595 67.5303C40.8337 67.5303 40.9132 67.6107 40.8337 67.7714C40.9132 67.9322 40.7541 67.7714 40.7541 67.7714Z" fill="black"/>
<path d="M40.7541 67.7714C40.595 67.6911 40.1176 68.093 39.6402 68.6557C39.1628 69.2185 36.7758 72.4341 36.8553 73.238C36.8553 73.3988 36.9349 73.4792 37.094 73.4792C37.4919 73.4792 38.6058 72.8361 38.9241 72.4341C38.8445 72.5949 38.8445 72.6753 38.7649 72.7557C38.5262 72.9969 37.8897 73.3988 37.5714 73.5596C37.3327 73.7204 36.6166 73.9616 36.3779 73.8008C36.2984 73.7204 36.2188 73.64 36.2188 73.4792C36.2188 72.5145 38.4467 69.4597 38.9241 68.8165C39.5606 68.093 40.1176 67.5303 40.595 67.5303C40.8337 67.5303 40.9132 67.6107 40.8337 67.7714C40.9132 67.9322 40.7541 67.7714 40.7541 67.7714Z" fill="black"/>
<path d="M41.3907 71.7106C41.0724 72.2734 40.8337 72.6753 40.6746 73.0773C40.4359 73.5596 38.9241 76.2929 37.2532 76.2929C36.9349 76.2929 36.6167 76.2929 36.4575 76.1322C36.2984 76.0518 36.378 75.891 36.4575 75.891C36.6962 75.9714 36.7758 75.9714 37.0941 75.9714C38.6854 75.9714 40.2767 72.8361 40.595 72.2734C40.3563 72.5146 38.2876 74.5243 38.2876 73.3989C38.2876 73.0773 38.5263 72.595 38.6854 72.3538C39.1628 71.6303 40.1176 70.9067 40.9133 70.9067C41.0724 70.9067 41.2315 70.9067 41.3111 70.9871C41.6294 71.1479 41.5498 71.3087 41.3907 71.2283C41.3111 71.2283 41.2315 71.1479 41.0724 71.2283C40.4359 71.2283 39.9585 71.6303 39.5606 72.0322C39.0037 72.6753 38.8445 73.0773 38.765 73.3185C38.765 73.9616 39.9585 72.7557 40.5154 72.2734C40.8337 72.0322 41.0724 71.5499 41.2315 71.5499C41.3907 71.4695 41.4702 71.4695 41.5498 71.5499V71.6303C41.4702 71.6303 41.3907 71.7106 41.3907 71.7106Z" fill="black"/>
<path d="M41.3907 71.7106C41.0724 72.2734 40.8337 72.6753 40.6746 73.0773C40.4359 73.5596 38.9241 76.2929 37.2532 76.2929C36.9349 76.2929 36.6167 76.2929 36.4575 76.1322C36.2984 76.0518 36.378 75.891 36.4575 75.891C36.6962 75.9714 36.7758 75.9714 37.0941 75.9714C38.6854 75.9714 40.2767 72.8361 40.595 72.2734C40.3563 72.5146 38.2876 74.5243 38.2876 73.3989C38.2876 73.0773 38.5263 72.595 38.6854 72.3538C39.1628 71.6303 40.1176 70.9067 40.9133 70.9067C41.0724 70.9067 41.2315 70.9067 41.3111 70.9871C41.6294 71.1479 41.5498 71.3087 41.3907 71.2283C41.3111 71.2283 41.2315 71.1479 41.0724 71.2283C40.4359 71.2283 39.9585 71.6303 39.5606 72.0322C39.0037 72.6753 38.8445 73.0773 38.765 73.3185C38.765 73.9616 39.9585 72.7557 40.5154 72.2734C40.8337 72.0322 41.0724 71.5499 41.2315 71.5499C41.3907 71.4695 41.4702 71.4695 41.5498 71.5499V71.6303C41.4702 71.6303 41.3907 71.7106 41.3907 71.7106Z" fill="black"/>
<path fill-rule="evenodd" clip-rule="evenodd" d="M43.2207 70.6658C42.8229 70.6658 43.0616 69.9421 43.3799 69.9421C43.6981 70.0225 43.6186 70.6658 43.2207 70.6658ZM41.7089 73.8008C42.2659 73.8008 43.1411 73.3186 43.6981 72.9165C43.7377 72.8364 43.7576 72.8162 43.7676 72.7861C43.7776 72.7561 43.7776 72.7161 43.7776 72.595C43.6185 72.7559 41.4702 74.2029 41.7885 73.0774C41.9476 72.6753 42.3455 72.0322 42.7433 71.5498C42.982 71.3088 42.8228 71.1479 42.6637 71.1479C42.425 71.2283 41.7885 72.2734 41.6294 72.5146C41.3111 72.9968 40.9928 73.8008 41.7089 73.8008Z" fill="black"/>
<path fill-rule="evenodd" clip-rule="evenodd" d="M43.2207 70.6658C42.8229 70.6658 43.0616 69.9421 43.3799 69.9421C43.6981 70.0225 43.6186 70.6658 43.2207 70.6658ZM41.7089 73.8008C42.2659 73.8008 43.1411 73.3186 43.6981 72.9165C43.7377 72.8364 43.7576 72.8162 43.7676 72.7861C43.7776 72.7561 43.7776 72.7161 43.7776 72.595C43.6185 72.7559 41.4702 74.2029 41.7885 73.0774C41.9476 72.6753 42.3455 72.0322 42.7433 71.5498C42.982 71.3088 42.8228 71.1479 42.6637 71.1479C42.425 71.2283 41.7885 72.2734 41.6294 72.5146C41.3111 72.9968 40.9928 73.8008 41.7089 73.8008Z" fill="black"/>
<path d="M47.7559 72.9162C47.199 73.3182 46.3237 73.8005 45.7668 73.8005C44.9711 73.8005 45.4485 72.8358 45.7668 72.3535C45.5281 72.5946 43.4594 74.6044 43.4594 73.4789C43.4594 73.1574 43.6981 72.675 43.8572 72.4339C44.3346 71.7103 45.2894 70.9868 46.085 70.9868C46.2442 70.9868 46.4033 70.9868 46.4829 71.0672C46.8011 71.228 46.7216 71.3888 46.5624 71.3084C46.4829 71.3084 46.4033 71.3084 46.2442 71.3084C45.5281 71.3084 45.0507 71.7103 44.6528 72.1123C44.4141 72.3535 43.8572 73.077 43.9368 73.3986C43.9368 74.0417 45.5281 72.4339 45.6872 72.2731C45.9259 72.1123 46.085 71.7907 46.2442 71.6299C46.3237 71.5496 46.4829 71.3888 46.642 71.4692C46.7216 71.4692 46.8011 71.5496 46.8011 71.6299C46.8011 71.7103 46.7216 71.7103 46.7216 71.7907C46.4033 72.2731 46.085 72.7554 46.0055 73.1574C45.6872 74.2829 47.8355 72.7554 47.9946 72.5946C47.8355 72.8358 47.8355 72.7554 47.7559 72.9162Z" fill="black"/>
<path d="M47.7559 72.9162C47.199 73.3182 46.3237 73.8005 45.7668 73.8005C44.9711 73.8005 45.4485 72.8358 45.7668 72.3535C45.5281 72.5946 43.4594 74.6044 43.4594 73.4789C43.4594 73.1574 43.6981 72.675 43.8572 72.4339C44.3346 71.7103 45.2894 70.9868 46.085 70.9868C46.2442 70.9868 46.4033 70.9868 46.4829 71.0672C46.8011 71.228 46.7216 71.3888 46.5624 71.3084C46.4829 71.3084 46.4033 71.3084 46.2442 71.3084C45.5281 71.3084 45.0507 71.7103 44.6528 72.1123C44.4141 72.3535 43.8572 73.077 43.9368 73.3986C43.9368 74.0417 45.5281 72.4339 45.6872 72.2731C45.9259 72.1123 46.085 71.7907 46.2442 71.6299C46.3237 71.5496 46.4829 71.3888 46.642 71.4692C46.7216 71.4692 46.8011 71.5496 46.8011 71.6299C46.8011 71.7103 46.7216 71.7103 46.7216 71.7907C46.4033 72.2731 46.085 72.7554 46.0055 73.1574C45.6872 74.2829 47.8355 72.7554 47.9946 72.5946C47.8355 72.8358 47.8355 72.7554 47.7559 72.9162Z" fill="black"/>
<path d="M51.416 72.8357C50.9386 73.2377 49.9838 73.72 49.4269 73.72C48.6312 73.72 49.1086 72.7554 49.4269 72.273C49.586 72.0318 49.7451 71.7907 49.8247 71.6299C50.0634 71.3083 49.6656 71.5495 49.586 71.5495C48.7108 72.1926 47.9947 72.9965 47.2786 73.8004C47.0399 74.0416 46.7216 73.72 46.9603 73.3985C47.756 72.273 47.9947 71.9514 48.2334 71.4691C48.3129 71.2279 48.3129 71.0671 48.5516 71.0671C48.7903 71.0671 48.8699 71.2279 48.7108 71.4691C48.5516 71.8711 48.1538 72.3534 47.6764 73.0769C48.1538 72.675 49.6656 71.1475 50.2225 71.1475C50.4612 71.1475 50.5408 71.4691 50.3021 71.7103C49.9838 72.1122 49.6656 72.675 49.5064 73.0769C49.1882 74.2024 51.3365 72.675 51.4956 72.5142C51.4956 72.7554 51.4956 72.675 51.416 72.8357Z" fill="black"/>
<path d="M51.416 72.8357C50.9386 73.2377 49.9838 73.72 49.4269 73.72C48.6312 73.72 49.1086 72.7554 49.4269 72.273C49.586 72.0318 49.7451 71.7907 49.8247 71.6299C50.0634 71.3083 49.6656 71.5495 49.586 71.5495C48.7108 72.1926 47.9947 72.9965 47.2786 73.8004C47.0399 74.0416 46.7216 73.72 46.9603 73.3985C47.756 72.273 47.9947 71.9514 48.2334 71.4691C48.3129 71.2279 48.3129 71.0671 48.5516 71.0671C48.7903 71.0671 48.8699 71.2279 48.7108 71.4691C48.5516 71.8711 48.1538 72.3534 47.6764 73.0769C48.1538 72.675 49.6656 71.1475 50.2225 71.1475C50.4612 71.1475 50.5408 71.4691 50.3021 71.7103C49.9838 72.1122 49.6656 72.675 49.5064 73.0769C49.1882 74.2024 51.3365 72.675 51.4956 72.5142C51.4956 72.7554 51.4956 72.675 51.416 72.8357Z" fill="black"/>
<path d="M56.747 69.4595C56.747 69.5399 56.6675 69.5399 56.6675 69.5399C56.6675 69.5399 56.5879 69.5399 56.5879 69.4595V69.3791C56.6675 69.2987 56.6675 69.2183 56.6675 69.1379C56.6675 69.0575 56.5879 68.9771 56.4288 68.9771C56.1105 68.9771 55.3944 69.4595 54.9966 70.0222C54.2009 70.9869 53.3257 72.4339 53.3257 73.2378C53.3257 73.5594 53.4848 73.8006 53.8826 73.8006C54.7579 73.8006 55.7127 73.0771 55.8718 72.9967C55.9514 72.9163 56.0309 72.9163 56.0309 72.9163C56.0309 72.9163 56.1105 72.9163 56.1105 72.9967C56.1105 73.0771 56.1105 73.0771 56.0309 73.1575C55.6331 73.6398 54.5987 74.1222 53.7235 74.1222C53.087 74.1222 52.8483 73.8006 52.8483 73.3986C52.8483 72.4339 53.8031 71.0673 54.4396 70.3438C55.2353 69.4595 56.2696 68.8967 56.747 68.8967C56.9857 68.8967 57.0653 68.9771 57.0653 69.2183C57.0653 69.0575 56.9062 69.2987 56.747 69.4595Z" fill="black"/>
<path d="M56.747 69.4595C56.747 69.5399 56.6675 69.5399 56.6675 69.5399C56.6675 69.5399 56.5879 69.5399 56.5879 69.4595V69.3791C56.6675 69.2987 56.6675 69.2183 56.6675 69.1379C56.6675 69.0575 56.5879 68.9771 56.4288 68.9771C56.1105 68.9771 55.3944 69.4595 54.9966 70.0222C54.2009 70.9869 53.3257 72.4339 53.3257 73.2378C53.3257 73.5594 53.4848 73.8006 53.8826 73.8006C54.7579 73.8006 55.7127 73.0771 55.8718 72.9967C55.9514 72.9163 56.0309 72.9163 56.0309 72.9163C56.0309 72.9163 56.1105 72.9163 56.1105 72.9967C56.1105 73.0771 56.1105 73.0771 56.0309 73.1575C55.6331 73.6398 54.5987 74.1222 53.7235 74.1222C53.087 74.1222 52.8483 73.8006 52.8483 73.3986C52.8483 72.4339 53.8031 71.0673 54.4396 70.3438C55.2353 69.4595 56.2696 68.8967 56.747 68.8967C56.9857 68.8967 57.0653 68.9771 57.0653 69.2183C57.0653 69.0575 56.9062 69.2987 56.747 69.4595Z" fill="black"/>
<path d="M60.3275 67.8517C60.1684 67.7713 59.691 68.0928 59.2136 68.736C58.0996 70.0222 57.1448 71.4693 56.2696 72.9163C56.747 72.5143 58.1792 71.0673 58.7362 71.0673C58.9749 71.0673 59.0544 71.3889 58.8157 71.63C58.4975 72.032 58.1792 72.5947 58.0201 72.9967C57.7018 74.1222 59.9297 72.5947 60.0092 72.434C59.9297 72.6751 59.9297 72.5947 59.8501 72.7555C59.3727 73.1575 58.4179 73.6398 57.8609 73.6398C57.0653 73.6398 57.5427 72.6751 57.8609 72.1928C58.0201 71.9516 58.1792 71.7104 58.2588 71.5497C58.4975 71.2281 58.0996 71.4693 58.0201 71.4693C57.1448 72.032 56.4287 72.7555 55.7126 73.5594C55.4739 73.8006 55.2352 73.479 55.3944 73.1575C56.19 71.7104 57.3835 69.8614 58.4179 68.6556C59.0544 67.9321 59.691 67.4497 60.0888 67.4497C60.3275 67.4497 60.4071 67.5301 60.3275 67.6909C60.4866 68.0124 60.3275 67.8517 60.3275 67.8517Z" fill="black"/>
<path d="M60.3275 67.8517C60.1684 67.7713 59.691 68.0928 59.2136 68.736C58.0996 70.0222 57.1448 71.4693 56.2696 72.9163C56.747 72.5143 58.1792 71.0673 58.7362 71.0673C58.9749 71.0673 59.0544 71.3889 58.8157 71.63C58.4975 72.032 58.1792 72.5947 58.0201 72.9967C57.7018 74.1222 59.9297 72.5947 60.0092 72.434C59.9297 72.6751 59.9297 72.5947 59.8501 72.7555C59.3727 73.1575 58.4179 73.6398 57.8609 73.6398C57.0653 73.6398 57.5427 72.6751 57.8609 72.1928C58.0201 71.9516 58.1792 71.7104 58.2588 71.5497C58.4975 71.2281 58.0996 71.4693 58.0201 71.4693C57.1448 72.032 56.4287 72.7555 55.7126 73.5594C55.4739 73.8006 55.2352 73.479 55.3944 73.1575C56.19 71.7104 57.3835 69.8614 58.4179 68.6556C59.0544 67.9321 59.691 67.4497 60.0888 67.4497C60.3275 67.4497 60.4071 67.5301 60.3275 67.6909C60.4866 68.0124 60.3275 67.8517 60.3275 67.8517Z" fill="black"/>
<path fill-rule="evenodd" clip-rule="evenodd" d="M59.8501 73.8811C58.4975 73.8008 60.1684 70.9067 61.2028 70.9067C62.7145 70.9871 60.9641 73.8811 59.8501 73.8811ZM60.0888 73.5596C60.8049 73.5596 62.078 71.3889 61.2823 71.3086C60.5662 71.3086 59.2932 73.5596 60.0888 73.5596Z" fill="black"/>
<path fill-rule="evenodd" clip-rule="evenodd" d="M59.8501 73.8811C58.4975 73.8008 60.1684 70.9067 61.2028 70.9067C62.7145 70.9871 60.9641 73.8811 59.8501 73.8811ZM60.0888 73.5596C60.8049 73.5596 62.078 71.3889 61.2823 71.3086C60.5662 71.3086 59.2932 73.5596 60.0888 73.5596Z" fill="black"/>
<path d="M64.3854 72.836C63.7489 73.3988 62.9532 73.8007 62.3167 73.8007C61.9188 73.8007 61.6801 73.5596 61.6801 73.238C61.6801 72.2733 63.0328 70.6655 64.0671 70.9067C64.1467 70.9067 64.2263 70.987 64.2263 71.0674C64.2263 71.1478 64.2263 71.1478 64.1467 71.1478C64.0671 71.1478 63.9876 71.1478 63.908 71.1478C63.5897 71.2282 63.1919 71.4694 62.7941 71.791C62.1575 72.4341 61.9188 73.3988 62.4758 73.4792C63.1919 73.4792 64.2263 72.6753 64.5445 72.4341C64.465 72.6753 64.3854 72.836 64.3854 72.836Z" fill="black"/>
<path d="M64.3854 72.836C63.7489 73.3988 62.9532 73.8007 62.3167 73.8007C61.9188 73.8007 61.6801 73.5596 61.6801 73.238C61.6801 72.2733 63.0328 70.6655 64.0671 70.9067C64.1467 70.9067 64.2263 70.987 64.2263 71.0674C64.2263 71.1478 64.2263 71.1478 64.1467 71.1478C64.0671 71.1478 63.9876 71.1478 63.908 71.1478C63.5897 71.2282 63.1919 71.4694 62.7941 71.791C62.1575 72.4341 61.9188 73.3988 62.4758 73.4792C63.1919 73.4792 64.2263 72.6753 64.5445 72.4341C64.465 72.6753 64.3854 72.836 64.3854 72.836Z" fill="black"/>
<path fill-rule="evenodd" clip-rule="evenodd" d="M64.5445 73.8811C63.1919 73.8008 64.7833 70.9067 65.8972 70.9067C67.3294 70.9871 65.6585 73.8811 64.5445 73.8811ZM64.7833 73.5596C65.4993 73.5596 66.7724 71.3889 65.9767 71.3086C65.1811 71.3086 63.908 73.5596 64.7833 73.5596Z" fill="black"/>
<path fill-rule="evenodd" clip-rule="evenodd" d="M64.5445 73.8811C63.1919 73.8008 64.7833 70.9067 65.8972 70.9067C67.3294 70.9871 65.6585 73.8811 64.5445 73.8811ZM64.7833 73.5596C65.4993 73.5596 66.7724 71.3889 65.9767 71.3086C65.1811 71.3086 63.908 73.5596 64.7833 73.5596Z" fill="black"/>
<path d="M70.6711 67.7714C70.512 67.6911 70.0346 68.093 69.5572 68.6557C69.0798 69.2185 66.6928 72.4341 66.7724 73.238C66.7724 73.3988 66.8519 73.4792 67.0111 73.4792C67.4089 73.4792 68.5228 72.8361 68.8411 72.4341C68.7615 72.5949 68.7615 72.6753 68.682 72.7557C68.4433 72.9969 67.8067 73.3988 67.4885 73.5596C67.2498 73.7204 66.5337 73.9616 66.295 73.8008C66.2154 73.7204 66.1358 73.64 66.1358 73.4792C66.1358 72.5145 68.3637 69.4597 68.8411 68.8165C69.4776 68.093 70.0346 67.5303 70.512 67.5303C70.7507 67.5303 70.8303 67.6107 70.7507 67.7714C70.8303 67.9322 70.6711 67.7714 70.6711 67.7714Z" fill="black"/>
<path d="M70.6711 67.7714C70.512 67.6911 70.0346 68.093 69.5572 68.6557C69.0798 69.2185 66.6928 72.4341 66.7724 73.238C66.7724 73.3988 66.8519 73.4792 67.0111 73.4792C67.4089 73.4792 68.5228 72.8361 68.8411 72.4341C68.7615 72.5949 68.7615 72.6753 68.682 72.7557C68.4433 72.9969 67.8067 73.3988 67.4885 73.5596C67.2498 73.7204 66.5337 73.9616 66.295 73.8008C66.2154 73.7204 66.1358 73.64 66.1358 73.4792C66.1358 72.5145 68.3637 69.4597 68.8411 68.8165C69.4776 68.093 70.0346 67.5303 70.512 67.5303C70.7507 67.5303 70.8303 67.6107 70.7507 67.7714C70.8303 67.9322 70.6711 67.7714 70.6711 67.7714Z" fill="black"/>
<path d="M72.5012 72.9162C72.0238 73.3182 71.069 73.8005 70.5916 73.8005C69.7959 73.8005 70.2733 72.8358 70.5916 72.3535C70.3529 72.5946 68.2842 74.6044 68.2842 73.4789C68.2842 73.1574 68.5229 72.675 68.682 72.4339C69.1594 71.7103 70.1142 70.9868 70.9099 70.9868C71.069 70.9868 71.2281 70.9868 71.3077 71.0672C71.626 71.228 71.5464 71.3888 71.3873 71.3084C71.3077 71.3084 71.2281 71.3084 71.069 71.3084C70.4325 71.3084 69.8755 71.7103 69.4777 72.1123C69.239 72.3535 68.682 73.077 68.7616 73.3986C68.7616 74.0417 70.3529 72.4339 70.512 72.2731C70.7507 72.1123 70.9099 71.7907 71.069 71.6299C71.1486 71.5496 71.3077 71.3888 71.4668 71.4692C71.5464 71.4692 71.626 71.5496 71.626 71.6299C71.626 71.7103 71.5464 71.7103 71.5464 71.7907C71.2281 72.2731 70.9099 72.7554 70.8303 73.1574C70.512 74.2829 72.6603 72.7554 72.8195 72.5946C72.5808 72.8358 72.5808 72.7554 72.5012 72.9162Z" fill="black"/>
<path d="M72.5012 72.9162C72.0238 73.3182 71.069 73.8005 70.5916 73.8005C69.7959 73.8005 70.2733 72.8358 70.5916 72.3535C70.3529 72.5946 68.2842 74.6044 68.2842 73.4789C68.2842 73.1574 68.5229 72.675 68.682 72.4339C69.1594 71.7103 70.1142 70.9868 70.9099 70.9868C71.069 70.9868 71.2281 70.9868 71.3077 71.0672C71.626 71.228 71.5464 71.3888 71.3873 71.3084C71.3077 71.3084 71.2281 71.3084 71.069 71.3084C70.4325 71.3084 69.8755 71.7103 69.4777 72.1123C69.239 72.3535 68.682 73.077 68.7616 73.3986C68.7616 74.0417 70.3529 72.4339 70.512 72.2731C70.7507 72.1123 70.9099 71.7907 71.069 71.6299C71.1486 71.5496 71.3077 71.3888 71.4668 71.4692C71.5464 71.4692 71.626 71.5496 71.626 71.6299C71.626 71.7103 71.5464 71.7103 71.5464 71.7907C71.2281 72.2731 70.9099 72.7554 70.8303 73.1574C70.512 74.2829 72.6603 72.7554 72.8195 72.5946C72.5808 72.8358 72.5808 72.7554 72.5012 72.9162Z" fill="black"/>
<path d="M74.5699 72.836C74.1721 73.1576 73.0582 73.8811 72.3421 73.8007C72.1034 73.8007 72.0238 73.64 72.0238 73.4792C72.0238 72.836 72.9786 71.5498 73.0582 71.3086H72.7399C72.5012 71.3086 72.5012 71.0674 72.6603 71.0674C72.8195 71.0674 73.0582 71.0674 73.2173 71.0674C73.5356 70.5851 73.6947 70.3439 73.7743 70.2635C73.9334 70.1028 74.0925 69.942 74.1721 70.0224C74.3312 70.1028 74.1721 70.3439 74.0925 70.5047C74.013 70.5851 73.8538 70.9067 73.6947 71.0674C74.013 71.0674 74.013 71.0674 74.2517 71.0674C74.3312 71.0674 74.3312 71.2282 74.2517 71.2282C73.8538 71.2282 73.8538 71.2282 73.5356 71.2282C73.1377 71.791 72.6603 72.5949 72.5808 72.9968C72.2625 74.2027 74.5699 72.5949 74.6495 72.4341C74.6495 72.7557 74.6495 72.6753 74.5699 72.836Z" fill="black"/>
<path d="M74.5699 72.836C74.1721 73.1576 73.0582 73.8811 72.3421 73.8007C72.1034 73.8007 72.0238 73.64 72.0238 73.4792C72.0238 72.836 72.9786 71.5498 73.0582 71.3086H72.7399C72.5012 71.3086 72.5012 71.0674 72.6603 71.0674C72.8195 71.0674 73.0582 71.0674 73.2173 71.0674C73.5356 70.5851 73.6947 70.3439 73.7743 70.2635C73.9334 70.1028 74.0925 69.942 74.1721 70.0224C74.3312 70.1028 74.1721 70.3439 74.0925 70.5047C74.013 70.5851 73.8538 70.9067 73.6947 71.0674C74.013 71.0674 74.013 71.0674 74.2517 71.0674C74.3312 71.0674 74.3312 71.2282 74.2517 71.2282C73.8538 71.2282 73.8538 71.2282 73.5356 71.2282C73.1377 71.791 72.6603 72.5949 72.5808 72.9968C72.2625 74.2027 74.5699 72.5949 74.6495 72.4341C74.6495 72.7557 74.6495 72.6753 74.5699 72.836Z" fill="black"/>
<path d="M76.7978 72.7558C76.3204 73.2382 75.286 73.8009 74.6495 73.8009C73.1377 73.8813 74.8086 70.8264 76.0817 70.9068C77.0365 70.9872 75.6839 72.595 74.8882 72.7558C74.8086 72.7558 74.8086 72.7558 74.8086 72.6754L74.8882 72.595C75.1269 72.5147 75.5247 72.1931 75.7634 71.9519C76.0817 71.55 76.2408 71.148 76.0817 71.148C75.3656 71.148 74.013 73.5597 74.8882 73.5597C75.6043 73.5597 76.6387 72.7558 76.9569 72.4343C76.8774 72.6754 76.8774 72.595 76.7978 72.7558Z" fill="black"/>
<path d="M76.7978 72.7558C76.3204 73.2382 75.286 73.8009 74.6495 73.8009C73.1377 73.8813 74.8086 70.8264 76.0817 70.9068C77.0365 70.9872 75.6839 72.595 74.8882 72.7558C74.8086 72.7558 74.8086 72.7558 74.8086 72.6754L74.8882 72.595C75.1269 72.5147 75.5247 72.1931 75.7634 71.9519C76.0817 71.55 76.2408 71.148 76.0817 71.148C75.3656 71.148 74.013 73.5597 74.8882 73.5597C75.6043 73.5597 76.6387 72.7558 76.9569 72.4343C76.8774 72.6754 76.8774 72.595 76.7978 72.7558Z" fill="black"/>
<path d="M76.6386 72.9162C76.6386 72.9162 76.7182 72.7554 76.7978 72.5946C76.8773 72.5142 77.116 72.273 77.1956 72.1926C77.2752 72.1123 77.3547 72.0319 77.3547 71.9515C77.5139 71.2279 77.9117 70.826 78.6278 70.9064C78.7869 70.9064 79.1052 70.9868 79.1052 71.1476C79.1052 71.2279 79.0256 71.2279 78.9461 71.2279C78.6278 71.1476 78.3095 71.1476 78.0708 71.4691C77.5139 72.0319 77.9117 73.2377 77.116 73.7201C77.7526 73.6397 78.6278 73.2377 79.503 72.5142C79.4235 72.7554 79.4235 72.8358 79.3439 72.9162C78.7074 73.3985 77.673 73.9612 76.7978 73.9612C76.7182 73.9612 76.5591 73.8809 76.4795 73.8809C76.3999 73.8005 76.3999 73.5593 76.3999 73.6397C76.4795 73.7201 76.5591 73.7201 76.7182 73.8005C76.8773 73.8005 76.9569 73.7201 77.0365 73.6397C77.2752 73.3985 77.2752 72.8358 77.2752 72.4338C77.116 72.5142 76.8773 72.675 76.6386 72.9162Z" fill="black"/>
<path d="M76.6386 72.9162C76.6386 72.9162 76.7182 72.7554 76.7978 72.5946C76.8773 72.5142 77.116 72.273 77.1956 72.1926C77.2752 72.1123 77.3547 72.0319 77.3547 71.9515C77.5139 71.2279 77.9117 70.826 78.6278 70.9064C78.7869 70.9064 79.1052 70.9868 79.1052 71.1476C79.1052 71.2279 79.0256 71.2279 78.9461 71.2279C78.6278 71.1476 78.3095 71.1476 78.0708 71.4691C77.5139 72.0319 77.9117 73.2377 77.116 73.7201C77.7526 73.6397 78.6278 73.2377 79.503 72.5142C79.4235 72.7554 79.4235 72.8358 79.3439 72.9162C78.7074 73.3985 77.673 73.9612 76.7978 73.9612C76.7182 73.9612 76.5591 73.8809 76.4795 73.8809C76.3999 73.8005 76.3999 73.5593 76.3999 73.6397C76.4795 73.7201 76.5591 73.7201 76.7182 73.8005C76.8773 73.8005 76.9569 73.7201 77.0365 73.6397C77.2752 73.3985 77.2752 72.8358 77.2752 72.4338C77.116 72.5142 76.8773 72.675 76.6386 72.9162Z" fill="black"/>
<rect x="22.6129" y="64.7168" width="52.1957" height="1.07188" fill="black"/>
</svg>
