<svg width="76" height="51" viewBox="0 0 76 51" fill="none" xmlns="http://www.w3.org/2000/svg">
<path fill-rule="evenodd" clip-rule="evenodd" d="M42.4373 1.94038e-07C35.2513 1.94038e-07 31.4835 15.0879 30.3405 23.4534C29.1884 15.0859 25.419 0.0024416 18.243 1.94038e-07C9.83884 -0.00268535 0.00708008 27.8718 0 50.9836H7.73642C7.73642 26.7678 13.7256 4.94019 18.0304 4.94019C21.6528 4.94019 24.8881 14.4646 26.0322 32.7905H34.6391C35.7885 14.4646 39.0352 4.94019 42.6387 4.94019C45.8213 4.94092 49.9196 16.8271 51.8486 32.7905H58.9229C55.7158 15.4016 48.6711 1.94038e-07 42.4373 1.94038e-07ZM60.1967 41.7039H52.6578C52.8435 44.7283 52.9448 47.8357 52.9448 50.9836H60.681C60.6813 47.9485 60.5114 44.8306 60.1967 41.7039ZM34.2675 41.7039H26.4019C26.4478 43.7427 26.4716 45.8638 26.4716 48.0664H34.1974C34.1974 45.8638 34.2213 43.7427 34.2675 41.7039Z" fill="black"/>
<path d="M57.3247 40.8097H59.567V33.508H57.3247V40.8097ZM67.813 33.508H69.3399L68.8214 35.4978H67.7107L67.813 33.508ZM71.9714 34.5896C73.4628 34.5896 74.8643 34.9619 74.8709 36.4113H72.7416C72.7416 35.9121 72.447 35.685 71.9501 35.685C71.6553 35.685 71.2566 35.8062 71.2566 36.2637C71.257 37.023 72.4701 36.8712 73.5002 37.174C74.4255 37.4456 75.0669 37.9919 75.0669 38.8743C75.0669 40.2262 73.9954 40.9739 71.9714 40.982C69.8486 40.9904 69.05 40.233 69.0435 38.8743H71.2008C71.2008 39.387 71.5228 39.6924 71.9779 39.6924C72.5226 39.6924 72.7699 39.4875 72.7699 39.1062C72.7699 38.3125 71.2826 38.333 70.4054 38.0494C69.809 37.8557 69.2669 37.418 69.2669 36.4889C69.2669 35.7129 69.8551 34.5896 71.9714 34.5896ZM26.0485 38.5966C25.6764 40.0481 24.4596 40.9889 22.9423 40.9896C21.1104 40.9896 19.7167 39.6176 19.7186 37.6318C19.7199 35.649 20.9586 34.2766 22.9423 34.2747C24.5869 34.2735 25.7192 35.2189 26.0591 36.6725L23.9608 36.6727C23.8001 36.236 23.4906 35.8955 22.9423 35.8949C22.0165 35.8947 21.7723 36.866 21.7725 37.6318C21.7729 38.3986 22.0165 39.3691 22.9423 39.3691C23.4885 39.3691 23.7973 39.0314 23.9587 38.5968L26.0485 38.5966ZM10.579 33.5086H13.2582L14.4243 37.8219L15.5906 33.5086H18.2712L19.4427 40.9896H17.2324L16.6485 36.6175L15.4406 40.9896H13.4079L12.2 36.6175L11.6159 40.9896H9.40393L10.579 33.5086ZM44.9412 37.2327V40.8106H42.7246V34.4318H44.9412V34.9303C45.5025 34.4976 46.0093 34.2749 47.1601 34.2749C48.4095 34.2749 49.416 35.1014 49.4166 35.9688V40.8108H47.184V37.2992C47.185 36.7161 46.6571 36.2406 46.0829 36.2406C45.3437 36.241 44.9761 36.888 44.9412 37.2327ZM64.7188 35.0644V33.5078H66.9609V40.8095H64.7188V40.4553C64.4244 40.7182 64.0382 40.987 63.0716 40.987C61.9843 40.987 60.2573 40.3892 60.2556 37.8203C60.2543 35.2553 61.9824 34.5894 63.212 34.5894C64.1043 34.5896 64.5262 34.8946 64.7188 35.0644ZM62.392 37.8203C62.392 38.8187 62.8615 39.4567 63.6324 39.4567C64.0944 39.4567 64.481 39.2571 64.7197 38.8411V36.926C64.6003 36.5031 64.1851 36.1914 63.6324 36.1914C62.8602 36.1909 62.392 36.8224 62.392 37.8205V37.8203ZM35.282 37.6327C35.2838 35.6497 36.583 34.2771 38.6638 34.2753C40.7453 34.2733 42.0443 35.6497 42.046 37.6327C42.0479 39.618 40.745 40.9902 38.6638 40.9902C36.5851 40.9902 35.2803 39.618 35.282 37.6327ZM39.9486 37.6327C39.9486 36.8665 39.681 35.8956 38.6638 35.8956C37.647 35.8951 37.3788 36.8665 37.3792 37.6327C37.3795 38.3991 37.647 39.37 38.6638 39.37C39.6808 39.37 39.9486 38.3991 39.9486 37.6327ZM26.8299 33.5086H30.6819C33.0924 33.5086 34.7347 34.9903 34.7347 37.249C34.7347 39.5077 33.0927 40.9896 30.6819 40.9896H26.8299V33.5086ZM29.3781 39.2211H30.5427C31.2972 39.2211 32.216 38.7657 32.216 37.249C32.216 35.7342 31.2972 35.2771 30.5427 35.2771H29.3781V39.2211ZM53.4154 34.2757C55.0067 34.2744 56.318 34.8536 56.4205 36.1251V40.8097H54.1766V40.1782C53.6315 40.6404 53.0885 40.9869 52.1078 40.9869C50.9654 40.9869 50.0449 40.0932 50.0449 39.0452C50.0449 37.9973 50.6969 36.8333 53.3069 36.8337C53.9798 36.8337 54.1758 36.5719 54.1766 36.2596C54.1775 35.8764 53.7312 35.6627 53.3573 35.6627C52.9836 35.6627 52.5595 35.8166 52.5595 36.2173H50.4572C50.4574 35.2774 51.0958 34.2779 53.4154 34.2757ZM53.2912 37.8702C52.7736 37.8702 52.2948 38.1436 52.2948 38.6678C52.2948 39.007 52.4975 39.2996 53.0265 39.2996C53.5324 39.2996 54.0728 39.0022 54.1764 38.3864V37.8027C54.0052 37.8955 53.6183 37.8702 53.2912 37.8702Z" fill="black"/>
<path d="M64.1112 46.0051H65.4886C66.1707 46.0051 66.6247 46.3677 66.6247 46.847C66.6247 47.2891 66.2804 47.5796 65.8552 47.6156V47.6304C66.5076 47.8478 66.6028 48.2974 66.6105 48.9071H65.9948C65.973 48.1741 65.8113 47.8551 65.1595 47.8551H64.6533V48.9071H64.1112V46.0051ZM64.6533 47.3908H65.2986C65.8042 47.3908 66.0094 47.2167 66.0094 46.8901C66.0094 46.6434 65.8556 46.4694 65.3867 46.4694H64.6533V47.3908ZM65.2396 44.9968C65.5709 44.9962 65.899 45.0603 66.2052 45.1855C66.5114 45.3107 66.7895 45.4945 67.0238 45.7264C67.258 45.9582 67.4437 46.2336 67.5702 46.5366C67.6966 46.8397 67.7614 47.1645 67.7607 47.4924C67.7614 47.8203 67.6966 48.145 67.5702 48.4481C67.4437 48.7512 67.258 49.0265 67.0238 49.2584C66.7895 49.4902 66.5114 49.674 66.2052 49.7992C65.899 49.9244 65.5709 49.9885 65.2396 49.9879C64.9083 49.9885 64.5802 49.9244 64.274 49.7992C63.9678 49.674 63.6896 49.4902 63.4554 49.2584C63.2211 49.0265 63.0355 48.7512 62.909 48.4481C62.7825 48.145 62.7178 47.8203 62.7184 47.4924C62.7178 47.1645 62.7825 46.8397 62.909 46.5366C63.0355 46.2336 63.2211 45.9582 63.4554 45.7264C63.6896 45.4945 63.9678 45.3107 64.274 45.1855C64.5802 45.0603 64.9083 44.9962 65.2396 44.9968ZM65.2396 49.7194C66.4783 49.7194 67.4898 48.7256 67.4898 47.4924C67.4898 46.2591 66.4787 45.2651 65.2396 45.2651C64.0012 45.2651 62.9893 46.2591 62.9893 47.4924C62.9893 48.7256 64.0012 49.7194 65.2396 49.7194Z" fill="black"/>
</svg>
