<svg width="56" height="56" viewBox="0 0 56 56" fill="none" xmlns="http://www.w3.org/2000/svg">
<path d="M24.5 9.75C24.0858 9.75 23.75 10.0858 23.75 10.5C23.75 10.9142 24.0858 11.25 24.5 11.25V9.75ZM31.5 11.25C31.9142 11.25 32.25 10.9142 32.25 10.5C32.25 10.0858 31.9142 9.75 31.5 9.75V11.25ZM50.5 19.75C50.9142 19.75 51.25 19.4142 51.25 19C51.25 18.5858 50.9142 18.25 50.5 18.25V19.75ZM48 18.25C47.5858 18.25 47.25 18.5858 47.25 19C47.25 19.4142 47.5858 19.75 48 19.75V18.25ZM44.5 19.75C44.9142 19.75 45.25 19.4142 45.25 19C45.25 18.5858 44.9142 18.25 44.5 18.25V19.75ZM43.5 18.25C43.0858 18.25 42.75 18.5858 42.75 19C42.75 19.4142 43.0858 19.75 43.5 19.75V18.25ZM36.7918 7.78158L36.1065 8.08619L36.7918 7.78158ZM4 50.75H52V49.25H4V50.75ZM16.6854 15.3046L19.8935 8.08619L18.5228 7.47698L15.3146 14.6954L16.6854 15.3046ZM21.9496 6.75H34.0504V5.25H21.9496V6.75ZM52 14.25H40V15.75H52V14.25ZM40 14.25H16V15.75H40V14.25ZM36.1065 8.08619L39.3146 15.3046L40.6854 14.6954L37.4772 7.47698L36.1065 8.08619ZM24.5 11.25H31.5V9.75H24.5V11.25ZM5.5 14.25H4V15.75H5.5V14.25ZM6.25 15V12.5H4.75V15H6.25ZM7.5 11.25H10.5V9.75H7.5V11.25ZM16 14.25H12.5V15.75H16V14.25ZM12.5 14.25H5.5V15.75H12.5V14.25ZM11.75 12.5V15H13.25V12.5H11.75ZM0.25 18V24H1.75V18H0.25ZM55.75 24V18H54.25V24H55.75ZM0.25 24V41H1.75V24H0.25ZM0.25 41V47H1.75V41H0.25ZM55.75 47V41H54.25V47H55.75ZM55.75 41V24H54.25V41H55.75ZM1 24.75H17.5V23.25H1V24.75ZM38.5 24.75H55V23.25H38.5V24.75ZM1 41.75H18.5V40.25H1V41.75ZM37.5 41.75H55V40.25H37.5V41.75ZM50.5 18.25H48V19.75H50.5V18.25ZM44.5 18.25H43.5V19.75H44.5V18.25ZM34.0504 6.75C34.9396 6.75 35.7453 7.27365 36.1065 8.08619L37.4772 7.47698C36.8753 6.12275 35.5323 5.25 34.0504 5.25V6.75ZM52 15.75C53.2426 15.75 54.25 16.7574 54.25 18H55.75C55.75 15.9289 54.0711 14.25 52 14.25V15.75ZM52 50.75C54.0711 50.75 55.75 49.0711 55.75 47H54.25C54.25 48.2426 53.2426 49.25 52 49.25V50.75ZM10.5 11.25C11.1904 11.25 11.75 11.8096 11.75 12.5H13.25C13.25 10.9812 12.0188 9.75 10.5 9.75V11.25ZM4 49.25C2.75736 49.25 1.75 48.2426 1.75 47H0.25C0.25 49.0711 1.92893 50.75 4 50.75V49.25ZM19.8935 8.08619C20.2547 7.27365 21.0604 6.75 21.9496 6.75V5.25C20.4677 5.25 19.1247 6.12275 18.5228 7.47698L19.8935 8.08619ZM6.25 12.5C6.25 11.8096 6.80964 11.25 7.5 11.25V9.75C5.98122 9.75 4.75 10.9812 4.75 12.5H6.25ZM4 14.25C1.92893 14.25 0.25 15.9289 0.25 18H1.75C1.75 16.7574 2.75736 15.75 4 15.75V14.25Z" fill="#FFED00"/>
<circle cx="28" cy="32" r="13" stroke="#FFED00" stroke-width="1.5"/>
<circle cx="28" cy="32" r="8" stroke="#FFED00" stroke-width="1.5"/>
<path d="M23.25 32C23.25 32.4142 23.5858 32.75 24 32.75C24.4142 32.75 24.75 32.4142 24.75 32H23.25ZM28 28.75C28.4142 28.75 28.75 28.4142 28.75 28C28.75 27.5858 28.4142 27.25 28 27.25V28.75ZM24.75 32C24.75 30.2051 26.2051 28.75 28 28.75V27.25C25.3766 27.25 23.25 29.3766 23.25 32H24.75Z" fill="#FFED00"/>
</svg>
