<svg width="116" height="21" viewBox="0 0 116 21" fill="none" xmlns="http://www.w3.org/2000/svg">
<path fill-rule="evenodd" clip-rule="evenodd" d="M15.43 13.3C13.5988 13.3 12.6516 12.0911 12.6516 10.3728L19.724 10.4365C19.8503 9.35449 19.8503 9.03638 19.8503 8.40015C19.8503 5.34546 18.0822 3.18188 15.2406 3.18188C12.0201 3.18188 9.30481 6.17285 9.30481 9.99097C9.30481 13.6819 11.6412 15.9092 14.7985 15.9092C16.7181 15.9092 17.6021 15.4553 18.325 15.0842C18.4582 15.0159 18.5859 14.9502 18.7136 14.8909L19.1556 11.9001C17.3876 13.0454 16.6298 13.3 15.43 13.3ZM16.6298 7.50928V8.14551V8.20923H12.9673C13.2198 6.93652 13.7882 5.6001 15.1143 5.6001C16.1877 5.6001 16.6298 6.42749 16.6298 7.50928Z" fill="black"/>
<path d="M5.16211 0H6.01234L5.58723 3.28487H8.68449L8.32011 5.92565H5.22284L4.79773 9.14612L4.61553 10.3055C4.5548 10.6275 4.5548 10.9496 4.5548 11.2716C4.49407 12.1734 4.79773 12.8174 5.40503 12.9463C6.25526 13.0751 6.74111 12.9463 8.01645 12.1734L7.59134 15.1362C6.19453 15.7159 5.58723 15.9091 4.67627 15.9091C2.67215 15.9091 1.33608 14.3633 1.33608 11.9801C1.33608 11.2716 1.33608 10.8852 1.63973 8.95289L2.00411 5.99006H0L0.121461 5.15274L5.16211 0Z" fill="black"/>
<path d="M111.746 15.2099L112.678 7.72579C112.74 7.28555 112.802 6.78242 112.429 6.46796C112.181 6.27929 111.808 6.1535 111.435 6.27929C110.813 6.53085 110.254 7.03399 109.756 7.53712L108.7 15.2099C107.519 15.2099 106.648 15.2099 105.467 15.2099L106.462 7.34844C106.462 6.9711 106.338 6.65664 106.027 6.46796C105.778 6.27929 105.53 6.27929 105.219 6.27929C104.535 6.46796 103.976 6.9711 103.478 7.53712L102.484 15.2728H99.2513L100.805 3.44916H104.038C104.038 3.9523 103.913 4.51832 103.789 5.08435H103.851C104.846 3.82651 106.338 2.88314 107.954 3.32338C108.575 3.44916 109.135 3.9523 109.508 4.51832C109.57 4.707 109.694 4.83278 109.756 5.02145H109.819C111.062 3.8894 112.616 2.69446 114.356 3.38627C115.289 3.70073 115.848 4.707 115.972 5.65037C116.035 6.02772 115.972 6.46796 115.972 6.84531L114.853 15.2728H114.791H111.746V15.2099Z" fill="black"/>
<path fill-rule="evenodd" clip-rule="evenodd" d="M37.2192 20.9999H40.3646L41.0904 15.1794C41.7557 15.4955 42.4211 15.6855 43.1469 15.6855C45.0825 15.6855 46.7156 14.4201 47.5624 12.6486C48.4092 10.6872 48.8326 7.84025 47.6834 5.87882C47.3205 5.24601 46.7761 4.61344 46.1713 4.17057C44.3566 2.71549 41.5743 3.15836 39.4572 3.66447L37.2192 20.9999ZM41.803 12.5995C41.7089 12.5502 41.6147 12.5009 41.5138 12.4587L42.3606 6.00529C43.3284 5.68888 44.4777 6.06852 44.9615 7.08073C45.6269 8.47282 45.3849 10.2443 44.7801 11.5729C44.2962 12.4587 43.3889 13.028 42.4211 12.8383C42.1793 12.7961 41.9911 12.6979 41.803 12.5995Z" fill="black"/>
<path fill-rule="evenodd" clip-rule="evenodd" d="M58.7151 13.4722C60.1991 11.1128 60.8174 7.66947 59.2716 5.11893C58.5297 3.97098 57.3548 3.33353 56.0564 3.20584C53.8923 3.01468 51.9137 3.97098 50.8625 5.94779C49.8732 7.92459 49.2549 10.4751 49.8732 12.8345C50.3678 14.2373 51.6663 15.5127 53.0885 15.7676C55.3144 16.2779 57.4785 15.385 58.7151 13.4722ZM53.8923 6.52176C54.3251 6.07547 54.9433 5.62894 55.6235 5.75662C55.9327 5.82035 56.2418 5.94779 56.4274 6.26663C57.0456 7.2869 56.922 8.75345 56.7365 9.96512C56.551 11.0491 56.2418 12.0694 55.4999 12.8982C55.1289 13.1534 54.696 13.4085 54.2014 13.2808C53.4594 13.0896 53.0884 12.3243 52.9648 11.5591C52.7793 9.77372 53.0266 7.98831 53.8923 6.52176Z" fill="black"/>
<path d="M62.0321 10.1819C62.1546 9.35466 62.2159 8.46375 62.3997 7.63647H66.9947C66.9334 8.52738 66.8109 9.29102 66.6883 10.1819H62.0321Z" fill="black"/>
<path fill-rule="evenodd" clip-rule="evenodd" d="M94.3737 15H97.6677L99.2514 3.0027C96.8442 2.48951 93.867 2.16871 91.7132 3.38771C89.496 4.79908 88.1658 7.17286 88.1024 9.73927C87.9758 11.8565 88.5459 13.9094 90.3829 15C91.7765 15.6416 93.3602 15.0642 94.4371 14.166H94.5004C94.4371 14.4868 94.3737 14.6792 94.3737 15ZM91.5231 10.7017C91.3964 8.64869 91.9032 6.4673 93.7402 5.50489C94.3103 5.2483 95.0071 5.18409 95.7039 5.31251L95.5772 6.2107L94.8804 11.4072C94.247 11.9849 93.4868 12.5623 92.5999 12.2415C91.9665 12.0488 91.5864 11.3433 91.5231 10.7017Z" fill="black"/>
<path d="M72.1567 0H73.007L72.5819 3.28487H75.6791L75.3147 5.92565H72.2175L71.7924 9.14612L71.6102 10.3055C71.5494 10.6275 71.5494 10.9496 71.5494 11.2716C71.4887 12.1734 71.7924 12.8174 72.3997 12.9463C73.2499 13.0751 73.7357 12.9463 75.0111 12.1734L74.586 15.1362C73.1892 15.7159 72.5819 15.9091 71.6709 15.9091C69.6668 15.9091 68.3307 14.3633 68.3307 11.9801C68.3307 11.2716 68.3307 10.8852 68.6344 8.95289L68.9987 5.99006H66.9946L67.1161 5.28156L72.1567 0Z" fill="black"/>
<path fill-rule="evenodd" clip-rule="evenodd" d="M82.4246 13.2363C80.5934 13.2363 79.6462 12.0273 79.6462 10.3091L86.7186 10.4365C86.8449 9.35449 86.8449 9.03638 86.8449 8.40015C86.8449 5.34546 85.0768 3.18188 82.2352 3.18188C79.0147 3.18188 76.2994 6.17285 76.2994 9.99097C76.2994 13.6819 78.6359 15.9092 81.7932 15.9092C83.7128 15.9092 84.5967 15.4553 85.3196 15.0842C85.4528 15.0159 85.5805 14.9502 85.7083 14.8909L86.1503 11.8364C84.3822 12.9819 83.6245 13.2363 82.4246 13.2363ZM83.6876 7.44556V8.08179V8.14551H80.0251C80.2776 6.8728 80.846 5.53638 82.1721 5.53638C83.2455 5.53638 83.6876 6.36377 83.6876 7.44556Z" fill="black"/>
<path d="M32.9026 15.2099L33.835 7.72579C33.8971 7.28555 33.9593 6.78242 33.5863 6.46796C33.3377 6.27929 32.9647 6.1535 32.5918 6.27929C31.9702 6.53085 31.4107 7.03399 30.9135 7.53712L29.9189 15.2099C28.7379 15.2099 27.8676 15.2099 26.6866 15.2099L27.6811 7.34844C27.6811 6.9711 27.5568 6.65664 27.246 6.46796C26.9974 6.27929 26.7487 6.27929 26.4379 6.27929C25.7542 6.46796 25.1947 6.9711 24.6975 7.53712L23.7029 15.2728H20.4706L22.0246 3.44916H25.2569C25.2569 3.9523 25.1326 4.51832 25.0083 5.08435H25.0704C26.065 3.82651 27.5568 2.88314 29.173 3.32338C29.7946 3.44916 30.354 3.9523 30.727 4.51832C30.8513 4.707 30.9135 4.83278 30.9756 5.02145H31.0378C32.281 3.8894 33.835 2.69446 35.5755 3.38627C36.5079 3.70073 37.0673 4.707 37.1916 5.65037C37.2538 6.02772 37.1916 6.46796 37.1916 6.84531L36.1349 15.2099H36.0727H32.9026Z" fill="black"/>
</svg>
