<svg width="111" height="77" viewBox="0 0 111 77" fill="none" xmlns="http://www.w3.org/2000/svg">
<path d="M23.0337 75.5871C20.8372 74.776 19.1802 73.3469 17.9852 71.0685C14.7487 65.12 18.7949 57.627 25.6156 56.9317C31.3188 56.3524 36.2513 60.7941 36.2513 66.5491C36.2513 69.2528 35.6344 70.8364 33.9003 72.8448C31.3573 75.7416 26.7716 76.9004 23.0337 75.5871ZM29.7774 71.2226C31.0101 70.1029 31.6271 68.5962 31.6271 66.665C31.6271 62.9571 29.7389 60.6783 26.6175 60.6783C24.4591 60.6783 22.9567 61.6825 22.147 63.6137C21.0299 66.3174 21.8388 70.566 23.6499 71.5706C25.8083 72.729 28.2745 72.5745 29.7774 71.2226ZM61.9928 75.6644C60.1046 75.1623 57.1374 72.4972 56.2511 70.5274C54.7097 67.1285 55.673 62.4163 58.4865 59.674C63.3801 54.9229 71.5885 56.5451 74.247 62.8026C75.1719 64.9655 75.0948 68.5962 74.0933 70.6046C73.0528 72.6131 70.0856 75.2395 68.2741 75.7416C66.5785 76.2051 63.9196 76.1665 61.9928 75.6644ZM67.5419 71.802C68.1199 71.5702 68.9673 70.7978 69.4297 70.0639C70.1234 68.9824 70.2393 68.2872 70.0848 66.0084C69.9307 63.4592 69.8536 63.2274 68.5049 61.9919C67.3874 60.949 66.7708 60.6786 65.5377 60.6786C63.2641 60.6786 61.7612 61.6056 60.8745 63.4982C59.1404 67.322 60.6819 71.4934 64.0733 72.2276C65.3839 72.5358 65.7307 72.4972 67.5419 71.802ZM6.19385 68.2099V61.1031L3.41931 60.9873L0.606241 60.8714L0.490636 59.2492L0.375031 57.5883H15.8276V61.0645H10.0474V75.3554H6.19385V68.2099ZM43.8427 75.085C43.6886 74.9691 43.573 73.3469 43.573 71.493C43.573 69.6777 43.4189 68.0168 43.2262 67.8237C43.0335 67.592 41.4921 65.2359 39.758 62.5322L36.6367 57.5883H41.4921L43.573 61.0645C44.729 62.9571 45.808 64.5407 45.9236 64.5407C46.0392 64.5407 47.0797 63.0343 48.2358 61.219C49.3533 59.3647 50.5093 57.8197 50.7405 57.7038C50.9721 57.6266 52.0893 57.588 53.1683 57.6652L55.1721 57.7811L51.7039 63.1884C48.4284 68.2482 48.1972 68.7117 48.1587 70.7201C48.1201 72.6513 48.0431 73.2693 47.8893 74.8915C47.8119 75.394 44.3052 75.5871 43.8427 75.085ZM81.7228 68.2099V61.1031L78.9483 60.9873L76.1352 60.8714L76.0196 59.2492L75.904 57.5883H91.7805L91.6649 59.2492L91.5493 60.8714L88.5821 60.9873L85.5764 61.1031V75.3554H81.7228V68.2099ZM91.3567 75.0464C91.3567 74.8919 92.8981 70.9519 94.7477 66.2787L98.1388 57.7815L100.875 57.6656C102.841 57.5883 103.649 57.7042 103.804 58.0518C103.881 58.3222 105.461 62.2615 107.311 66.7809C109.122 71.2999 110.625 75.085 110.625 75.1623C110.625 75.2781 109.662 75.3554 108.467 75.3554H106.347L105.538 73.4242L104.728 71.493H97.0984L96.2892 73.4242L95.4799 75.3554H93.4375C92.2815 75.3554 91.3567 75.2009 91.3567 75.0464ZM103.303 68.0555C103.303 67.8623 102.956 66.8581 102.493 65.8153C102.069 64.811 101.53 63.5368 101.298 62.9957C100.952 62.1073 100.836 62.1846 99.834 64.7338C99.2171 66.2401 98.7165 67.6692 98.7165 67.9396C98.678 68.2486 99.3716 68.4031 100.99 68.4031C102.262 68.4031 103.303 68.2486 103.303 68.0555ZM46.7714 50.5974C32.9758 48.4731 22.5713 42.216 18.3324 33.4483C12.9375 22.286 18.8334 10.5057 32.9758 4.2872C41.6848 0.463421 53.5532 -0.88842 64.7674 0.579292C82.4936 2.97398 94.8248 13.0548 94.8248 25.1442C94.8248 36.77 84.4974 46.3487 68.0429 49.9408C64.0352 50.7905 50.8176 51.2154 46.7714 50.5974ZM52.0893 46.9281C48.8527 44.1472 46.887 38.315 46.3861 29.8177L46.0778 25.0283L42.4169 24.2944C38.0625 23.4061 33.8621 21.7839 31.0101 19.8913C28.8525 18.4622 27.7736 17.2262 26.6175 14.8316L25.9624 13.4411L24.6907 15.2564C21.3382 20.2003 21.0684 26.4188 23.9586 32.3282C27.5809 39.7054 37.2921 45.7694 48.1972 47.5461C49.7772 47.7778 51.3571 48.0482 51.6654 48.1255C53.6307 48.5117 53.7078 48.2799 52.0893 46.9281ZM65.2683 47.0826C75.5957 44.7265 83.7267 39.2419 87.1563 32.3282C89.0831 28.4272 89.7382 24.8738 89.122 21.6294C88.6596 19.1961 87.1563 15.7972 85.885 14.4453L85.0758 13.5956L84.228 15.4109C82.2623 19.5437 76.7133 22.6722 68.4282 24.3717L65.3454 24.9897L64.883 30.1653C64.1508 38.9716 62.6865 43.4906 59.5266 46.6191L57.9085 48.2799L59.8738 48.0482C60.9909 47.9323 63.4186 47.5075 65.2683 47.0826ZM57.9852 38.5853C59.9119 36.6155 61.6849 31.015 61.6849 26.805V25.5304H49.623L49.8542 28.5431C50.1625 32.869 51.4342 36.5769 53.2068 38.3536C55.0565 40.2075 56.2896 40.2848 57.9852 38.5853ZM61.1836 19.1961C61.4148 18.9643 60.0661 14.1363 59.3724 12.8231C58.5247 11.1236 56.5594 9.30832 55.5574 9.30832C53.7848 9.30832 51.7428 12.2051 50.7405 16.1061C50.3941 17.4194 50.124 18.694 50.124 18.8871C50.124 19.1188 50.8558 19.3892 51.781 19.4664C53.2839 19.6209 60.9909 19.4278 61.1836 19.1961ZM47.1568 15.4882C48.2743 9.57869 50.3167 5.48454 52.9756 3.86233L54.1702 3.12848H52.2049C47.388 3.12848 38.5249 5.36867 35.6737 7.29987C34.8259 7.87923 33.824 8.9607 33.4001 9.69456C32.745 10.9305 32.745 11.1623 33.2845 12.4755C34.4791 15.295 39.0648 17.5739 46.2708 18.9257C46.3861 18.9643 46.7714 17.3807 47.1568 15.4882ZM71.1642 17.3035C75.4416 15.7585 78.2547 13.3638 78.2547 11.2395C78.2547 9.65594 76.3665 7.64749 73.7461 6.41152C70.7018 4.94381 64.9986 3.59197 60.8368 3.3216L57.253 3.05123L58.4476 3.86233C61.3377 5.79353 63.1489 9.96493 64.6132 18.0373C64.7674 18.8485 64.8059 18.8485 67.1569 18.3463C68.5053 18.076 70.2779 17.6125 71.1642 17.3035Z" fill="#2D2A26"/>
</svg>
