<svg width="55" height="56" viewBox="0 0 55 56" fill="none" xmlns="http://www.w3.org/2000/svg">
<path d="M3 19L2.26865 18.8338L2.25 18.9158V19H3ZM51 19H51.75V18.9158L51.7313 18.8338L51 19ZM15 19H15.75C15.75 18.5858 15.4142 18.25 15 18.25V19ZM27 19H27.75C27.75 18.5858 27.4142 18.25 27 18.25V19ZM39 19H39.75C39.75 18.5858 39.4142 18.25 39 18.25V19ZM8 18.25C7.58579 18.25 7.25 18.5858 7.25 19C7.25 19.4142 7.58579 19.75 8 19.75V18.25ZM20 18.25C19.5858 18.25 19.25 18.5858 19.25 19C19.25 19.4142 19.5858 19.75 20 19.75V18.25ZM44 18.25C43.5858 18.25 43.25 18.5858 43.25 19C43.25 19.4142 43.5858 19.75 44 19.75V18.25ZM32.5 18.25C32.0858 18.25 31.75 18.5858 31.75 19C31.75 19.4142 32.0858 19.75 32.5 19.75V18.25ZM14.25 14C14.25 14.4142 14.5858 14.75 15 14.75C15.4142 14.75 15.75 14.4142 15.75 14H14.25ZM26.25 14C26.25 14.4142 26.5858 14.75 27 14.75C27.4142 14.75 27.75 14.4142 27.75 14H26.25ZM38.25 14C38.25 14.4142 38.5858 14.75 39 14.75C39.4142 14.75 39.75 14.4142 39.75 14H38.25ZM1 54.5H0.25C0.25 54.9142 0.585786 55.25 1 55.25L1 54.5ZM53.5 54.5V55.25C53.9142 55.25 54.25 54.9142 54.25 54.5H53.5ZM53.5 50.5H54.25C54.25 50.0858 53.9142 49.75 53.5 49.75V50.5ZM1 50.5V49.75C0.585786 49.75 0.25 50.0858 0.25 50.5H1ZM4.75 25.5C4.75 25.0858 4.41421 24.75 4 24.75C3.58579 24.75 3.25 25.0858 3.25 25.5H4.75ZM51.75 25.5C51.75 25.0858 51.4142 24.75 51 24.75C50.5858 24.75 50.25 25.0858 50.25 25.5H51.75ZM13.25 47.5C13.25 47.9142 13.5858 48.25 14 48.25C14.4142 48.25 14.75 47.9142 14.75 47.5H13.25ZM23.75 42C23.75 41.5858 23.4142 41.25 23 41.25C22.5858 41.25 22.25 41.5858 22.25 42H23.75ZM31.25 47.5C31.25 47.9142 31.5858 48.25 32 48.25C32.4142 48.25 32.75 47.9142 32.75 47.5H31.25ZM41.75 42C41.75 41.5858 41.4142 41.25 41 41.25C40.5858 41.25 40.25 41.5858 40.25 42H41.75ZM7.49668 2.25C7.50905 2.25 7.52147 2.25 7.53395 2.25C7.54642 2.25 7.55895 2.25 7.57152 2.25C7.5841 2.25 7.59673 2.25 7.60941 2.25C7.62209 2.25 7.63482 2.25 7.64761 2.25C7.66039 2.25 7.67322 2.25 7.68611 2.25C7.699 2.25 7.71193 2.25 7.72492 2.25C7.73791 2.25 7.75095 2.25 7.76404 2.25C7.77713 2.25 7.79027 2.25 7.80346 2.25C7.81665 2.25 7.82989 2.25 7.84318 2.25C7.85647 2.25 7.86982 2.25 7.88321 2.25C7.8966 2.25 7.91005 2.25 7.92354 2.25C7.93703 2.25 7.95058 2.25 7.96417 2.25C7.97777 2.25 7.99141 2.25 8.0051 2.25C8.0188 2.25 8.03254 2.25 8.04633 2.25C8.06013 2.25 8.07397 2.25 8.08786 2.25C8.10176 2.25 8.1157 2.25 8.12969 2.25C8.14368 2.25 8.15772 2.25 8.17181 2.25C8.1859 2.25 8.20004 2.25 8.21423 2.25C8.22842 2.25 8.24266 2.25 8.25695 2.25C8.27123 2.25 8.28557 2.25 8.29995 2.25C8.31434 2.25 8.32877 2.25 8.34325 2.25C8.35774 2.25 8.37227 2.25 8.38685 2.25C8.40142 2.25 8.41605 2.25 8.43073 2.25C8.4454 2.25 8.46013 2.25 8.4749 2.25C8.48967 2.25 8.50449 2.25 8.51936 2.25C8.53423 2.25 8.54915 2.25 8.56411 2.25C8.57908 2.25 8.59409 2.25 8.60915 2.25C8.62421 2.25 8.63932 2.25 8.65448 2.25C8.66963 2.25 8.68483 2.25 8.70009 2.25C8.71534 2.25 8.73063 2.25 8.74598 2.25C8.76132 2.25 8.77672 2.25 8.79216 2.25C8.8076 2.25 8.82308 2.25 8.83862 2.25C8.85415 2.25 8.86973 2.25 8.88536 2.25C8.90098 2.25 8.91666 2.25 8.93238 2.25C8.9481 2.25 8.96387 2.25 8.97968 2.25C8.9955 2.25 9.01136 2.25 9.02726 2.25C9.04317 2.25 9.05912 2.25 9.07512 2.25C9.09112 2.25 9.10717 2.25 9.12326 2.25C9.13935 2.25 9.15549 2.25 9.17167 2.25C9.18785 2.25 9.20408 2.25 9.22036 2.25C9.23663 2.25 9.25295 2.25 9.26932 2.25C9.28568 2.25 9.3021 2.25 9.31855 2.25C9.33501 2.25 9.35151 2.25 9.36806 2.25C9.38461 2.25 9.4012 2.25 9.41784 2.25C9.43448 2.25 9.45116 2.25 9.46789 2.25C9.48462 2.25 9.50139 2.25 9.51821 2.25C9.53502 2.25 9.55189 2.25 9.56879 2.25C9.5857 2.25 9.60265 2.25 9.61965 2.25C9.63664 2.25 9.65369 2.25 9.67077 2.25C9.68786 2.25 9.70498 2.25 9.72216 2.25C9.73933 2.25 9.75655 2.25 9.77381 2.25C9.79107 2.25 9.80838 2.25 9.82573 2.25C9.84308 2.25 9.86047 2.25 9.87791 2.25C9.89534 2.25 9.91282 2.25 9.93035 2.25C9.94787 2.25 9.96544 2.25 9.98305 2.25C10.0007 2.25 10.0183 2.25 10.036 2.25C10.0537 2.25 10.0715 2.25 10.0892 2.25C10.107 2.25 10.1248 2.25 10.1427 2.25C10.1606 2.25 10.1785 2.25 10.1965 2.25C10.2144 2.25 10.2324 2.25 10.2505 2.25C10.2685 2.25 10.2866 2.25 10.3047 2.25C10.3228 2.25 10.341 2.25 10.3592 2.25C10.3774 2.25 10.3957 2.25 10.414 2.25C10.4323 2.25 10.4506 2.25 10.469 2.25C10.4874 2.25 10.5058 2.25 10.5242 2.25C10.5427 2.25 10.5612 2.25 10.5798 2.25C10.5983 2.25 10.6169 2.25 10.6355 2.25C10.6542 2.25 10.6728 2.25 10.6915 2.25C10.7102 2.25 10.729 2.25 10.7478 2.25C10.7666 2.25 10.7854 2.25 10.8043 2.25C10.8232 2.25 10.8421 2.25 10.8611 2.25C10.88 2.25 10.899 2.25 10.9181 2.25C10.9371 2.25 10.9562 2.25 10.9753 2.25C10.9944 2.25 11.0136 2.25 11.0328 2.25C11.052 2.25 11.0712 2.25 11.0905 2.25C11.1098 2.25 11.1291 2.25 11.1485 2.25C11.1679 2.25 11.1873 2.25 11.2067 2.25C11.2262 2.25 11.2456 2.25 11.2652 2.25C11.2847 2.25 11.3043 2.25 11.3239 2.25C11.3435 2.25 11.3631 2.25 11.3828 2.25C11.4025 2.25 11.4222 2.25 11.442 2.25C11.4617 2.25 11.4815 2.25 11.5014 2.25C11.5212 2.25 11.5411 2.25 11.561 2.25C11.5809 2.25 11.6009 2.25 11.6209 2.25C11.6409 2.25 11.6609 2.25 11.681 2.25C11.7011 2.25 11.7212 2.25 11.7413 2.25C11.7615 2.25 11.7817 2.25 11.8019 2.25C11.8221 2.25 11.8424 2.25 11.8627 2.25C11.883 2.25 11.9033 2.25 11.9237 2.25C11.9441 2.25 11.9645 2.25 11.985 2.25C12.0054 2.25 12.0259 2.25 12.0465 2.25C12.067 2.25 12.0876 2.25 12.1082 2.25C12.1288 2.25 12.1494 2.25 12.1701 2.25C12.1908 2.25 12.2115 2.25 12.2323 2.25C12.253 2.25 12.2738 2.25 12.2947 2.25C12.3155 2.25 12.3364 2.25 12.3573 2.25C12.3782 2.25 12.3991 2.25 12.4201 2.25C12.4411 2.25 12.4621 2.25 12.4832 2.25C12.5042 2.25 12.5253 2.25 12.5464 2.25C12.5676 2.25 12.5887 2.25 12.6099 2.25C12.6311 2.25 12.6524 2.25 12.6736 2.25C12.6949 2.25 12.7162 2.25 12.7376 2.25C12.7589 2.25 12.7803 2.25 12.8017 2.25C12.8231 2.25 12.8446 2.25 12.8661 2.25C12.8876 2.25 12.9091 2.25 12.9307 2.25C12.9522 2.25 12.9738 2.25 12.9955 2.25C13.0171 2.25 13.0388 2.25 13.0605 2.25C13.0822 2.25 13.1039 2.25 13.1257 2.25C13.1474 2.25 13.1693 2.25 13.1911 2.25C13.2129 2.25 13.2348 2.25 13.2567 2.25C13.2786 2.25 13.3006 2.25 13.3226 2.25C13.3446 2.25 13.3666 2.25 13.3886 2.25C13.4107 2.25 13.4328 2.25 13.4549 2.25C13.477 2.25 13.4992 2.25 13.5214 2.25C13.5435 2.25 13.5658 2.25 13.588 2.25C13.6103 2.25 13.6326 2.25 13.6549 2.25C13.6772 2.25 13.6996 2.25 13.722 2.25C13.7444 2.25 13.7668 2.25 13.7893 2.25C13.8117 2.25 13.8342 2.25 13.8568 2.25C13.8793 2.25 13.9018 2.25 13.9244 2.25C13.947 2.25 13.9697 2.25 13.9923 2.25C14.015 2.25 14.0377 2.25 14.0604 2.25C14.0831 2.25 14.1059 2.25 14.1287 2.25C14.1515 2.25 14.1743 2.25 14.1972 2.25C14.22 2.25 14.2429 2.25 14.2658 2.25C14.2888 2.25 14.3117 2.25 14.3347 2.25C14.3577 2.25 14.3807 2.25 14.4038 2.25C14.4268 2.25 14.4499 2.25 14.473 2.25C14.4962 2.25 14.5193 2.25 14.5425 2.25C14.5657 2.25 14.5889 2.25 14.6121 2.25C14.6354 2.25 14.6587 2.25 14.682 2.25C14.7053 2.25 14.7286 2.25 14.752 2.25C14.7754 2.25 14.7988 2.25 14.8222 2.25C14.8456 2.25 14.8691 2.25 14.8926 2.25C14.9161 2.25 14.9396 2.25 14.9632 2.25C14.9867 2.25 15.0103 2.25 15.0339 2.25C15.0576 2.25 15.0812 2.25 15.1049 2.25C15.1286 2.25 15.1523 2.25 15.176 2.25C15.1998 2.25 15.2236 2.25 15.2474 2.25C15.2712 2.25 15.295 2.25 15.3189 2.25C15.3427 2.25 15.3666 2.25 15.3906 2.25C15.4145 2.25 15.4384 2.25 15.4624 2.25C15.4864 2.25 15.5104 2.25 15.5345 2.25C15.5585 2.25 15.5826 2.25 15.6067 2.25C15.6308 2.25 15.6549 2.25 15.6791 2.25C15.7033 2.25 15.7274 2.25 15.7517 2.25C15.7759 2.25 15.8001 2.25 15.8244 2.25C15.8487 2.25 15.873 2.25 15.8973 2.25C15.9217 2.25 15.9461 2.25 15.9704 2.25C15.9948 2.25 16.0193 2.25 16.0437 2.25C16.0682 2.25 16.0927 2.25 16.1172 2.25C16.1417 2.25 16.1662 2.25 16.1908 2.25C16.2154 2.25 16.24 2.25 16.2646 2.25C16.2892 2.25 16.3139 2.25 16.3385 2.25C16.3632 2.25 16.3879 2.25 16.4127 2.25C16.4374 2.25 16.4622 2.25 16.4869 2.25C16.5117 2.25 16.5366 2.25 16.5614 2.25C16.5863 2.25 16.6111 2.25 16.636 2.25C16.6609 2.25 16.6859 2.25 16.7108 2.25C16.7358 2.25 16.7608 2.25 16.7858 2.25C16.8108 2.25 16.8358 2.25 16.8609 2.25C16.886 2.25 16.911 2.25 16.9362 2.25C16.9613 2.25 16.9864 2.25 17.0116 2.25C17.0368 2.25 17.062 2.25 17.0872 2.25C17.1124 2.25 17.1377 2.25 17.1629 2.25C17.1882 2.25 17.2135 2.25 17.2389 2.25C17.2642 2.25 17.2895 2.25 17.3149 2.25C17.3403 2.25 17.3657 2.25 17.3912 2.25C17.4166 2.25 17.4421 2.25 17.4675 2.25C17.493 2.25 17.5185 2.25 17.5441 2.25C17.5696 2.25 17.5952 2.25 17.6208 2.25C17.6464 2.25 17.672 2.25 17.6976 2.25C17.7232 2.25 17.7489 2.25 17.7746 2.25C17.8003 2.25 17.826 2.25 17.8517 2.25C17.8775 2.25 17.9032 2.25 17.929 2.25C17.9548 2.25 17.9806 2.25 18.0065 2.25C18.0323 2.25 18.0582 2.25 18.0841 2.25C18.11 2.25 18.1359 2.25 18.1618 2.25C18.1877 2.25 18.2137 2.25 18.2397 2.25C18.2657 2.25 18.2917 2.25 18.3177 2.25C18.3437 2.25 18.3698 2.25 18.3959 2.25C18.422 2.25 18.4481 2.25 18.4742 2.25C18.5003 2.25 18.5265 2.25 18.5526 2.25C18.5788 2.25 18.605 2.25 18.6312 2.25C18.6575 2.25 18.6837 2.25 18.71 2.25C18.7363 2.25 18.7625 2.25 18.7889 2.25C18.8152 2.25 18.8415 2.25 18.8679 2.25C18.8942 2.25 18.9206 2.25 18.947 2.25C18.9734 2.25 18.9999 2.25 19.0263 2.25C19.0528 2.25 19.0792 2.25 19.1057 2.25C19.1322 2.25 19.1588 2.25 19.1853 2.25C19.2118 2.25 19.2384 2.25 19.265 2.25C19.2916 2.25 19.3182 2.25 19.3448 2.25C19.3714 2.25 19.3981 2.25 19.4248 2.25C19.4515 2.25 19.4781 2.25 19.5049 2.25C19.5316 2.25 19.5583 2.25 19.5851 2.25C19.6118 2.25 19.6386 2.25 19.6654 2.25C19.6922 2.25 19.7191 2.25 19.7459 2.25C19.7728 2.25 19.7996 2.25 19.8265 2.25C19.8534 2.25 19.8803 2.25 19.9072 2.25C19.9342 2.25 19.9611 2.25 19.9881 2.25C20.0151 2.25 20.0421 2.25 20.0691 2.25C20.0961 2.25 20.1231 2.25 20.1502 2.25C20.1772 2.25 20.2043 2.25 20.2314 2.25C20.2585 2.25 20.2856 2.25 20.3127 2.25C20.3399 2.25 20.367 2.25 20.3942 2.25C20.4214 2.25 20.4486 2.25 20.4758 2.25C20.503 2.25 20.5303 2.25 20.5575 2.25C20.5848 2.25 20.612 2.25 20.6393 2.25C20.6666 2.25 20.6939 2.25 20.7213 2.25C20.7486 2.25 20.776 2.25 20.8033 2.25C20.8307 2.25 20.8581 2.25 20.8855 2.25C20.9129 2.25 20.9403 2.25 20.9678 2.25C20.9952 2.25 21.0227 2.25 21.0502 2.25C21.0777 2.25 21.1052 2.25 21.1327 2.25C21.1602 2.25 21.1878 2.25 21.2153 2.25C21.2429 2.25 21.2705 2.25 21.2981 2.25C21.3257 2.25 21.3533 2.25 21.3809 2.25C21.4085 2.25 21.4362 2.25 21.4639 2.25C21.4915 2.25 21.5192 2.25 21.5469 2.25C21.5746 2.25 21.6023 2.25 21.6301 2.25C21.6578 2.25 21.6856 2.25 21.7134 2.25C21.7411 2.25 21.7689 2.25 21.7967 2.25C21.8245 2.25 21.8524 2.25 21.8802 2.25C21.9081 2.25 21.9359 2.25 21.9638 2.25C21.9917 2.25 22.0196 2.25 22.0475 2.25C22.0754 2.25 22.1033 2.25 22.1313 2.25C22.1592 2.25 22.1872 2.25 22.2152 2.25C22.2431 2.25 22.2711 2.25 22.2992 2.25C22.3272 2.25 22.3552 2.25 22.3832 2.25C22.4113 2.25 22.4393 2.25 22.4674 2.25C22.4955 2.25 22.5236 2.25 22.5517 2.25C22.5798 2.25 22.6079 2.25 22.6361 2.25C22.6642 2.25 22.6924 2.25 22.7206 2.25C22.7487 2.25 22.7769 2.25 22.8051 2.25C22.8333 2.25 22.8615 2.25 22.8898 2.25C22.918 2.25 22.9463 2.25 22.9745 2.25C23.0028 2.25 23.0311 2.25 23.0594 2.25C23.0877 2.25 23.116 2.25 23.1443 2.25C23.1726 2.25 23.201 2.25 23.2293 2.25C23.2577 2.25 23.286 2.25 23.3144 2.25C23.3428 2.25 23.3712 2.25 23.3996 2.25C23.428 2.25 23.4564 2.25 23.4849 2.25C23.5133 2.25 23.5418 2.25 23.5703 2.25C23.5987 2.25 23.6272 2.25 23.6557 2.25C23.6842 2.25 23.7127 2.25 23.7412 2.25C23.7698 2.25 23.7983 2.25 23.8269 2.25C23.8554 2.25 23.884 2.25 23.9126 2.25C23.9411 2.25 23.9697 2.25 23.9983 2.25C24.0269 2.25 24.0556 2.25 24.0842 2.25C24.1128 2.25 24.1415 2.25 24.1701 2.25C24.1988 2.25 24.2275 2.25 24.2561 2.25C24.2848 2.25 24.3135 2.25 24.3422 2.25C24.3709 2.25 24.3997 2.25 24.4284 2.25C24.4571 2.25 24.4859 2.25 24.5147 2.25C24.5434 2.25 24.5722 2.25 24.601 2.25C24.6298 2.25 24.6586 2.25 24.6874 2.25C24.7162 2.25 24.745 2.25 24.7738 2.25C24.8027 2.25 24.8315 2.25 24.8604 2.25C24.8892 2.25 24.9181 2.25 24.947 2.25C24.9758 2.25 25.0047 2.25 25.0336 2.25C25.0625 2.25 25.0915 2.25 25.1204 2.25C25.1493 2.25 25.1782 2.25 25.2072 2.25C25.2361 2.25 25.2651 2.25 25.2941 2.25C25.323 2.25 25.352 2.25 25.381 2.25C25.41 2.25 25.439 2.25 25.468 2.25C25.497 2.25 25.5261 2.25 25.5551 2.25C25.5841 2.25 25.6132 2.25 25.6422 2.25C25.6713 2.25 25.7004 2.25 25.7294 2.25C25.7585 2.25 25.7876 2.25 25.8167 2.25C25.8458 2.25 25.8749 2.25 25.904 2.25C25.9331 2.25 25.9623 2.25 25.9914 2.25C26.0205 2.25 26.0497 2.25 26.0788 2.25C26.108 2.25 26.1371 2.25 26.1663 2.25C26.1955 2.25 26.2247 2.25 26.2539 2.25C26.2831 2.25 26.3123 2.25 26.3415 2.25C26.3707 2.25 26.3999 2.25 26.4291 2.25C26.4584 2.25 26.4876 2.25 26.5169 2.25C26.5461 2.25 26.5754 2.25 26.6046 2.25C26.6339 2.25 26.6632 2.25 26.6924 2.25C26.7217 2.25 26.751 2.25 26.7803 2.25C26.8096 2.25 26.8389 2.25 26.8682 2.25C26.8975 2.25 26.9269 2.25 26.9562 2.25C26.9855 2.25 27.0149 2.25 27.0442 2.25C27.0736 2.25 27.1029 2.25 27.1323 2.25C27.1616 2.25 27.191 2.25 27.2204 2.25C27.2498 2.25 27.2792 2.25 27.3086 2.25C27.3379 2.25 27.3673 2.25 27.3968 2.25C27.4262 2.25 27.4556 2.25 27.485 2.25C27.5144 2.25 27.5439 2.25 27.5733 2.25C27.6027 2.25 27.6322 2.25 27.6616 2.25C27.6911 2.25 27.7205 2.25 27.75 2.25C27.7794 2.25 27.8089 2.25 27.8384 2.25C27.8679 2.25 27.8974 2.25 27.9268 2.25C27.9563 2.25 27.9858 2.25 28.0153 2.25C28.0448 2.25 28.0743 2.25 28.1039 2.25C28.1334 2.25 28.1629 2.25 28.1924 2.25C28.2219 2.25 28.2515 2.25 28.281 2.25C28.3105 2.25 28.3401 2.25 28.3696 2.25C28.3992 2.25 28.4287 2.25 28.4583 2.25C28.4879 2.25 28.5174 2.25 28.547 2.25C28.5766 2.25 28.6061 2.25 28.6357 2.25C28.6653 2.25 28.6949 2.25 28.7245 2.25C28.7541 2.25 28.7837 2.25 28.8133 2.25C28.8429 2.25 28.8725 2.25 28.9021 2.25C28.9317 2.25 28.9613 2.25 28.9909 2.25C29.0205 2.25 29.0502 2.25 29.0798 2.25C29.1094 2.25 29.139 2.25 29.1687 2.25C29.1983 2.25 29.228 2.25 29.2576 2.25C29.2872 2.25 29.3169 2.25 29.3465 2.25C29.3762 2.25 29.4059 2.25 29.4355 2.25C29.4652 2.25 29.4948 2.25 29.5245 2.25C29.5542 2.25 29.5838 2.25 29.6135 2.25C29.6432 2.25 29.6729 2.25 29.7025 2.25C29.7322 2.25 29.7619 2.25 29.7916 2.25C29.8213 2.25 29.851 2.25 29.8807 2.25C29.9104 2.25 29.94 2.25 29.9697 2.25C29.9994 2.25 30.0291 2.25 30.0588 2.25C30.0886 2.25 30.1183 2.25 30.148 2.25C30.1777 2.25 30.2074 2.25 30.2371 2.25C30.2668 2.25 30.2965 2.25 30.3262 2.25C30.356 2.25 30.3857 2.25 30.4154 2.25C30.4451 2.25 30.4748 2.25 30.5046 2.25C30.5343 2.25 30.564 2.25 30.5938 2.25C30.6235 2.25 30.6532 2.25 30.6829 2.25C30.7127 2.25 30.7424 2.25 30.7721 2.25C30.8019 2.25 30.8316 2.25 30.8614 2.25C30.8911 2.25 30.9208 2.25 30.9506 2.25C30.9803 2.25 31.0101 2.25 31.0398 2.25C31.0695 2.25 31.0993 2.25 31.129 2.25C31.1588 2.25 31.1885 2.25 31.2183 2.25C31.248 2.25 31.2777 2.25 31.3075 2.25C31.3372 2.25 31.367 2.25 31.3967 2.25C31.4265 2.25 31.4562 2.25 31.486 2.25C31.5157 2.25 31.5455 2.25 31.5752 2.25C31.605 2.25 31.6347 2.25 31.6644 2.25C31.6942 2.25 31.7239 2.25 31.7537 2.25C31.7834 2.25 31.8132 2.25 31.8429 2.25C31.8727 2.25 31.9024 2.25 31.9322 2.25C31.9619 2.25 31.9916 2.25 32.0214 2.25C32.0511 2.25 32.0809 2.25 32.1106 2.25C32.1404 2.25 32.1701 2.25 32.1998 2.25C32.2296 2.25 32.2593 2.25 32.289 2.25C32.3188 2.25 32.3485 2.25 32.3783 2.25C32.408 2.25 32.4377 2.25 32.4674 2.25C32.4972 2.25 32.5269 2.25 32.5566 2.25C32.5864 2.25 32.6161 2.25 32.6458 2.25C32.6755 2.25 32.7053 2.25 32.735 2.25C32.7647 2.25 32.7944 2.25 32.8241 2.25C32.8538 2.25 32.8836 2.25 32.9133 2.25C32.943 2.25 32.9727 2.25 33.0024 2.25C33.0321 2.25 33.0618 2.25 33.0915 2.25C33.1212 2.25 33.1509 2.25 33.1806 2.25C33.2103 2.25 33.24 2.25 33.2697 2.25C33.2994 2.25 33.3291 2.25 33.3587 2.25C33.3884 2.25 33.4181 2.25 33.4478 2.25C33.4775 2.25 33.5071 2.25 33.5368 2.25C33.5665 2.25 33.5961 2.25 33.6258 2.25C33.6555 2.25 33.6851 2.25 33.7148 2.25C33.7444 2.25 33.7741 2.25 33.8037 2.25C33.8334 2.25 33.863 2.25 33.8927 2.25C33.9223 2.25 33.9519 2.25 33.9816 2.25C34.0112 2.25 34.0408 2.25 34.0705 2.25C34.1001 2.25 34.1297 2.25 34.1593 2.25C34.1889 2.25 34.2185 2.25 34.2481 2.25C34.2778 2.25 34.3074 2.25 34.3369 2.25C34.3665 2.25 34.3961 2.25 34.4257 2.25C34.4553 2.25 34.4849 2.25 34.5145 2.25C34.544 2.25 34.5736 2.25 34.6032 2.25C34.6327 2.25 34.6623 2.25 34.6919 2.25C34.7214 2.25 34.751 2.25 34.7805 2.25C34.81 2.25 34.8396 2.25 34.8691 2.25C34.8986 2.25 34.9282 2.25 34.9577 2.25C34.9872 2.25 35.0167 2.25 35.0462 2.25C35.0757 2.25 35.1052 2.25 35.1347 2.25C35.1642 2.25 35.1937 2.25 35.2232 2.25C35.2527 2.25 35.2822 2.25 35.3116 2.25C35.3411 2.25 35.3706 2.25 35.4 2.25C35.4295 2.25 35.4589 2.25 35.4884 2.25C35.5178 2.25 35.5473 2.25 35.5767 2.25C35.6061 2.25 35.6355 2.25 35.665 2.25C35.6944 2.25 35.7238 2.25 35.7532 2.25C35.7826 2.25 35.812 2.25 35.8414 2.25C35.8708 2.25 35.9001 2.25 35.9295 2.25C35.9589 2.25 35.9882 2.25 36.0176 2.25C36.047 2.25 36.0763 2.25 36.1056 2.25C36.135 2.25 36.1643 2.25 36.1936 2.25C36.223 2.25 36.2523 2.25 36.2816 2.25C36.3109 2.25 36.3402 2.25 36.3695 2.25C36.3988 2.25 36.4281 2.25 36.4573 2.25C36.4866 2.25 36.5159 2.25 36.5451 2.25C36.5744 2.25 36.6036 2.25 36.6329 2.25C36.6621 2.25 36.6913 2.25 36.7206 2.25C36.7498 2.25 36.779 2.25 36.8082 2.25C36.8374 2.25 36.8666 2.25 36.8958 2.25C36.925 2.25 36.9541 2.25 36.9833 2.25C37.0125 2.25 37.0416 2.25 37.0708 2.25C37.0999 2.25 37.1291 2.25 37.1582 2.25C37.1873 2.25 37.2164 2.25 37.2455 2.25C37.2746 2.25 37.3037 2.25 37.3328 2.25C37.3619 2.25 37.391 2.25 37.4201 2.25C37.4491 2.25 37.4782 2.25 37.5072 2.25C37.5363 2.25 37.5653 2.25 37.5943 2.25C37.6234 2.25 37.6524 2.25 37.6814 2.25C37.7104 2.25 37.7394 2.25 37.7684 2.25C37.7973 2.25 37.8263 2.25 37.8553 2.25C37.8842 2.25 37.9132 2.25 37.9421 2.25C37.9711 2.25 38 2.25 38.0289 2.25C38.0578 2.25 38.0867 2.25 38.1156 2.25C38.1445 2.25 38.1734 2.25 38.2022 2.25C38.2311 2.25 38.26 2.25 38.2888 2.25C38.3177 2.25 38.3465 2.25 38.3753 2.25C38.4041 2.25 38.433 2.25 38.4618 2.25C38.4906 2.25 38.5193 2.25 38.5481 2.25C38.5769 2.25 38.6056 2.25 38.6344 2.25C38.6631 2.25 38.6919 2.25 38.7206 2.25C38.7493 2.25 38.778 2.25 38.8067 2.25C38.8354 2.25 38.8641 2.25 38.8928 2.25C38.9215 2.25 38.9501 2.25 38.9788 2.25C39.0074 2.25 39.0361 2.25 39.0647 2.25C39.0933 2.25 39.1219 2.25 39.1505 2.25C39.1791 2.25 39.2077 2.25 39.2362 2.25C39.2648 2.25 39.2934 2.25 39.3219 2.25C39.3504 2.25 39.379 2.25 39.4075 2.25C39.436 2.25 39.4645 2.25 39.493 2.25C39.5215 2.25 39.5499 2.25 39.5784 2.25C39.6068 2.25 39.6353 2.25 39.6637 2.25C39.6921 2.25 39.7206 2.25 39.749 2.25C39.7774 2.25 39.8057 2.25 39.8341 2.25C39.8625 2.25 39.8908 2.25 39.9192 2.25C39.9475 2.25 39.9758 2.25 40.0042 2.25C40.0325 2.25 40.0608 2.25 40.089 2.25C40.1173 2.25 40.1456 2.25 40.1738 2.25C40.2021 2.25 40.2303 2.25 40.2585 2.25C40.2868 2.25 40.315 2.25 40.3432 2.25C40.3713 2.25 40.3995 2.25 40.4277 2.25C40.4558 2.25 40.484 2.25 40.5121 2.25C40.5402 2.25 40.5683 2.25 40.5964 2.25C40.6245 2.25 40.6526 2.25 40.6807 2.25C40.7087 2.25 40.7368 2.25 40.7648 2.25C40.7928 2.25 40.8209 2.25 40.8489 2.25C40.8769 2.25 40.9048 2.25 40.9328 2.25C40.9608 2.25 40.9887 2.25 41.0166 2.25C41.0446 2.25 41.0725 2.25 41.1004 2.25C41.1283 2.25 41.1562 2.25 41.184 2.25C41.2119 2.25 41.2397 2.25 41.2676 2.25C41.2954 2.25 41.3232 2.25 41.351 2.25C41.3788 2.25 41.4066 2.25 41.4343 2.25C41.4621 2.25 41.4898 2.25 41.5175 2.25C41.5453 2.25 41.573 2.25 41.6007 2.25C41.6284 2.25 41.656 2.25 41.6837 2.25C41.7113 2.25 41.739 2.25 41.7666 2.25C41.7942 2.25 41.8218 2.25 41.8494 2.25C41.8769 2.25 41.9045 2.25 41.9321 2.25C41.9596 2.25 41.9871 2.25 42.0146 2.25C42.0421 2.25 42.0696 2.25 42.0971 2.25C42.1246 2.25 42.152 2.25 42.1794 2.25C42.2069 2.25 42.2343 2.25 42.2617 2.25C42.2891 2.25 42.3164 2.25 42.3438 2.25C42.3711 2.25 42.3985 2.25 42.4258 2.25C42.4531 2.25 42.4804 2.25 42.5077 2.25C42.535 2.25 42.5622 2.25 42.5895 2.25C42.6167 2.25 42.6439 2.25 42.6711 2.25C42.6983 2.25 42.7255 2.25 42.7526 2.25C42.7798 2.25 42.8069 2.25 42.834 2.25C42.8612 2.25 42.8883 2.25 42.9153 2.25C42.9424 2.25 42.9695 2.25 42.9965 2.25C43.0235 2.25 43.0506 2.25 43.0776 2.25C43.1045 2.25 43.1315 2.25 43.1585 2.25C43.1854 2.25 43.2124 2.25 43.2393 2.25C43.2662 2.25 43.2931 2.25 43.3199 2.25C43.3468 2.25 43.3737 2.25 43.4005 2.25C43.4273 2.25 43.4541 2.25 43.4809 2.25C43.5077 2.25 43.5345 2.25 43.5612 2.25C43.5879 2.25 43.6147 2.25 43.6414 2.25C43.6681 2.25 43.6947 2.25 43.7214 2.25C43.748 2.25 43.7747 2.25 43.8013 2.25C43.8279 2.25 43.8545 2.25 43.881 2.25C43.9076 2.25 43.9342 2.25 43.9607 2.25C43.9872 2.25 44.0137 2.25 44.0402 2.25C44.0667 2.25 44.0931 2.25 44.1195 2.25C44.146 2.25 44.1724 2.25 44.1988 2.25C44.2251 2.25 44.2515 2.25 44.2779 2.25C44.3042 2.25 44.3305 2.25 44.3568 2.25C44.3831 2.25 44.4094 2.25 44.4356 2.25C44.4619 2.25 44.4881 2.25 44.5143 2.25C44.5405 2.25 44.5667 2.25 44.5928 2.25C44.619 2.25 44.6451 2.25 44.6712 2.25C44.6973 2.25 44.7234 2.25 44.7495 2.25C44.7755 2.25 44.8016 2.25 44.8276 2.25C44.8536 2.25 44.8796 2.25 44.9055 2.25C44.9315 2.25 44.9574 2.25 44.9833 2.25C45.0093 2.25 45.0351 2.25 45.061 2.25C45.0869 2.25 45.1127 2.25 45.1385 2.25C45.1643 2.25 45.1901 2.25 45.2159 2.25C45.2417 2.25 45.2674 2.25 45.2931 2.25C45.3188 2.25 45.3445 2.25 45.3702 2.25C45.3959 2.25 45.4215 2.25 45.4471 2.25C45.4727 2.25 45.4983 2.25 45.5239 2.25C45.5495 2.25 45.575 2.25 45.6005 2.25C45.626 2.25 45.6515 2.25 45.677 2.25C45.7024 2.25 45.7279 2.25 45.7533 2.25C45.7787 2.25 45.8041 2.25 45.8294 2.25C45.8548 2.25 45.8801 2.25 45.9054 2.25C45.9307 2.25 45.956 2.25 45.9813 2.25C46.0065 2.25 46.0318 2.25 46.057 2.25C46.0822 2.25 46.1073 2.25 46.1325 2.25C46.1576 2.25 46.1828 2.25 46.2078 2.25C46.2329 2.25 46.258 2.25 46.2831 2.25C46.3081 2.25 46.3331 2.25 46.3581 2.25C46.3831 2.25 46.408 2.25 46.433 2.25C46.4579 2.25 46.4828 2.25 46.5077 2.25V0.75C46.4828 0.75 46.4579 0.75 46.433 0.75C46.408 0.75 46.3831 0.75 46.3581 0.75C46.3331 0.75 46.3081 0.75 46.2831 0.75C46.258 0.75 46.2329 0.75 46.2078 0.75C46.1828 0.75 46.1576 0.75 46.1325 0.75C46.1073 0.75 46.0822 0.75 46.057 0.75C46.0318 0.75 46.0065 0.75 45.9813 0.75C45.956 0.75 45.9307 0.75 45.9054 0.75C45.8801 0.75 45.8548 0.75 45.8294 0.75C45.8041 0.75 45.7787 0.75 45.7533 0.75C45.7279 0.75 45.7024 0.75 45.677 0.75C45.6515 0.75 45.626 0.75 45.6005 0.75C45.575 0.75 45.5495 0.75 45.5239 0.75C45.4983 0.75 45.4727 0.75 45.4471 0.75C45.4215 0.75 45.3959 0.75 45.3702 0.75C45.3445 0.75 45.3188 0.75 45.2931 0.75C45.2674 0.75 45.2417 0.75 45.2159 0.75C45.1901 0.75 45.1643 0.75 45.1385 0.75C45.1127 0.75 45.0869 0.75 45.061 0.75C45.0351 0.75 45.0093 0.75 44.9833 0.75C44.9574 0.75 44.9315 0.75 44.9055 0.75C44.8796 0.75 44.8536 0.75 44.8276 0.75C44.8016 0.75 44.7755 0.75 44.7495 0.75C44.7234 0.75 44.6973 0.75 44.6712 0.75C44.6451 0.75 44.619 0.75 44.5928 0.75C44.5667 0.75 44.5405 0.75 44.5143 0.75C44.4881 0.75 44.4619 0.75 44.4356 0.75C44.4094 0.75 44.3831 0.75 44.3568 0.75C44.3305 0.75 44.3042 0.75 44.2779 0.75C44.2515 0.75 44.2251 0.75 44.1988 0.75C44.1724 0.75 44.146 0.75 44.1195 0.75C44.0931 0.75 44.0667 0.75 44.0402 0.75C44.0137 0.75 43.9872 0.75 43.9607 0.75C43.9342 0.75 43.9076 0.75 43.881 0.75C43.8545 0.75 43.8279 0.75 43.8013 0.75C43.7747 0.75 43.748 0.75 43.7214 0.75C43.6947 0.75 43.6681 0.75 43.6414 0.75C43.6147 0.75 43.5879 0.75 43.5612 0.75C43.5345 0.75 43.5077 0.75 43.4809 0.75C43.4541 0.75 43.4273 0.75 43.4005 0.75C43.3737 0.75 43.3468 0.75 43.3199 0.75C43.2931 0.75 43.2662 0.75 43.2393 0.75C43.2124 0.75 43.1854 0.75 43.1585 0.75C43.1315 0.75 43.1045 0.75 43.0776 0.75C43.0506 0.75 43.0235 0.75 42.9965 0.75C42.9695 0.75 42.9424 0.75 42.9153 0.75C42.8883 0.75 42.8612 0.75 42.834 0.75C42.8069 0.75 42.7798 0.75 42.7526 0.75C42.7255 0.75 42.6983 0.75 42.6711 0.75C42.6439 0.75 42.6167 0.75 42.5895 0.75C42.5622 0.75 42.535 0.75 42.5077 0.75C42.4804 0.75 42.4531 0.75 42.4258 0.75C42.3985 0.75 42.3711 0.75 42.3438 0.75C42.3164 0.75 42.2891 0.75 42.2617 0.75C42.2343 0.75 42.2069 0.75 42.1794 0.75C42.152 0.75 42.1246 0.75 42.0971 0.75C42.0696 0.75 42.0421 0.75 42.0146 0.75C41.9871 0.75 41.9596 0.75 41.9321 0.75C41.9045 0.75 41.8769 0.75 41.8494 0.75C41.8218 0.75 41.7942 0.75 41.7666 0.75C41.739 0.75 41.7113 0.75 41.6837 0.75C41.656 0.75 41.6284 0.75 41.6007 0.75C41.573 0.75 41.5453 0.75 41.5175 0.75C41.4898 0.75 41.4621 0.75 41.4343 0.75C41.4066 0.75 41.3788 0.75 41.351 0.75C41.3232 0.75 41.2954 0.75 41.2676 0.75C41.2397 0.75 41.2119 0.75 41.184 0.75C41.1562 0.75 41.1283 0.75 41.1004 0.75C41.0725 0.75 41.0446 0.75 41.0166 0.75C40.9887 0.75 40.9608 0.75 40.9328 0.75C40.9048 0.75 40.8769 0.75 40.8489 0.75C40.8209 0.75 40.7928 0.75 40.7648 0.75C40.7368 0.75 40.7087 0.75 40.6807 0.75C40.6526 0.75 40.6245 0.75 40.5964 0.75C40.5683 0.75 40.5402 0.75 40.5121 0.75C40.484 0.75 40.4558 0.75 40.4277 0.75C40.3995 0.75 40.3713 0.75 40.3432 0.75C40.315 0.75 40.2868 0.75 40.2585 0.75C40.2303 0.75 40.2021 0.75 40.1738 0.75C40.1456 0.75 40.1173 0.75 40.089 0.75C40.0608 0.75 40.0325 0.75 40.0042 0.75C39.9758 0.75 39.9475 0.75 39.9192 0.75C39.8908 0.75 39.8625 0.75 39.8341 0.75C39.8057 0.75 39.7774 0.75 39.749 0.75C39.7206 0.75 39.6921 0.75 39.6637 0.75C39.6353 0.75 39.6068 0.75 39.5784 0.75C39.5499 0.75 39.5215 0.75 39.493 0.75C39.4645 0.75 39.436 0.75 39.4075 0.75C39.379 0.75 39.3504 0.75 39.3219 0.75C39.2934 0.75 39.2648 0.75 39.2362 0.75C39.2077 0.75 39.1791 0.75 39.1505 0.75C39.1219 0.75 39.0933 0.75 39.0647 0.75C39.0361 0.75 39.0074 0.75 38.9788 0.75C38.9501 0.75 38.9215 0.75 38.8928 0.75C38.8641 0.75 38.8354 0.75 38.8067 0.75C38.778 0.75 38.7493 0.75 38.7206 0.75C38.6919 0.75 38.6631 0.75 38.6344 0.75C38.6056 0.75 38.5769 0.75 38.5481 0.75C38.5193 0.75 38.4906 0.75 38.4618 0.75C38.433 0.75 38.4041 0.75 38.3753 0.75C38.3465 0.75 38.3177 0.75 38.2888 0.75C38.26 0.75 38.2311 0.75 38.2022 0.75C38.1734 0.75 38.1445 0.75 38.1156 0.75C38.0867 0.75 38.0578 0.75 38.0289 0.75C38 0.75 37.9711 0.75 37.9421 0.75C37.9132 0.75 37.8842 0.75 37.8553 0.75C37.8263 0.75 37.7973 0.75 37.7684 0.75C37.7394 0.75 37.7104 0.75 37.6814 0.75C37.6524 0.75 37.6234 0.75 37.5943 0.75C37.5653 0.75 37.5363 0.75 37.5072 0.75C37.4782 0.75 37.4491 0.75 37.4201 0.75C37.391 0.75 37.3619 0.75 37.3328 0.75C37.3037 0.75 37.2746 0.75 37.2455 0.75C37.2164 0.75 37.1873 0.75 37.1582 0.75C37.1291 0.75 37.0999 0.75 37.0708 0.75C37.0416 0.75 37.0125 0.75 36.9833 0.75C36.9541 0.75 36.925 0.75 36.8958 0.75C36.8666 0.75 36.8374 0.75 36.8082 0.75C36.779 0.75 36.7498 0.75 36.7206 0.75C36.6913 0.75 36.6621 0.75 36.6329 0.75C36.6036 0.75 36.5744 0.75 36.5451 0.75C36.5159 0.75 36.4866 0.75 36.4573 0.75C36.4281 0.75 36.3988 0.75 36.3695 0.75C36.3402 0.75 36.3109 0.75 36.2816 0.75C36.2523 0.75 36.223 0.75 36.1936 0.75C36.1643 0.75 36.135 0.75 36.1056 0.75C36.0763 0.75 36.047 0.75 36.0176 0.75C35.9882 0.75 35.9589 0.75 35.9295 0.75C35.9001 0.75 35.8708 0.75 35.8414 0.75C35.812 0.75 35.7826 0.75 35.7532 0.75C35.7238 0.75 35.6944 0.75 35.665 0.75C35.6355 0.75 35.6061 0.75 35.5767 0.75C35.5473 0.75 35.5178 0.75 35.4884 0.75C35.4589 0.75 35.4295 0.75 35.4 0.75C35.3706 0.75 35.3411 0.75 35.3116 0.75C35.2822 0.75 35.2527 0.75 35.2232 0.75C35.1937 0.75 35.1642 0.75 35.1347 0.75C35.1052 0.75 35.0757 0.75 35.0462 0.75C35.0167 0.75 34.9872 0.75 34.9577 0.75C34.9282 0.75 34.8986 0.75 34.8691 0.75C34.8396 0.75 34.81 0.75 34.7805 0.75C34.751 0.75 34.7214 0.75 34.6919 0.75C34.6623 0.75 34.6327 0.75 34.6032 0.75C34.5736 0.75 34.544 0.75 34.5145 0.75C34.4849 0.75 34.4553 0.75 34.4257 0.75C34.3961 0.75 34.3665 0.75 34.3369 0.75C34.3074 0.75 34.2778 0.75 34.2481 0.75C34.2185 0.75 34.1889 0.75 34.1593 0.75C34.1297 0.75 34.1001 0.75 34.0705 0.75C34.0408 0.75 34.0112 0.75 33.9816 0.75C33.9519 0.75 33.9223 0.75 33.8927 0.75C33.863 0.75 33.8334 0.75 33.8037 0.75C33.7741 0.75 33.7444 0.75 33.7148 0.75C33.6851 0.75 33.6555 0.75 33.6258 0.75C33.5961 0.75 33.5665 0.75 33.5368 0.75C33.5071 0.75 33.4775 0.75 33.4478 0.75C33.4181 0.75 33.3884 0.75 33.3587 0.75C33.3291 0.75 33.2994 0.75 33.2697 0.75C33.24 0.75 33.2103 0.75 33.1806 0.75C33.1509 0.75 33.1212 0.75 33.0915 0.75C33.0618 0.75 33.0321 0.75 33.0024 0.75C32.9727 0.75 32.943 0.75 32.9133 0.75C32.8836 0.75 32.8538 0.75 32.8241 0.75C32.7944 0.75 32.7647 0.75 32.735 0.75C32.7053 0.75 32.6755 0.75 32.6458 0.75C32.6161 0.75 32.5864 0.75 32.5566 0.75C32.5269 0.75 32.4972 0.75 32.4674 0.75C32.4377 0.75 32.408 0.75 32.3783 0.75C32.3485 0.75 32.3188 0.75 32.289 0.75C32.2593 0.75 32.2296 0.75 32.1998 0.75C32.1701 0.75 32.1404 0.75 32.1106 0.75C32.0809 0.75 32.0511 0.75 32.0214 0.75C31.9916 0.75 31.9619 0.75 31.9322 0.75C31.9024 0.75 31.8727 0.75 31.8429 0.75C31.8132 0.75 31.7834 0.75 31.7537 0.75C31.7239 0.75 31.6942 0.75 31.6644 0.75C31.6347 0.75 31.605 0.75 31.5752 0.75C31.5455 0.75 31.5157 0.75 31.486 0.75C31.4562 0.75 31.4265 0.75 31.3967 0.75C31.367 0.75 31.3372 0.75 31.3075 0.75C31.2777 0.75 31.248 0.75 31.2183 0.75C31.1885 0.75 31.1588 0.75 31.129 0.75C31.0993 0.75 31.0695 0.75 31.0398 0.75C31.0101 0.75 30.9803 0.75 30.9506 0.75C30.9208 0.75 30.8911 0.75 30.8614 0.75C30.8316 0.75 30.8019 0.75 30.7721 0.75C30.7424 0.75 30.7127 0.75 30.6829 0.75C30.6532 0.75 30.6235 0.75 30.5938 0.75C30.564 0.75 30.5343 0.75 30.5046 0.75C30.4748 0.75 30.4451 0.75 30.4154 0.75C30.3857 0.75 30.356 0.75 30.3262 0.75C30.2965 0.75 30.2668 0.75 30.2371 0.75C30.2074 0.75 30.1777 0.75 30.148 0.75C30.1183 0.75 30.0886 0.75 30.0588 0.75C30.0291 0.75 29.9994 0.75 29.9697 0.75C29.94 0.75 29.9104 0.75 29.8807 0.75C29.851 0.75 29.8213 0.75 29.7916 0.75C29.7619 0.75 29.7322 0.75 29.7025 0.75C29.6729 0.75 29.6432 0.75 29.6135 0.75C29.5838 0.75 29.5542 0.75 29.5245 0.75C29.4948 0.75 29.4652 0.75 29.4355 0.75C29.4059 0.75 29.3762 0.75 29.3465 0.75C29.3169 0.75 29.2872 0.75 29.2576 0.75C29.228 0.75 29.1983 0.75 29.1687 0.75C29.139 0.75 29.1094 0.75 29.0798 0.75C29.0502 0.75 29.0205 0.75 28.9909 0.75C28.9613 0.75 28.9317 0.75 28.9021 0.75C28.8725 0.75 28.8429 0.75 28.8133 0.75C28.7837 0.75 28.7541 0.75 28.7245 0.75C28.6949 0.75 28.6653 0.75 28.6357 0.75C28.6061 0.75 28.5766 0.75 28.547 0.75C28.5174 0.75 28.4879 0.75 28.4583 0.75C28.4287 0.75 28.3992 0.75 28.3696 0.75C28.3401 0.75 28.3105 0.75 28.281 0.75C28.2515 0.75 28.2219 0.75 28.1924 0.75C28.1629 0.75 28.1334 0.75 28.1039 0.75C28.0743 0.75 28.0448 0.75 28.0153 0.75C27.9858 0.75 27.9563 0.75 27.9268 0.75C27.8974 0.75 27.8679 0.75 27.8384 0.75C27.8089 0.75 27.7794 0.75 27.75 0.75C27.7205 0.75 27.6911 0.75 27.6616 0.75C27.6322 0.75 27.6027 0.75 27.5733 0.75C27.5439 0.75 27.5144 0.75 27.485 0.75C27.4556 0.75 27.4262 0.75 27.3968 0.75C27.3673 0.75 27.3379 0.75 27.3086 0.75C27.2792 0.75 27.2498 0.75 27.2204 0.75C27.191 0.75 27.1616 0.75 27.1323 0.75C27.1029 0.75 27.0736 0.75 27.0442 0.75C27.0149 0.75 26.9855 0.75 26.9562 0.75C26.9269 0.75 26.8975 0.75 26.8682 0.75C26.8389 0.75 26.8096 0.75 26.7803 0.75C26.751 0.75 26.7217 0.75 26.6924 0.75C26.6632 0.75 26.6339 0.75 26.6046 0.75C26.5754 0.75 26.5461 0.75 26.5169 0.75C26.4876 0.75 26.4584 0.75 26.4291 0.75C26.3999 0.75 26.3707 0.75 26.3415 0.75C26.3123 0.75 26.2831 0.75 26.2539 0.75C26.2247 0.75 26.1955 0.75 26.1663 0.75C26.1371 0.75 26.108 0.75 26.0788 0.75C26.0497 0.75 26.0205 0.75 25.9914 0.75C25.9623 0.75 25.9331 0.75 25.904 0.75C25.8749 0.75 25.8458 0.75 25.8167 0.75C25.7876 0.75 25.7585 0.75 25.7294 0.75C25.7004 0.75 25.6713 0.75 25.6422 0.75C25.6132 0.75 25.5841 0.75 25.5551 0.75C25.5261 0.75 25.497 0.75 25.468 0.75C25.439 0.75 25.41 0.75 25.381 0.75C25.352 0.75 25.323 0.75 25.2941 0.75C25.2651 0.75 25.2361 0.75 25.2072 0.75C25.1782 0.75 25.1493 0.75 25.1204 0.75C25.0915 0.75 25.0625 0.75 25.0336 0.75C25.0047 0.75 24.9758 0.75 24.947 0.75C24.9181 0.75 24.8892 0.75 24.8604 0.75C24.8315 0.75 24.8027 0.75 24.7738 0.75C24.745 0.75 24.7162 0.75 24.6874 0.75C24.6586 0.75 24.6298 0.75 24.601 0.75C24.5722 0.75 24.5434 0.75 24.5147 0.75C24.4859 0.75 24.4571 0.75 24.4284 0.75C24.3997 0.75 24.3709 0.75 24.3422 0.75C24.3135 0.75 24.2848 0.75 24.2561 0.75C24.2275 0.75 24.1988 0.75 24.1701 0.75C24.1415 0.75 24.1128 0.75 24.0842 0.75C24.0556 0.75 24.0269 0.75 23.9983 0.75C23.9697 0.75 23.9411 0.75 23.9126 0.75C23.884 0.75 23.8554 0.75 23.8269 0.75C23.7983 0.75 23.7698 0.75 23.7412 0.75C23.7127 0.75 23.6842 0.75 23.6557 0.75C23.6272 0.75 23.5987 0.75 23.5703 0.75C23.5418 0.75 23.5133 0.75 23.4849 0.75C23.4564 0.75 23.428 0.75 23.3996 0.75C23.3712 0.75 23.3428 0.75 23.3144 0.75C23.286 0.75 23.2577 0.75 23.2293 0.75C23.201 0.75 23.1726 0.75 23.1443 0.75C23.116 0.75 23.0877 0.75 23.0594 0.75C23.0311 0.75 23.0028 0.75 22.9745 0.75C22.9463 0.75 22.918 0.75 22.8898 0.75C22.8615 0.75 22.8333 0.75 22.8051 0.75C22.7769 0.75 22.7487 0.75 22.7206 0.75C22.6924 0.75 22.6642 0.75 22.6361 0.75C22.6079 0.75 22.5798 0.75 22.5517 0.75C22.5236 0.75 22.4955 0.75 22.4674 0.75C22.4393 0.75 22.4113 0.75 22.3832 0.75C22.3552 0.75 22.3272 0.75 22.2992 0.75C22.2711 0.75 22.2431 0.75 22.2152 0.75C22.1872 0.75 22.1592 0.75 22.1313 0.75C22.1033 0.75 22.0754 0.75 22.0475 0.75C22.0196 0.75 21.9917 0.75 21.9638 0.75C21.9359 0.75 21.9081 0.75 21.8802 0.75C21.8524 0.75 21.8245 0.75 21.7967 0.75C21.7689 0.75 21.7411 0.75 21.7134 0.75C21.6856 0.75 21.6578 0.75 21.6301 0.75C21.6023 0.75 21.5746 0.75 21.5469 0.75C21.5192 0.75 21.4915 0.75 21.4639 0.75C21.4362 0.75 21.4085 0.75 21.3809 0.75C21.3533 0.75 21.3257 0.75 21.2981 0.75C21.2705 0.75 21.2429 0.75 21.2153 0.75C21.1878 0.75 21.1602 0.75 21.1327 0.75C21.1052 0.75 21.0777 0.75 21.0502 0.75C21.0227 0.75 20.9952 0.75 20.9678 0.75C20.9403 0.75 20.9129 0.75 20.8855 0.75C20.8581 0.75 20.8307 0.75 20.8033 0.75C20.776 0.75 20.7486 0.75 20.7213 0.75C20.6939 0.75 20.6666 0.75 20.6393 0.75C20.612 0.75 20.5848 0.75 20.5575 0.75C20.5303 0.75 20.503 0.75 20.4758 0.75C20.4486 0.75 20.4214 0.75 20.3942 0.75C20.367 0.75 20.3399 0.75 20.3127 0.75C20.2856 0.75 20.2585 0.75 20.2314 0.75C20.2043 0.75 20.1772 0.75 20.1502 0.75C20.1231 0.75 20.0961 0.75 20.0691 0.75C20.0421 0.75 20.0151 0.75 19.9881 0.75C19.9611 0.75 19.9342 0.75 19.9072 0.75C19.8803 0.75 19.8534 0.75 19.8265 0.75C19.7996 0.75 19.7728 0.75 19.7459 0.75C19.7191 0.75 19.6922 0.75 19.6654 0.75C19.6386 0.75 19.6118 0.75 19.5851 0.75C19.5583 0.75 19.5316 0.75 19.5049 0.75C19.4781 0.75 19.4515 0.75 19.4248 0.75C19.3981 0.75 19.3714 0.75 19.3448 0.75C19.3182 0.75 19.2916 0.75 19.265 0.75C19.2384 0.75 19.2118 0.75 19.1853 0.75C19.1588 0.75 19.1322 0.75 19.1057 0.75C19.0792 0.75 19.0528 0.75 19.0263 0.75C18.9999 0.75 18.9734 0.75 18.947 0.75C18.9206 0.75 18.8942 0.75 18.8679 0.75C18.8415 0.75 18.8152 0.75 18.7889 0.75C18.7625 0.75 18.7363 0.75 18.71 0.75C18.6837 0.75 18.6575 0.75 18.6312 0.75C18.605 0.75 18.5788 0.75 18.5526 0.75C18.5265 0.75 18.5003 0.75 18.4742 0.75C18.4481 0.75 18.422 0.75 18.3959 0.75C18.3698 0.75 18.3437 0.75 18.3177 0.75C18.2917 0.75 18.2657 0.75 18.2397 0.75C18.2137 0.75 18.1877 0.75 18.1618 0.75C18.1359 0.75 18.11 0.75 18.0841 0.75C18.0582 0.75 18.0323 0.75 18.0065 0.75C17.9806 0.75 17.9548 0.75 17.929 0.75C17.9032 0.75 17.8775 0.75 17.8517 0.75C17.826 0.75 17.8003 0.75 17.7746 0.75C17.7489 0.75 17.7232 0.75 17.6976 0.75C17.672 0.75 17.6464 0.75 17.6208 0.75C17.5952 0.75 17.5696 0.75 17.5441 0.75C17.5185 0.75 17.493 0.75 17.4675 0.75C17.4421 0.75 17.4166 0.75 17.3912 0.75C17.3657 0.75 17.3403 0.75 17.3149 0.75C17.2895 0.75 17.2642 0.75 17.2389 0.75C17.2135 0.75 17.1882 0.75 17.1629 0.75C17.1377 0.75 17.1124 0.75 17.0872 0.75C17.062 0.75 17.0368 0.75 17.0116 0.75C16.9864 0.75 16.9613 0.75 16.9362 0.75C16.911 0.75 16.886 0.75 16.8609 0.75C16.8358 0.75 16.8108 0.75 16.7858 0.75C16.7608 0.75 16.7358 0.75 16.7108 0.75C16.6859 0.75 16.6609 0.75 16.636 0.75C16.6111 0.75 16.5863 0.75 16.5614 0.75C16.5366 0.75 16.5117 0.75 16.4869 0.75C16.4622 0.75 16.4374 0.75 16.4127 0.75C16.3879 0.75 16.3632 0.75 16.3385 0.75C16.3139 0.75 16.2892 0.75 16.2646 0.75C16.24 0.75 16.2154 0.75 16.1908 0.75C16.1662 0.75 16.1417 0.75 16.1172 0.75C16.0927 0.75 16.0682 0.75 16.0437 0.75C16.0193 0.75 15.9948 0.75 15.9704 0.75C15.9461 0.75 15.9217 0.75 15.8973 0.75C15.873 0.75 15.8487 0.75 15.8244 0.75C15.8001 0.75 15.7759 0.75 15.7517 0.75C15.7274 0.75 15.7033 0.75 15.6791 0.75C15.6549 0.75 15.6308 0.75 15.6067 0.75C15.5826 0.75 15.5585 0.75 15.5345 0.75C15.5104 0.75 15.4864 0.75 15.4624 0.75C15.4384 0.75 15.4145 0.75 15.3906 0.75C15.3666 0.75 15.3427 0.75 15.3189 0.75C15.295 0.75 15.2712 0.75 15.2474 0.75C15.2236 0.75 15.1998 0.75 15.176 0.75C15.1523 0.75 15.1286 0.75 15.1049 0.75C15.0812 0.75 15.0576 0.75 15.0339 0.75C15.0103 0.75 14.9867 0.75 14.9632 0.75C14.9396 0.75 14.9161 0.75 14.8926 0.75C14.8691 0.75 14.8456 0.75 14.8222 0.75C14.7988 0.75 14.7754 0.75 14.752 0.75C14.7286 0.75 14.7053 0.75 14.682 0.75C14.6587 0.75 14.6354 0.75 14.6121 0.75C14.5889 0.75 14.5657 0.75 14.5425 0.75C14.5193 0.75 14.4962 0.75 14.473 0.75C14.4499 0.75 14.4268 0.75 14.4038 0.75C14.3807 0.75 14.3577 0.75 14.3347 0.75C14.3117 0.75 14.2888 0.75 14.2658 0.75C14.2429 0.75 14.22 0.75 14.1972 0.75C14.1743 0.75 14.1515 0.75 14.1287 0.75C14.1059 0.75 14.0831 0.75 14.0604 0.75C14.0377 0.75 14.015 0.75 13.9923 0.75C13.9697 0.75 13.947 0.75 13.9244 0.75C13.9018 0.75 13.8793 0.75 13.8568 0.75C13.8342 0.75 13.8117 0.75 13.7893 0.75C13.7668 0.75 13.7444 0.75 13.722 0.75C13.6996 0.75 13.6772 0.75 13.6549 0.75C13.6326 0.75 13.6103 0.75 13.588 0.75C13.5658 0.75 13.5435 0.75 13.5214 0.75C13.4992 0.75 13.477 0.75 13.4549 0.75C13.4328 0.75 13.4107 0.75 13.3886 0.75C13.3666 0.75 13.3446 0.75 13.3226 0.75C13.3006 0.75 13.2786 0.75 13.2567 0.75C13.2348 0.75 13.2129 0.75 13.1911 0.75C13.1693 0.75 13.1474 0.75 13.1257 0.75C13.1039 0.75 13.0822 0.75 13.0605 0.75C13.0388 0.75 13.0171 0.75 12.9955 0.75C12.9738 0.75 12.9522 0.75 12.9307 0.75C12.9091 0.75 12.8876 0.75 12.8661 0.75C12.8446 0.75 12.8231 0.75 12.8017 0.75C12.7803 0.75 12.7589 0.75 12.7376 0.75C12.7162 0.75 12.6949 0.75 12.6736 0.75C12.6524 0.75 12.6311 0.75 12.6099 0.75C12.5887 0.75 12.5676 0.75 12.5464 0.75C12.5253 0.75 12.5042 0.75 12.4832 0.75C12.4621 0.75 12.4411 0.75 12.4201 0.75C12.3991 0.75 12.3782 0.75 12.3573 0.75C12.3364 0.75 12.3155 0.75 12.2947 0.75C12.2738 0.75 12.253 0.75 12.2323 0.75C12.2115 0.75 12.1908 0.75 12.1701 0.75C12.1494 0.75 12.1288 0.75 12.1082 0.75C12.0876 0.75 12.067 0.75 12.0465 0.75C12.0259 0.75 12.0054 0.75 11.985 0.75C11.9645 0.75 11.9441 0.75 11.9237 0.75C11.9033 0.75 11.883 0.75 11.8627 0.75C11.8424 0.75 11.8221 0.75 11.8019 0.75C11.7817 0.75 11.7615 0.75 11.7413 0.75C11.7212 0.75 11.7011 0.75 11.681 0.75C11.6609 0.75 11.6409 0.75 11.6209 0.75C11.6009 0.75 11.5809 0.75 11.561 0.75C11.5411 0.75 11.5212 0.75 11.5014 0.75C11.4815 0.75 11.4617 0.75 11.442 0.75C11.4222 0.75 11.4025 0.75 11.3828 0.75C11.3631 0.75 11.3435 0.75 11.3239 0.75C11.3043 0.75 11.2847 0.75 11.2652 0.75C11.2456 0.75 11.2262 0.75 11.2067 0.75C11.1873 0.75 11.1679 0.75 11.1485 0.75C11.1291 0.75 11.1098 0.75 11.0905 0.75C11.0712 0.75 11.052 0.75 11.0328 0.75C11.0136 0.75 10.9944 0.75 10.9753 0.75C10.9562 0.75 10.9371 0.75 10.9181 0.75C10.899 0.75 10.88 0.75 10.8611 0.75C10.8421 0.75 10.8232 0.75 10.8043 0.75C10.7854 0.75 10.7666 0.75 10.7478 0.75C10.729 0.75 10.7102 0.75 10.6915 0.75C10.6728 0.75 10.6542 0.75 10.6355 0.75C10.6169 0.75 10.5983 0.75 10.5798 0.75C10.5612 0.75 10.5427 0.75 10.5242 0.75C10.5058 0.75 10.4874 0.75 10.469 0.75C10.4506 0.75 10.4323 0.75 10.414 0.75C10.3957 0.75 10.3774 0.75 10.3592 0.75C10.341 0.75 10.3228 0.75 10.3047 0.75C10.2866 0.75 10.2685 0.75 10.2505 0.75C10.2324 0.75 10.2144 0.75 10.1965 0.75C10.1785 0.75 10.1606 0.75 10.1427 0.75C10.1248 0.75 10.107 0.75 10.0892 0.75C10.0715 0.75 10.0537 0.75 10.036 0.75C10.0183 0.75 10.0007 0.75 9.98305 0.75C9.96544 0.75 9.94787 0.75 9.93035 0.75C9.91282 0.75 9.89534 0.75 9.87791 0.75C9.86047 0.75 9.84308 0.75 9.82573 0.75C9.80838 0.75 9.79107 0.75 9.77381 0.75C9.75655 0.75 9.73933 0.75 9.72216 0.75C9.70498 0.75 9.68786 0.75 9.67077 0.75C9.65369 0.75 9.63664 0.75 9.61965 0.75C9.60265 0.75 9.5857 0.75 9.56879 0.75C9.55189 0.75 9.53502 0.75 9.51821 0.75C9.50139 0.75 9.48462 0.75 9.46789 0.75C9.45116 0.75 9.43448 0.75 9.41784 0.75C9.4012 0.75 9.38461 0.75 9.36806 0.75C9.35151 0.75 9.33501 0.75 9.31855 0.75C9.3021 0.75 9.28568 0.75 9.26932 0.75C9.25295 0.75 9.23663 0.75 9.22036 0.75C9.20408 0.75 9.18785 0.75 9.17167 0.75C9.15549 0.75 9.13935 0.75 9.12326 0.75C9.10717 0.75 9.09112 0.75 9.07512 0.75C9.05912 0.75 9.04317 0.75 9.02726 0.75C9.01136 0.75 8.9955 0.75 8.97968 0.75C8.96387 0.75 8.9481 0.75 8.93238 0.75C8.91666 0.75 8.90098 0.75 8.88536 0.75C8.86973 0.75 8.85415 0.75 8.83862 0.75C8.82308 0.75 8.8076 0.75 8.79216 0.75C8.77672 0.75 8.76132 0.75 8.74598 0.75C8.73063 0.75 8.71534 0.75 8.70009 0.75C8.68483 0.75 8.66963 0.75 8.65448 0.75C8.63932 0.75 8.62421 0.75 8.60915 0.75C8.59409 0.75 8.57908 0.75 8.56411 0.75C8.54915 0.75 8.53423 0.75 8.51936 0.75C8.50449 0.75 8.48967 0.75 8.4749 0.75C8.46013 0.75 8.4454 0.75 8.43073 0.75C8.41605 0.75 8.40142 0.75 8.38685 0.75C8.37227 0.75 8.35774 0.75 8.34325 0.75C8.32877 0.75 8.31434 0.75 8.29995 0.75C8.28557 0.75 8.27123 0.75 8.25695 0.75C8.24266 0.75 8.22842 0.75 8.21423 0.75C8.20004 0.75 8.1859 0.75 8.17181 0.75C8.15772 0.75 8.14368 0.75 8.12969 0.75C8.1157 0.75 8.10176 0.75 8.08786 0.75C8.07397 0.75 8.06013 0.75 8.04633 0.75C8.03254 0.75 8.0188 0.75 8.0051 0.75C7.99141 0.75 7.97777 0.75 7.96417 0.75C7.95058 0.75 7.93703 0.75 7.92354 0.75C7.91005 0.75 7.8966 0.75 7.88321 0.75C7.86982 0.75 7.85647 0.75 7.84318 0.75C7.82989 0.75 7.81665 0.75 7.80346 0.75C7.79027 0.75 7.77713 0.75 7.76404 0.75C7.75095 0.75 7.73791 0.75 7.72492 0.75C7.71193 0.75 7.699 0.75 7.68611 0.75C7.67322 0.75 7.66039 0.75 7.64761 0.75C7.63482 0.75 7.62209 0.75 7.60941 0.75C7.59673 0.75 7.5841 0.75 7.57152 0.75C7.55895 0.75 7.54642 0.75 7.53395 0.75C7.52147 0.75 7.50905 0.75 7.49668 0.75V2.25ZM47.75 3.5V8H49.25V3.5H47.75ZM6.25 8V3.5H4.75V8H6.25ZM4.76865 7.83378L2.26865 18.8338L3.73135 19.1662L6.23135 8.16622L4.76865 7.83378ZM47.7687 8.16622L50.2687 19.1662L51.7313 18.8338L49.2313 7.83378L47.7687 8.16622ZM14.25 19C14.25 21.8995 11.8995 24.25 9 24.25V25.75C12.7279 25.75 15.75 22.7279 15.75 19H14.25ZM9 24.25C6.1005 24.25 3.75 21.8995 3.75 19H2.25C2.25 22.7279 5.27208 25.75 9 25.75V24.25ZM26.25 19C26.25 21.8995 23.8995 24.25 21 24.25V25.75C24.7279 25.75 27.75 22.7279 27.75 19H26.25ZM21 24.25C18.1005 24.25 15.75 21.8995 15.75 19H14.25C14.25 22.7279 17.2721 25.75 21 25.75V24.25ZM33 24.25C30.1005 24.25 27.75 21.8995 27.75 19H26.25C26.25 22.7279 29.2721 25.75 33 25.75V24.25ZM50.25 19C50.25 21.8995 47.8995 24.25 45 24.25V25.75C48.7279 25.75 51.75 22.7279 51.75 19H50.25ZM15 18.25H8V19.75H15V18.25ZM27 18.25H20V19.75H27V18.25ZM45 24.25C42.1099 24.25 39.765 21.9146 39.7499 19.0281L38.2499 19.036C38.2693 22.7474 41.2841 25.75 45 25.75V24.25ZM39.7499 19.0281C39.7498 19.0148 39.75 19.029 39.75 19H38.25C38.25 19.0028 38.25 19.0054 38.2499 19.0121C38.2499 19.0177 38.2499 19.0264 38.2499 19.036L39.7499 19.0281ZM38.2499 19.0281C38.2348 21.9146 35.8901 24.25 33 24.25V25.75C36.7159 25.75 39.7305 22.7474 39.7499 19.036L38.2499 19.0281ZM51 18.25H44V19.75H51V18.25ZM39 18.25H32.5V19.75H39V18.25ZM15 7.25H5.5V8.75H15V7.25ZM15.75 14V8H14.25V14H15.75ZM27 7.25H15V8.75H27V7.25ZM27.75 14V8H26.25V14H27.75ZM48.5 7.25H39V8.75H48.5V7.25ZM39 7.25H27V8.75H39V7.25ZM39.75 14V8H38.25V14H39.75ZM1 55.25H53.5V53.75H1V55.25ZM54.25 54.5V50.5H52.75V54.5H54.25ZM0.25 50.5V54.5H1.75V50.5H0.25ZM4 49.75H1V51.25H4V49.75ZM4.75 50.5V25.5H3.25V50.5H4.75ZM6.5 49.75H4V51.25H6.5V49.75ZM53.5 49.75H51V51.25H53.5V49.75ZM51.75 50.5V25.5H50.25V50.5H51.75ZM51 49.75H48.5V51.25H51V49.75ZM7.25 50.5V39H5.75V50.5H7.25ZM7.25 39V24.456H5.75V39H7.25ZM49.25 50.5V39H47.75V50.5H49.25ZM49.25 39V24H47.75V39H49.25ZM6.5 39.75H14V38.25H6.5V39.75ZM13.25 39C13.25 39.0008 13.25 39.0016 13.25 39.0024C13.25 39.0033 13.25 39.0041 13.25 39.005C13.25 39.0059 13.25 39.0069 13.25 39.0078C13.25 39.0088 13.25 39.0098 13.25 39.0108C13.25 39.0118 13.25 39.0128 13.25 39.0139C13.25 39.015 13.25 39.0161 13.25 39.0172C13.25 39.0183 13.25 39.0195 13.25 39.0207C13.25 39.0219 13.25 39.0231 13.25 39.0243C13.25 39.0256 13.25 39.0268 13.25 39.0281C13.25 39.0294 13.25 39.0308 13.25 39.0321C13.25 39.0335 13.25 39.0349 13.25 39.0363C13.25 39.0377 13.25 39.0391 13.25 39.0406C13.25 39.0421 13.25 39.0436 13.25 39.0451C13.25 39.0466 13.25 39.0482 13.25 39.0498C13.25 39.0513 13.25 39.0529 13.25 39.0546C13.25 39.0562 13.25 39.0579 13.25 39.0596C13.25 39.0613 13.25 39.063 13.25 39.0647C13.25 39.0665 13.25 39.0683 13.25 39.0701C13.25 39.0719 13.25 39.0737 13.25 39.0755C13.25 39.0774 13.25 39.0793 13.25 39.0812C13.25 39.0831 13.25 39.085 13.25 39.087C13.25 39.089 13.25 39.0909 13.25 39.093C13.25 39.095 13.25 39.097 13.25 39.0991C13.25 39.1012 13.25 39.1033 13.25 39.1054C13.25 39.1075 13.25 39.1097 13.25 39.1118C13.25 39.114 13.25 39.1162 13.25 39.1184C13.25 39.1207 13.25 39.1229 13.25 39.1252C13.25 39.1275 13.25 39.1298 13.25 39.1321C13.25 39.1345 13.25 39.1368 13.25 39.1392C13.25 39.1416 13.25 39.144 13.25 39.1464C13.25 39.1489 13.25 39.1513 13.25 39.1538C13.25 39.1563 13.25 39.1588 13.25 39.1614C13.25 39.1639 13.25 39.1665 13.25 39.1691C13.25 39.1717 13.25 39.1743 13.25 39.1769C13.25 39.1796 13.25 39.1822 13.25 39.1849C13.25 39.1876 13.25 39.1903 13.25 39.1931C13.25 39.1958 13.25 39.1986 13.25 39.2014C13.25 39.2042 13.25 39.207 13.25 39.2098C13.25 39.2127 13.25 39.2156 13.25 39.2185C13.25 39.2213 13.25 39.2243 13.25 39.2272C13.25 39.2301 13.25 39.2331 13.25 39.2361C13.25 39.2391 13.25 39.2421 13.25 39.2452C13.25 39.2482 13.25 39.2513 13.25 39.2544C13.25 39.2574 13.25 39.2606 13.25 39.2637C13.25 39.2668 13.25 39.27 13.25 39.2732C13.25 39.2764 13.25 39.2796 13.25 39.2828C13.25 39.286 13.25 39.2893 13.25 39.2926C13.25 39.2959 13.25 39.2992 13.25 39.3025C13.25 39.3058 13.25 39.3092 13.25 39.3126C13.25 39.3159 13.25 39.3193 13.25 39.3228C13.25 39.3262 13.25 39.3296 13.25 39.3331C13.25 39.3366 13.25 39.3401 13.25 39.3436C13.25 39.3471 13.25 39.3507 13.25 39.3542C13.25 39.3578 13.25 39.3614 13.25 39.365C13.25 39.3686 13.25 39.3722 13.25 39.3759C13.25 39.3795 13.25 39.3832 13.25 39.3869C13.25 39.3906 13.25 39.3943 13.25 39.3981C13.25 39.4018 13.25 39.4056 13.25 39.4094C13.25 39.4132 13.25 39.417 13.25 39.4208C13.25 39.4247 13.25 39.4285 13.25 39.4324C13.25 39.4363 13.25 39.4402 13.25 39.4441C13.25 39.4481 13.25 39.452 13.25 39.456C13.25 39.46 13.25 39.464 13.25 39.468C13.25 39.472 13.25 39.476 13.25 39.4801C13.25 39.4841 13.25 39.4882 13.25 39.4923C13.25 39.4964 13.25 39.5005 13.25 39.5047C13.25 39.5088 13.25 39.513 13.25 39.5172C13.25 39.5214 13.25 39.5256 13.25 39.5298C13.25 39.5341 13.25 39.5383 13.25 39.5426C13.25 39.5469 13.25 39.5512 13.25 39.5555C13.25 39.5598 13.25 39.5641 13.25 39.5685C13.25 39.5728 13.25 39.5772 13.25 39.5816C13.25 39.586 13.25 39.5904 13.25 39.5949C13.25 39.5993 13.25 39.6038 13.25 39.6083C13.25 39.6128 13.25 39.6173 13.25 39.6218C13.25 39.6263 13.25 39.6309 13.25 39.6354C13.25 39.64 13.25 39.6446 13.25 39.6492C13.25 39.6538 13.25 39.6584 13.25 39.6631C13.25 39.6677 13.25 39.6724 13.25 39.6771C13.25 39.6818 13.25 39.6865 13.25 39.6912C13.25 39.6959 13.25 39.7007 13.25 39.7054C13.25 39.7102 13.25 39.715 13.25 39.7198C13.25 39.7246 13.25 39.7294 13.25 39.7343C13.25 39.7391 13.25 39.744 13.25 39.7489C13.25 39.7538 13.25 39.7587 13.25 39.7636C13.25 39.7685 13.25 39.7735 13.25 39.7784C13.25 39.7834 13.25 39.7884 13.25 39.7934C13.25 39.7984 13.25 39.8034 13.25 39.8084C13.25 39.8135 13.25 39.8185 13.25 39.8236C13.25 39.8287 13.25 39.8338 13.25 39.8389C13.25 39.844 13.25 39.8491 13.25 39.8543C13.25 39.8594 13.25 39.8646 13.25 39.8698C13.25 39.875 13.25 39.8802 13.25 39.8854C13.25 39.8907 13.25 39.8959 13.25 39.9012C13.25 39.9064 13.25 39.9117 13.25 39.917C13.25 39.9223 13.25 39.9276 13.25 39.933C13.25 39.9383 13.25 39.9436 13.25 39.949C13.25 39.9544 13.25 39.9598 13.25 39.9652C13.25 39.9706 13.25 39.976 13.25 39.9815C13.25 39.9869 13.25 39.9924 13.25 39.9979C13.25 40.0033 13.25 40.0088 13.25 40.0143C13.25 40.0199 13.25 40.0254 13.25 40.0309C13.25 40.0365 13.25 40.042 13.25 40.0476C13.25 40.0532 13.25 40.0588 13.25 40.0644C13.25 40.07 13.25 40.0757 13.25 40.0813C13.25 40.087 13.25 40.0927 13.25 40.0983C13.25 40.104 13.25 40.1097 13.25 40.1155C13.25 40.1212 13.25 40.1269 13.25 40.1327C13.25 40.1384 13.25 40.1442 13.25 40.15C13.25 40.1558 13.25 40.1616 13.25 40.1674C13.25 40.1732 13.25 40.179 13.25 40.1849C13.25 40.1907 13.25 40.1966 13.25 40.2025C13.25 40.2084 13.25 40.2143 13.25 40.2202C13.25 40.2261 13.25 40.232 13.25 40.238C13.25 40.2439 13.25 40.2499 13.25 40.2559C13.25 40.2619 13.25 40.2679 13.25 40.2739C13.25 40.2799 13.25 40.2859 13.25 40.2919C13.25 40.298 13.25 40.304 13.25 40.3101C13.25 40.3162 13.25 40.3223 13.25 40.3284C13.25 40.3345 13.25 40.3406 13.25 40.3468C13.25 40.3529 13.25 40.359 13.25 40.3652C13.25 40.3714 13.25 40.3776 13.25 40.3837C13.25 40.3899 13.25 40.3962 13.25 40.4024C13.25 40.4086 13.25 40.4148 13.25 40.4211C13.25 40.4274 13.25 40.4336 13.25 40.4399C13.25 40.4462 13.25 40.4525 13.25 40.4588C13.25 40.4651 13.25 40.4715 13.25 40.4778C13.25 40.4841 13.25 40.4905 13.25 40.4969C13.25 40.5032 13.25 40.5096 13.25 40.516C13.25 40.5224 13.25 40.5289 13.25 40.5353C13.25 40.5417 13.25 40.5481 13.25 40.5546C13.25 40.5611 13.25 40.5675 13.25 40.574C13.25 40.5805 13.25 40.587 13.25 40.5935C13.25 40.6 13.25 40.6066 13.25 40.6131C13.25 40.6196 13.25 40.6262 13.25 40.6328C13.25 40.6393 13.25 40.6459 13.25 40.6525C13.25 40.6591 13.25 40.6657 13.25 40.6723C13.25 40.6789 13.25 40.6856 13.25 40.6922C13.25 40.6989 13.25 40.7055 13.25 40.7122C13.25 40.7189 13.25 40.7255 13.25 40.7322C13.25 40.7389 13.25 40.7457 13.25 40.7524C13.25 40.7591 13.25 40.7658 13.25 40.7726C13.25 40.7793 13.25 40.7861 13.25 40.7929C13.25 40.7997 13.25 40.8064 13.25 40.8132C13.25 40.82 13.25 40.8269 13.25 40.8337C13.25 40.8405 13.25 40.8473 13.25 40.8542C13.25 40.861 13.25 40.8679 13.25 40.8748C13.25 40.8816 13.25 40.8885 13.25 40.8954C13.25 40.9023 13.25 40.9092 13.25 40.9161C13.25 40.9231 13.25 40.93 13.25 40.937C13.25 40.9439 13.25 40.9509 13.25 40.9578C13.25 40.9648 13.25 40.9718 13.25 40.9788C13.25 40.9857 13.25 40.9927 13.25 40.9998C13.25 41.0068 13.25 41.0138 13.25 41.0208C13.25 41.0279 13.25 41.0349 13.25 41.042C13.25 41.049 13.25 41.0561 13.25 41.0632C13.25 41.0703 13.25 41.0774 13.25 41.0845C13.25 41.0916 13.25 41.0987 13.25 41.1058C13.25 41.1129 13.25 41.1201 13.25 41.1272C13.25 41.1344 13.25 41.1415 13.25 41.1487C13.25 41.1558 13.25 41.163 13.25 41.1702C13.25 41.1774 13.25 41.1846 13.25 41.1918C13.25 41.199 13.25 41.2062 13.25 41.2135C13.25 41.2207 13.25 41.2279 13.25 41.2352C13.25 41.2424 13.25 41.2497 13.25 41.257C13.25 41.2642 13.25 41.2715 13.25 41.2788C13.25 41.2861 13.25 41.2934 13.25 41.3007C13.25 41.308 13.25 41.3153 13.25 41.3227C13.25 41.33 13.25 41.3373 13.25 41.3447C13.25 41.352 13.25 41.3594 13.25 41.3667C13.25 41.3741 13.25 41.3815 13.25 41.3889C13.25 41.3962 13.25 41.4036 13.25 41.411C13.25 41.4184 13.25 41.4259 13.25 41.4333C13.25 41.4407 13.25 41.4481 13.25 41.4556C13.25 41.463 13.25 41.4705 13.25 41.4779C13.25 41.4854 13.25 41.4928 13.25 41.5003C13.25 41.5078 13.25 41.5153 13.25 41.5228C13.25 41.5303 13.25 41.5378 13.25 41.5453C13.25 41.5528 13.25 41.5603 13.25 41.5678C13.25 41.5753 13.25 41.5829 13.25 41.5904C13.25 41.5979 13.25 41.6055 13.25 41.6131C13.25 41.6206 13.25 41.6282 13.25 41.6358C13.25 41.6433 13.25 41.6509 13.25 41.6585C13.25 41.6661 13.25 41.6737 13.25 41.6813C13.25 41.6889 13.25 41.6965 13.25 41.7041C13.25 41.7118 13.25 41.7194 13.25 41.727C13.25 41.7346 13.25 41.7423 13.25 41.7499C13.25 41.7576 13.25 41.7653 13.25 41.7729C13.25 41.7806 13.25 41.7883 13.25 41.7959C13.25 41.8036 13.25 41.8113 13.25 41.819C13.25 41.8267 13.25 41.8344 13.25 41.8421C13.25 41.8498 13.25 41.8575 13.25 41.8652C13.25 41.873 13.25 41.8807 13.25 41.8884C13.25 41.8962 13.25 41.9039 13.25 41.9116C13.25 41.9194 13.25 41.9271 13.25 41.9349C13.25 41.9427 13.25 41.9504 13.25 41.9582C13.25 41.966 13.25 41.9738 13.25 41.9815C13.25 41.9893 13.25 41.9971 13.25 42.0049C13.25 42.0127 13.25 42.0205 13.25 42.0283C13.25 42.0361 13.25 42.044 13.25 42.0518C13.25 42.0596 13.25 42.0674 13.25 42.0753C13.25 42.0831 13.25 42.0909 13.25 42.0988C13.25 42.1066 13.25 42.1145 13.25 42.1223C13.25 42.1302 13.25 42.138 13.25 42.1459C13.25 42.1538 13.25 42.1616 13.25 42.1695C13.25 42.1774 13.25 42.1853 13.25 42.1932C13.25 42.2011 13.25 42.209 13.25 42.2169C13.25 42.2247 13.25 42.2327 13.25 42.2406C13.25 42.2485 13.25 42.2564 13.25 42.2643C13.25 42.2722 13.25 42.2801 13.25 42.2881C13.25 42.296 13.25 42.3039 13.25 42.3119C13.25 42.3198 13.25 42.3277 13.25 42.3357C13.25 42.3436 13.25 42.3516 13.25 42.3595C13.25 42.3675 13.25 42.3754 13.25 42.3834C13.25 42.3914 13.25 42.3993 13.25 42.4073C13.25 42.4153 13.25 42.4232 13.25 42.4312C13.25 42.4392 13.25 42.4472 13.25 42.4552C13.25 42.4631 13.25 42.4711 13.25 42.4791C13.25 42.4871 13.25 42.4951 13.25 42.5031C13.25 42.5111 13.25 42.5191 13.25 42.5271C13.25 42.5351 13.25 42.5432 13.25 42.5512C13.25 42.5592 13.25 42.5672 13.25 42.5752C13.25 42.5832 13.25 42.5913 13.25 42.5993C13.25 42.6073 13.25 42.6154 13.25 42.6234C13.25 42.6314 13.25 42.6395 13.25 42.6475C13.25 42.6555 13.25 42.6636 13.25 42.6716C13.25 42.6797 13.25 42.6877 13.25 42.6958C13.25 42.7038 13.25 42.7119 13.25 42.7199C13.25 42.728 13.25 42.736 13.25 42.7441C13.25 42.7522 13.25 42.7602 13.25 42.7683C13.25 42.7764 13.25 42.7844 13.25 42.7925C13.25 42.8006 13.25 42.8086 13.25 42.8167C13.25 42.8248 13.25 42.8329 13.25 42.8409C13.25 42.849 13.25 42.8571 13.25 42.8652C13.25 42.8733 13.25 42.8814 13.25 42.8894C13.25 42.8975 13.25 42.9056 13.25 42.9137C13.25 42.9218 13.25 42.9299 13.25 42.938C13.25 42.9461 13.25 42.9542 13.25 42.9622C13.25 42.9703 13.25 42.9784 13.25 42.9865C13.25 42.9946 13.25 43.0027 13.25 43.0108C13.25 43.0189 13.25 43.027 13.25 43.0351C13.25 43.0432 13.25 43.0513 13.25 43.0594C13.25 43.0675 13.25 43.0757 13.25 43.0838C13.25 43.0919 13.25 43.1 13.25 43.1081C13.25 43.1162 13.25 43.1243 13.25 43.1324C13.25 43.1405 13.25 43.1486 13.25 43.1567C13.25 43.1648 13.25 43.1729 13.25 43.1811C13.25 43.1892 13.25 43.1973 13.25 43.2054C13.25 43.2135 13.25 43.2216 13.25 43.2297C13.25 43.2378 13.25 43.2459 13.25 43.254C13.25 43.2622 13.25 43.2703 13.25 43.2784C13.25 43.2865 13.25 43.2946 13.25 43.3027C13.25 43.3108 13.25 43.3189 13.25 43.327C13.25 43.3351 13.25 43.3433 13.25 43.3514C13.25 43.3595 13.25 43.3676 13.25 43.3757C13.25 43.3838 13.25 43.3919 13.25 43.4C13.25 43.4081 13.25 43.4162 13.25 43.4243C13.25 43.4324 13.25 43.4405 13.25 43.4486C13.25 43.4567 13.25 43.4648 13.25 43.4729C13.25 43.481 13.25 43.4891 13.25 43.4972C13.25 43.5053 13.25 43.5134 13.25 43.5215C13.25 43.5296 13.25 43.5377 13.25 43.5458C13.25 43.5539 13.25 43.562 13.25 43.5701C13.25 43.5782 13.25 43.5862 13.25 43.5943C13.25 43.6024 13.25 43.6105 13.25 43.6186C13.25 43.6267 13.25 43.6347 13.25 43.6428C13.25 43.6509 13.25 43.659 13.25 43.667C13.25 43.6751 13.25 43.6832 13.25 43.6913C13.25 43.6993 13.25 43.7074 13.25 43.7155C13.25 43.7235 13.25 43.7316 13.25 43.7397C13.25 43.7477 13.25 43.7558 13.25 43.7638C13.25 43.7719 13.25 43.7799 13.25 43.788C13.25 43.796 13.25 43.8041 13.25 43.8121C13.25 43.8202 13.25 43.8282 13.25 43.8363C13.25 43.8443 13.25 43.8523 13.25 43.8604C13.25 43.8684 13.25 43.8764 13.25 43.8845C13.25 43.8925 13.25 43.9005 13.25 43.9085C13.25 43.9166 13.25 43.9246 13.25 43.9326C13.25 43.9406 13.25 43.9486 13.25 43.9566C13.25 43.9646 13.25 43.9726 13.25 43.9806C13.25 43.9886 13.25 43.9966 13.25 44.0046C13.25 44.0126 13.25 44.0206 13.25 44.0286C13.25 44.0366 13.25 44.0446 13.25 44.0526C13.25 44.0605 13.25 44.0685 13.25 44.0765C13.25 44.0844 13.25 44.0924 13.25 44.1004C13.25 44.1083 13.25 44.1163 13.25 44.1243C13.25 44.1322 13.25 44.1402 13.25 44.1481C13.25 44.156 13.25 44.164 13.25 44.1719C13.25 44.1799 13.25 44.1878 13.25 44.1957C13.25 44.2036 13.25 44.2116 13.25 44.2195C13.25 44.2274 13.25 44.2353 13.25 44.2432C13.25 44.2511 13.25 44.259 13.25 44.2669C13.25 44.2748 13.25 44.2827 13.25 44.2906C13.25 44.2985 13.25 44.3064 13.25 44.3143C13.25 44.3221 13.25 44.33 13.25 44.3379C13.25 44.3457 13.25 44.3536 13.25 44.3615C13.25 44.3693 13.25 44.3772 13.25 44.385C13.25 44.3929 13.25 44.4007 13.25 44.4085C13.25 44.4164 13.25 44.4242 13.25 44.432C13.25 44.4398 13.25 44.4477 13.25 44.4555C13.25 44.4633 13.25 44.4711 13.25 44.4789C13.25 44.4867 13.25 44.4945 13.25 44.5023C13.25 44.51 13.25 44.5178 13.25 44.5256C13.25 44.5334 13.25 44.5411 13.25 44.5489C13.25 44.5567 13.25 44.5644 13.25 44.5722C13.25 44.5799 13.25 44.5877 13.25 44.5954C13.25 44.6031 13.25 44.6108 13.25 44.6186C13.25 44.6263 13.25 44.634 13.25 44.6417C13.25 44.6494 13.25 44.6571 13.25 44.6648C13.25 44.6725 13.25 44.6802 13.25 44.6879C13.25 44.6956 13.25 44.7032 13.25 44.7109C13.25 44.7186 13.25 44.7262 13.25 44.7339C13.25 44.7415 13.25 44.7492 13.25 44.7568C13.25 44.7644 13.25 44.7721 13.25 44.7797C13.25 44.7873 13.25 44.7949 13.25 44.8025C13.25 44.8101 13.25 44.8177 13.25 44.8253C13.25 44.8329 13.25 44.8405 13.25 44.8481C13.25 44.8556 13.25 44.8632 13.25 44.8708C13.25 44.8783 13.25 44.8859 13.25 44.8934C13.25 44.901 13.25 44.9085 13.25 44.916C13.25 44.9235 13.25 44.9311 13.25 44.9386C13.25 44.9461 13.25 44.9536 13.25 44.9611C13.25 44.9686 13.25 44.976 13.25 44.9835C13.25 44.991 13.25 44.9985 13.25 45.0059C13.25 45.0134 13.25 45.0208 13.25 45.0283C13.25 45.0357 13.25 45.0431 13.25 45.0506C13.25 45.058 13.25 45.0654 13.25 45.0728C13.25 45.0802 13.25 45.0876 13.25 45.095C13.25 45.1024 13.25 45.1097 13.25 45.1171C13.25 45.1245 13.25 45.1318 13.25 45.1392C13.25 45.1465 13.25 45.1539 13.25 45.1612C13.25 45.1685 13.25 45.1758 13.25 45.1832C13.25 45.1905 13.25 45.1978 13.25 45.2051C13.25 45.2123 13.25 45.2196 13.25 45.2269C13.25 45.2342 13.25 45.2414 13.25 45.2487C13.25 45.2559 13.25 45.2632 13.25 45.2704C13.25 45.2776 13.25 45.2848 13.25 45.292C13.25 45.2993 13.25 45.3065 13.25 45.3136C13.25 45.3208 13.25 45.328 13.25 45.3352C13.25 45.3424 13.25 45.3495 13.25 45.3567C13.25 45.3638 13.25 45.3709 13.25 45.3781C13.25 45.3852 13.25 45.3923 13.25 45.3994C13.25 45.4065 13.25 45.4136 13.25 45.4207C13.25 45.4278 13.25 45.4348 13.25 45.4419C13.25 45.449 13.25 45.456 13.25 45.463C13.25 45.4701 13.25 45.4771 13.25 45.4841C13.25 45.4911 13.25 45.4981 13.25 45.5051C13.25 45.5121 13.25 45.5191 13.25 45.5261C13.25 45.533 13.25 45.54 13.25 45.5469C13.25 45.5539 13.25 45.5608 13.25 45.5677C13.25 45.5747 13.25 45.5816 13.25 45.5885C13.25 45.5954 13.25 45.6023 13.25 45.6091C13.25 45.616 13.25 45.6229 13.25 45.6297C13.25 45.6366 13.25 45.6434 13.25 45.6502C13.25 45.6571 13.25 45.6639 13.25 45.6707C13.25 45.6775 13.25 45.6843 13.25 45.691C13.25 45.6978 13.25 45.7046 13.25 45.7113C13.25 45.7181 13.25 45.7248 13.25 45.7315C13.25 45.7383 13.25 45.745 13.25 45.7517C13.25 45.7584 13.25 45.7651 13.25 45.7717C13.25 45.7784 13.25 45.7851 13.25 45.7917C13.25 45.7984 13.25 45.805 13.25 45.8116C13.25 45.8182 13.25 45.8248 13.25 45.8314C13.25 45.838 13.25 45.8446 13.25 45.8512C13.25 45.8577 13.25 45.8643 13.25 45.8708C13.25 45.8774 13.25 45.8839 13.25 45.8904C13.25 45.8969 13.25 45.9034 13.25 45.9099C13.25 45.9164 13.25 45.9229 13.25 45.9293C13.25 45.9358 13.25 45.9422 13.25 45.9487C13.25 45.9551 13.25 45.9615 13.25 45.9679C13.25 45.9743 13.25 45.9807 13.25 45.9871C13.25 45.9935 13.25 45.9998 13.25 46.0062C13.25 46.0125 13.25 46.0188 13.25 46.0251C13.25 46.0315 13.25 46.0378 13.25 46.044C13.25 46.0503 13.25 46.0566 13.25 46.0629C13.25 46.0691 13.25 46.0754 13.25 46.0816C13.25 46.0878 13.25 46.094 13.25 46.1002C13.25 46.1064 13.25 46.1126 13.25 46.1188C13.25 46.1249 13.25 46.1311 13.25 46.1372C13.25 46.1434 13.25 46.1495 13.25 46.1556C13.25 46.1617 13.25 46.1678 13.25 46.1739C13.25 46.1799 13.25 46.186 13.25 46.192C13.25 46.1981 13.25 46.2041 13.25 46.2101C13.25 46.2161 13.25 46.2221 13.25 46.2281C13.25 46.2341 13.25 46.2401 13.25 46.246C13.25 46.252 13.25 46.2579 13.25 46.2638C13.25 46.2697 13.25 46.2756 13.25 46.2815C13.25 46.2874 13.25 46.2933 13.25 46.2991C13.25 46.305 13.25 46.3108 13.25 46.3166C13.25 46.3225 13.25 46.3283 13.25 46.3341C13.25 46.3398 13.25 46.3456 13.25 46.3514C13.25 46.3571 13.25 46.3629 13.25 46.3686C13.25 46.3743 13.25 46.38 13.25 46.3857C13.25 46.3914 13.25 46.397 13.25 46.4027C13.25 46.4084 13.25 46.414 13.25 46.4196C13.25 46.4252 13.25 46.4308 13.25 46.4364C13.25 46.442 13.25 46.4476 13.25 46.4531C13.25 46.4587 13.25 46.4642 13.25 46.4697C13.25 46.4752 13.25 46.4807 13.25 46.4862C13.25 46.4917 13.25 46.4972 13.25 46.5026C13.25 46.508 13.25 46.5135 13.25 46.5189C13.25 46.5243 13.25 46.5297 13.25 46.535C13.25 46.5404 13.25 46.5458 13.25 46.5511C13.25 46.5565 13.25 46.5618 13.25 46.5671C13.25 46.5724 13.25 46.5777 13.25 46.5829C13.25 46.5882 13.25 46.5934 13.25 46.5987C13.25 46.6039 13.25 46.6091 13.25 46.6143C13.25 46.6195 13.25 46.6247 13.25 46.6298C13.25 46.635 13.25 46.6401 13.25 46.6452C13.25 46.6503 13.25 46.6554 13.25 46.6605C13.25 46.6656 13.25 46.6706 13.25 46.6757C13.25 46.6807 13.25 46.6857 13.25 46.6907C13.25 46.6958 13.25 46.7007 13.25 46.7057C13.25 46.7107 13.25 46.7156 13.25 46.7205C13.25 46.7255 13.25 46.7304 13.25 46.7353C13.25 46.7401 13.25 46.745 13.25 46.7499C13.25 46.7547 13.25 46.7595 13.25 46.7643C13.25 46.7691 13.25 46.7739 13.25 46.7787C13.25 46.7835 13.25 46.7882 13.25 46.7929C13.25 46.7977 13.25 46.8024 13.25 46.8071C13.25 46.8118 13.25 46.8164 13.25 46.8211C13.25 46.8257 13.25 46.8304 13.25 46.835C13.25 46.8396 13.25 46.8442 13.25 46.8487C13.25 46.8533 13.25 46.8578 13.25 46.8624C13.25 46.8669 13.25 46.8714 13.25 46.8759C13.25 46.8804 13.25 46.8848 13.25 46.8893C13.25 46.8937 13.25 46.8982 13.25 46.9026C13.25 46.907 13.25 46.9113 13.25 46.9157C13.25 46.9201 13.25 46.9244 13.25 46.9287C13.25 46.933 13.25 46.9373 13.25 46.9416C13.25 46.9459 13.25 46.9501 13.25 46.9544C13.25 46.9586 13.25 46.9628 13.25 46.967C13.25 46.9712 13.25 46.9754 13.25 46.9795C13.25 46.9837 13.25 46.9878 13.25 46.9919C13.25 46.996 13.25 47.0001 13.25 47.0041C13.25 47.0082 13.25 47.0122 13.25 47.0163C13.25 47.0203 13.25 47.0243 13.25 47.0282C13.25 47.0322 13.25 47.0362 13.25 47.0401C13.25 47.044 13.25 47.0479 13.25 47.0518C13.25 47.0557 13.25 47.0596 13.25 47.0634C13.25 47.0672 13.25 47.0711 13.25 47.0748C13.25 47.0786 13.25 47.0824 13.25 47.0862C13.25 47.0899 13.25 47.0936 13.25 47.0973C13.25 47.101 13.25 47.1047 13.25 47.1084C13.25 47.112 13.25 47.1157 13.25 47.1193C13.25 47.1229 13.25 47.1265 13.25 47.1301C13.25 47.1336 13.25 47.1372 13.25 47.1407C13.25 47.1442 13.25 47.1477 13.25 47.1512C13.25 47.1546 13.25 47.1581 13.25 47.1615C13.25 47.1649 13.25 47.1684 13.25 47.1717C13.25 47.1751 13.25 47.1785 13.25 47.1818C13.25 47.1851 13.25 47.1884 13.25 47.1917C13.25 47.195 13.25 47.1983 13.25 47.2015C13.25 47.2047 13.25 47.2079 13.25 47.2111C13.25 47.2143 13.25 47.2175 13.25 47.2206C13.25 47.2238 13.25 47.2269 13.25 47.23C13.25 47.2331 13.25 47.2361 13.25 47.2392C13.25 47.2422 13.25 47.2452 13.25 47.2482C13.25 47.2512 13.25 47.2542 13.25 47.2571C13.25 47.2601 13.25 47.263 13.25 47.2659C13.25 47.2688 13.25 47.2717 13.25 47.2745C13.25 47.2774 13.25 47.2802 13.25 47.283C13.25 47.2858 13.25 47.2885 13.25 47.2913C13.25 47.294 13.25 47.2967 13.25 47.2994C13.25 47.3021 13.25 47.3048 13.25 47.3075C13.25 47.3101 13.25 47.3127 13.25 47.3153C13.25 47.3179 13.25 47.3205 13.25 47.323C13.25 47.3256 13.25 47.3281 13.25 47.3306C13.25 47.3331 13.25 47.3355 13.25 47.338C13.25 47.3404 13.25 47.3428 13.25 47.3452C13.25 47.3476 13.25 47.35 13.25 47.3523C13.25 47.3546 13.25 47.3569 13.25 47.3592C13.25 47.3615 13.25 47.3638 13.25 47.366C13.25 47.3682 13.25 47.3704 13.25 47.3726C13.25 47.3748 13.25 47.3769 13.25 47.3791C13.25 47.3812 13.25 47.3833 13.25 47.3854C13.25 47.3874 13.25 47.3895 13.25 47.3915C13.25 47.3935 13.25 47.3955 13.25 47.3975C13.25 47.3994 13.25 47.4014 13.25 47.4033C13.25 47.4052 13.25 47.4071 13.25 47.4089C13.25 47.4108 13.25 47.4126 13.25 47.4144C13.25 47.4162 13.25 47.418 13.25 47.4198C13.25 47.4215 13.25 47.4232 13.25 47.4249C13.25 47.4266 13.25 47.4283 13.25 47.4299C13.25 47.4315 13.25 47.4332 13.25 47.4347C13.25 47.4363 13.25 47.4379 13.25 47.4394C13.25 47.4409 13.25 47.4424 13.25 47.4439C13.25 47.4454 13.25 47.4468 13.25 47.4482C13.25 47.4496 13.25 47.451 13.25 47.4524C13.25 47.4538 13.25 47.4551 13.25 47.4564C13.25 47.4577 13.25 47.459 13.25 47.4602C13.25 47.4615 13.25 47.4627 13.25 47.4639C13.25 47.4651 13.25 47.4662 13.25 47.4673C13.25 47.4685 13.25 47.4696 13.25 47.4707C13.25 47.4717 13.25 47.4728 13.25 47.4738C13.25 47.4748 13.25 47.4758 13.25 47.4768C13.25 47.4777 13.25 47.4786 13.25 47.4795C13.25 47.4804 13.25 47.4813 13.25 47.4822C13.25 47.483 13.25 47.4838 13.25 47.4846C13.25 47.4854 13.25 47.4861 13.25 47.4869C13.25 47.4876 13.25 47.4883 13.25 47.4889C13.25 47.4896 13.25 47.4902 13.25 47.4908C13.25 47.4915 13.25 47.492 13.25 47.4926C13.25 47.4931 13.25 47.4936 13.25 47.4941C13.25 47.4946 13.25 47.4951 13.25 47.4955C13.25 47.4959 13.25 47.4963 13.25 47.4967C13.25 47.4971 13.25 47.4974 13.25 47.4977C13.25 47.498 13.25 47.4983 13.25 47.4985C13.25 47.4988 13.25 47.499 13.25 47.4992C13.25 47.4994 13.25 47.4995 13.25 47.4996C13.25 47.4998 13.25 47.4998 13.25 47.4999C13.25 47.5 13.25 47.5 14 47.5C14.75 47.5 14.75 47.5 14.75 47.4999C14.75 47.4998 14.75 47.4998 14.75 47.4996C14.75 47.4995 14.75 47.4994 14.75 47.4992C14.75 47.499 14.75 47.4988 14.75 47.4985C14.75 47.4983 14.75 47.498 14.75 47.4977C14.75 47.4974 14.75 47.4971 14.75 47.4967C14.75 47.4963 14.75 47.4959 14.75 47.4955C14.75 47.4951 14.75 47.4946 14.75 47.4941C14.75 47.4936 14.75 47.4931 14.75 47.4926C14.75 47.492 14.75 47.4915 14.75 47.4908C14.75 47.4902 14.75 47.4896 14.75 47.4889C14.75 47.4883 14.75 47.4876 14.75 47.4869C14.75 47.4861 14.75 47.4854 14.75 47.4846C14.75 47.4838 14.75 47.483 14.75 47.4822C14.75 47.4813 14.75 47.4804 14.75 47.4795C14.75 47.4786 14.75 47.4777 14.75 47.4768C14.75 47.4758 14.75 47.4748 14.75 47.4738C14.75 47.4728 14.75 47.4717 14.75 47.4707C14.75 47.4696 14.75 47.4685 14.75 47.4673C14.75 47.4662 14.75 47.4651 14.75 47.4639C14.75 47.4627 14.75 47.4615 14.75 47.4602C14.75 47.459 14.75 47.4577 14.75 47.4564C14.75 47.4551 14.75 47.4538 14.75 47.4524C14.75 47.451 14.75 47.4496 14.75 47.4482C14.75 47.4468 14.75 47.4454 14.75 47.4439C14.75 47.4424 14.75 47.4409 14.75 47.4394C14.75 47.4379 14.75 47.4363 14.75 47.4347C14.75 47.4332 14.75 47.4315 14.75 47.4299C14.75 47.4283 14.75 47.4266 14.75 47.4249C14.75 47.4232 14.75 47.4215 14.75 47.4198C14.75 47.418 14.75 47.4162 14.75 47.4144C14.75 47.4126 14.75 47.4108 14.75 47.4089C14.75 47.4071 14.75 47.4052 14.75 47.4033C14.75 47.4014 14.75 47.3994 14.75 47.3975C14.75 47.3955 14.75 47.3935 14.75 47.3915C14.75 47.3895 14.75 47.3874 14.75 47.3854C14.75 47.3833 14.75 47.3812 14.75 47.3791C14.75 47.3769 14.75 47.3748 14.75 47.3726C14.75 47.3704 14.75 47.3682 14.75 47.366C14.75 47.3638 14.75 47.3615 14.75 47.3592C14.75 47.3569 14.75 47.3546 14.75 47.3523C14.75 47.35 14.75 47.3476 14.75 47.3452C14.75 47.3428 14.75 47.3404 14.75 47.338C14.75 47.3355 14.75 47.3331 14.75 47.3306C14.75 47.3281 14.75 47.3256 14.75 47.323C14.75 47.3205 14.75 47.3179 14.75 47.3153C14.75 47.3127 14.75 47.3101 14.75 47.3075C14.75 47.3048 14.75 47.3021 14.75 47.2994C14.75 47.2967 14.75 47.294 14.75 47.2913C14.75 47.2885 14.75 47.2858 14.75 47.283C14.75 47.2802 14.75 47.2774 14.75 47.2745C14.75 47.2717 14.75 47.2688 14.75 47.2659C14.75 47.263 14.75 47.2601 14.75 47.2571C14.75 47.2542 14.75 47.2512 14.75 47.2482C14.75 47.2452 14.75 47.2422 14.75 47.2392C14.75 47.2361 14.75 47.2331 14.75 47.23C14.75 47.2269 14.75 47.2238 14.75 47.2206C14.75 47.2175 14.75 47.2143 14.75 47.2111C14.75 47.2079 14.75 47.2047 14.75 47.2015C14.75 47.1983 14.75 47.195 14.75 47.1917C14.75 47.1884 14.75 47.1851 14.75 47.1818C14.75 47.1785 14.75 47.1751 14.75 47.1717C14.75 47.1684 14.75 47.1649 14.75 47.1615C14.75 47.1581 14.75 47.1546 14.75 47.1512C14.75 47.1477 14.75 47.1442 14.75 47.1407C14.75 47.1372 14.75 47.1336 14.75 47.1301C14.75 47.1265 14.75 47.1229 14.75 47.1193C14.75 47.1157 14.75 47.112 14.75 47.1084C14.75 47.1047 14.75 47.101 14.75 47.0973C14.75 47.0936 14.75 47.0899 14.75 47.0862C14.75 47.0824 14.75 47.0786 14.75 47.0748C14.75 47.0711 14.75 47.0672 14.75 47.0634C14.75 47.0596 14.75 47.0557 14.75 47.0518C14.75 47.0479 14.75 47.044 14.75 47.0401C14.75 47.0362 14.75 47.0322 14.75 47.0282C14.75 47.0243 14.75 47.0203 14.75 47.0163C14.75 47.0122 14.75 47.0082 14.75 47.0041C14.75 47.0001 14.75 46.996 14.75 46.9919C14.75 46.9878 14.75 46.9837 14.75 46.9795C14.75 46.9754 14.75 46.9712 14.75 46.967C14.75 46.9628 14.75 46.9586 14.75 46.9544C14.75 46.9501 14.75 46.9459 14.75 46.9416C14.75 46.9373 14.75 46.933 14.75 46.9287C14.75 46.9244 14.75 46.9201 14.75 46.9157C14.75 46.9113 14.75 46.907 14.75 46.9026C14.75 46.8982 14.75 46.8937 14.75 46.8893C14.75 46.8848 14.75 46.8804 14.75 46.8759C14.75 46.8714 14.75 46.8669 14.75 46.8624C14.75 46.8578 14.75 46.8533 14.75 46.8487C14.75 46.8442 14.75 46.8396 14.75 46.835C14.75 46.8304 14.75 46.8257 14.75 46.8211C14.75 46.8164 14.75 46.8118 14.75 46.8071C14.75 46.8024 14.75 46.7977 14.75 46.7929C14.75 46.7882 14.75 46.7835 14.75 46.7787C14.75 46.7739 14.75 46.7691 14.75 46.7643C14.75 46.7595 14.75 46.7547 14.75 46.7499C14.75 46.745 14.75 46.7401 14.75 46.7353C14.75 46.7304 14.75 46.7255 14.75 46.7205C14.75 46.7156 14.75 46.7107 14.75 46.7057C14.75 46.7007 14.75 46.6958 14.75 46.6907C14.75 46.6857 14.75 46.6807 14.75 46.6757C14.75 46.6706 14.75 46.6656 14.75 46.6605C14.75 46.6554 14.75 46.6503 14.75 46.6452C14.75 46.6401 14.75 46.635 14.75 46.6298C14.75 46.6247 14.75 46.6195 14.75 46.6143C14.75 46.6091 14.75 46.6039 14.75 46.5987C14.75 46.5934 14.75 46.5882 14.75 46.5829C14.75 46.5777 14.75 46.5724 14.75 46.5671C14.75 46.5618 14.75 46.5565 14.75 46.5511C14.75 46.5458 14.75 46.5404 14.75 46.535C14.75 46.5297 14.75 46.5243 14.75 46.5189C14.75 46.5135 14.75 46.508 14.75 46.5026C14.75 46.4972 14.75 46.4917 14.75 46.4862C14.75 46.4807 14.75 46.4752 14.75 46.4697C14.75 46.4642 14.75 46.4587 14.75 46.4531C14.75 46.4476 14.75 46.442 14.75 46.4364C14.75 46.4308 14.75 46.4252 14.75 46.4196C14.75 46.414 14.75 46.4084 14.75 46.4027C14.75 46.397 14.75 46.3914 14.75 46.3857C14.75 46.38 14.75 46.3743 14.75 46.3686C14.75 46.3629 14.75 46.3571 14.75 46.3514C14.75 46.3456 14.75 46.3398 14.75 46.3341C14.75 46.3283 14.75 46.3225 14.75 46.3166C14.75 46.3108 14.75 46.305 14.75 46.2991C14.75 46.2933 14.75 46.2874 14.75 46.2815C14.75 46.2756 14.75 46.2697 14.75 46.2638C14.75 46.2579 14.75 46.252 14.75 46.246C14.75 46.2401 14.75 46.2341 14.75 46.2281C14.75 46.2221 14.75 46.2161 14.75 46.2101C14.75 46.2041 14.75 46.1981 14.75 46.192C14.75 46.186 14.75 46.1799 14.75 46.1739C14.75 46.1678 14.75 46.1617 14.75 46.1556C14.75 46.1495 14.75 46.1434 14.75 46.1372C14.75 46.1311 14.75 46.1249 14.75 46.1188C14.75 46.1126 14.75 46.1064 14.75 46.1002C14.75 46.094 14.75 46.0878 14.75 46.0816C14.75 46.0754 14.75 46.0691 14.75 46.0629C14.75 46.0566 14.75 46.0503 14.75 46.044C14.75 46.0378 14.75 46.0315 14.75 46.0251C14.75 46.0188 14.75 46.0125 14.75 46.0062C14.75 45.9998 14.75 45.9935 14.75 45.9871C14.75 45.9807 14.75 45.9743 14.75 45.9679C14.75 45.9615 14.75 45.9551 14.75 45.9487C14.75 45.9422 14.75 45.9358 14.75 45.9293C14.75 45.9229 14.75 45.9164 14.75 45.9099C14.75 45.9034 14.75 45.8969 14.75 45.8904C14.75 45.8839 14.75 45.8774 14.75 45.8708C14.75 45.8643 14.75 45.8577 14.75 45.8512C14.75 45.8446 14.75 45.838 14.75 45.8314C14.75 45.8248 14.75 45.8182 14.75 45.8116C14.75 45.805 14.75 45.7984 14.75 45.7917C14.75 45.7851 14.75 45.7784 14.75 45.7717C14.75 45.7651 14.75 45.7584 14.75 45.7517C14.75 45.745 14.75 45.7383 14.75 45.7315C14.75 45.7248 14.75 45.7181 14.75 45.7113C14.75 45.7046 14.75 45.6978 14.75 45.691C14.75 45.6843 14.75 45.6775 14.75 45.6707C14.75 45.6639 14.75 45.6571 14.75 45.6502C14.75 45.6434 14.75 45.6366 14.75 45.6297C14.75 45.6229 14.75 45.616 14.75 45.6091C14.75 45.6023 14.75 45.5954 14.75 45.5885C14.75 45.5816 14.75 45.5747 14.75 45.5677C14.75 45.5608 14.75 45.5539 14.75 45.5469C14.75 45.54 14.75 45.533 14.75 45.5261C14.75 45.5191 14.75 45.5121 14.75 45.5051C14.75 45.4981 14.75 45.4911 14.75 45.4841C14.75 45.4771 14.75 45.4701 14.75 45.463C14.75 45.456 14.75 45.449 14.75 45.4419C14.75 45.4348 14.75 45.4278 14.75 45.4207C14.75 45.4136 14.75 45.4065 14.75 45.3994C14.75 45.3923 14.75 45.3852 14.75 45.3781C14.75 45.3709 14.75 45.3638 14.75 45.3567C14.75 45.3495 14.75 45.3424 14.75 45.3352C14.75 45.328 14.75 45.3208 14.75 45.3136C14.75 45.3065 14.75 45.2993 14.75 45.292C14.75 45.2848 14.75 45.2776 14.75 45.2704C14.75 45.2632 14.75 45.2559 14.75 45.2487C14.75 45.2414 14.75 45.2342 14.75 45.2269C14.75 45.2196 14.75 45.2123 14.75 45.2051C14.75 45.1978 14.75 45.1905 14.75 45.1832C14.75 45.1758 14.75 45.1685 14.75 45.1612C14.75 45.1539 14.75 45.1465 14.75 45.1392C14.75 45.1318 14.75 45.1245 14.75 45.1171C14.75 45.1097 14.75 45.1024 14.75 45.095C14.75 45.0876 14.75 45.0802 14.75 45.0728C14.75 45.0654 14.75 45.058 14.75 45.0506C14.75 45.0431 14.75 45.0357 14.75 45.0283C14.75 45.0208 14.75 45.0134 14.75 45.0059C14.75 44.9985 14.75 44.991 14.75 44.9835C14.75 44.976 14.75 44.9686 14.75 44.9611C14.75 44.9536 14.75 44.9461 14.75 44.9386C14.75 44.9311 14.75 44.9235 14.75 44.916C14.75 44.9085 14.75 44.901 14.75 44.8934C14.75 44.8859 14.75 44.8783 14.75 44.8708C14.75 44.8632 14.75 44.8556 14.75 44.8481C14.75 44.8405 14.75 44.8329 14.75 44.8253C14.75 44.8177 14.75 44.8101 14.75 44.8025C14.75 44.7949 14.75 44.7873 14.75 44.7797C14.75 44.7721 14.75 44.7644 14.75 44.7568C14.75 44.7492 14.75 44.7415 14.75 44.7339C14.75 44.7262 14.75 44.7186 14.75 44.7109C14.75 44.7032 14.75 44.6956 14.75 44.6879C14.75 44.6802 14.75 44.6725 14.75 44.6648C14.75 44.6571 14.75 44.6494 14.75 44.6417C14.75 44.634 14.75 44.6263 14.75 44.6186C14.75 44.6108 14.75 44.6031 14.75 44.5954C14.75 44.5877 14.75 44.5799 14.75 44.5722C14.75 44.5644 14.75 44.5567 14.75 44.5489C14.75 44.5411 14.75 44.5334 14.75 44.5256C14.75 44.5178 14.75 44.51 14.75 44.5023C14.75 44.4945 14.75 44.4867 14.75 44.4789C14.75 44.4711 14.75 44.4633 14.75 44.4555C14.75 44.4477 14.75 44.4398 14.75 44.432C14.75 44.4242 14.75 44.4164 14.75 44.4085C14.75 44.4007 14.75 44.3929 14.75 44.385C14.75 44.3772 14.75 44.3693 14.75 44.3615C14.75 44.3536 14.75 44.3457 14.75 44.3379C14.75 44.33 14.75 44.3221 14.75 44.3143C14.75 44.3064 14.75 44.2985 14.75 44.2906C14.75 44.2827 14.75 44.2748 14.75 44.2669C14.75 44.259 14.75 44.2511 14.75 44.2432C14.75 44.2353 14.75 44.2274 14.75 44.2195C14.75 44.2116 14.75 44.2036 14.75 44.1957C14.75 44.1878 14.75 44.1799 14.75 44.1719C14.75 44.164 14.75 44.156 14.75 44.1481C14.75 44.1402 14.75 44.1322 14.75 44.1243C14.75 44.1163 14.75 44.1083 14.75 44.1004C14.75 44.0924 14.75 44.0844 14.75 44.0765C14.75 44.0685 14.75 44.0605 14.75 44.0526C14.75 44.0446 14.75 44.0366 14.75 44.0286C14.75 44.0206 14.75 44.0126 14.75 44.0046C14.75 43.9966 14.75 43.9886 14.75 43.9806C14.75 43.9726 14.75 43.9646 14.75 43.9566C14.75 43.9486 14.75 43.9406 14.75 43.9326C14.75 43.9246 14.75 43.9166 14.75 43.9085C14.75 43.9005 14.75 43.8925 14.75 43.8845C14.75 43.8764 14.75 43.8684 14.75 43.8604C14.75 43.8523 14.75 43.8443 14.75 43.8363C14.75 43.8282 14.75 43.8202 14.75 43.8121C14.75 43.8041 14.75 43.796 14.75 43.788C14.75 43.7799 14.75 43.7719 14.75 43.7638C14.75 43.7558 14.75 43.7477 14.75 43.7397C14.75 43.7316 14.75 43.7235 14.75 43.7155C14.75 43.7074 14.75 43.6993 14.75 43.6913C14.75 43.6832 14.75 43.6751 14.75 43.667C14.75 43.659 14.75 43.6509 14.75 43.6428C14.75 43.6347 14.75 43.6267 14.75 43.6186C14.75 43.6105 14.75 43.6024 14.75 43.5943C14.75 43.5862 14.75 43.5782 14.75 43.5701C14.75 43.562 14.75 43.5539 14.75 43.5458C14.75 43.5377 14.75 43.5296 14.75 43.5215C14.75 43.5134 14.75 43.5053 14.75 43.4972C14.75 43.4891 14.75 43.481 14.75 43.4729C14.75 43.4648 14.75 43.4567 14.75 43.4486C14.75 43.4405 14.75 43.4324 14.75 43.4243C14.75 43.4162 14.75 43.4081 14.75 43.4C14.75 43.3919 14.75 43.3838 14.75 43.3757C14.75 43.3676 14.75 43.3595 14.75 43.3514C14.75 43.3433 14.75 43.3351 14.75 43.327C14.75 43.3189 14.75 43.3108 14.75 43.3027C14.75 43.2946 14.75 43.2865 14.75 43.2784C14.75 43.2703 14.75 43.2622 14.75 43.254C14.75 43.2459 14.75 43.2378 14.75 43.2297C14.75 43.2216 14.75 43.2135 14.75 43.2054C14.75 43.1973 14.75 43.1892 14.75 43.1811C14.75 43.1729 14.75 43.1648 14.75 43.1567C14.75 43.1486 14.75 43.1405 14.75 43.1324C14.75 43.1243 14.75 43.1162 14.75 43.1081C14.75 43.1 14.75 43.0919 14.75 43.0838C14.75 43.0757 14.75 43.0675 14.75 43.0594C14.75 43.0513 14.75 43.0432 14.75 43.0351C14.75 43.027 14.75 43.0189 14.75 43.0108C14.75 43.0027 14.75 42.9946 14.75 42.9865C14.75 42.9784 14.75 42.9703 14.75 42.9622C14.75 42.9542 14.75 42.9461 14.75 42.938C14.75 42.9299 14.75 42.9218 14.75 42.9137C14.75 42.9056 14.75 42.8975 14.75 42.8894C14.75 42.8814 14.75 42.8733 14.75 42.8652C14.75 42.8571 14.75 42.849 14.75 42.8409C14.75 42.8329 14.75 42.8248 14.75 42.8167C14.75 42.8086 14.75 42.8006 14.75 42.7925C14.75 42.7844 14.75 42.7764 14.75 42.7683C14.75 42.7602 14.75 42.7522 14.75 42.7441C14.75 42.736 14.75 42.728 14.75 42.7199C14.75 42.7119 14.75 42.7038 14.75 42.6958C14.75 42.6877 14.75 42.6797 14.75 42.6716C14.75 42.6636 14.75 42.6555 14.75 42.6475C14.75 42.6395 14.75 42.6314 14.75 42.6234C14.75 42.6154 14.75 42.6073 14.75 42.5993C14.75 42.5913 14.75 42.5832 14.75 42.5752C14.75 42.5672 14.75 42.5592 14.75 42.5512C14.75 42.5432 14.75 42.5351 14.75 42.5271C14.75 42.5191 14.75 42.5111 14.75 42.5031C14.75 42.4951 14.75 42.4871 14.75 42.4791C14.75 42.4711 14.75 42.4631 14.75 42.4552C14.75 42.4472 14.75 42.4392 14.75 42.4312C14.75 42.4232 14.75 42.4153 14.75 42.4073C14.75 42.3993 14.75 42.3914 14.75 42.3834C14.75 42.3754 14.75 42.3675 14.75 42.3595C14.75 42.3516 14.75 42.3436 14.75 42.3357C14.75 42.3277 14.75 42.3198 14.75 42.3119C14.75 42.3039 14.75 42.296 14.75 42.2881C14.75 42.2801 14.75 42.2722 14.75 42.2643C14.75 42.2564 14.75 42.2485 14.75 42.2406C14.75 42.2327 14.75 42.2247 14.75 42.2169C14.75 42.209 14.75 42.2011 14.75 42.1932C14.75 42.1853 14.75 42.1774 14.75 42.1695C14.75 42.1616 14.75 42.1538 14.75 42.1459C14.75 42.138 14.75 42.1302 14.75 42.1223C14.75 42.1145 14.75 42.1066 14.75 42.0988C14.75 42.0909 14.75 42.0831 14.75 42.0753C14.75 42.0674 14.75 42.0596 14.75 42.0518C14.75 42.044 14.75 42.0361 14.75 42.0283C14.75 42.0205 14.75 42.0127 14.75 42.0049C14.75 41.9971 14.75 41.9893 14.75 41.9815C14.75 41.9738 14.75 41.966 14.75 41.9582C14.75 41.9504 14.75 41.9427 14.75 41.9349C14.75 41.9271 14.75 41.9194 14.75 41.9116C14.75 41.9039 14.75 41.8962 14.75 41.8884C14.75 41.8807 14.75 41.873 14.75 41.8652C14.75 41.8575 14.75 41.8498 14.75 41.8421C14.75 41.8344 14.75 41.8267 14.75 41.819C14.75 41.8113 14.75 41.8036 14.75 41.7959C14.75 41.7883 14.75 41.7806 14.75 41.7729C14.75 41.7653 14.75 41.7576 14.75 41.7499C14.75 41.7423 14.75 41.7346 14.75 41.727C14.75 41.7194 14.75 41.7118 14.75 41.7041C14.75 41.6965 14.75 41.6889 14.75 41.6813C14.75 41.6737 14.75 41.6661 14.75 41.6585C14.75 41.6509 14.75 41.6433 14.75 41.6358C14.75 41.6282 14.75 41.6206 14.75 41.6131C14.75 41.6055 14.75 41.5979 14.75 41.5904C14.75 41.5829 14.75 41.5753 14.75 41.5678C14.75 41.5603 14.75 41.5528 14.75 41.5453C14.75 41.5378 14.75 41.5303 14.75 41.5228C14.75 41.5153 14.75 41.5078 14.75 41.5003C14.75 41.4928 14.75 41.4854 14.75 41.4779C14.75 41.4705 14.75 41.463 14.75 41.4556C14.75 41.4481 14.75 41.4407 14.75 41.4333C14.75 41.4259 14.75 41.4184 14.75 41.411C14.75 41.4036 14.75 41.3962 14.75 41.3889C14.75 41.3815 14.75 41.3741 14.75 41.3667C14.75 41.3594 14.75 41.352 14.75 41.3447C14.75 41.3373 14.75 41.33 14.75 41.3227C14.75 41.3153 14.75 41.308 14.75 41.3007C14.75 41.2934 14.75 41.2861 14.75 41.2788C14.75 41.2715 14.75 41.2642 14.75 41.257C14.75 41.2497 14.75 41.2424 14.75 41.2352C14.75 41.2279 14.75 41.2207 14.75 41.2135C14.75 41.2062 14.75 41.199 14.75 41.1918C14.75 41.1846 14.75 41.1774 14.75 41.1702C14.75 41.163 14.75 41.1558 14.75 41.1487C14.75 41.1415 14.75 41.1344 14.75 41.1272C14.75 41.1201 14.75 41.1129 14.75 41.1058C14.75 41.0987 14.75 41.0916 14.75 41.0845C14.75 41.0774 14.75 41.0703 14.75 41.0632C14.75 41.0561 14.75 41.049 14.75 41.042C14.75 41.0349 14.75 41.0279 14.75 41.0208C14.75 41.0138 14.75 41.0068 14.75 40.9998C14.75 40.9927 14.75 40.9857 14.75 40.9788C14.75 40.9718 14.75 40.9648 14.75 40.9578C14.75 40.9509 14.75 40.9439 14.75 40.937C14.75 40.93 14.75 40.9231 14.75 40.9161C14.75 40.9092 14.75 40.9023 14.75 40.8954C14.75 40.8885 14.75 40.8816 14.75 40.8748C14.75 40.8679 14.75 40.861 14.75 40.8542C14.75 40.8473 14.75 40.8405 14.75 40.8337C14.75 40.8269 14.75 40.82 14.75 40.8132C14.75 40.8064 14.75 40.7997 14.75 40.7929C14.75 40.7861 14.75 40.7793 14.75 40.7726C14.75 40.7658 14.75 40.7591 14.75 40.7524C14.75 40.7457 14.75 40.7389 14.75 40.7322C14.75 40.7255 14.75 40.7189 14.75 40.7122C14.75 40.7055 14.75 40.6989 14.75 40.6922C14.75 40.6856 14.75 40.6789 14.75 40.6723C14.75 40.6657 14.75 40.6591 14.75 40.6525C14.75 40.6459 14.75 40.6393 14.75 40.6328C14.75 40.6262 14.75 40.6196 14.75 40.6131C14.75 40.6066 14.75 40.6 14.75 40.5935C14.75 40.587 14.75 40.5805 14.75 40.574C14.75 40.5675 14.75 40.5611 14.75 40.5546C14.75 40.5481 14.75 40.5417 14.75 40.5353C14.75 40.5289 14.75 40.5224 14.75 40.516C14.75 40.5096 14.75 40.5032 14.75 40.4969C14.75 40.4905 14.75 40.4841 14.75 40.4778C14.75 40.4715 14.75 40.4651 14.75 40.4588C14.75 40.4525 14.75 40.4462 14.75 40.4399C14.75 40.4336 14.75 40.4274 14.75 40.4211C14.75 40.4148 14.75 40.4086 14.75 40.4024C14.75 40.3962 14.75 40.3899 14.75 40.3837C14.75 40.3776 14.75 40.3714 14.75 40.3652C14.75 40.359 14.75 40.3529 14.75 40.3468C14.75 40.3406 14.75 40.3345 14.75 40.3284C14.75 40.3223 14.75 40.3162 14.75 40.3101C14.75 40.304 14.75 40.298 14.75 40.2919C14.75 40.2859 14.75 40.2799 14.75 40.2739C14.75 40.2679 14.75 40.2619 14.75 40.2559C14.75 40.2499 14.75 40.2439 14.75 40.238C14.75 40.232 14.75 40.2261 14.75 40.2202C14.75 40.2143 14.75 40.2084 14.75 40.2025C14.75 40.1966 14.75 40.1907 14.75 40.1849C14.75 40.179 14.75 40.1732 14.75 40.1674C14.75 40.1616 14.75 40.1558 14.75 40.15C14.75 40.1442 14.75 40.1384 14.75 40.1327C14.75 40.1269 14.75 40.1212 14.75 40.1155C14.75 40.1097 14.75 40.104 14.75 40.0983C14.75 40.0927 14.75 40.087 14.75 40.0813C14.75 40.0757 14.75 40.07 14.75 40.0644C14.75 40.0588 14.75 40.0532 14.75 40.0476C14.75 40.042 14.75 40.0365 14.75 40.0309C14.75 40.0254 14.75 40.0199 14.75 40.0143C14.75 40.0088 14.75 40.0033 14.75 39.9979C14.75 39.9924 14.75 39.9869 14.75 39.9815C14.75 39.976 14.75 39.9706 14.75 39.9652C14.75 39.9598 14.75 39.9544 14.75 39.949C14.75 39.9436 14.75 39.9383 14.75 39.933C14.75 39.9276 14.75 39.9223 14.75 39.917C14.75 39.9117 14.75 39.9064 14.75 39.9012C14.75 39.8959 14.75 39.8907 14.75 39.8854C14.75 39.8802 14.75 39.875 14.75 39.8698C14.75 39.8646 14.75 39.8594 14.75 39.8543C14.75 39.8491 14.75 39.844 14.75 39.8389C14.75 39.8338 14.75 39.8287 14.75 39.8236C14.75 39.8185 14.75 39.8135 14.75 39.8084C14.75 39.8034 14.75 39.7984 14.75 39.7934C14.75 39.7884 14.75 39.7834 14.75 39.7784C14.75 39.7735 14.75 39.7685 14.75 39.7636C14.75 39.7587 14.75 39.7538 14.75 39.7489C14.75 39.744 14.75 39.7391 14.75 39.7343C14.75 39.7294 14.75 39.7246 14.75 39.7198C14.75 39.715 14.75 39.7102 14.75 39.7054C14.75 39.7007 14.75 39.6959 14.75 39.6912C14.75 39.6865 14.75 39.6818 14.75 39.6771C14.75 39.6724 14.75 39.6677 14.75 39.6631C14.75 39.6584 14.75 39.6538 14.75 39.6492C14.75 39.6446 14.75 39.64 14.75 39.6354C14.75 39.6309 14.75 39.6263 14.75 39.6218C14.75 39.6173 14.75 39.6128 14.75 39.6083C14.75 39.6038 14.75 39.5993 14.75 39.5949C14.75 39.5904 14.75 39.586 14.75 39.5816C14.75 39.5772 14.75 39.5728 14.75 39.5685C14.75 39.5641 14.75 39.5598 14.75 39.5555C14.75 39.5512 14.75 39.5469 14.75 39.5426C14.75 39.5383 14.75 39.5341 14.75 39.5298C14.75 39.5256 14.75 39.5214 14.75 39.5172C14.75 39.513 14.75 39.5088 14.75 39.5047C14.75 39.5005 14.75 39.4964 14.75 39.4923C14.75 39.4882 14.75 39.4841 14.75 39.4801C14.75 39.476 14.75 39.472 14.75 39.468C14.75 39.464 14.75 39.46 14.75 39.456C14.75 39.452 14.75 39.4481 14.75 39.4441C14.75 39.4402 14.75 39.4363 14.75 39.4324C14.75 39.4285 14.75 39.4247 14.75 39.4208C14.75 39.417 14.75 39.4132 14.75 39.4094C14.75 39.4056 14.75 39.4018 14.75 39.3981C14.75 39.3943 14.75 39.3906 14.75 39.3869C14.75 39.3832 14.75 39.3795 14.75 39.3759C14.75 39.3722 14.75 39.3686 14.75 39.365C14.75 39.3614 14.75 39.3578 14.75 39.3542C14.75 39.3507 14.75 39.3471 14.75 39.3436C14.75 39.3401 14.75 39.3366 14.75 39.3331C14.75 39.3296 14.75 39.3262 14.75 39.3228C14.75 39.3193 14.75 39.3159 14.75 39.3126C14.75 39.3092 14.75 39.3058 14.75 39.3025C14.75 39.2992 14.75 39.2959 14.75 39.2926C14.75 39.2893 14.75 39.286 14.75 39.2828C14.75 39.2796 14.75 39.2764 14.75 39.2732C14.75 39.27 14.75 39.2668 14.75 39.2637C14.75 39.2606 14.75 39.2574 14.75 39.2544C14.75 39.2513 14.75 39.2482 14.75 39.2452C14.75 39.2421 14.75 39.2391 14.75 39.2361C14.75 39.2331 14.75 39.2301 14.75 39.2272C14.75 39.2243 14.75 39.2213 14.75 39.2185C14.75 39.2156 14.75 39.2127 14.75 39.2098C14.75 39.207 14.75 39.2042 14.75 39.2014C14.75 39.1986 14.75 39.1958 14.75 39.1931C14.75 39.1903 14.75 39.1876 14.75 39.1849C14.75 39.1822 14.75 39.1796 14.75 39.1769C14.75 39.1743 14.75 39.1717 14.75 39.1691C14.75 39.1665 14.75 39.1639 14.75 39.1614C14.75 39.1588 14.75 39.1563 14.75 39.1538C14.75 39.1513 14.75 39.1489 14.75 39.1464C14.75 39.144 14.75 39.1416 14.75 39.1392C14.75 39.1368 14.75 39.1345 14.75 39.1321C14.75 39.1298 14.75 39.1275 14.75 39.1252C14.75 39.1229 14.75 39.1207 14.75 39.1184C14.75 39.1162 14.75 39.114 14.75 39.1118C14.75 39.1097 14.75 39.1075 14.75 39.1054C14.75 39.1033 14.75 39.1012 14.75 39.0991C14.75 39.097 14.75 39.095 14.75 39.093C14.75 39.0909 14.75 39.089 14.75 39.087C14.75 39.085 14.75 39.0831 14.75 39.0812C14.75 39.0793 14.75 39.0774 14.75 39.0755C14.75 39.0737 14.75 39.0719 14.75 39.0701C14.75 39.0683 14.75 39.0665 14.75 39.0647C14.75 39.063 14.75 39.0613 14.75 39.0596C14.75 39.0579 14.75 39.0562 14.75 39.0546C14.75 39.0529 14.75 39.0513 14.75 39.0498C14.75 39.0482 14.75 39.0466 14.75 39.0451C14.75 39.0436 14.75 39.0421 14.75 39.0406C14.75 39.0391 14.75 39.0377 14.75 39.0363C14.75 39.0349 14.75 39.0335 14.75 39.0321C14.75 39.0308 14.75 39.0294 14.75 39.0281C14.75 39.0268 14.75 39.0256 14.75 39.0243C14.75 39.0231 14.75 39.0219 14.75 39.0207C14.75 39.0195 14.75 39.0183 14.75 39.0172C14.75 39.0161 14.75 39.015 14.75 39.0139C14.75 39.0128 14.75 39.0118 14.75 39.0108C14.75 39.0098 14.75 39.0088 14.75 39.0078C14.75 39.0069 14.75 39.0059 14.75 39.005C14.75 39.0041 14.75 39.0033 14.75 39.0024C14.75 39.0016 14.75 39.0008 14.75 39H13.25ZM23 49.75H6.5V51.25H23V49.75ZM23.75 50.5V42H22.25V50.5H23.75ZM14 39.75H32V38.25H14V39.75ZM32 39.75H48.5V38.25H32V39.75ZM31.25 39V47.5H32.75V39H31.25ZM48.5 49.75H41V51.25H48.5V49.75ZM41 49.75H23V51.25H41V49.75ZM41.75 50.5V42H40.25V50.5H41.75ZM46.5077 2.25C47.1943 2.25 47.75 2.80588 47.75 3.5H49.25C49.25 1.98498 48.0302 0.75 46.5077 0.75V2.25ZM7.49668 0.75C5.97627 0.75 4.75 1.98284 4.75 3.5H6.25C6.25 2.80802 6.80795 2.25 7.49668 2.25V0.75Z" fill="#FFED00"/>
</svg>
